<?xml version="1.0" encoding="UTF-8"?>
<!DOCTYPE svg PUBLIC "-//W3C//DTD SVG 1.1//EN" "http://www.w3.org/Graphics/SVG/1.1/DTD/svg11.dtd">
<!-- Creator: CorelDRAW -->
<svg xmlns="http://www.w3.org/2000/svg" xml:space="preserve" width="150px" height="150px" version="1.1" style="shape-rendering:geometricPrecision; text-rendering:geometricPrecision; image-rendering:optimizeQuality; fill-rule:evenodd; clip-rule:evenodd"
viewBox="0 0 17.478 17.478"
 xmlns:xlink="http://www.w3.org/1999/xlink"
 xmlns:xodm="http://www.corel.com/coreldraw/odm/2003">
 <defs>
  <style type="text/css">
   <![CDATA[
    .fil1 {fill:#3B492B}
    .fil0 {fill:#EDE3C8}
   ]]>
  </style>
 </defs>
 <g id="Layer_x0020_1">
  <metadata id="CorelCorpID_0Corel-Layer"/>
  <circle class="fil0" cx="8.739" cy="8.739" r="8.739"/>
  <path class="fil1" d="M6.119 7.59c0.407,0.195 0.25,0.395 0.249,1.502 -0.003,3.776 -0.21,3.363 2.086,3.363 0.466,0 1.343,0.049 1.763,-0.018 0.9,-0.145 0.635,-1.479 0.634,-2.971l0.261 -1.222c0.027,0.878 0.037,4.239 -0.083,4.642 -0.539,0.15 -1.853,0.066 -2.482,0.066 -0.756,0 -2.276,0.157 -2.411,-0.23 -0.072,-0.207 -0.019,-4.532 -0.017,-5.132zm5.479 2.867l0.001 -2.982c1.243,-0.009 1.248,0.254 1.247,1.43 -0.002,1.239 0.099,1.565 -1.248,1.552zm-3.804 -3.607c-0.647,-0.036 -0.767,0.692 -1.546,0.247 -0.4,-0.228 -0.591,-0.881 -0.184,-1.326 0.274,-0.3 0.435,-0.179 0.674,-0.359 0.292,-0.221 0.045,-0.305 0.384,-0.555 0.311,-0.229 0.49,-0.064 0.732,-0.013 0.818,0.176 0.788,-0.978 2.19,0.048 0.428,0.313 1.065,-0.214 1,0.714 -0.048,0.687 -0.05,0.228 0.203,0.696 0.459,0.848 -0.694,0.928 -0.764,0.981 -0.2,0.15 0.074,0.594 -0.233,0.676 -0.682,0.183 -0.223,-0.439 -0.469,-1.037 -0.239,-0.583 -1.405,-0.71 -1.425,0.481 -0.018,1.004 0.065,1.256 -0.402,1.024 -0.375,-0.186 -0.047,-1.149 -0.16,-1.577zm3.805 4.107c1.444,0.01 1.747,-0.45 1.745,-1.865 -0.002,-1.349 -0.093,-2.115 -1.542,-2.113 0.101,-0.933 -0.205,-0.776 -0.227,-1.381 -0.047,-1.315 -0.906,-0.964 -1.34,-1.188 -0.25,-0.128 -0.186,-0.213 -0.594,-0.338 -0.598,-0.182 -0.876,-0.069 -1.395,0.144 -0.723,0.297 -0.888,-0.42 -1.729,0.602 -0.557,0.677 -1.514,0.543 -0.964,2.219 0.137,0.417 0.068,3.679 0.068,4.297 0,2.247 -0.738,2.24 4.986,2.122 1.35,-0.028 0.992,-1.259 0.992,-2.499z"/>
 </g>
</svg>
