<?xml version="1.0" encoding="UTF-8"?>
<!DOCTYPE svg PUBLIC "-//W3C//DTD SVG 1.1//EN" "http://www.w3.org/Graphics/SVG/1.1/DTD/svg11.dtd">
<!-- Creator: CorelDRAW -->
<svg xmlns="http://www.w3.org/2000/svg" xml:space="preserve" width="150px" height="150px" version="1.1" style="shape-rendering:geometricPrecision; text-rendering:geometricPrecision; image-rendering:optimizeQuality; fill-rule:evenodd; clip-rule:evenodd"
viewBox="0 0 11.322 11.322"
 xmlns:xlink="http://www.w3.org/1999/xlink"
 xmlns:xodm="http://www.corel.com/coreldraw/odm/2003">
 <defs>
  <style type="text/css">
   <![CDATA[
    .fil2 {fill:#3B492B}
    .fil0 {fill:#EDE3C8}
    .fil1 {fill:#3B492B;fill-rule:nonzero}
   ]]>
  </style>
 </defs>
 <g id="Layer_x0020_1">
  <metadata id="CorelCorpID_0Corel-Layer"/>
  <circle class="fil0" cx="5.661" cy="5.661" r="5.661"/>
  <g id="_2838724697504">
   <g>
    <path class="fil1" d="M7.678 3.072c-0.012,-0.122 -0.026,-0.234 -0.041,-0.329 -0.015,-0.096 -0.03,-0.176 -0.049,-0.239l-0.031 -0.109 -0.113 0 -3.68 0 -0.031 0.109c-0.018,0.063 -0.034,0.143 -0.049,0.239 -0.044,0.286 -0.079,0.715 -0.079,1.149 0,0.13 0.003,0.261 0.01,0.388 0.027,0.48 0.185,0.908 0.329,1.289 0.072,0.191 0.141,0.37 0.191,0.536 0.05,0.166 0.081,0.319 0.08,0.457 0,0.638 0,1.576 0,1.576 0,0.218 0.089,0.416 0.231,0.558 0.143,0.142 0.341,0.231 0.558,0.231l1.313 0c0.218,0 0.416,-0.089 0.558,-0.231 0.143,-0.142 0.231,-0.34 0.231,-0.558 0,0 0,-0.938 0,-1.576 0,-0.138 0.03,-0.291 0.081,-0.457 0.074,-0.25 0.193,-0.527 0.299,-0.831 0.107,-0.303 0.201,-0.634 0.221,-0.994 0.007,-0.127 0.01,-0.258 0.01,-0.388 0,-0.289 -0.016,-0.576 -0.039,-0.82zm-0.271 1.191c-0.023,0.423 -0.166,0.821 -0.31,1.2 -0.072,0.189 -0.143,0.373 -0.198,0.555 -0.055,0.182 -0.093,0.363 -0.093,0.544 0,0.638 0,1.576 0,1.576 0,0.136 -0.055,0.257 -0.143,0.346 -0.089,0.088 -0.21,0.143 -0.346,0.143l-1.313 0c-0.135,0 -0.256,-0.055 -0.345,-0.143 -0.089,-0.089 -0.143,-0.21 -0.143,-0.346 0,0 0,-0.938 0,-1.576 0,-0.182 -0.039,-0.362 -0.093,-0.544 -0.083,-0.272 -0.202,-0.551 -0.304,-0.843 -0.102,-0.291 -0.187,-0.594 -0.204,-0.912 -0.007,-0.12 -0.01,-0.245 -0.01,-0.371 0,-0.278 0.015,-0.557 0.038,-0.792 0.011,-0.117 0.024,-0.223 0.038,-0.311 0.005,-0.034 0.011,-0.066 0.016,-0.094l3.328 0c0.005,0.028 0.01,0.06 0.016,0.094 0.041,0.266 0.076,0.686 0.075,1.103 0,0.126 -0.003,0.251 -0.009,0.371z"/>
    <path class="fil2" d="M4.964 4.134c0.013,0.403 0.097,0.789 0.178,1.163 0.077,0.355 0.15,0.693 0.164,1.04l-0.113 0c-0.021,-0.347 -0.134,-0.685 -0.254,-1.04 -0.125,-0.374 -0.255,-0.76 -0.275,-1.163 -0.006,-0.12 -0.008,-0.243 -0.008,-0.363l-0.45 0c-0.002,0.156 0,0.317 0.009,0.476 0.022,0.403 0.169,0.789 0.311,1.163 0.149,0.393 0.29,0.765 0.29,1.152l0 1.576c0,0.104 0.084,0.188 0.188,0.188l1.313 0c0.104,0 0.188,-0.084 0.188,-0.188l0 -1.576c0,-0.387 0.142,-0.759 0.291,-1.152 0.142,-0.374 0.288,-0.76 0.311,-1.163 0.009,-0.159 0.011,-0.32 0.008,-0.476l-2.156 0c0,0.121 0.001,0.242 0.005,0.363zm1.326 1.264c0,0.083 -0.067,0.15 -0.15,0.15 -0.083,0 -0.15,-0.067 -0.15,-0.15 0,-0.083 0.067,-0.15 0.15,-0.15 0.083,0 0.15,0.067 0.15,0.15zm-0.225 -1.201c0.083,0 0.15,0.067 0.15,0.15 0,0.083 -0.067,0.15 -0.15,0.15 -0.083,0 -0.15,-0.067 -0.15,-0.15 0,-0.083 0.067,-0.15 0.15,-0.15zm-0.263 1.952c0.062,0 0.113,0.05 0.113,0.112 0,0.063 -0.051,0.113 -0.113,0.113 -0.062,0 -0.112,-0.05 -0.112,-0.113 0,-0.062 0.05,-0.112 0.112,-0.112zm0 1.314c0.062,0 0.113,0.05 0.113,0.112 0,0.063 -0.051,0.113 -0.113,0.113 -0.062,0 -0.112,-0.05 -0.112,-0.113 0,-0.062 0.05,-0.112 0.112,-0.112zm-0.45 -0.376c0,0.063 -0.051,0.113 -0.113,0.113 -0.062,0 -0.113,-0.05 -0.113,-0.113 0,-0.062 0.051,-0.112 0.113,-0.112 0.062,0 0.113,0.05 0.113,0.112z"/>
   </g>
  </g>
 </g>
</svg>
