<?xml version="1.0" encoding="UTF-8"?>
<!DOCTYPE svg PUBLIC "-//W3C//DTD SVG 1.1//EN" "http://www.w3.org/Graphics/SVG/1.1/DTD/svg11.dtd">
<!-- Creator: CorelDRAW -->
<svg xmlns="http://www.w3.org/2000/svg" xml:space="preserve" width="150px" height="150px" version="1.1" style="shape-rendering:geometricPrecision; text-rendering:geometricPrecision; image-rendering:optimizeQuality; fill-rule:evenodd; clip-rule:evenodd"
viewBox="0 0 17.478 17.478"
 xmlns:xlink="http://www.w3.org/1999/xlink"
 xmlns:xodm="http://www.corel.com/coreldraw/odm/2003">
 <defs>
  <style type="text/css">
   <![CDATA[
    .fil1 {fill:#3B492B}
    .fil0 {fill:#EDE3C8}
   ]]>
  </style>
 </defs>
 <g id="Layer_x0020_1">
  <metadata id="CorelCorpID_0Corel-Layer"/>
  <circle class="fil0" cx="8.739" cy="8.739" r="8.739"/>
  <path class="fil1" d="M9.972 5.894c-0.232,-0.126 -0.522,-0.337 -0.481,-0.623 0.038,-0.273 0.706,-1.292 1.286,-0.634 0.395,0.448 -0.088,0.52 -0.224,0.559 0.097,0.118 0.244,0.303 0.368,0.367 0.092,0.049 0.354,0.111 0.406,0.157 0.167,0.15 -0.043,0.408 0.543,0.749 0.026,-0.064 -0.023,-0.294 0.236,-0.376 0.245,-0.077 0.916,0.442 0.217,1.138 -0.446,0.445 -0.876,0.402 -1.178,-0.158 0.226,-0.238 0.194,-0.009 0.404,0.002 0.158,0.008 0.283,-0.162 0.213,-0.301 -0.237,-0.477 -0.684,-0.139 -0.742,-0.121 -0.073,-0.406 -0.227,-0.55 -0.629,-0.631 0.009,-0.039 0.367,-0.492 -0.121,-0.743 -0.148,-0.076 -0.31,0.066 -0.304,0.215 0.008,0.198 0.23,0.189 0.006,0.4zm0.036 0.537c-0.187,0.18 -0.217,0.275 -0.441,0.333 -0.276,0.072 -0.217,0.062 -0.285,0.324 -0.054,0.206 -0.653,0.722 -0.852,0.921l-3.664 3.64c-0.21,0.206 -0.706,0.537 -0.334,0.925 0.331,0.345 0.651,-0.104 0.929,-0.399l0.21 0.191 -0.148 0.153 0.369 0.374 0.153 -0.144 0.13 0.123 -0.139 0.149 0.526 0.542 0.261 -0.284 -0.222 -0.237 0.219 -0.235 0.213 0.213 0.191 -0.195 -0.221 -0.224 0.199 -0.216 0.223 0.219 0.276 -0.296c-0.028,-0.08 -0.415,-0.454 -0.5,-0.522 -0.041,0.035 -0.087,0.086 -0.154,0.09l-0.074 -0.075c0.002,-0.007 0.001,-0.023 0.008,-0.021l0.085 -0.132 -0.347 -0.352 -0.131 0.123 -0.191 -0.195c0.737,-0.766 1.509,-1.519 2.261,-2.271 0.37,-0.369 0.754,-0.779 1.133,-1.131 0.198,-0.183 0.45,-0.068 0.507,-0.269 0.104,-0.365 0.026,-0.263 0.351,-0.583 0.108,0.269 0.07,0.38 0.313,0.656 0.212,0.241 0.429,0.36 0.669,0.384 0.46,0.044 0.884,-0.081 1.315,-0.592 0.376,-0.446 0.438,-0.862 0.17,-1.312 -0.135,-0.227 -0.357,-0.467 -0.595,-0.579 -0.337,-0.159 -0.472,-0.101 -0.677,-0.154 -0.07,-0.511 -0.152,-0.896 -0.752,-1.253 -0.45,-0.267 -0.858,-0.294 -1.312,0.039 -0.55,0.404 -0.669,0.841 -0.653,1.297 0.008,0.211 0.104,0.469 0.314,0.653 0.244,0.214 0.532,0.218 0.667,0.322z"/>
 </g>
</svg>
