<?xml version="1.0" encoding="UTF-8"?>
<!DOCTYPE svg PUBLIC "-//W3C//DTD SVG 1.1//EN" "http://www.w3.org/Graphics/SVG/1.1/DTD/svg11.dtd">
<!-- Creator: CorelDRAW -->
<svg xmlns="http://www.w3.org/2000/svg" xml:space="preserve" width="150px" height="150px" version="1.1" style="shape-rendering:geometricPrecision; text-rendering:geometricPrecision; image-rendering:optimizeQuality; fill-rule:evenodd; clip-rule:evenodd"
viewBox="0 0 11.322 11.322"
 xmlns:xlink="http://www.w3.org/1999/xlink"
 xmlns:xodm="http://www.corel.com/coreldraw/odm/2003">
 <defs>
  <style type="text/css">
   <![CDATA[
    .fil1 {fill:#3B492B}
    .fil0 {fill:#EDE3C8}
   ]]>
  </style>
 </defs>
 <g id="Layer_x0020_1">
  <metadata id="CorelCorpID_0Corel-Layer"/>
  <circle class="fil0" cx="5.661" cy="5.661" r="5.661"/>
  <path class="fil1" d="M5.664 3.151c-0.005,0.006 -0.011,0.008 -0.013,0.018l-0.042 0.073c-0.213,0.466 -0.204,0.472 -0.56,0.918 -0.064,0.08 -0.228,0.212 -0.259,0.287 -0.087,0.207 0.152,0.659 0.245,0.793 0.072,0.105 0.422,0.466 0.603,0.474 0.315,0.015 0.998,-0.82 0.878,-1.249 -0.026,-0.094 -0.715,-0.686 -0.852,-1.314zm-1.225 4.833c0.156,-0.092 0.479,-0.527 0.584,-0.794 0.061,-0.154 -0.049,-0.109 -0.212,-0.403 -0.065,-0.116 -0.164,-0.417 -0.215,-0.486 -0.166,0.344 -0.554,0.555 -0.54,0.747 0.028,0.374 0.285,0.725 0.383,0.936zm1.814 -0.88c0.069,0.311 0.435,0.761 0.604,0.878 0.148,-0.246 0.394,-0.65 0.388,-1.037 -0.133,-0.096 -0.443,-0.471 -0.544,-0.643 -0.12,0.145 -0.021,0.25 -0.448,0.802zm-1.039 0.17c-0.063,0.241 -0.281,0.473 -0.332,0.582 0.101,0.253 0.597,0.701 0.757,0.712 0.17,0.012 0.632,-0.417 0.778,-0.712 -0.059,-0.101 -0.125,-0.176 -0.188,-0.283 -0.059,-0.101 -0.104,-0.209 -0.165,-0.301 -0.63,0.406 -0.44,0.145 -0.85,0.002zm1.069 -1.704c-0.053,0.027 -0.423,0.371 -0.626,0.38 -0.159,0.006 -0.446,-0.216 -0.567,-0.324 -0.051,-0.045 -0.009,-0.025 -0.078,-0.055 -0.257,0.408 -0.287,0.535 -0.075,0.985 0.128,0.271 0.499,0.679 0.702,0.695 0.189,0.015 0.578,-0.396 0.713,-0.674 0.052,-0.107 0.16,-0.416 0.156,-0.539 -0.002,-0.061 -0.185,-0.413 -0.225,-0.468zm1.318 1.403c0.186,-0.537 0.382,-0.945 0.381,-1.606l-0.354 -0.127c-0.451,-0.178 -0.568,-0.344 -0.878,-0.576l-0.018 0.036c-0.002,0.004 -0.006,0.014 -0.008,0.019l-0.032 0.123c-0.063,0.251 -0.191,0.397 -0.218,0.487 -0.074,0.242 0.767,1.441 1.127,1.644zm-4.284 -1.606c-0.002,0.396 0.2,1.373 0.399,1.602 0.331,-0.281 0.572,-0.57 0.847,-1.014 0.537,-0.869 0.099,-0.529 0.008,-1.297 -0.202,0.114 -0.318,0.343 -0.885,0.576 -0.118,0.048 -0.274,0.074 -0.369,0.133zm5.049 -0.181c-0.122,-0.585 -0.48,-1.032 -0.878,-1.413 -0.265,-0.252 -1.053,-0.687 -1.612,-0.661 0.091,0.293 0.247,0.517 0.401,0.73 0.158,0.217 0.367,0.406 0.553,0.589 0.358,0.356 0.815,0.693 1.536,0.755zm-5.434 0c0.762,-0.068 1.069,-0.336 1.534,-0.754l0.429 -0.427c0.185,-0.23 0.448,-0.583 0.526,-0.895 -1.075,0.002 -2.237,0.964 -2.489,2.076z"/>
 </g>
</svg>
