<?xml version="1.0" encoding="UTF-8"?>
<!DOCTYPE svg PUBLIC "-//W3C//DTD SVG 1.1//EN" "http://www.w3.org/Graphics/SVG/1.1/DTD/svg11.dtd">
<!-- Creator: CorelDRAW -->
<svg xmlns="http://www.w3.org/2000/svg" xml:space="preserve" width="150px" height="150px" version="1.1" style="shape-rendering:geometricPrecision; text-rendering:geometricPrecision; image-rendering:optimizeQuality; fill-rule:evenodd; clip-rule:evenodd"
viewBox="0 0 13.742 13.742"
 xmlns:xlink="http://www.w3.org/1999/xlink"
 xmlns:xodm="http://www.corel.com/coreldraw/odm/2003">
 <defs>
  <style type="text/css">
   <![CDATA[
    .fil1 {fill:#3B492B}
    .fil0 {fill:#EDE3C8}
   ]]>
  </style>
 </defs>
 <g id="Layer_x0020_1">
  <metadata id="CorelCorpID_0Corel-Layer"/>
  <circle class="fil0" cx="6.871" cy="6.871" r="6.871"/>
  <path class="fil1" d="M5.877 11.325c-0.066,-0.001 -0.092,-0.096 -0.092,-0.27l0.017 -4.446c0.001,-0.28 0.094,-0.656 0.245,-0.623 0.123,0.027 0.042,0.99 0.043,1.326l0.002 3.51c0.002,0.271 0.057,0.509 -0.215,0.503zm0.794 -8.321c0.041,0.02 0.04,0.827 0.04,1.126 0,0.192 0.091,1.061 -0.184,0.957 -0.157,-0.06 -0.04,-0.869 -0.026,-1.048 0.018,-0.222 -0.06,-1.15 0.17,-1.035zm-0.985 8.54c0.526,0.046 1.858,0.017 2.246,0.017 0.409,0 0.384,-0.14 0.38,-0.458 -0.01,-0.825 0.081,-4.541 -0.08,-5.036 -0.273,-0.837 -0.482,-0.467 -0.628,-1.726l-0.125 -1.281c0.01,-0.073 0.13,-0.363 0.015,-0.689 -0.199,-0.279 -0.885,-0.21 -1.127,-0.122 -0.174,0.064 -0.159,0.431 -0.141,0.609 0.014,0.134 0.046,0.082 0.045,0.289 -0.007,2.701 -0.839,2.071 -0.838,3.837 0.001,0.595 -0.05,3.239 0.008,4.208 0.015,0.253 0.034,0.334 0.245,0.352z"/>
 </g>
</svg>
