<?xml version="1.0" encoding="UTF-8"?>
<!DOCTYPE svg PUBLIC "-//W3C//DTD SVG 1.1//EN" "http://www.w3.org/Graphics/SVG/1.1/DTD/svg11.dtd">
<!-- Creator: CorelDRAW -->
<svg xmlns="http://www.w3.org/2000/svg" xml:space="preserve" width="150px" height="150px" version="1.1" style="shape-rendering:geometricPrecision; text-rendering:geometricPrecision; image-rendering:optimizeQuality; fill-rule:evenodd; clip-rule:evenodd"
viewBox="0 0 13.742 13.742"
 xmlns:xlink="http://www.w3.org/1999/xlink"
 xmlns:xodm="http://www.corel.com/coreldraw/odm/2003">
 <defs>
  <style type="text/css">
   <![CDATA[
    .fil1 {fill:#3B492B}
    .fil0 {fill:#EDE3C8}
   ]]>
  </style>
 </defs>
 <g id="Layer_x0020_1">
  <metadata id="CorelCorpID_0Corel-Layer"/>
  <circle class="fil0" cx="6.871" cy="6.871" r="6.871"/>
  <path class="fil1" d="M10.312 3.545c-0.125,0.017 -0.182,0.111 -0.255,0.184 -0.096,0.096 -0.111,0.105 -0.197,0.202 -0.198,0.221 -0.945,0.916 -1.234,1.209 -0.276,0.278 -0.551,0.537 -0.833,0.812l-0.811 0.811c-0.655,0.634 -1.416,1.38 -2.045,2.044 -0.287,0.302 -1.178,1.002 -0.654,1.45 0.181,0.155 0.443,0.091 0.62,-0.018 0.276,-0.17 0.817,-0.877 1.087,-1.157l0.479 -0.543c0.044,-0.046 0.06,-0.074 0.101,-0.122l0.843 -0.978c0.074,-0.083 0.111,-0.132 0.242,-0.159 0.608,-0.125 0.401,-0.015 0.982,-0.662 0.511,-0.568 1.944,-2.518 1.675,-3.073zm-3.855 3.329l0.423 -0.407c-0.361,-0.534 0.043,-0.829 -0.262,-1.233 -0.056,-0.075 -0.133,-0.142 -0.196,-0.205l-0.41 -0.39c-0.09,-0.09 -0.141,-0.117 -0.211,-0.189 -0.18,-0.181 -0.838,-0.713 -1.079,-0.92 -0.061,-0.052 -0.148,-0.15 -0.244,-0.154 -0.101,-0.004 -0.368,0.107 0.004,0.438 0.283,0.252 0.542,0.526 0.829,0.772l0.413 0.386c0.272,0.236 0.019,0.454 -0.159,0.337l-1.204 -1.197c-0.074,-0.073 -0.31,-0.399 -0.481,-0.229 -0.171,0.17 0.147,0.394 0.22,0.469 0.138,0.139 0.262,0.262 0.4,0.4l0.798 0.802c0.137,0.187 -0.092,0.443 -0.318,0.184 -0.126,-0.145 -0.255,-0.269 -0.385,-0.414 -0.127,-0.141 -0.265,-0.271 -0.388,-0.413 -0.067,-0.078 -0.515,-0.583 -0.599,-0.607 -0.135,-0.038 -0.231,0.044 -0.235,0.159 -0.004,0.116 0.244,0.374 0.325,0.468 0.064,0.073 0.122,0.15 0.182,0.218 0.401,0.456 0.702,0.834 1.132,1.268 0.679,0.687 0.807,0.02 1.445,0.457zm2.054 2.287c0.032,0.037 0.047,0.063 0.08,0.1 0.152,0.172 0.747,0.818 0.893,0.928 0.422,0.315 0.852,0.183 0.883,-0.196 0.034,-0.412 -0.402,-0.737 -0.568,-0.898 -0.296,-0.289 -1.01,-0.938 -1.356,-1.22 -0.415,-0.339 -0.328,-0.403 -0.685,-0.336 -0.134,0.026 -0.269,0.226 -0.361,0.343l1.114 1.279z"/>
 </g>
</svg>
