<?xml version="1.0" encoding="UTF-8"?>
<!DOCTYPE svg PUBLIC "-//W3C//DTD SVG 1.1//EN" "http://www.w3.org/Graphics/SVG/1.1/DTD/svg11.dtd">
<!-- Creator: CorelDRAW -->
<svg xmlns="http://www.w3.org/2000/svg" xml:space="preserve" width="120px" height="120px" version="1.1" style="shape-rendering:geometricPrecision; text-rendering:geometricPrecision; image-rendering:optimizeQuality; fill-rule:evenodd; clip-rule:evenodd"
viewBox="0 0 40.476 40.476"
 xmlns:xlink="http://www.w3.org/1999/xlink"
 xmlns:xodm="http://www.corel.com/coreldraw/odm/2003">
 <defs>
  <style type="text/css">
   <![CDATA[
    .fil1 {fill:#ABC284}
    .fil0 {fill:#EDE3C8}
    .fil2 {fill:#FFF799}
    .fil3 {fill:black;fill-rule:nonzero}
   ]]>
  </style>
 </defs>
 <g id="Layer_x0020_1">
  <metadata id="CorelCorpID_0Corel-Layer"/>
  <rect class="fil0" width="40.476" height="40.476"/>
  <path class="fil1" d="M16.178 20.073c-0.972,0.549 -3.341,0.141 -3.341,0.141 -0.313,-0.426 -0.431,-0.427 -0.739,-0.801 -0.578,-0.7 -1.148,-1.806 -2.202,-2.571 -3.398,-1.907 -12.58,10.581 0.841,15.058 0.865,0.288 2.903,0.273 3.598,-0.943l0.322 -0.463 0.174 -0.46 0.009 -0.332 0.062 0.002c-0.395,-1.44 0.64,-4.419 2.025,-2.776 5.199,5.976 3.455,-7.724 0.057,-8.505 -0.855,-0.197 0.156,0.976 -0.806,1.65z"/>
  <path class="fil2" d="M36.591 17.952c-0.856,-5.776 -2.626,-6.003 -2.626,-6.003 -0.766,0.408 -1.022,0.083 -1.368,1.87 -0.578,2.984 -0.001,4.772 -1.591,6.214 -1.434,1.3 -1.252,1.375 -1.556,4.465 -0.154,1.566 -0.056,3.483 0.234,4.918l0 0c0.165,0.815 0.445,1.571 0.632,2.048 1.328,3.387 3.633,2.61 4.868,-0.813 0.115,-0.318 0.1,-0.374 0.199,-0.701 0.09,-0.298 0.159,-0.424 0.25,-0.72 0.606,-1.973 1.191,-4.534 1.18,-7.252 -0.004,-0.839 -0.015,-1.919 -0.064,-2.511 -0.038,-0.459 -0.047,-0.579 -0.092,-1.002 -0.022,-0.208 -0.04,-0.37 -0.066,-0.513z"/>
  <path class="fil3" d="M30.232 11.156c0.067,0.411 0.613,1.137 0.958,1.975 0.302,0.735 0.215,1.406 0.878,2.051 -0.037,-0.957 -0.617,-1.71 -0.615,-2.633 1.107,0.779 1.827,1.865 2.012,2.797 0.298,1.491 0.495,-0.379 0.231,1.129 -0.144,0.82 -0.326,1.177 -0.018,1.803l0.59 -2.74c0.374,0.513 0.539,1.162 0.659,1.828 0.111,0.62 0.092,0.979 -0.069,1.55l-0.153 0.7c0.821,-0.928 0.948,-1.851 0.555,-3.068 -0.294,-0.911 -0.561,-1.948 -1.475,-2.756 -0.124,0.674 0.078,0.669 -0.023,1.297 -0.2,-1.737 -2.52,-3.856 -3.53,-3.933zm0.3 5.933l-0.536 -0.2c-0.015,0.508 0.372,0.758 0.694,1.138 0.297,0.35 0.519,0.757 0.953,1.042l0.288 0.433 -0.305 -0.179 -0.504 -0.254c-0.094,0.477 -0.098,0.173 0.024,0.674 0.28,1.149 0.55,2.489 1.605,3.247l-0.889 -2.517c0.261,-0.398 -0.104,-0.172 0.3,-0.258 0.456,0.401 0.972,0.81 1.249,1.32 0.145,0.265 0.04,0.153 0.242,0.473 0.069,-1.351 -0.345,-1.389 -1.435,-2.272l0.615 0.115 -0.423 -0.507c-0.187,-0.184 -0.242,-0.251 -0.42,-0.424l-1.013 -1.46c1.72,0.239 2.049,0.952 2.407,1.175 -0.733,-0.909 0.441,-0.588 -1.947,-1.49l0.115 -0.215c-0.615,-0.265 -2.042,-1.169 -2.228,-1.845 0.498,0.102 1.748,0.347 2.218,0.254 -0.725,-0.42 -2.352,-0.708 -3.241,-0.625 -0.331,0.031 -0.086,-0.05 -0.343,0.134 0.349,0.482 1.448,1.251 2.005,1.634 0.673,0.461 0.487,0.359 0.569,0.607zm-11.162 18.569c0.592,0.314 0.66,0.147 1.218,0.098 1.777,-0.156 5.54,-1.714 6.428,-2.826 -0.36,0.054 -1.369,0.711 -1.831,0.95 -1.8,0.928 -2.081,0.903 -3.817,1.334 -1.314,0.327 -1.442,-0.081 -1.998,0.444zm13.336 -10.373c0.647,-1.155 -0.725,-3.068 -1.563,-3.818 -0.226,0.571 -0.674,3.63 0.505,4.695 -0.278,-0.837 -0.374,-2.222 -0.036,-3.469 0.718,0.871 1.122,1.6 1.094,2.592zm-2.147 0.382c0.55,0.93 0.49,2.028 0.488,2.75 0.756,-1.279 -0.299,-3.82 -0.587,-4.151 -0.823,1.48 -1.524,3.732 -0.73,4.844 -0.037,-1.002 0.153,-2.31 0.829,-3.443zm-3.328 5.79c0.229,-0.788 0.766,-2.64 1.669,-3.003 -0.003,0.42 0.014,0.879 0.019,1.334 0.006,0.597 -0.087,0.815 -0.152,1.34 0.683,-0.991 0.538,-1.235 0.506,-2.162 -0.018,-0.546 0.092,-1.485 -0.272,-1.988 -0.685,0.827 -2.434,3.249 -1.77,4.479zm8.977 -10.859c0.106,-0.921 0.112,-2.137 -0.393,-2.865 -0.301,0.747 -0.358,1.249 -0.805,2.022 -0.431,0.747 -0.682,0.974 -1.014,1.835 0.331,-0.207 0.184,-0.152 0.485,-0.499 0.08,-0.092 0.186,-0.202 0.215,-0.236l0.132 -0.148c0.287,-0.361 0.553,-0.82 0.812,-1.207 0.209,1.298 -0.063,2.587 -1.17,3.808 1.175,-0.119 1.619,-1.663 1.738,-2.71zm-3.043 4.933c0.604,-0.691 0.511,-0.622 1.241,-1.115 0.291,-0.197 0.931,-0.757 1.222,-0.918 0.102,0.824 -0.909,2.872 -2.464,3.464 2.293,0.351 3.621,-3.952 3.349,-5.107 -0.432,0.208 -0.8,1.058 -1.72,1.781 -0.799,0.628 -1.174,0.694 -1.628,1.895zm-4.766 7.492c1.701,0.73 4.145,-1.07 5.128,-2.97 -0.473,-0.021 -1.593,0.482 -2.285,0.629 -0.914,0.194 -1.414,-0.021 -2.129,0.805l2.918 -0.475c-1.074,1.273 -1.988,1.732 -3.418,1.971l-0.214 0.04zm2.97 -4.179c0.779,-0.678 2.03,-0.946 2.888,-1.327 -0.046,0.547 -0.974,1.508 -1.452,1.891 -0.574,0.46 -1.166,0.845 -1.815,0.795 1.752,0.934 4.065,-1.969 4.578,-3.934 -0.543,0.075 -1.55,0.888 -2.214,1.162 -0.671,0.278 -1.462,0.477 -1.985,1.413z"/>
  <path class="fil1" d="M15.425 6.457c-1.601,1.441 2.639,5.788 4.405,4.199 1.325,-1.192 -2.236,-6.15 -4.405,-4.199z"/>
  <path class="fil1" d="M9.683 8.798c1.256,1.397 5.851,1.27 4.163,-0.606 -1.248,-1.387 -5.724,-1.129 -4.163,0.606z"/>
  <g id="_2553314260304">
   <path class="fil3" d="M12.721 18.035l-0.017 -0.024c-0.012,-0.001 -0.03,0.004 -0.037,0.013 -0.089,0.125 -0.179,0.249 -0.261,0.378 -0.014,0.022 0.008,0.066 0.013,0.1 0.025,-0.019 0.057,-0.034 0.073,-0.06 0.072,-0.114 0.14,-0.231 0.209,-0.348 0.009,-0.016 0.012,-0.035 0.02,-0.059zm5.982 -1.361c-0.041,0.035 -0.071,0.061 -0.102,0.087 0.024,0.018 0.045,0.042 0.072,0.054 0.142,0.067 0.285,0.132 0.429,0.196 0.021,0.009 0.049,0.004 0.073,0.006 -0.015,-0.022 -0.026,-0.049 -0.046,-0.063 -0.107,-0.072 -0.216,-0.142 -0.324,-0.212 -0.033,-0.022 -0.065,-0.043 -0.102,-0.068zm2.43 -9.339c-0.008,0.024 -0.019,0.044 -0.021,0.065 -0.007,0.064 -0.009,0.129 -0.016,0.194 -0.01,0.088 0.023,0.109 0.114,0.124 0.122,0.02 0.237,0.086 0.354,0.134 0.016,0.007 0.027,0.023 0.04,0.034 -0.004,-0.02 -0.001,-0.047 -0.013,-0.061 -0.136,-0.157 -0.275,-0.312 -0.414,-0.466 -0.008,-0.01 -0.023,-0.013 -0.044,-0.024zm-10.227 10.343c0.001,0.009 0.002,0.018 0.003,0.027 -0.029,0.009 -0.059,0.018 -0.088,0.027 0.01,0.013 0.018,0.03 0.031,0.039 0.125,0.09 0.254,0.176 0.377,0.27 0.082,0.062 0.129,0.048 0.167,-0.045 0.046,-0.115 0.095,-0.229 0.149,-0.34 0.039,-0.078 0.01,-0.085 -0.059,-0.073 -0.193,0.033 -0.387,0.063 -0.58,0.095zm4.275 -4.697c-0.006,-0.011 -0.013,-0.022 -0.02,-0.032 -0.283,0.188 -0.566,0.375 -0.848,0.564 -0.021,0.014 -0.034,0.04 -0.051,0.061 0.031,0.007 0.061,0.019 0.092,0.021 0.237,0.017 0.474,0.036 0.712,0.047 0.074,0.003 0.161,0.004 0.221,-0.03 0.2,-0.115 0.202,-0.326 0.212,-0.522 0.002,-0.037 -0.065,-0.099 -0.111,-0.112 -0.064,-0.018 -0.137,0 -0.207,0.003zm-3.859 7.227c-0.014,0.002 -0.028,0.005 -0.042,0.008 0.04,0.249 0.159,0.395 0.345,0.424 0.07,0.01 0.113,0.021 0.085,-0.088 -0.044,-0.172 -0.056,-0.353 -0.091,-0.528 -0.012,-0.06 -0.058,-0.113 -0.081,-0.173 -0.047,-0.121 -0.137,-0.25 -0.123,-0.364 0.034,-0.264 0.082,-0.538 0.194,-0.774 0.111,-0.231 0.137,-0.506 0.334,-0.697 0.021,-0.021 0.014,-0.071 0.02,-0.107 -0.033,0.019 -0.08,0.031 -0.096,0.059 -0.126,0.223 -0.249,0.448 -0.367,0.675 -0.059,0.115 -0.111,0.235 -0.154,0.357 -0.055,0.155 -0.138,0.316 -0.135,0.474 0.004,0.245 0.071,0.489 0.111,0.734zm5.718 -8.846c-0.142,0.044 -0.285,0.084 -0.425,0.132 -0.234,0.081 -0.469,0.162 -0.699,0.256 -0.099,0.041 -0.186,0.114 -0.276,0.176 -0.016,0.011 -0.022,0.037 -0.032,0.055 0.017,-0.003 0.035,-0.006 0.053,-0.009 0.36,-0.058 0.722,-0.105 1.08,-0.176 0.296,-0.058 0.578,-0.014 0.858,0.071 0.241,0.073 0.479,0.157 0.719,0.235 0.02,0.006 0.044,0 0.066,0 -0.006,-0.016 -0.007,-0.035 -0.017,-0.047 -0.098,-0.13 -0.197,-0.258 -0.299,-0.385 -0.008,-0.011 -0.054,-0.009 -0.056,-0.005 -0.057,0.178 -0.111,0.061 -0.177,0.004 -0.227,-0.195 -0.456,-0.392 -0.795,-0.307zm-3.388 7c0.007,0.012 0.015,0.024 0.022,0.037 0.065,-0.047 0.191,-0.109 0.184,-0.137 -0.032,-0.125 -0.091,-0.247 -0.163,-0.356 -0.057,-0.085 -0.137,-0.172 -0.227,-0.215 -0.1,-0.048 -0.228,-0.075 -0.336,-0.059 -0.079,0.013 -0.143,0.112 -0.216,0.169 -0.09,0.069 -0.145,0.142 -0.106,0.268 0.02,0.066 0.015,0.15 -0.005,0.218 -0.048,0.164 -0.111,0.324 -0.168,0.485 -0.008,0.024 -0.015,0.048 -0.022,0.072 0.031,0.001 0.067,0.013 0.091,0 0.201,-0.102 0.399,-0.21 0.6,-0.314 0.114,-0.059 0.23,-0.112 0.346,-0.168zm-0.573 -12.828c0.019,-0.013 -0.021,0.007 -0.019,0.014 0.01,0.033 0.024,0.073 0.05,0.093 0.214,0.169 0.436,0.328 0.645,0.503 0.314,0.264 0.624,0.534 0.928,0.81 0.302,0.274 0.594,0.559 0.893,0.836 0.015,0.014 0.048,0.009 0.072,0.013 -0.003,-0.022 0.001,-0.047 -0.009,-0.065 -0.199,-0.383 -0.366,-0.789 -0.665,-1.11 -0.247,-0.264 -0.54,-0.488 -0.766,-0.768 -0.297,-0.366 -0.674,-0.385 -1.129,-0.326zm1.908 10.68c0.077,-0.003 0.211,-0.017 0.343,-0.008 0.43,0.031 0.86,0.057 1.287,0.109 0.34,0.041 0.677,0.112 1.013,0.178 0.177,0.034 0.348,0.094 0.525,0.123 0.055,0.01 0.119,-0.043 0.179,-0.067 -0.02,-0.023 -0.036,-0.059 -0.061,-0.069 -0.351,-0.145 -0.7,-0.295 -1.056,-0.426 -0.589,-0.217 -1.208,-0.259 -1.823,-0.204 -0.35,0.031 -0.699,0.146 -1.033,0.267 -0.313,0.115 -0.615,0.271 -0.903,0.441 -0.289,0.171 -0.561,0.375 -0.829,0.579 -0.115,0.088 -0.203,0.212 -0.302,0.322 -0.015,0.016 -0.018,0.044 -0.027,0.066 0.018,-0.012 0.038,-0.022 0.055,-0.036 0.18,-0.158 0.352,-0.327 0.543,-0.472 0.137,-0.104 0.297,-0.181 0.453,-0.259 0.293,-0.145 0.581,-0.304 0.888,-0.414 0.217,-0.077 0.46,-0.083 0.748,-0.13zm-0.163 0.337c-0.254,0.098 -0.545,0.209 -0.833,0.325 -0.012,0.005 -0.016,0.079 -0.003,0.087 0.155,0.092 0.311,0.181 0.471,0.263 0.109,0.056 0.224,0.139 0.338,0.142 0.322,0.011 0.645,-0.016 0.967,-0.022 0.045,-0.001 0.126,0.022 0.131,0.046 0.039,0.184 0.13,0.086 0.21,0.046 0.05,-0.025 0.094,-0.061 0.146,-0.083 0.063,-0.026 0.071,-0.042 0.025,-0.104 -0.038,-0.05 -0.069,-0.143 -0.048,-0.192 0.055,-0.125 0.158,-0.187 0.31,-0.145 0.069,0.02 0.153,0.019 0.22,-0.004 0.05,-0.017 0.084,-0.083 0.119,-0.133 0.004,-0.006 -0.034,-0.058 -0.057,-0.062 -0.292,-0.05 -0.584,-0.115 -0.878,-0.137 -0.288,-0.023 -0.578,0 -0.868,-0.001 -0.069,-0.001 -0.138,-0.014 -0.25,-0.026zm-4.354 16.75l0.016 -0.006c-0.038,-0.108 -0.075,-0.217 -0.116,-0.325 -0.018,-0.047 -0.047,-0.09 -0.071,-0.135 -0.028,0.053 -0.056,0.106 -0.081,0.159 -0.006,0.012 -0.001,0.028 -0.003,0.042 -0.047,0.284 -0.093,0.568 -0.142,0.851 -0.023,0.131 -0.121,0.173 -0.228,0.132 -0.172,-0.064 -0.346,-0.135 -0.496,-0.237 -0.213,-0.145 -0.405,-0.322 -0.606,-0.484 -0.016,-0.013 -0.039,-0.017 -0.059,-0.025 0.002,0.021 -0.002,0.043 0.005,0.061 0.034,0.082 0.061,0.169 0.11,0.241 0.148,0.217 0.292,0.44 0.465,0.636 0.124,0.14 0.334,0.213 0.432,0.364 0.155,0.237 0.375,0.359 0.608,0.476 0.065,0.032 0.125,0.027 0.182,-0.061 0.126,-0.195 0.274,-0.375 0.421,-0.555 0.067,-0.082 0.069,-0.136 0.006,-0.229 -0.124,-0.184 -0.229,-0.382 -0.329,-0.58 -0.052,-0.102 -0.077,-0.216 -0.114,-0.325zm-0.538 -26.701c-0.322,0.055 -0.682,0.199 -0.747,0.527 -0.031,0.153 -0.123,0.166 -0.24,0.197 -0.112,0.029 -0.227,0.077 -0.317,0.147 -0.089,0.07 -0.15,0.176 -0.223,0.268 -0.022,0.027 -0.04,0.058 -0.059,0.086 0.032,-0.015 0.067,-0.026 0.098,-0.045 0.406,-0.249 0.842,-0.423 1.321,-0.451 0.419,-0.024 0.839,-0.006 1.245,0.123 0.086,0.027 0.175,0.075 0.259,0.07 0.512,-0.036 1.005,0.073 1.5,0.17 0.035,0.007 0.071,0.007 0.106,0.01 -0.022,-0.024 -0.044,-0.047 -0.067,-0.07 -0.043,-0.043 -0.094,-0.08 -0.128,-0.129 -0.203,-0.299 -0.495,-0.495 -0.816,-0.621 -0.483,-0.189 -0.973,-0.398 -1.518,-0.252 -0.032,0.008 -0.08,-0.05 -0.123,-0.073 -0.037,-0.02 -0.081,-0.053 -0.113,-0.045 -0.063,0.017 -0.119,0.058 -0.178,0.088zm-3.721 23.463c0.009,-0.005 0.019,-0.009 0.028,-0.013 -0.019,-0.044 -0.032,-0.092 -0.058,-0.131 -0.151,-0.222 -0.322,-0.433 -0.453,-0.666 -0.198,-0.351 -0.37,-0.717 -0.551,-1.078 -0.04,-0.078 -0.073,-0.16 -0.109,-0.239 0.004,0.092 0.013,0.184 0.011,0.276 -0.003,0.181 0.09,0.368 -0.027,0.544 -0.008,0.012 0,0.036 0.004,0.054 0.031,0.135 0.064,0.27 0.095,0.404 0.082,0.356 0.162,0.711 0.245,1.066 0.004,0.017 0.023,0.029 0.034,0.044 0.056,0.072 0.129,0.136 0.164,0.217 0.165,0.383 0.431,0.698 0.676,1.027 0.047,0.063 0.067,0.146 0.116,0.206 0.058,0.069 0.139,0.119 0.202,0.186 0.149,0.157 0.285,0.328 0.442,0.478 0.211,0.201 0.438,0.386 0.656,0.579 0.051,0.045 0.097,0.097 0.145,0.145 0.015,-0.065 0.042,-0.131 0.043,-0.197 0.003,-0.111 0.029,-0.251 -0.025,-0.329 -0.233,-0.336 -0.509,-0.643 -0.738,-0.981 -0.268,-0.394 -0.508,-0.807 -0.751,-1.218 -0.067,-0.114 -0.1,-0.249 -0.149,-0.374zm12.869 -6.495c-0.097,-0.227 -0.233,-0.546 -0.371,-0.865 -0.009,-0.02 -0.042,-0.03 -0.064,-0.045 -0.006,0.015 -0.019,0.032 -0.017,0.046 0.037,0.199 0.084,0.397 0.112,0.597 0.032,0.228 0.05,0.458 0.068,0.687 0.003,0.032 -0.028,0.068 -0.045,0.101 -0.007,0.014 -0.02,0.025 -0.03,0.038 -0.01,-0.015 -0.026,-0.028 -0.03,-0.044 -0.034,-0.123 -0.067,-0.247 -0.096,-0.372 -0.101,-0.438 -0.204,-0.876 -0.294,-1.317 -0.017,-0.079 0.027,-0.17 0.038,-0.256 0.003,-0.019 -0.012,-0.059 -0.02,-0.06 -0.214,-0.013 -0.427,-0.022 -0.64,-0.031 -0.018,-0.001 -0.036,-0.002 -0.053,-0.002 0.004,0.015 0.007,0.032 0.014,0.046 0.147,0.268 0.294,0.535 0.439,0.804 0.022,0.04 0.038,0.084 0.048,0.129 0.084,0.379 0.17,0.758 0.249,1.139 0.031,0.151 0.046,0.306 0.07,0.46 0.029,0.176 0.091,0.353 0.084,0.527 -0.015,0.341 -0.071,0.681 -0.102,1.022 -0.004,0.046 0.019,0.108 0.052,0.141 0.165,0.169 0.333,0.334 0.508,0.493 0.06,0.053 0.142,0.081 0.213,0.121 0.028,-0.072 0.06,-0.141 0.081,-0.214 0.015,-0.052 0.022,-0.108 0.022,-0.162 0.001,-0.307 0.008,-0.613 -0.005,-0.919 -0.017,-0.375 -0.041,-0.75 -0.081,-1.123 -0.029,-0.28 -0.088,-0.557 -0.15,-0.941zm-5.317 -9.152c-0.002,-0.01 -0.005,-0.02 -0.007,-0.03 -0.069,0.025 -0.139,0.047 -0.207,0.076 -0.007,0.003 -0.009,0.053 0.002,0.062 0.122,0.091 0.06,0.159 -0.029,0.214 -0.126,0.077 -0.255,0.152 -0.388,0.217 -0.25,0.122 -0.46,0.292 -0.629,0.512 -0.049,0.064 -0.053,0.114 0.038,0.147 0.113,0.042 0.22,0.103 0.335,0.135 0.098,0.027 0.213,0.054 0.305,0.028 0.205,-0.057 0.405,-0.139 0.599,-0.227 0.118,-0.054 0.216,-0.148 0.331,-0.208 0.21,-0.108 0.428,-0.2 0.639,-0.306 0.445,-0.221 0.888,-0.446 1.331,-0.671 0.285,-0.145 0.569,-0.293 0.852,-0.443 0.13,-0.069 0.256,-0.147 0.384,-0.221 0.028,-0.016 0.053,-0.036 0.08,-0.053 -0.034,-0.009 -0.067,-0.025 -0.1,-0.024 -0.366,0.006 -0.733,0.005 -1.098,0.028 -0.11,0.006 -0.219,0.071 -0.322,0.123 -0.114,0.056 -0.218,0.176 -0.333,0.184 -0.371,0.028 -0.751,0.156 -1.117,-0.039 -0.031,-0.017 -0.08,-0.001 -0.12,0 0.02,0.033 0.035,0.07 0.061,0.098 0.121,0.132 0.121,0.203 -0.046,0.264 -0.179,0.066 -0.374,0.091 -0.561,0.134zm4.557 -1.073c0.036,-0.003 0.055,-0.008 0.073,-0.007 0.185,0.014 0.369,0.033 0.554,0.039 0.095,0.004 0.191,-0.014 0.286,-0.023 -0.048,-0.082 -0.096,-0.163 -0.143,-0.246 -0.018,-0.032 -0.027,-0.071 -0.049,-0.1 -0.138,-0.178 -0.243,-0.419 -0.425,-0.516 -0.334,-0.178 -0.705,-0.306 -1.076,-0.39 -0.616,-0.138 -1.235,-0.059 -1.842,0.101 -0.111,0.029 -0.224,0.048 -0.333,0.079 -0.096,0.027 -0.195,0.054 -0.281,0.1 -0.088,0.047 -0.166,0.115 -0.242,0.181 -0.151,0.127 -0.298,0.258 -0.444,0.391 -0.016,0.014 -0.015,0.047 -0.021,0.071 0.024,-0.008 0.052,-0.011 0.072,-0.025 0.105,-0.072 0.198,-0.17 0.312,-0.218 0.218,-0.09 0.445,-0.161 0.673,-0.222 0.076,-0.02 0.174,0 0.249,0.033 0.294,0.129 0.358,0.399 0.389,0.682 0.011,0.105 0.041,0.166 0.17,0.157 0.241,-0.017 0.486,0.009 0.724,-0.024 0.456,-0.064 0.926,0.18 1.354,-0.063zm-7.567 19.581c0.013,0.195 -0.006,0.346 0.038,0.476 0.126,0.37 0.338,0.693 0.612,0.976 0.229,0.237 0.289,0.252 0.534,0.122 0.229,-0.122 0.466,-0.228 0.692,-0.355 0.283,-0.158 0.558,-0.33 0.836,-0.497 0.021,-0.013 0.034,-0.04 0.051,-0.061 -0.012,-0.001 -0.025,-0.004 -0.037,-0.003 -0.401,0.062 -0.81,0.092 -1.175,0.307 -0.055,0.032 -0.164,0.005 -0.23,-0.029 -0.035,-0.019 -0.045,-0.114 -0.04,-0.173 0.015,-0.17 0.051,-0.339 0.064,-0.509 0.021,-0.272 0.033,-0.544 0.043,-0.816 0.011,-0.305 0.017,-0.609 0.022,-0.914 0.001,-0.083 -0.012,-0.166 -0.018,-0.249 -0.073,0.043 -0.143,0.093 -0.219,0.129 -0.33,0.156 -0.597,0.395 -0.854,0.647 -0.135,0.132 -0.336,0.097 -0.396,-0.083 -0.06,-0.177 -0.107,-0.359 -0.161,-0.538 -0.006,-0.021 -0.022,-0.039 -0.033,-0.059 -0.007,0.009 -0.016,0.017 -0.021,0.028 -0.044,0.084 0.008,0.406 0.058,0.485 0.051,0.081 0.129,0.145 0.092,0.28 -0.03,0.107 0.034,0.239 0.051,0.36 0.012,0.087 0.005,0.178 0.022,0.264 0.019,0.089 0.056,0.174 0.069,0.212zm10.762 -24.337c0.016,-0.006 0.032,-0.013 0.048,-0.02 -0.1,-0.192 -0.198,-0.385 -0.302,-0.575 -0.015,-0.029 -0.055,-0.044 -0.083,-0.065 -0.009,0.03 -0.01,0.065 -0.027,0.089 -0.043,0.066 -0.093,0.128 -0.14,0.191 -0.044,-0.049 -0.093,-0.095 -0.131,-0.149 -0.035,-0.048 -0.06,-0.104 -0.085,-0.159 -0.15,-0.335 -0.319,-0.658 -0.59,-0.915 -0.018,-0.018 -0.041,-0.03 -0.061,-0.045 -0.01,0.025 -0.035,0.058 -0.027,0.074 0.03,0.061 0.078,0.113 0.107,0.174 0.154,0.321 0.27,0.654 0.307,1.012 0.02,0.197 0.081,0.39 0.094,0.587 0.006,0.081 -0.064,0.167 -0.099,0.251 -0.046,-0.027 -0.091,-0.054 -0.136,-0.08 -0.022,-0.013 -0.045,-0.028 -0.068,-0.033 -0.01,-0.002 -0.035,0.023 -0.035,0.036 -0.002,0.1 -0.031,0.216 0.009,0.296 0.054,0.105 0.019,0.179 -0.005,0.272 -0.039,0.152 -0.062,0.309 -0.09,0.465 -0.004,0.026 0.001,0.055 0.007,0.082 0.023,0.099 0.051,0.197 0.073,0.296 0.071,0.311 0.143,0.622 0.209,0.934 0.048,0.227 0.112,0.455 0.123,0.685 0.018,0.358 -0.004,0.717 -0.009,1.076 0,0.032 0.007,0.064 0.011,0.097 0.013,-0.029 0.031,-0.057 0.04,-0.088 0.17,-0.556 0.321,-1.119 0.514,-1.667 0.17,-0.482 0.316,-0.968 0.383,-1.473 0.06,-0.448 0.138,-0.902 -0.037,-1.348zm-2.15 7.348l-0.014 0.014c-0.004,0.014 0,0.03 -0.006,0.042 -0.069,0.145 -0.002,0.361 -0.219,0.433 -0.003,0.001 -0.002,0.045 0.007,0.051 0.171,0.106 0.336,0.222 0.515,0.309 0.257,0.124 0.528,0.219 0.785,0.343 0.13,0.063 0.235,0.176 0.365,0.241 0.519,0.256 1.042,0.507 1.566,0.752 0.369,0.173 0.711,0.409 1.143,0.425 0.187,0.006 0.371,0.069 0.557,0.101 0.045,0.007 0.095,-0.007 0.142,-0.011 -0.05,-0.024 -0.1,-0.047 -0.15,-0.07 -0.059,-0.026 -0.126,-0.041 -0.177,-0.078 -0.059,-0.044 -0.098,-0.114 -0.157,-0.158 -0.077,-0.059 -0.173,-0.093 -0.245,-0.156 -0.227,-0.194 -0.443,-0.401 -0.67,-0.594 -0.131,-0.112 -0.28,-0.201 -0.41,-0.313 -0.286,-0.243 -0.553,-0.511 -0.851,-0.737 -0.31,-0.235 -0.59,-0.491 -0.825,-0.802 -0.089,-0.118 -0.211,-0.219 -0.334,-0.303 -0.1,-0.068 -0.232,-0.088 -0.339,-0.147 -0.13,-0.072 -0.198,-0.045 -0.216,0.103 -0.016,0.138 -0.032,0.277 -0.06,0.412 -0.028,0.142 -0.119,0.22 -0.269,0.201 -0.047,-0.006 -0.09,-0.037 -0.138,-0.058zm-8.25 -5.391c-0.069,0.082 -0.107,0.157 -0.169,0.193 -0.081,0.049 -0.181,0.065 -0.271,0.099 -0.106,0.04 -0.17,0.101 -0.045,0.191 0.209,0.15 0.413,0.311 0.639,0.432 0.222,0.12 0.443,0.221 0.73,0.083 0.243,-0.116 0.469,-0.25 0.674,-0.415 0.154,-0.123 0.276,-0.287 0.413,-0.431 0.377,-0.397 0.814,-0.718 1.302,-0.958 0.237,-0.116 0.501,-0.181 0.759,-0.245 0.117,-0.029 0.248,0.001 0.372,0.003 0.018,0 0.035,-0.006 0.053,-0.009 -0.014,-0.011 -0.027,-0.028 -0.043,-0.032 -0.174,-0.04 -0.351,-0.071 -0.523,-0.117 -0.538,-0.146 -1.081,-0.125 -1.621,-0.036 -0.332,0.055 -0.658,0.155 -0.986,0.238 -0.366,0.094 -0.732,0.189 -1.096,0.29 -0.212,0.059 -0.421,0.129 -0.629,0.199 -0.018,0.006 -0.039,0.064 -0.032,0.072 0.072,0.08 0.148,0.155 0.226,0.228 0.069,0.064 0.142,0.124 0.247,0.215zm-2.017 8.532c-0.042,-0.018 -0.092,-0.029 -0.124,-0.059 -0.017,-0.015 -0.016,-0.084 0,-0.095 0.093,-0.067 0.199,-0.182 0.291,-0.174 0.256,0.023 0.51,0.088 0.76,0.156 0.111,0.031 0.209,0.109 0.315,0.163 0.117,0.059 0.236,0.115 0.355,0.17 0.042,0.02 0.089,0.046 0.131,0.042 0.026,-0.002 0.071,-0.058 0.067,-0.083 -0.008,-0.043 -0.038,-0.095 -0.075,-0.118 -0.094,-0.058 -0.197,-0.102 -0.297,-0.151 -0.182,-0.09 -0.364,-0.18 -0.546,-0.271 -0.059,-0.029 -0.128,-0.047 -0.171,-0.091 -0.018,-0.019 0.004,-0.121 0.03,-0.132 0.07,-0.029 0.17,-0.064 0.227,-0.035 0.293,0.149 0.575,0.32 0.863,0.478 0.022,0.012 0.081,0.001 0.09,-0.016 0.054,-0.107 0.092,-0.222 0.148,-0.328 0.069,-0.134 0.085,-0.228 -0.106,-0.263 -0.083,-0.015 -0.155,-0.087 -0.238,-0.114 -0.285,-0.092 -0.571,-0.238 -0.86,-0.247 -0.377,-0.012 -0.758,0.066 -1.126,0.196 -0.323,0.115 -0.599,0.287 -0.822,0.534 -0.204,0.225 -0.374,0.482 -0.562,0.722 -0.104,0.132 -0.193,0.288 -0.325,0.383 -0.187,0.135 -0.406,0.223 -0.611,0.333 -0.022,0.012 -0.053,0.035 -0.053,0.053 -0.001,0.02 0.026,0.049 0.047,0.059 0.206,0.092 0.409,0.189 0.621,0.265 0.075,0.027 0.191,0.032 0.253,-0.008 0.346,-0.226 0.731,-0.354 1.12,-0.472 0.171,-0.052 0.357,-0.081 0.535,-0.076 0.202,0.005 0.401,0.071 0.604,0.091 0.28,0.029 0.564,0.023 0.841,0.067 0.176,0.028 0.217,-0.04 0.236,-0.184 0.04,-0.315 0.027,-0.345 -0.261,-0.483 -0.158,-0.076 -0.321,-0.14 -0.479,-0.215 -0.278,-0.131 -0.566,-0.169 -0.878,-0.097zm5.254 -3.542c-0.006,-0.012 -0.012,-0.023 -0.018,-0.035 -0.15,0.092 -0.301,0.185 -0.45,0.278 -0.005,0.004 -0.001,0.022 -0.002,0.034 0.017,-0.005 0.033,-0.011 0.05,-0.016 0.309,-0.089 0.613,-0.197 0.927,-0.263 0.478,-0.1 0.964,-0.072 1.451,-0.06 0.456,0.011 0.867,0.145 1.276,0.314 0.275,0.113 0.547,0.233 0.82,0.349 0.194,0.082 0.269,0.045 0.33,-0.17 0.058,-0.207 0.099,-0.42 0.167,-0.624 0.124,-0.374 0.313,-0.692 0.743,-0.781 0.057,-0.011 0.106,-0.057 0.161,-0.078 0.119,-0.046 0.125,-0.125 0.067,-0.22 -0.072,-0.121 -0.146,-0.24 -0.222,-0.358 -0.069,-0.106 -0.134,-0.219 -0.295,-0.12 -0.04,0.024 -0.112,-0.011 -0.164,0.002 -0.167,0.042 -0.34,0.077 -0.495,0.148 -0.119,0.054 -0.206,0.172 -0.32,0.24 -0.306,0.181 -0.468,0.49 -0.684,0.75 -0.174,0.21 -0.345,0.417 -0.606,0.521 -0.027,0.011 -0.062,0.003 -0.093,0.003 0.005,-0.033 -0.001,-0.078 0.018,-0.098 0.082,-0.086 0.181,-0.157 0.257,-0.247 0.187,-0.223 0.363,-0.455 0.546,-0.682 0.164,-0.205 0.331,-0.407 0.497,-0.612 0.015,-0.018 0.024,-0.042 0.036,-0.064 -0.026,0 -0.053,-0.005 -0.078,0.001 -0.2,0.046 -0.397,0.081 -0.593,0.167 -0.258,0.114 -0.513,0.218 -0.74,0.389 -0.112,0.085 -0.237,0.159 -0.365,0.219 -0.123,0.057 -0.267,0.075 -0.387,0.137 -0.185,0.095 -0.351,0.227 -0.537,0.317 -0.24,0.117 -0.493,0.206 -0.738,0.311 -0.188,0.08 -0.373,0.165 -0.559,0.248zm8.938 -5.903l0.009 -0.002c-0.026,-0.094 -0.051,-0.189 -0.08,-0.282 -0.012,-0.038 -0.033,-0.074 -0.05,-0.111 -0.017,0.035 -0.029,0.071 -0.051,0.102 -0.046,0.063 -0.087,0.135 -0.147,0.181 -0.095,0.075 -0.165,0.027 -0.2,-0.076 -0.056,-0.162 -0.107,-0.324 -0.164,-0.485 -0.096,-0.268 -0.195,-0.534 -0.296,-0.801 -0.015,-0.04 -0.045,-0.075 -0.068,-0.113 -0.017,0.038 -0.031,0.076 -0.05,0.113 -0.026,0.049 -0.054,0.097 -0.082,0.146 -0.072,0.127 -0.156,0.132 -0.235,0.007 -0.042,-0.066 -0.073,-0.141 -0.114,-0.208 -0.026,-0.043 -0.062,-0.08 -0.093,-0.119 0.013,0.05 0.021,0.102 0.04,0.15 0.162,0.425 0.257,0.863 0.213,1.319 -0.035,0.36 -0.088,0.718 -0.136,1.076 -0.015,0.106 -0.031,0.215 -0.066,0.314 -0.092,0.257 -0.199,0.508 -0.293,0.763 -0.089,0.242 -0.171,0.488 -0.252,0.733 -0.009,0.025 0.004,0.057 0.007,0.086 0.028,-0.019 0.069,-0.033 0.083,-0.059 0.141,-0.284 0.273,-0.572 0.418,-0.853 0.211,-0.408 0.427,-0.813 0.648,-1.216 0.086,-0.158 0.187,-0.307 0.289,-0.456 0.028,-0.041 0.079,-0.066 0.12,-0.098 0.03,0.052 0.092,0.111 0.082,0.154 -0.023,0.105 -0.059,0.221 -0.128,0.3 -0.257,0.296 -0.446,0.633 -0.616,0.982 -0.192,0.393 -0.348,0.807 -0.562,1.188 -0.123,0.219 -0.18,0.504 -0.459,0.623 -0.036,0.015 -0.031,0.13 -0.046,0.199 0.04,-0.017 0.082,-0.028 0.117,-0.051 0.042,-0.028 0.078,-0.065 0.114,-0.1 0.111,-0.105 0.203,-0.25 0.334,-0.308 0.344,-0.152 0.705,-0.267 1.06,-0.396 0.158,-0.056 0.318,-0.105 0.474,-0.165 0.092,-0.036 0.201,-0.069 0.263,-0.138 0.101,-0.111 0.201,-0.241 0.246,-0.381 0.082,-0.253 0.12,-0.519 0.183,-0.778 0.023,-0.096 -0.01,-0.1 -0.093,-0.095 -0.185,0.011 -0.248,-0.048 -0.263,-0.236 -0.008,-0.093 0.018,-0.192 -0.001,-0.282 -0.042,-0.211 -0.102,-0.418 -0.155,-0.627zm-13.722 15.66l-0.023 0.007c0.046,0.13 0.091,0.261 0.141,0.39 0.007,0.018 0.05,0.042 0.061,0.036 0.314,-0.17 0.634,-0.329 0.934,-0.521 0.197,-0.126 0.379,-0.285 0.54,-0.457 0.246,-0.263 0.472,-0.546 0.7,-0.826 0.264,-0.324 0.41,-0.706 0.481,-1.112 0.024,-0.142 -0.003,-0.299 -0.034,-0.444 -0.055,-0.26 -0.129,-0.515 -0.199,-0.772 -0.007,-0.025 -0.042,-0.042 -0.064,-0.063 -0.015,0.027 -0.036,0.052 -0.044,0.081 -0.061,0.217 -0.128,0.432 -0.177,0.652 -0.094,0.417 -0.306,0.773 -0.546,1.118 -0.026,0.037 -0.073,0.06 -0.11,0.089 0.004,-0.052 -0.005,-0.109 0.013,-0.155 0.072,-0.194 0.165,-0.381 0.226,-0.578 0.115,-0.366 0.214,-0.738 0.317,-1.108 0.006,-0.022 -0.012,-0.05 -0.019,-0.076 -0.025,0.022 -0.057,0.04 -0.073,0.067 -0.088,0.159 -0.173,0.321 -0.26,0.481 -0.01,0.018 -0.04,0.037 -0.036,0.048 0.063,0.197 -0.095,0.32 -0.167,0.462 -0.126,0.25 -0.298,0.476 -0.439,0.718 -0.214,0.366 -0.416,0.74 -0.629,1.107 -0.02,0.035 -0.076,0.049 -0.116,0.072 -0.011,-0.05 -0.043,-0.106 -0.03,-0.148 0.034,-0.1 0.084,-0.196 0.136,-0.289 0.233,-0.421 0.476,-0.836 0.7,-1.261 0.167,-0.318 0.311,-0.648 0.464,-0.973 0.008,-0.018 0.004,-0.042 0.005,-0.064 -0.02,0.008 -0.043,0.011 -0.058,0.024 -0.024,0.021 -0.043,0.047 -0.063,0.072 -0.179,0.223 -0.335,0.471 -0.543,0.663 -0.25,0.23 -0.547,0.408 -0.817,0.618 -0.109,0.085 -0.229,0.177 -0.295,0.293 -0.181,0.322 -0.176,0.674 -0.111,1.028 0.049,0.273 0.09,0.548 0.135,0.821zm0.903 -18.877c0.132,-0.011 0.221,-0.03 0.307,-0.023 0.542,0.042 1.038,0.223 1.513,0.487 0.306,0.17 0.495,0.454 0.747,0.675 0.142,0.123 0.208,0.317 0.438,0.363 0.271,0.054 0.541,0.149 0.789,0.273 0.372,0.188 0.728,0.408 1.082,0.63 0.285,0.179 0.556,0.379 0.832,0.573 0.198,0.14 0.391,0.285 0.588,0.427 0.02,0.014 0.048,0.017 0.072,0.025 -0.002,-0.027 0.003,-0.059 -0.009,-0.08 -0.216,-0.363 -0.412,-0.741 -0.66,-1.082 -0.226,-0.311 -0.499,-0.59 -0.801,-0.837 -0.259,-0.211 -0.498,-0.446 -0.749,-0.666 -0.366,-0.32 -0.735,-0.638 -1.103,-0.956 -0.122,-0.106 -0.257,-0.2 -0.367,-0.318 -0.123,-0.133 -0.224,-0.273 -0.441,-0.259 -0.178,0.012 -0.359,-0.024 -0.538,-0.022 -0.217,0.002 -0.434,0.018 -0.65,0.034 -0.079,0.005 -0.157,0.026 -0.236,0.039 0.064,0.031 0.135,0.054 0.191,0.097 0.043,0.033 0.08,0.087 0.093,0.139 0.006,0.021 -0.057,0.083 -0.093,0.087 -0.157,0.016 -0.32,-0.005 -0.471,0.029 -0.226,0.051 -0.445,0.132 -0.662,0.212 -0.032,0.012 -0.039,0.088 -0.058,0.135 0.04,0.011 0.08,0.03 0.121,0.032 0.036,0.001 0.072,-0.015 0.065,-0.014zm-0.762 22.11l0.017 -0.005c-0.01,-0.064 -0.016,-0.129 -0.034,-0.191 -0.006,-0.022 -0.043,-0.035 -0.066,-0.052 -0.107,0.184 -0.418,0.181 -0.413,0.479 0.004,0.297 -0.061,0.599 -0.034,0.892 0.022,0.242 -0.014,0.483 0.046,0.73 0.072,0.299 0.053,0.619 0.087,0.928 0.034,0.307 -0.092,0.429 -0.374,0.309 -0.374,-0.159 -0.743,-0.334 -1.102,-0.525 -0.344,-0.183 -0.674,-0.394 -1.01,-0.591 -0.034,-0.021 -0.073,-0.032 -0.11,-0.048 0.007,0.038 0.005,0.081 0.024,0.112 0.206,0.341 0.407,0.686 0.627,1.018 0.141,0.214 0.309,0.41 0.47,0.609 0.03,0.036 0.093,0.154 0.135,-0.007 0.005,-0.018 0.128,-0.033 0.135,-0.019 0.054,0.104 0.089,0.217 0.134,0.326 0.028,0.067 0.047,0.147 0.096,0.195 0.089,0.085 0.196,0.151 0.296,0.225 0.327,0.243 0.653,0.488 0.982,0.728 0.046,0.033 0.107,0.045 0.162,0.067 0.005,-0.061 0.007,-0.122 0.016,-0.183 0.019,-0.13 0.03,-0.263 0.066,-0.389 0.06,-0.213 0.169,-0.417 0.201,-0.634 0.054,-0.356 0.034,-0.725 0.098,-1.079 0.088,-0.491 -0.024,-0.965 -0.088,-1.437 -0.067,-0.493 -0.236,-0.973 -0.361,-1.458zm-2.163 0.994c-0.067,-0.044 -0.157,-0.073 -0.196,-0.135 -0.349,-0.552 -0.721,-1.093 -1.016,-1.673 -0.122,-0.238 -0.249,-0.501 -0.247,-0.816 0.003,-0.443 -0.094,-0.887 -0.149,-1.331 -0.003,-0.021 -0.009,-0.041 -0.014,-0.062 -0.018,0.017 -0.041,0.032 -0.055,0.053 -0.091,0.143 -0.189,0.283 -0.27,0.432 -0.128,0.238 -0.268,0.473 -0.357,0.726 -0.066,0.188 -0.1,0.406 -0.076,0.602 0.027,0.217 0.134,0.423 0.212,0.632 0.049,0.131 0.075,0.261 0.158,0.389 0.258,0.397 0.448,0.838 0.712,1.231 0.162,0.241 0.402,0.435 0.624,0.63 0.157,0.138 0.338,0.253 0.52,0.358 0.281,0.162 0.57,0.311 0.86,0.456 0.187,0.094 0.383,0.168 0.571,0.258 0.18,0.086 0.21,0.034 0.138,-0.134 -0.012,-0.028 -0.01,-0.064 -0.01,-0.096 0.003,-0.235 0.013,-0.471 0.008,-0.706 -0.009,-0.467 -0.03,-0.933 -0.036,-1.399 -0.001,-0.103 -0.03,-0.119 -0.11,-0.078 -0.195,0.1 -0.389,0.204 -0.584,0.306 -0.215,0.113 -0.43,0.225 -0.683,0.357zm4.653 -2.468c0.015,0.004 0.029,0.008 0.044,0.012 -0.048,0.137 -0.095,0.274 -0.144,0.411 -0.004,0.009 -0.022,0.014 -0.033,0.021 -0.005,-0.019 -0.015,-0.039 -0.014,-0.057 0.008,-0.344 0.016,-0.687 0.027,-1.03 0.014,-0.464 0.032,-0.927 0.045,-1.391 0,-0.013 -0.05,-0.042 -0.052,-0.039 -0.189,0.199 -0.435,0.342 -0.55,0.615 -0.138,0.324 -0.289,0.643 -0.461,0.95 -0.083,0.146 -0.129,0.278 -0.101,0.445 0.068,0.406 0.132,0.813 0.185,1.221 0.02,0.154 0.031,0.32 -0.005,0.467 -0.029,0.116 0.004,0.121 0.08,0.094 0.156,-0.057 0.31,-0.123 0.46,-0.195 0.559,-0.267 1.003,-0.691 1.43,-1.121 0.311,-0.314 0.558,-0.692 0.828,-1.046 0.06,-0.079 0.12,-0.172 0.14,-0.268 0.059,-0.284 0.102,-0.572 0.147,-0.86 0.035,-0.23 -0.083,-0.391 -0.31,-0.435 -0.054,-0.01 -0.112,-0.015 -0.16,-0.037 -0.345,-0.162 -0.686,-0.329 -1.032,-0.488 -0.026,-0.012 -0.087,0.01 -0.11,0.036 -0.106,0.116 -0.21,0.235 -0.303,0.363 -0.024,0.032 -0.01,0.098 -0.003,0.148 0.016,0.107 0.056,0.214 0.054,0.321 -0.006,0.316 -0.024,0.631 -0.047,0.946 -0.012,0.175 -0.043,0.349 -0.065,0.523 -0.017,0.131 -0.033,0.262 -0.05,0.394zm1.978 -8.441c-0.075,0.019 -0.205,0.038 -0.324,0.085 -0.189,0.073 -0.372,0.164 -0.556,0.25 -0.031,0.014 -0.057,0.036 -0.085,0.055 0.038,0.003 0.08,0.019 0.116,0.009 0.366,-0.099 0.725,-0.01 1.086,0.037 0.037,0.005 0.071,0.037 0.106,0.056 -0.036,0.022 -0.071,0.06 -0.108,0.063 -0.228,0.019 -0.457,0.036 -0.686,0.041 -0.421,0.008 -0.777,0.161 -1.08,0.451 -0.031,0.03 -0.1,0.061 -0.129,0.046 -0.047,-0.024 -0.07,-0.09 -0.112,-0.129 -0.023,-0.022 -0.072,-0.045 -0.092,-0.035 -0.038,0.02 -0.084,0.062 -0.089,0.099 -0.015,0.109 -0.011,0.221 -0.014,0.332 0.057,-0.018 0.116,-0.031 0.171,-0.053 0.45,-0.184 0.9,-0.334 1.397,-0.371 0.557,-0.041 1.055,0.109 1.55,0.317 0.044,0.018 0.064,0.091 0.095,0.139 -0.047,0.01 -0.093,0.027 -0.14,0.028 -0.04,0 -0.082,-0.016 -0.121,-0.028 -0.384,-0.122 -0.773,-0.203 -1.18,-0.217 -0.554,-0.019 -1.046,0.162 -1.527,0.399 -0.023,0.011 -0.037,0.04 -0.055,0.061 0.029,0.001 0.057,0.003 0.086,0.001 0.234,-0.016 0.469,-0.052 0.703,-0.046 0.3,0.007 0.6,0.047 0.9,0.074 0.034,0.004 0.069,0.01 0.099,0.024 0.146,0.068 0.332,0.065 0.449,-0.008 0.014,-0.01 0.035,-0.013 0.053,-0.012 0.459,0.027 0.901,0.12 1.309,0.342 0.028,0.016 0.045,0.051 0.068,0.078 -0.033,0 -0.068,0.007 -0.099,0 -0.287,-0.057 -0.572,-0.118 -0.859,-0.174 -0.029,-0.006 -0.062,0.009 -0.093,0.015 0.026,0.023 0.048,0.055 0.078,0.069 0.172,0.082 0.36,0.139 0.515,0.244 0.221,0.149 0.416,0.334 0.626,0.499 0.082,0.064 0.167,0.144 0.261,0.166 0.227,0.052 0.46,0.091 0.692,0.105 0.278,0.017 0.557,0.007 0.836,0 0.073,-0.002 0.145,-0.034 0.218,-0.053 -0.042,-0.051 -0.083,-0.102 -0.125,-0.153 -0.027,-0.032 -0.053,-0.064 -0.081,-0.096 -0.166,-0.192 -0.326,-0.387 -0.334,-0.66 -0.001,-0.021 -0.018,-0.043 -0.031,-0.061 -0.103,-0.146 -0.203,-0.296 -0.313,-0.437 -0.254,-0.326 -0.484,-0.677 -0.78,-0.96 -0.234,-0.224 -0.516,-0.413 -0.854,-0.5 -0.495,-0.127 -0.99,-0.155 -1.547,-0.092zm0.841 12.95c0.027,-0.015 0.042,-0.018 0.051,-0.028 0.139,-0.133 0.305,-0.248 0.409,-0.405 0.197,-0.297 0.533,-0.369 0.799,-0.553 0.288,-0.201 0.592,-0.389 0.847,-0.628 0.291,-0.273 0.545,-0.589 0.798,-0.9 0.163,-0.2 0.317,-0.413 0.436,-0.641 0.194,-0.372 0.358,-0.759 0.53,-1.142 0.015,-0.033 0.011,-0.095 -0.011,-0.12 -0.154,-0.173 -0.313,-0.342 -0.475,-0.508 -0.013,-0.013 -0.076,-0.005 -0.083,0.009 -0.1,0.209 -0.123,0.461 -0.35,0.596l-0.009 0.024c-0.03,0.112 -0.033,0.24 -0.092,0.333 -0.33,0.514 -0.674,1.019 -1.01,1.528 -0.09,0.136 -0.218,0.129 -0.346,0.105 -0.089,-0.017 -0.173,-0.063 -0.259,-0.096 -0.033,0.096 -0.066,0.193 -0.098,0.29 -0.005,0.013 -0.005,0.027 -0.01,0.04 -0.082,0.26 -0.153,0.524 -0.329,0.741 -0.014,0.019 -0.038,0.03 -0.057,0.045 -0.004,-0.021 -0.016,-0.044 -0.011,-0.064 0.036,-0.153 0.076,-0.306 0.114,-0.459 0.062,-0.247 0.128,-0.493 0.183,-0.741 0.049,-0.227 -0.136,-0.366 -0.241,-0.518 -0.241,-0.35 -0.522,-0.672 -0.783,-1.008 -0.082,-0.106 -0.15,-0.223 -0.228,-0.332 -0.017,-0.023 -0.052,-0.034 -0.078,-0.05 -0.01,0.024 -0.024,0.047 -0.029,0.071 -0.036,0.194 -0.07,0.389 -0.105,0.584 -0.047,0.261 -0.09,0.523 -0.144,0.783 -0.021,0.103 -0.077,0.198 -0.102,0.3 -0.029,0.119 -0.135,0.214 -0.071,0.367 0.08,0.192 0.123,0.4 0.173,0.604 0.024,0.096 0.025,0.197 0.039,0.296 0.015,0.107 0.021,0.218 0.054,0.319 0.058,0.178 0.134,0.35 0.203,0.523 0.076,0.192 0.153,0.384 0.232,0.574 0.01,0.025 0.036,0.042 0.053,0.061zm-5.865 -23.964c-0.148,0.07 -0.375,0.16 -0.583,0.282 -0.288,0.17 -0.562,0.364 -0.842,0.55 -0.017,0.011 -0.029,0.031 -0.043,0.047 0.023,0.001 0.046,0 0.068,0.002 0.233,0.016 0.466,0.026 0.698,0.051 0.065,0.008 0.126,0.06 0.189,0.091 -0.041,0.056 -0.08,0.113 -0.124,0.167 -0.023,0.029 -0.053,0.051 -0.08,0.077 0.038,0.009 0.078,0.014 0.113,0.028 0.057,0.023 0.111,0.054 0.168,0.078 0.084,0.035 0.167,0.076 0.256,0.099 0.258,0.067 0.52,0.122 0.779,0.19 0.065,0.018 0.116,0.081 0.181,0.104 0.28,0.102 0.563,0.198 0.846,0.293 0.059,0.02 0.123,0.042 0.184,0.04 0.067,-0.003 0.134,-0.031 0.201,-0.051 0.41,-0.12 0.819,-0.247 1.231,-0.361 0.317,-0.088 0.635,-0.203 0.959,-0.232 0.58,-0.051 1.168,-0.126 1.742,0.068 0.046,0.016 0.097,0.013 0.146,0.018 -0.032,-0.031 -0.064,-0.064 -0.098,-0.094 -0.049,-0.042 -0.095,-0.091 -0.151,-0.12 -0.31,-0.158 -0.621,-0.314 -0.935,-0.464 -0.049,-0.024 -0.118,-0.034 -0.169,-0.018 -0.148,0.045 -0.247,-0.031 -0.354,-0.11 -0.119,-0.089 -0.237,-0.206 -0.373,-0.241 -0.569,-0.148 -1.142,-0.279 -1.732,-0.323 -0.354,-0.026 -0.717,-0.054 -1.055,-0.153 -0.387,-0.115 -0.763,-0.016 -1.222,-0.018zm7.927 3.491c0.09,0.013 0.239,0.029 0.386,0.056 0.062,0.011 0.121,0.042 0.182,0.064 -0.05,-0.069 -0.091,-0.147 -0.151,-0.208 -0.269,-0.275 -0.543,-0.546 -0.817,-0.817 -0.209,-0.209 -0.449,-0.37 -0.743,-0.428 -0.741,-0.145 -1.384,0.097 -1.978,0.521 -0.364,0.259 -0.673,0.575 -0.989,0.888 -0.261,0.258 -0.535,0.514 -0.912,0.616 -0.129,0.035 -0.243,0.124 -0.362,0.193 -0.011,0.006 -0.015,0.052 -0.005,0.063 0.132,0.131 0.15,0.382 0.403,0.389l0.022 0.016c0.208,0.155 0.441,0.26 0.687,0.338 0.141,0.045 0.29,0.076 0.42,0.143 0.075,0.039 0.123,0.134 0.176,0.208 0.026,0.037 0.03,0.115 0.058,0.122 0.098,0.026 0.224,0.07 0.298,0.03 0.092,-0.049 0.132,-0.188 0.216,-0.265 0.258,-0.237 0.523,-0.466 0.79,-0.693 0.273,-0.233 0.545,-0.469 0.83,-0.686 0.419,-0.32 0.942,-0.369 1.489,-0.55zm-5.775 18.012c-0.008,-0.013 -0.015,-0.026 -0.022,-0.04 -0.149,0.031 -0.336,-0.075 -0.366,-0.222 -0.027,-0.129 -0.043,-0.262 -0.049,-0.393 -0.017,-0.394 -0.004,-0.791 -0.148,-1.168 -0.011,-0.028 -0.023,-0.056 -0.035,-0.084 -0.023,0.021 -0.047,0.041 -0.067,0.064 -0.187,0.218 -0.365,0.444 -0.564,0.65 -0.108,0.112 -0.151,0.225 -0.129,0.371 0.008,0.054 0.017,0.108 0.028,0.162 0.042,0.193 0.07,0.392 0.132,0.578 0.068,0.202 0.182,0.389 0.25,0.591 0.052,0.156 0.049,0.33 0.094,0.49 0.14,0.507 0.292,1.012 0.438,1.518 0.027,0.093 0.072,0.097 0.139,0.04 0.066,-0.058 0.126,-0.124 0.198,-0.173 0.304,-0.205 0.611,-0.407 0.918,-0.607 0.14,-0.091 0.298,-0.159 0.424,-0.266 0.313,-0.266 0.67,-0.488 0.891,-0.849 0.22,-0.359 0.475,-0.705 0.635,-1.09 0.151,-0.364 0.206,-0.77 0.288,-1.16 0.029,-0.138 0.048,-0.295 0.013,-0.427 -0.044,-0.167 -0.09,-0.323 -0.053,-0.497 0.008,-0.038 -0.03,-0.086 -0.047,-0.129 -0.032,0.028 -0.071,0.051 -0.095,0.085 -0.16,0.227 -0.311,0.461 -0.478,0.682 -0.129,0.169 -0.275,0.326 -0.418,0.484 -0.132,0.146 -0.324,0.224 -0.436,0.398 -0.052,0.082 -0.154,0.132 -0.229,0.201 -0.025,0.023 -0.061,0.066 -0.053,0.086 0.062,0.163 0,0.298 -0.069,0.444 -0.192,0.41 -0.369,0.828 -0.553,1.242 -0.016,0.036 -0.042,0.067 -0.064,0.1 -0.005,-0.046 -0.025,-0.096 -0.012,-0.136 0.085,-0.278 0.178,-0.555 0.268,-0.832 0.068,-0.205 0.135,-0.411 0.201,-0.617 0.007,-0.024 0.008,-0.05 0.012,-0.075 -0.027,0.013 -0.055,0.024 -0.081,0.039 -0.321,0.18 -0.641,0.36 -0.961,0.54zm-3.677 -5.59c0.006,0.021 0.012,0.041 0.018,0.061 0.478,-0.165 0.964,-0.311 1.431,-0.502 0.235,-0.096 0.431,-0.285 0.657,-0.409 0.516,-0.285 0.957,-0.655 1.321,-1.116 0.016,-0.021 0.006,-0.093 -0.015,-0.108 -0.1,-0.069 -0.205,-0.128 -0.312,-0.185 -0.028,-0.014 -0.078,-0.019 -0.1,-0.004 -0.121,0.085 -0.232,0.183 -0.354,0.265 -0.066,0.045 -0.153,0.057 -0.22,0.101 -0.121,0.078 -0.228,0.18 -0.352,0.252 -0.241,0.141 -0.489,0.27 -0.736,0.4 -0.027,0.014 -0.066,0.006 -0.099,0.008 0.007,-0.034 0.003,-0.084 0.024,-0.1 0.235,-0.187 0.469,-0.374 0.713,-0.548 0.266,-0.189 0.542,-0.364 0.812,-0.548 0.018,-0.012 0.033,-0.052 0.026,-0.07 -0.008,-0.018 -0.047,-0.039 -0.067,-0.035 -0.101,0.023 -0.205,0.043 -0.3,0.083 -0.417,0.176 -0.837,0.345 -1.244,0.543 -0.427,0.207 -0.841,0.442 -1.257,0.672 -0.126,0.07 -0.237,0.166 -0.358,0.246 -0.194,0.129 -0.391,0.255 -0.587,0.381 -0.014,0.009 -0.035,0.009 -0.053,0.013 0.008,-0.017 0.012,-0.037 0.024,-0.048 0.141,-0.13 0.271,-0.276 0.426,-0.385 0.346,-0.242 0.694,-0.483 1.059,-0.694 0.668,-0.386 1.353,-0.742 2.081,-1.004 0.024,-0.008 0.041,-0.031 0.062,-0.046 -0.023,-0.005 -0.045,-0.017 -0.067,-0.015 -0.335,0.036 -0.673,0.054 -1.003,0.115 -0.301,0.056 -0.595,0.15 -0.887,0.241 -0.184,0.058 -0.371,0.124 -0.537,0.221 -0.229,0.134 -0.442,0.297 -0.657,0.454 -0.117,0.084 -0.238,0.168 -0.333,0.274 -0.086,0.097 -0.137,0.225 -0.209,0.336 -0.018,0.028 -0.057,0.043 -0.087,0.063 -0.005,-0.04 -0.028,-0.09 -0.012,-0.118 0.094,-0.168 0.181,-0.344 0.3,-0.494 0.299,-0.378 0.71,-0.63 1.14,-0.806 0.665,-0.273 1.35,-0.51 2.085,-0.524 0.021,0 0.041,-0.015 0.061,-0.022 -0.02,-0.006 -0.041,-0.017 -0.062,-0.018 -0.279,-0.009 -0.558,-0.023 -0.838,-0.025 -0.187,-0.002 -0.38,-0.01 -0.562,0.025 -0.369,0.071 -0.746,0.119 -1.083,0.309 -0.406,0.227 -0.721,0.565 -1.037,0.89 -0.211,0.216 -0.357,0.502 -0.504,0.772 -0.244,0.451 -0.384,0.94 -0.473,1.443 -0.005,0.024 0.045,0.084 0.067,0.083 0.126,-0.008 0.252,-0.019 0.375,-0.046 0.575,-0.124 1.148,-0.253 1.723,-0.381zm5.555 -2.835c-0.055,0.094 -0.118,0.206 -0.184,0.317 -0.04,0.065 -0.028,0.086 0.05,0.111 0.261,0.084 0.522,0.172 0.776,0.276 0.221,0.09 0.446,0.183 0.647,0.311 0.329,0.208 0.652,0.431 0.952,0.677 0.202,0.166 0.363,0.384 0.54,0.58 0.027,0.031 0.038,0.075 0.057,0.113 -0.041,-0.007 -0.086,-0.007 -0.123,-0.024 -0.036,-0.016 -0.064,-0.051 -0.095,-0.077 -0.209,-0.171 -0.403,-0.366 -0.63,-0.508 -0.407,-0.258 -0.829,-0.494 -1.256,-0.719 -0.234,-0.122 -0.489,-0.207 -0.738,-0.298 -0.04,-0.015 -0.142,0.018 -0.145,0.038 -0.019,0.152 0.121,0.344 0.254,0.424 0.362,0.218 0.723,0.441 1.074,0.678 0.158,0.106 0.292,0.249 0.436,0.376 0.151,0.134 0.307,0.263 0.451,0.405 0.192,0.189 0.374,0.388 0.559,0.584 0.028,0.031 0.045,0.072 0.067,0.108 -0.056,-0.007 -0.126,0.004 -0.166,-0.025 -0.069,-0.051 -0.112,-0.136 -0.179,-0.191 -0.254,-0.208 -0.507,-0.42 -0.773,-0.612 -0.457,-0.33 -0.924,-0.646 -1.387,-0.967 -0.033,-0.023 -0.075,-0.031 -0.113,-0.047 0.009,0.042 0.009,0.089 0.029,0.124 0.074,0.131 0.074,0.297 0.228,0.394 0.124,0.078 0.219,0.2 0.326,0.304 0.087,0.087 0.161,0.19 0.26,0.26 0.165,0.118 0.344,0.214 0.516,0.321 0.023,0.015 0.056,0.052 0.051,0.064 -0.014,0.031 -0.044,0.071 -0.073,0.075 -0.041,0.007 -0.09,-0.008 -0.131,-0.024 -0.426,-0.174 -0.732,-0.51 -1.074,-0.797 -0.023,-0.019 -0.047,-0.037 -0.071,-0.056 -0.011,0.029 -0.026,0.057 -0.034,0.087 -0.056,0.216 -0.081,0.446 -0.175,0.643 -0.071,0.148 -0.031,0.214 0.057,0.311 0.234,0.26 0.483,0.511 0.832,0.586 0.338,0.072 0.689,0.088 1.033,0.132 0.503,0.065 1.006,0.131 1.452,0.402 0.046,0.028 0.105,0.034 0.158,0.05 0.015,-0.061 0.04,-0.121 0.044,-0.183 0.025,-0.364 0.056,-0.729 0.063,-1.094 0.005,-0.242 -0.005,-0.487 -0.043,-0.726 -0.044,-0.274 -0.197,-0.499 -0.364,-0.725 -0.347,-0.466 -0.758,-0.847 -1.261,-1.133 -0.165,-0.093 -0.317,-0.209 -0.475,-0.314 -0.337,-0.221 -0.726,-0.156 -1.095,-0.202 -0.092,-0.011 -0.184,-0.016 -0.327,-0.029zm4.876 3.162c0.019,-0.005 0.038,-0.01 0.057,-0.015 -0.102,-0.302 -0.197,-0.605 -0.308,-0.903 -0.04,-0.107 -0.14,-0.193 -0.171,-0.301 -0.105,-0.364 -0.365,-0.538 -0.708,-0.623 -0.07,-0.017 -0.143,-0.024 -0.214,-0.036 0.021,0.062 0.045,0.122 0.063,0.184 0.077,0.266 0.143,0.537 0.232,0.8 0.201,0.592 0.218,1.198 0.066,1.791 -0.108,0.42 0.04,0.79 0.096,1.178 0.039,0.264 0.133,0.52 0.197,0.78 0.009,0.035 -0.014,0.078 -0.023,0.117 -0.028,-0.024 -0.068,-0.043 -0.081,-0.074 -0.104,-0.253 -0.197,-0.511 -0.309,-0.761 -0.043,-0.097 -0.123,-0.245 -0.192,-0.248 -0.145,-0.007 -0.259,-0.047 -0.369,-0.128 -0.017,-0.013 -0.043,-0.013 -0.065,-0.02 0.003,0.02 0.003,0.041 0.009,0.06 0.085,0.298 0.173,0.595 0.258,0.893 0.046,0.164 0.091,0.329 0.127,0.496 0.008,0.038 -0.022,0.084 -0.034,0.125 -0.031,-0.03 -0.076,-0.054 -0.091,-0.091 -0.104,-0.253 -0.206,-0.508 -0.3,-0.765 -0.081,-0.217 -0.171,-0.435 -0.215,-0.66 -0.026,-0.127 -0.059,-0.206 -0.181,-0.242 -0.422,-0.125 -0.845,-0.252 -1.269,-0.374 -0.019,-0.006 -0.075,0.035 -0.073,0.046 0.065,0.362 -0.023,0.701 -0.148,1.036 -0.01,0.027 0.007,0.076 0.028,0.102 0.062,0.08 0.141,0.148 0.198,0.23 0.213,0.303 0.411,0.617 0.63,0.914 0.297,0.402 0.606,0.794 0.914,1.187 0.093,0.119 0.193,0.237 0.305,0.337 0.102,0.091 0.204,0.045 0.272,-0.059 0.244,-0.374 0.499,-0.742 0.722,-1.129 0.201,-0.348 0.373,-0.713 0.539,-1.079 0.058,-0.128 0.069,-0.279 0.088,-0.421 0.051,-0.394 0.137,-0.789 0.129,-1.182 -0.009,-0.39 -0.115,-0.777 -0.179,-1.165zm-11.691 2.913l-0.013 0.002c0.058,0.221 0.115,0.442 0.173,0.663 0.024,0.093 0.041,0.19 0.078,0.277 0.081,0.186 0.194,0.361 0.255,0.553 0.109,0.345 0.28,0.652 0.501,0.932 0.017,0.021 0.09,0.01 0.129,-0.005 0.047,-0.017 0.083,-0.066 0.13,-0.082 0.096,-0.031 0.21,-0.026 0.293,-0.076 0.48,-0.287 0.956,-0.583 1.429,-0.884 0.108,-0.069 0.204,-0.162 0.294,-0.255 0.259,-0.267 0.522,-0.532 0.763,-0.816 0.115,-0.136 0.182,-0.312 0.272,-0.469 0.109,-0.191 0.22,-0.381 0.327,-0.574 0.019,-0.034 0.017,-0.08 0.024,-0.121 -0.034,0.017 -0.069,0.034 -0.104,0.051 -0.055,0.025 -0.108,0.06 -0.166,0.074 -0.262,0.064 -0.464,0.226 -0.674,0.385 -0.197,0.15 -0.42,0.268 -0.639,0.387 -0.112,0.061 -0.209,-0.002 -0.213,-0.108 -0.012,-0.262 -0.024,-0.525 -0.045,-0.787 -0.017,-0.206 -0.048,-0.41 -0.072,-0.616 -0.003,-0.026 -0.004,-0.052 -0.006,-0.078 -0.016,0.024 -0.04,0.045 -0.048,0.071 -0.059,0.209 -0.121,0.418 -0.171,0.629 -0.067,0.277 -0.12,0.557 -0.185,0.834 -0.055,0.234 -0.114,0.466 -0.179,0.697 -0.017,0.06 -0.065,0.112 -0.099,0.167 -0.013,-0.071 -0.049,-0.145 -0.037,-0.212 0.085,-0.479 0.168,-0.96 0.278,-1.434 0.065,-0.282 0.173,-0.555 0.268,-0.83 0.008,-0.023 0.055,-0.04 0.086,-0.045 0.025,-0.004 0.073,0.028 0.077,0.021 0.02,-0.029 0.04,-0.067 0.036,-0.099 -0.019,-0.151 -0.038,-0.303 -0.073,-0.45 -0.071,-0.302 -0.118,-0.601 0.024,-0.897 0.025,-0.052 0.031,-0.112 0.045,-0.169 -0.028,0.038 -0.056,0.077 -0.085,0.114l-0.023 0.012c-0.089,0.098 -0.208,0.184 -0.258,0.3 -0.126,0.289 -0.228,0.59 -0.326,0.89 -0.136,0.417 -0.26,0.838 -0.387,1.257 -0.112,0.368 -0.22,0.738 -0.333,1.106 -0.019,0.062 -0.06,0.118 -0.091,0.177 -0.011,-0.069 -0.023,-0.138 -0.034,-0.207l0.002 -0.014c0.135,-0.54 0.251,-1.086 0.411,-1.618 0.183,-0.604 0.407,-1.197 0.611,-1.795 0.009,-0.025 0.006,-0.053 0.009,-0.08 -0.03,-0.001 -0.062,-0.008 -0.09,0 -0.094,0.027 -0.184,0.066 -0.279,0.088 -0.279,0.067 -0.458,0.244 -0.578,0.496 -0.132,0.277 -0.271,0.551 -0.409,0.825 -0.009,0.018 -0.036,0.027 -0.055,0.04 0,-0.022 -0.006,-0.046 0.001,-0.066 0.103,-0.291 0.207,-0.583 0.313,-0.874 0.081,-0.222 0.083,-0.22 -0.15,-0.195 -0.221,0.024 -0.375,0.155 -0.509,0.317 -0.144,0.175 -0.293,0.347 -0.428,0.53 -0.111,0.15 -0.29,0.265 -0.272,0.488 0.012,0.139 0.011,0.279 0.031,0.416 0.052,0.353 0.113,0.705 0.171,1.057zm12.928 -19.529c-0.031,-0.103 -0.054,-0.223 -0.103,-0.332 -0.034,-0.075 -0.085,-0.157 -0.205,-0.087 -0.03,0.017 -0.129,-0.032 -0.158,-0.075 -0.075,-0.111 -0.113,-0.248 -0.193,-0.353 -0.155,-0.202 -0.327,-0.39 -0.494,-0.582 -0.028,-0.032 -0.065,-0.054 -0.098,-0.081 -0.006,0.052 -0.027,0.108 -0.015,0.156 0.037,0.139 0.109,0.272 0.124,0.412 0.008,0.089 -0.061,0.186 -0.096,0.28 -0.055,-0.047 -0.111,-0.092 -0.164,-0.14 -0.014,-0.012 -0.02,-0.031 -0.03,-0.047 -0.199,-0.311 -0.422,-0.595 -0.753,-0.782 -0.156,-0.089 -0.3,-0.201 -0.451,-0.3 -0.02,-0.013 -0.049,-0.011 -0.074,-0.016 -0.003,0.027 -0.018,0.064 -0.005,0.081 0.074,0.105 0.164,0.199 0.231,0.309 0.038,0.063 0.08,0.169 0.052,0.218 -0.042,0.075 -0.127,0.113 -0.243,0.057 -0.405,-0.196 -0.817,-0.379 -1.231,-0.556 -0.125,-0.054 -0.264,-0.077 -0.399,-0.106 -0.025,-0.005 -0.058,0.034 -0.088,0.052 0.026,0.009 0.055,0.014 0.079,0.028 0.108,0.066 0.216,0.131 0.318,0.205 0.013,0.009 -0.002,0.083 -0.025,0.107 -0.109,0.119 -0.213,0.028 -0.327,-0.006 -0.236,-0.071 -0.477,-0.122 -0.718,-0.177 -0.025,-0.006 -0.057,0.018 -0.086,0.028 0.018,0.02 0.035,0.04 0.054,0.06 0.073,0.077 0.145,0.155 0.221,0.231 0.162,0.163 0.326,0.326 0.491,0.488 0.147,0.145 0.33,0.267 0.439,0.437 0.196,0.305 0.368,0.63 0.514,0.962 0.106,0.244 0.168,0.505 0.35,0.714 0.119,0.137 0.231,0.283 0.324,0.439 0.209,0.349 0.402,0.708 0.607,1.06 0.032,0.054 0.131,0.091 0.132,0.139 0.007,0.195 0.152,0.309 0.253,0.436 0.265,0.33 0.556,0.639 0.838,0.955 0.014,0.016 0.037,0.023 0.055,0.035 -0.002,-0.021 -0.002,-0.043 -0.007,-0.064 -0.106,-0.437 -0.214,-0.874 -0.318,-1.312 -0.078,-0.323 -0.127,-0.656 -0.233,-0.969 -0.151,-0.446 -0.341,-0.879 -0.52,-1.315 -0.09,-0.218 -0.16,-0.454 -0.296,-0.642 -0.413,-0.57 -0.958,-1.016 -1.478,-1.485 -0.029,-0.026 -0.047,-0.065 -0.07,-0.098 0.038,0.014 0.083,0.02 0.113,0.045 0.416,0.343 0.895,0.609 1.238,1.04 0.109,0.135 0.269,0.237 0.35,0.384 0.192,0.351 0.361,0.716 0.521,1.083 0.111,0.257 0.19,0.529 0.287,0.793 0.052,0.143 0.127,0.279 0.163,0.426 0.056,0.228 0.083,0.462 0.131,0.692 0.017,0.082 0.072,0.156 0.089,0.238 0.029,0.147 0.023,0.303 0.065,0.444 0.083,0.278 0.191,0.548 0.283,0.823 0.025,0.076 0.015,0.167 0.047,0.24 0.103,0.236 0.279,0.417 0.449,0.609 0.345,0.388 0.658,0.804 0.986,1.207 0.04,0.049 0.087,0.091 0.131,0.136 -0.015,-0.056 -0.032,-0.111 -0.044,-0.166 -0.005,-0.023 -0.004,-0.047 -0.001,-0.07 0.026,-0.174 0.071,-0.347 0.076,-0.521 0.009,-0.295 -0.007,-0.591 -0.015,-0.886 -0.014,-0.576 -0.168,-1.126 -0.315,-1.678 -0.054,-0.204 -0.034,-0.428 -0.048,-0.643 -0.003,-0.053 -0.007,-0.106 -0.01,-0.159 -0.051,0.036 -0.105,0.068 -0.152,0.107 -0.119,0.1 -0.229,0.212 -0.355,0.3 -0.038,0.027 -0.131,0.013 -0.176,-0.017 -0.379,-0.247 -0.447,-0.656 -0.357,-1.068 0.044,-0.204 0.104,-0.406 0.16,-0.607 0.045,-0.16 0.096,-0.319 0.145,-0.478 0.021,-0.068 0.059,-0.135 0.06,-0.203 0.002,-0.14 -0.015,-0.279 -0.025,-0.435zm7.534 12.885c-0.046,0.007 -0.092,0.019 -0.139,0.022 -0.28,0.014 -0.56,0.046 -0.839,0.036 -0.339,-0.013 -0.685,-0.027 -1.013,-0.104 -0.45,-0.107 -0.917,-0.174 -1.32,-0.443 -0.135,-0.091 -0.325,-0.095 -0.482,-0.159 -0.191,-0.078 -0.373,-0.176 -0.559,-0.268 -0.05,-0.024 -0.096,-0.056 -0.146,-0.082 -0.384,-0.203 -0.769,-0.403 -1.152,-0.609 -0.453,-0.244 -0.904,-0.492 -1.356,-0.738 -0.016,-0.009 -0.037,-0.011 -0.051,-0.023 -0.232,-0.195 -0.519,-0.218 -0.803,-0.265 -0.297,-0.05 -0.591,-0.12 -0.886,-0.182 -0.136,-0.029 -0.276,-0.097 -0.406,-0.082 -0.15,0.019 -0.306,0.088 -0.434,0.174 -0.374,0.252 -0.72,0.546 -1.222,0.503 -0.179,-0.016 -0.364,0.053 -0.546,0.081 -0.141,0.021 -0.238,-0.03 -0.348,-0.131 -0.098,-0.09 -0.26,-0.137 -0.399,-0.15 -0.43,-0.04 -0.8,-0.161 -1.004,-0.583 -0.009,-0.019 -0.049,-0.045 -0.059,-0.039 -0.067,0.037 -0.147,0.069 -0.189,0.127 -0.034,0.045 -0.07,0.11 0.051,0.168 0.344,0.167 0.619,0.427 0.785,0.778 0.056,0.117 0.117,0.114 0.226,0.104 0.417,-0.039 0.824,-0.009 1.237,0.095 0.489,0.124 0.813,0.469 1.183,0.757 0.462,0.358 0.843,0.781 1.04,1.346 0.112,0.322 0.308,0.584 0.572,0.802 0.161,0.133 0.309,0.283 0.445,0.44 0.035,0.04 0.017,0.143 -0.004,0.208 -0.013,0.037 -0.078,0.063 -0.124,0.083 -0.075,0.03 -0.154,0.051 -0.231,0.076 0.047,0.101 0.09,0.205 0.142,0.303 0.117,0.217 0.278,0.419 0.351,0.649 0.145,0.463 0.276,0.935 0.349,1.413 0.074,0.476 0.071,0.963 0.1,1.445 0.012,0.201 0.027,0.402 0.029,0.603 0.001,0.072 -0.031,0.143 -0.046,0.215 -0.009,0.041 -0.015,0.083 -0.024,0.124 -0.037,0.177 -0.071,0.355 -0.117,0.53 -0.008,0.028 -0.084,0.068 -0.107,0.057 -0.154,-0.071 -0.199,0.039 -0.248,0.139 -0.163,0.339 -0.313,0.685 -0.489,1.017 -0.101,0.189 -0.242,0.357 -0.368,0.533 -0.099,0.137 -0.193,0.28 -0.307,0.405 -0.279,0.307 -0.554,0.619 -0.858,0.901 -0.172,0.159 -0.386,0.287 -0.602,0.383 -0.323,0.145 -0.606,0.349 -0.88,0.56 -0.145,0.112 -0.237,0.293 -0.348,0.447 -0.129,0.18 -0.274,0.193 -0.409,0.012 -0.079,-0.107 -0.126,-0.237 -0.196,-0.352 -0.026,-0.042 -0.077,-0.069 -0.117,-0.104 -0.014,0.05 -0.024,0.1 -0.042,0.148 -0.044,0.116 -0.088,0.232 -0.139,0.344 -0.077,0.166 -0.151,0.335 -0.244,0.491 -0.045,0.077 -0.129,0.131 -0.199,0.191 -0.013,0.012 -0.042,0.006 -0.064,0.008 0.003,-0.021 0.002,-0.043 0.009,-0.062 0.117,-0.29 0.227,-0.583 0.355,-0.868 0.063,-0.141 0.073,-0.308 0.231,-0.41 0.142,-0.092 0.014,-0.232 -0.003,-0.344 -0.03,-0.204 -0.097,-0.403 -0.152,-0.604 -0.01,-0.039 -0.033,-0.074 -0.05,-0.111 -0.028,0.04 -0.073,0.077 -0.08,0.121 -0.083,0.463 -0.172,0.924 -0.353,1.362 -0.03,0.074 -0.023,0.162 -0.048,0.239 -0.042,0.134 -0.093,0.264 -0.145,0.394 -0.052,0.133 -0.108,0.265 -0.168,0.394 -0.012,0.025 -0.053,0.035 -0.08,0.052 -0.009,-0.035 -0.032,-0.074 -0.023,-0.104 0.087,-0.292 0.189,-0.578 0.266,-0.872 0.095,-0.363 0.17,-0.731 0.254,-1.097 0.073,-0.316 0.149,-0.632 0.216,-0.949 0.012,-0.054 -0.014,-0.115 -0.022,-0.173 -0.034,0.028 -0.071,0.053 -0.1,0.085 -0.139,0.159 -0.272,0.321 -0.413,0.478 -0.121,0.135 -0.244,0.27 -0.376,0.395 -0.147,0.138 -0.294,0.282 -0.462,0.391 -0.144,0.093 -0.187,0.224 -0.239,0.368 -0.062,0.172 0.014,0.334 0.008,0.499 -0.009,0.255 -0.054,0.509 -0.079,0.764 -0.006,0.058 0.011,0.118 0.01,0.177 -0.001,0.096 -0.006,0.193 -0.013,0.289 -0.009,0.138 -0.022,0.275 -0.031,0.413 -0.002,0.036 0.022,0.078 0.011,0.109 -0.063,0.189 0.074,0.122 0.144,0.107 0.238,-0.051 0.474,-0.116 0.711,-0.168 0.426,-0.094 0.859,-0.167 1.196,-0.481 0.013,-0.012 0.032,-0.027 0.047,-0.026 0.427,0.027 0.712,-0.24 1.004,-0.486 0.334,-0.28 0.673,-0.556 0.989,-0.855 0.302,-0.286 0.587,-0.591 0.863,-0.902 0.171,-0.194 0.317,-0.411 0.465,-0.624 0.037,-0.053 0.036,-0.132 0.061,-0.195 0.013,-0.033 0.045,-0.057 0.069,-0.085 0.024,0.026 0.069,0.053 0.069,0.079 -0.004,0.104 0.01,0.225 -0.039,0.306 -0.158,0.263 -0.328,0.523 -0.519,0.763 -0.182,0.229 -0.387,0.441 -0.596,0.646 -0.254,0.248 -0.516,0.49 -0.786,0.72 -0.286,0.242 -0.576,0.481 -0.884,0.693 -0.16,0.111 -0.373,0.144 -0.544,0.243 -0.207,0.12 -0.393,0.274 -0.59,0.411 -0.206,0.143 -0.411,0.288 -0.623,0.423 -0.243,0.155 -0.49,0.304 -0.741,0.446 -0.191,0.107 -0.392,0.197 -0.584,0.302 -0.079,0.043 -0.145,0.111 -0.221,0.159 -0.151,0.093 -0.312,0.028 -0.407,-0.115 -0.08,-0.12 -0.203,-0.213 -0.31,-0.315 -0.004,-0.004 -0.046,0.017 -0.054,0.034 -0.047,0.103 -0.093,0.207 -0.133,0.313 -0.034,0.091 -0.058,0.185 -0.089,0.277 -0.085,0.245 -0.114,0.275 -0.371,0.233 -0.393,-0.064 -0.73,-0.23 -0.96,-0.58 -0.068,-0.104 -0.197,-0.167 -0.282,-0.263 -0.207,-0.233 -0.42,-0.464 -0.602,-0.716 -0.132,-0.182 -0.214,-0.4 -0.327,-0.597 -0.028,-0.049 -0.087,-0.081 -0.131,-0.121 -0.001,0.062 -0.009,0.125 -0.002,0.186 0.014,0.129 0.059,0.26 0.041,0.383 -0.007,0.042 -0.168,0.096 -0.248,0.083 -0.081,-0.012 -0.174,-0.086 -0.221,-0.159 -0.224,-0.345 -0.542,-0.589 -0.843,-0.858 -0.3,-0.268 -0.552,-0.591 -0.806,-0.905 -0.213,-0.264 -0.425,-0.536 -0.594,-0.83 -0.36,-0.624 -0.586,-1.299 -0.668,-2.018 -0.047,-0.418 -0.093,-0.837 -0.134,-1.257 -0.018,-0.188 -0.019,-0.378 -0.029,-0.568 -0.002,-0.029 -0.005,-0.076 -0.023,-0.086 -0.235,-0.131 -0.388,-0.334 -0.488,-0.573 -0.073,-0.174 -0.114,-0.361 -0.167,-0.542 -0.026,-0.089 -0.061,-0.178 -0.066,-0.269 -0.023,-0.374 -0.066,-0.749 -0.043,-1.121 0.022,-0.385 0.103,-0.768 0.176,-1.148 0.034,-0.181 0.082,-0.369 0.171,-0.526 0.145,-0.256 0.226,-0.545 0.444,-0.765 0.214,-0.217 0.378,-0.482 0.584,-0.707 0.215,-0.236 0.438,-0.472 0.69,-0.666 0.13,-0.1 0.328,-0.121 0.499,-0.149 0.061,-0.01 0.136,0.067 0.204,0.104 -0.049,0.064 -0.087,0.144 -0.15,0.188 -0.239,0.167 -0.499,0.306 -0.725,0.488 -0.26,0.21 -0.511,0.438 -0.73,0.689 -0.295,0.337 -0.529,0.716 -0.656,1.155 -0.143,0.494 -0.244,0.993 -0.265,1.508 -0.007,0.178 -0.024,0.357 -0.019,0.535 0.003,0.083 0.067,0.166 0.068,0.248 0,0.33 0.161,0.621 0.216,0.938 0.025,0.139 0.152,0.26 0.238,0.386 0.013,0.019 0.068,0.037 0.08,0.027 0.074,-0.066 0.176,-0.127 0.205,-0.212 0.159,-0.462 0.346,-0.907 0.644,-1.3 0.271,-0.357 0.534,-0.721 0.8,-1.082 0.017,-0.024 0.028,-0.052 0.041,-0.078 -0.026,-0.001 -0.055,-0.007 -0.08,-0.001 -0.334,0.072 -0.668,0.145 -1.001,0.219 -0.026,0.006 -0.051,0.023 -0.073,0.038 -0.042,0.027 -0.082,0.058 -0.123,0.087 -0.047,-0.071 -0.096,-0.141 -0.138,-0.214 -0.014,-0.025 -0.007,-0.061 -0.01,-0.092 -0.012,0.031 -0.023,0.063 -0.036,0.093 -0.064,0.161 -0.148,0.317 -0.187,0.484 -0.055,0.239 -0.076,0.485 -0.112,0.728 -0.011,0.079 -0.022,0.158 -0.033,0.236 -0.037,-0.076 -0.098,-0.149 -0.105,-0.228 -0.014,-0.161 -0.015,-0.326 0.006,-0.486 0.033,-0.251 0.079,-0.502 0.138,-0.748 0.042,-0.177 0.151,-0.309 0.345,-0.341 0.165,-0.026 0.174,-0.16 0.206,-0.283 0.071,-0.281 0.128,-0.566 0.22,-0.84 0.093,-0.276 0.188,-0.56 0.341,-0.804 0.203,-0.324 0.422,-0.645 0.74,-0.88 0.152,-0.113 0.287,-0.248 0.433,-0.37 0.059,-0.049 0.05,-0.068 -0.017,-0.1 -0.257,-0.122 -0.512,-0.249 -0.767,-0.376 -0.096,-0.049 -0.194,-0.097 -0.28,-0.16 -0.066,-0.049 -0.098,-0.13 0.012,-0.167 0.166,-0.055 0.337,-0.1 0.507,-0.141 0.337,-0.082 0.586,-0.277 0.779,-0.561 0.177,-0.26 0.345,-0.535 0.564,-0.757 0.195,-0.198 0.465,-0.32 0.685,-0.497 0.267,-0.215 0.586,-0.283 0.903,-0.349 0.335,-0.069 0.674,-0.15 1.019,-0.045 0.032,0.01 0.073,0.002 0.107,-0.009 0.231,-0.072 0.46,-0.158 0.695,-0.219 0.176,-0.046 0.366,-0.042 0.539,-0.095 0.141,-0.044 0.275,-0.126 0.394,-0.215 0.166,-0.124 0.316,-0.27 0.473,-0.408 0.052,-0.046 0.103,-0.093 0.152,-0.142 0.089,-0.09 0.177,-0.181 0.261,-0.275 0.027,-0.031 0.043,-0.073 0.064,-0.11 -0.034,0.001 -0.068,0.002 -0.102,0.004 -0.026,0.002 -0.072,0.015 -0.076,0.007 -0.08,-0.153 -0.24,-0.095 -0.358,-0.145 -0.063,-0.027 -0.135,-0.089 -0.156,-0.151 -0.037,-0.109 -0.108,-0.129 -0.201,-0.134 -0.075,-0.003 -0.151,-0.001 -0.223,-0.016 -0.048,-0.009 -0.089,-0.046 -0.134,-0.07 0.04,-0.03 0.077,-0.065 0.119,-0.089 0.032,-0.018 0.086,-0.013 0.102,-0.037 0.033,-0.049 0.217,-0.062 0.051,-0.18 -0.021,-0.016 0.008,-0.164 0.054,-0.2 0.084,-0.066 0.199,-0.09 0.297,-0.139 0.156,-0.079 0.309,-0.162 0.461,-0.248 0.006,-0.003 -0.007,-0.054 -0.022,-0.075 -0.03,-0.04 -0.093,-0.073 -0.095,-0.112 -0.002,-0.037 0.048,-0.096 0.089,-0.113 0.214,-0.088 0.433,-0.166 0.65,-0.248 0.034,-0.012 0.066,-0.028 0.098,-0.044 0.079,-0.04 0.138,-0.055 -0.004,-0.115 -0.147,-0.061 -0.053,-0.194 0.013,-0.249 0.161,-0.133 0.063,-0.159 -0.058,-0.199 -0.206,-0.068 -0.418,-0.125 -0.611,-0.218 -0.126,-0.061 -0.287,-0.162 -0.319,-0.276 -0.057,-0.204 -0.217,-0.231 -0.353,-0.296 -0.375,-0.182 -0.724,-0.4 -1.013,-0.702 -0.081,-0.084 -0.13,-0.195 -0.021,-0.308 0.012,-0.013 -0.008,-0.083 -0.032,-0.097 -0.25,-0.149 -0.51,-0.282 -0.752,-0.442 -0.104,-0.069 -0.18,-0.186 -0.255,-0.291 -0.066,-0.093 -0.034,-0.18 0.072,-0.223 0.094,-0.039 0.194,-0.061 0.289,-0.098 0.038,-0.014 0.068,-0.049 0.101,-0.075 -0.024,-0.023 -0.044,-0.05 -0.072,-0.067 -0.155,-0.091 -0.316,-0.173 -0.465,-0.274 -0.055,-0.038 -0.107,-0.118 -0.11,-0.181 -0.003,-0.043 0.075,-0.104 0.129,-0.132 0.073,-0.038 0.159,-0.052 0.238,-0.076 0.045,-0.015 0.09,-0.031 0.135,-0.046 -0.045,-0.023 -0.088,-0.052 -0.135,-0.067 -0.463,-0.152 -0.938,-0.277 -1.388,-0.462 -0.304,-0.126 -0.616,-0.077 -0.918,-0.142 -0.037,-0.008 -0.073,-0.021 -0.11,-0.031 0.022,-0.034 0.038,-0.076 0.068,-0.099 0.111,-0.085 0.228,-0.163 0.34,-0.246 0.023,-0.018 0.037,-0.049 0.055,-0.073 -0.027,-0.006 -0.054,-0.016 -0.081,-0.018 -0.341,-0.025 -0.681,-0.047 -1.016,0.047 -0.035,0.01 -0.076,0.02 -0.11,0.011 -0.04,-0.01 -0.076,-0.039 -0.114,-0.061 0.021,-0.033 0.036,-0.076 0.065,-0.097 0.203,-0.14 0.414,-0.269 0.612,-0.416 0.121,-0.091 0.223,-0.207 0.33,-0.315 0.016,-0.016 0.015,-0.049 0.022,-0.073 -0.026,0.008 -0.053,0.012 -0.076,0.025 -0.056,0.033 -0.107,0.079 -0.167,0.103 -0.039,0.016 -0.091,0.004 -0.137,0.005 0.016,-0.042 0.019,-0.102 0.049,-0.124 0.298,-0.217 0.605,-0.422 0.899,-0.643 0.194,-0.146 0.372,-0.312 0.556,-0.469 0.04,-0.033 0.062,-0.139 0.133,-0.03 0.071,-0.05 0.145,-0.095 0.21,-0.152 0.074,-0.066 0.127,-0.177 0.211,-0.208 0.318,-0.116 0.646,-0.206 0.969,-0.309 0.052,-0.016 0.098,-0.049 0.146,-0.075 -0.036,-0.03 -0.076,-0.057 -0.106,-0.093 -0.028,-0.033 -0.067,-0.082 -0.059,-0.114 0.009,-0.04 0.058,-0.097 0.094,-0.101 0.29,-0.025 0.581,-0.041 0.872,-0.057 0.231,-0.013 0.466,-0.004 0.693,-0.038 0.311,-0.046 0.608,-0.142 0.935,-0.124 0.358,0.021 0.721,-0.027 1.081,-0.05 0.025,-0.002 0.066,-0.046 0.067,-0.073 0.01,-0.145 0.088,-0.222 0.233,-0.185 0.321,0.082 0.638,0.182 0.958,0.266 0.168,0.045 0.341,0.074 0.512,0.106 0.022,0.004 0.047,-0.011 0.071,-0.017 -0.012,-0.019 -0.027,-0.037 -0.036,-0.058 -0.04,-0.095 -0.136,-0.218 -0.107,-0.281 0.064,-0.135 0.217,-0.086 0.323,-0.033 0.232,0.116 0.454,0.25 0.679,0.379 0.168,0.097 0.334,0.199 0.503,0.295 0.025,0.014 0.087,0.014 0.089,0.008 0.015,-0.056 0.035,-0.116 0.028,-0.171 -0.012,-0.082 -0.048,-0.145 0.066,-0.202 0.096,-0.049 0.135,-0.015 0.189,0.041 0.16,0.165 0.317,0.336 0.485,0.493 0.102,0.096 0.27,0.15 0.324,0.263 0.085,0.176 0.291,0.121 0.382,0.268 0.087,0.14 0.24,0.241 0.317,0.384 0.089,0.166 0.143,0.356 0.181,0.542 0.103,0.499 -0.076,0.944 -0.279,1.386 -0.11,0.239 -0.17,0.495 0.065,0.71 0.034,0.031 0.087,0.041 0.132,0.061 0.009,-0.047 0.034,-0.097 0.024,-0.139 -0.022,-0.094 -0.078,-0.182 -0.089,-0.276 -0.008,-0.072 0.011,-0.17 0.057,-0.217 0.033,-0.033 0.133,-0.001 0.203,0.006 0.016,0.001 0.033,0.016 0.048,0.027 0.051,0.037 0.101,0.075 0.151,0.113 -0.001,-0.072 0.005,-0.144 -0.004,-0.215 -0.019,-0.158 -0.05,-0.314 -0.066,-0.472 -0.017,-0.176 0.046,-0.234 0.208,-0.18 0.107,0.036 0.081,-0.012 0.065,-0.07 -0.133,-0.478 -0.289,-0.947 -0.557,-1.37 -0.029,-0.047 -0.053,-0.101 -0.063,-0.154 -0.021,-0.113 0.05,-0.167 0.159,-0.129 0.356,0.125 0.652,0.332 0.88,0.633 0.043,0.056 0.082,0.114 0.126,0.169 0.015,0.018 0.04,0.029 0.06,0.044 0.001,-0.023 0.003,-0.047 0.002,-0.07 -0.005,-0.112 -0.02,-0.225 -0.014,-0.338 0.009,-0.171 0.114,-0.217 0.251,-0.109 0.19,0.151 0.373,0.31 0.56,0.465 0.02,0.016 0.044,0.026 0.066,0.039 0.002,-0.022 0.003,-0.044 0.006,-0.065 0.008,-0.06 -0.002,-0.133 0.03,-0.175 0.162,-0.216 0.209,-0.245 0.422,0.019 0.348,0.431 0.58,0.921 0.702,1.462 0.025,0.112 0.089,0.129 0.2,0.152 0.112,0.024 0.219,0.139 0.298,0.237 0.304,0.381 0.416,0.839 0.498,1.307 0.004,0.027 0.012,0.054 0.018,0.08 0.015,-0.026 0.031,-0.052 0.046,-0.079 0.038,-0.065 0.076,-0.13 0.114,-0.195 0.085,0.055 0.191,0.084 0.185,0.226 -0.01,0.283 0.002,0.568 -0.012,0.851 -0.009,0.17 -0.06,0.338 -0.075,0.508 -0.015,0.17 -0.095,0.293 -0.215,0.406 -0.148,0.14 -0.278,0.3 -0.433,0.431 -0.107,0.09 -0.243,0.144 -0.366,0.214 -0.365,0.21 -0.73,0.42 -1.094,0.63 -0.203,0.117 -0.425,0.208 -0.604,0.353 -0.246,0.199 -0.429,0.447 -0.406,0.8 0.032,0.512 0.244,0.936 0.598,1.293 0.576,0.58 1.155,1.157 1.737,1.73 0.493,0.484 1.024,0.915 1.665,1.193 0.602,0.261 1.226,0.454 1.871,0.571 0.117,0.021 0.242,-0.009 0.363,-0.011 0.219,-0.005 0.438,0 0.657,-0.012 0.179,-0.009 0.357,-0.032 0.535,-0.055 0.153,-0.02 0.304,-0.053 0.457,-0.071 0.033,-0.004 0.071,0.029 0.106,0.044 -0.023,0.025 -0.042,0.062 -0.07,0.074 -0.391,0.164 -0.796,0.265 -1.22,0.277 -0.354,0.01 -0.708,0.012 -1.062,0.014 -0.197,0.002 -0.394,0.004 -0.59,-0.009 -0.331,-0.022 -0.668,-0.027 -0.99,-0.094 -0.324,-0.068 -0.644,-0.043 -0.966,-0.062 -0.193,-0.012 -0.384,-0.097 -0.572,-0.163 -0.399,-0.14 -0.795,-0.287 -1.192,-0.436 -0.121,-0.045 -0.238,-0.105 -0.357,-0.157 -0.026,-0.011 -0.055,-0.014 -0.082,-0.021 0.018,0.024 0.031,0.057 0.055,0.071 0.189,0.109 0.379,0.217 0.571,0.321 0.254,0.137 0.507,0.276 0.767,0.401 0.087,0.042 0.196,0.036 0.291,0.065 0.377,0.114 0.748,0.25 1.129,0.346 0.313,0.08 0.635,0.143 0.956,0.163 0.377,0.025 0.758,0 1.137,-0.01 0.277,-0.008 0.553,-0.027 0.83,-0.038 0.022,-0.001 0.064,0.024 0.063,0.032 -0.004,0.028 -0.016,0.067 -0.038,0.078 -0.061,0.033 -0.127,0.064 -0.194,0.077 -0.198,0.038 -0.397,0.067 -0.595,0.099l0.001 0.003z"/>
   <path class="fil3" d="M15.427 28.505c-0.014,0.142 -0.021,0.285 -0.043,0.426 -0.055,0.351 -0.114,0.7 -0.177,1.049 -0.01,0.057 -0.05,0.108 -0.074,0.163 -0.018,0.039 -0.032,0.079 -0.048,0.119 -0.005,-0.051 -0.017,-0.102 -0.015,-0.152 0.01,-0.219 0.021,-0.438 0.037,-0.657 0.018,-0.233 0.044,-0.465 0.066,-0.698 0.009,-0.106 0.009,-0.214 0.032,-0.316 0.012,-0.052 0.067,-0.094 0.102,-0.141 0.031,0.046 0.064,0.09 0.092,0.137 0.011,0.019 0.008,0.045 0.012,0.069l0.016 0.001z"/>
   <path class="fil3" d="M13.06 24.868c0.008,0.199 -0.008,0.403 0.027,0.597 0.081,0.437 -0.128,0.823 -0.19,1.234 -0.017,0.116 -0.064,0.228 -0.104,0.34 -0.009,0.025 -0.042,0.043 -0.064,0.063 -0.013,-0.026 -0.039,-0.053 -0.037,-0.079 0.01,-0.133 0.025,-0.267 0.041,-0.4 0.043,-0.351 0.117,-0.702 0.121,-1.054 0.004,-0.285 -0.072,-0.572 -0.121,-0.857 -0.015,-0.087 -0.028,-0.177 0.073,-0.188 0.093,-0.009 0.214,-0.002 0.215,0.151 0.001,0.065 0.014,0.129 0.022,0.194l0.017 -0.001z"/>
   <path class="fil3" d="M8.961 19.568c-0.246,0.041 -0.493,0.077 -0.738,0.123 -0.095,0.017 -0.184,0.063 -0.279,0.079 -0.043,0.006 -0.127,-0.022 -0.133,-0.047 -0.011,-0.051 0.001,-0.131 0.036,-0.162 0.053,-0.045 0.131,-0.07 0.202,-0.08 0.432,-0.063 0.864,-0.128 1.298,-0.172 0.253,-0.025 0.507,0.003 0.74,0.126 0.106,0.056 0.223,0.09 0.325,0.151 0.066,0.04 0.127,0.102 0.166,0.168 0.019,0.032 -0.002,0.116 -0.033,0.141 -0.025,0.019 -0.1,-0.004 -0.14,-0.028 -0.097,-0.06 -0.178,-0.149 -0.28,-0.194 -0.374,-0.165 -0.767,-0.16 -1.164,-0.105z"/>
  </g>
 </g>
</svg>
