<?xml version="1.0" encoding="UTF-8"?>
<!DOCTYPE svg PUBLIC "-//W3C//DTD SVG 1.1//EN" "http://www.w3.org/Graphics/SVG/1.1/DTD/svg11.dtd">
<!-- Creator: CorelDRAW -->
<svg xmlns="http://www.w3.org/2000/svg" xml:space="preserve" width="120px" height="120px" version="1.1" style="shape-rendering:geometricPrecision; text-rendering:geometricPrecision; image-rendering:optimizeQuality; fill-rule:evenodd; clip-rule:evenodd"
viewBox="0 0 51.67 51.67"
 xmlns:xlink="http://www.w3.org/1999/xlink"
 xmlns:xodm="http://www.corel.com/coreldraw/odm/2003">
 <defs>
  <style type="text/css">
   <![CDATA[
    .fil3 {fill:black}
    .fil2 {fill:#ABC284}
    .fil0 {fill:#EDE3C8}
    .fil1 {fill:#FFF379}
   ]]>
  </style>
 </defs>
 <g id="Layer_x0020_1">
  <metadata id="CorelCorpID_0Corel-Layer"/>
  <g id="_2767294772896">
   <rect class="fil0" width="51.67" height="51.67"/>
   <path class="fil1" d="M13.108 35.179l3.714 3.873c1.215,2.567 4.878,6.244 8.078,6.758 2.355,0.378 4.183,-0.021 5.577,-1.327 2.011,-1.885 2.872,-4.554 1.769,-7.112 -1.841,-4.272 -0.648,-1.355 -2.865,-4.96 -1.577,-2.563 -0.58,-4.713 0.283,-7.237 1.027,-3.004 0.79,-5.318 -1.458,-6.605 -2.568,-1.471 -2.251,-1.119 -6.666,-2.107 -1.49,-0.248 -2.81,0.047 -4.297,0.227 -14.514,0 -12.618,12.229 -10.054,14.853 1.385,1.418 4.187,3.219 5.919,3.637z"/>
   <path class="fil2" d="M42.245 31.934c0.176,-0.34 0.321,-1.03 0.37,-1.93l0.746 -1.217c1.554,-2.266 -1.286,-4.114 -0.2,-7.077 0.928,-2.534 2.576,-3.366 1.07,-6.593l-0.521 -0.722c-1.095,-1.025 -0.797,-0.903 -2.187,-1.534 -0.761,-0.38 -2.029,-1.056 -2.499,-1.645 0,0 -6.768,-3.199 -10.733,-0.034 -0.094,0.03 -0.181,0.058 -0.258,0.085l0.053 0.086c-0.09,0.079 -0.178,0.159 -0.264,0.245 -4.13,4.103 2.368,5.388 5.447,4.993 0.286,-0.027 0.572,-0.064 0.854,-0.11l0.266 0.493 0.335 0.627 0.899 0.06c0,0 -1.499,-0.113 -3.829,3.597 -0.66,0.817 -1.531,3.041 -1.623,3.963 -0.16,1.608 0.406,3.167 1.453,4.026 2.43,3.808 6.884,4.547 10.621,2.687zm-6.933 12.816c1.747,2.61 6.526,1.039 6.526,-1.957 0,-2.012 -5.631,-1.884 -6.526,1.957z"/>
   <path class="fil3" d="M31.794 21.258c-0.931,4.144 -0.944,3.743 -0.17,7.989 0.651,1.122 0.903,2.018 1.712,3.121 0.924,1.262 1.445,1.315 2.349,2.376 -0.349,0.921 -2.136,2.812 -2.974,3.282 -2.073,2.272 -7.716,3.118 -11.412,2.028 -10.888,-3.213 -12.41,-16.296 -4.801,-21.949 2.312,-1.718 3.143,-1.959 5.042,-1.643 1.267,-0.056 4.776,-0.639 5.393,-0.54 3.202,0.515 3.204,1.489 3.866,2.187 1.518,-0.264 1.494,-0.198 2.354,0.755 -0.29,0.633 -0.872,1.8 -1.359,2.394zm-15.727 11.528c0.044,0.308 0.257,0.073 0.258,0.066 0.047,-0.463 -0.273,-0.166 -0.258,-0.066zm3.269 -12.11l0.613 -0.47c-0.426,0.005 -0.209,-0.264 -0.439,0.067 -0.026,0.037 -0.128,0.347 -0.174,0.403zm8.25 18.201c0.232,0.091 -0.331,0.546 0.502,0 -0.04,-0.038 -0.088,-0.117 -0.109,-0.125 -1.153,-0.462 0.051,-0.208 -0.393,0.125zm-10.678 -2.828c0.861,0.454 0.114,0.156 0.476,0 -0.98,-0.671 -0.392,-0.086 -0.476,0zm-2.605 -2.828c1.016,0.605 0.349,0.136 0.481,0 -0.817,-0.555 -0.216,-0.123 -0.481,0zm2.954 -11.189c0.486,-0.312 0.217,0.173 0.256,-0.523 -0.318,0.19 -0.567,-0.033 -0.256,0.523zm-0.034 -2.733c0.007,0.265 0.399,0.198 0.309,-0.056 -0.056,-0.16 -0.332,-0.851 -0.309,0.056zm-2.191 10.877c0.02,0.353 0.399,0.198 0.308,-0.039 -0.075,-0.197 -0.354,-0.791 -0.308,0.039zm-2.126 0.58c0.709,-0.909 0.075,-0.348 0,-0.514 -0.133,0.297 -0.518,-0.394 0,0.514zm19.143 4.32c-0.91,0.338 -0.107,0.393 0,0.519 0.027,-0.044 0.095,-0.098 0.101,-0.118l-0.101 -0.401zm-18.291 -3.839c0.512,0.726 -0.514,0.173 0.556,0.596 -0.353,-0.86 0.34,-0.374 -0.556,-0.596zm2.194 -5.218c0.323,-0.407 0.529,0.069 0,-0.56 -0.326,0.365 -0.484,0.182 0,0.56zm17.105 10.544c0.497,-0.213 0.225,0.52 0.43,-0.434 -0.603,0.015 -0.482,-0.305 -0.43,0.434zm-17.199 -12.82c0.643,-0.143 0.264,0.033 0.449,-0.6 -0.686,0.358 -0.403,-0.143 -0.449,0.6zm13.581 15.298c0.575,-0.682 0.29,-0.229 0,-0.576 -0.623,0.496 -0.276,0.272 0,0.576zm-11.048 -19.556c0.845,-0.286 0.409,-0.073 0.638,-0.658 -0.512,0.167 -0.591,-0.057 -0.638,0.658zm-0.477 -1.316l1.155 -0.8c-0.847,0.122 -0.945,0.133 -1.155,0.8zm-5.225 11.139c0.032,-0.043 0.3,0.196 0.246,-0.466 -0.062,-0.739 0.002,-0.178 -0.246,-0.497 -0.242,0.614 -0.325,0.423 0,0.963zm4.35 -8.46c0.214,-0.115 0.969,-0.369 0.163,-0.586 -0.706,-0.189 -0.377,0.341 -0.163,0.586zm-1.871 7.24c0.002,-0.012 0.39,-0.384 -0.379,-0.691 -0.65,-0.26 -0.133,-0.022 -0.583,-0.119 0.545,0.882 0.526,0.758 0.962,0.81zm-1.846 -2.179l2.449 -5.109c-1.198,0.516 -2.326,4.077 -2.449,5.109zm-0.641 -0.653c0.034,-0.048 0.087,-0.178 0.101,-0.144l1.648 -3.225c0.672,-1.078 1.626,-2.119 2.021,-3.049 -1.211,0.382 -1.741,1.628 -2.309,2.801 -0.584,1.21 -1.265,2.228 -1.461,3.617zm29.564 6.678c0.067,1.146 -1.022,5.156 -1.495,6.067 -0.642,-0.401 -1.214,-1.172 -1.957,-1.737 -0.762,-0.579 -1.352,-0.927 -2.036,-1.443 -1.155,-0.872 -2.922,-2.294 -3.344,-3.801 -2.268,-2.188 -2.478,-9.682 1.246,-12.62l0.348 0.544c0.023,0.045 0.049,0.102 0.071,0.149l0.726 2.382c-0.932,1.094 -2.104,2.671 -2.559,4.519 0.737,-0.396 1.22,-2.588 2.72,-3.94 0.146,0.187 0.04,-0.024 0.283,0.439 1.716,3.274 -0.025,4.197 -0.194,6.299l1.216 -2.697c0.459,0.601 0.801,1.99 1.016,2.87 0.283,1.159 0.238,0.662 -0.071,1.722 -0.039,0.135 -0.166,0.536 -0.169,0.66 -0.011,0.523 -0.022,0.315 0.18,0.612l-0.075 -0.048 0.413 -1.269c0.43,0.545 0.317,0.555 0.428,1.273l0.391 1.189 0.006 -0.839c-0.03,-0.059 -0.054,-0.137 -0.07,-0.185l-1.409 -5.822c0.967,0.674 1.191,1.83 1.961,2.598 -0.711,-3.85 -2.152,-0.832 -3.108,-6.711 1.591,0.533 1.89,1.657 2.91,2.6 -0.4,-1.486 -1.322,-2.207 -2.521,-2.939 -1.066,-0.65 -1.602,-2.277 -1.906,-3.585 7.967,2.123 7.856,12.058 6.999,13.713zm-9.732 -15.246c0.258,-0.858 0.496,-1.392 1.072,-2 0.511,0.92 0.432,0.196 0.538,1.793 -0.024,0.845 0.368,1.843 -0.527,1.826 -0.457,-0.009 -1.125,-0.709 -1.41,-1.197l0.327 -0.422zm6.511 -5.472c1.712,-0.134 5.414,0.647 6.727,1.34l-0.866 1.09c-0.577,0.557 -0.451,0.58 -1.175,0.749 -1.164,1.635 -7.213,2.347 -8.76,0.771 0.686,-0.499 2.386,-0.481 3.47,-0.655 1.68,-0.269 1.284,0.331 2.878,0.338 -0.433,-0.499 -0.479,-0.221 -1.003,-0.75l-1.998 0.073c0.36,-0.717 0.152,-0.387 0.759,-0.946 0.344,-0.316 0.481,-0.421 0.76,-0.633 -2.049,0.832 -0.886,1.993 -5.2,2.015 0.561,-1.414 2.417,-2.838 4.408,-3.392zm-10.857 3.973c1.694,-0.764 4.007,-2.496 5.582,-2.832 -0.477,1.158 -2.006,3.333 -3.001,3.928l-2.581 -1.096zm2.21 -5.024c0.706,0.407 1.476,0.894 1.366,2.081l-3.114 -0.003 -0.596 -0.976c-0.535,-0.564 -1.666,-1.707 -2.766,-1.982 1.048,1.261 1.892,0.965 2.631,2.82 -0.982,0.046 -3.354,0.034 -4.084,-0.461 -0.686,-0.467 -0.956,-1.66 -2.299,-2.009 0.649,0.512 1.317,1.034 1.577,1.972 -4.412,-0.786 -3.344,-1.215 -5.136,-2.342l0.612 0.659c-0.359,0.302 0.021,0.051 -0.421,0.265 -0.044,0.021 -0.294,0.073 -0.385,0.155l4.943 1.896 -2.417 0.964c3.528,-0.353 0.46,-1.386 7.479,-0.286 -0.299,0.077 -1.104,0.62 -1.692,0.86 -0.633,0.257 -1.288,0.434 -1.814,0.751l2.567 -0.772c2.016,-1.009 1.695,-1.046 4.518,-0.911 -0.822,0.86 -3.117,1.777 -4.517,2.044 -3.129,1.327 -7.169,0.723 -9.585,-1.015 -1.789,-1.288 -3.926,-4.456 -4.815,-7.435 3.264,0.355 6.435,0.831 9.787,1.142 2.711,0.253 6.724,0.894 8.161,2.583zm-13.134 6.524c-0.976,1.187 -4.343,2.594 -5.818,7.637 -1.587,5.427 0.793,8.225 1.683,10.853 0.536,0.748 1.029,1.349 1.701,2.013 0.372,0.369 0.6,0.632 0.979,0.98 0.476,0.44 0.677,0.458 1.034,0.88 1.739,0.465 5.663,3.833 12.202,1.806 1.288,-0.399 2.718,-1.327 3.678,-1.556 0.681,-0.569 1.375,-0.997 2.019,-1.668 0.637,-0.664 1.186,-1.501 1.679,-2.237 2.496,1.321 3.599,3.164 4.785,3.48 0.934,-1.765 2.176,-7.844 2.176,-10.09 -0.79,-1.317 0.041,-4.277 -2.283,-7.204 -0.735,-0.926 -1.366,-1.57 -2.483,-2.303 -0.813,-0.533 -2.464,-1.081 -2.972,-1.619 -0.958,-0.138 -0.831,-0.714 -0.96,-1.808l1.653 0.602c1.683,0.205 2.855,0.177 4.481,-0.164 1.463,-0.306 2.338,-0.909 3.434,-1.174 0.506,-0.357 1.637,-1.351 2.025,-1.874 1.056,-1.431 -0.657,-1.266 -1.786,-1.578 -2.031,-0.562 -4.326,-1.535 -6.633,-0.632 -0.398,0.332 -0.98,0.579 -1.408,0.901 -0.661,0.498 -0.756,0.691 -1.351,1.048 0.257,-0.91 0.736,-2.068 1.322,-2.562 0.316,-1.29 1.051,-1.018 1.087,-2.65 -0.809,-0.188 -1.305,-0.276 -1.74,0.429 -0.14,0.226 -0.718,1.708 -0.816,1.964 -0.278,1.186 -1.108,1.835 -2.396,1.891l-0.827 -1.891c-0.732,-0.716 -2.276,-1.594 -3.29,-2.025 -3.404,-1.446 -9.505,-1.363 -13.686,-1.977 -2.972,-0.435 -4.458,-1.602 -1.249,4.731 2.077,4.1 4.527,4.093 5.297,5.144 -0.642,0.15 -1.015,0.387 -1.537,0.653z"/>
  </g>
 </g>
</svg>
