<?xml version="1.0" encoding="UTF-8"?>
<!DOCTYPE svg PUBLIC "-//W3C//DTD SVG 1.1//EN" "http://www.w3.org/Graphics/SVG/1.1/DTD/svg11.dtd">
<!-- Creator: CorelDRAW -->
<svg xmlns="http://www.w3.org/2000/svg" xml:space="preserve" width="120px" height="120px" version="1.1" style="shape-rendering:geometricPrecision; text-rendering:geometricPrecision; image-rendering:optimizeQuality; fill-rule:evenodd; clip-rule:evenodd"
viewBox="0 0 51.67 51.67"
 xmlns:xlink="http://www.w3.org/1999/xlink"
 xmlns:xodm="http://www.corel.com/coreldraw/odm/2003">
 <defs>
  <style type="text/css">
   <![CDATA[
    .fil2 {fill:black}
    .fil1 {fill:#BBDBEC}
    .fil0 {fill:#EDE3C8}
   ]]>
  </style>
 </defs>
 <g id="Layer_x0020_1">
  <metadata id="CorelCorpID_0Corel-Layer"/>
  <g id="_2729634678944">
   <rect class="fil0" width="51.67" height="51.67"/>
   <path class="fil1" d="M23.459 35.237c0.453,1.027 1.36,2.272 1.621,3.864 0.631,3.849 -5.151,4.764 -11.098,-0.001 -2.38,-1.907 -4.928,-5.095 -5.648,-8.535 -0.347,-1.657 -0.394,-3.033 -0.174,-4.557 0.161,-1.117 1.309,-3.363 3.041,-3.457 2.586,-0.372 3.763,2.419 5.757,-0.306l0.142 -0.325c5.217,-7.621 10.928,-2.483 9.905,1.71 -0.572,2.345 -6.362,5.236 -3.546,11.607z"/>
   <path class="fil1" d="M47.142 26.386c-0.409,-4.445 -5.464,-10.836 -9.102,-6.99 -2.326,2.458 -1.348,4.621 -5.84,4.828 -6.203,0.286 -7.609,6.015 -4.995,10.555 5.273,9.16 19.878,1.847 19.961,-7.847 0.002,-0.218 0.001,-0.388 -0.024,-0.546z"/>
   <path class="fil2" d="M32.122 37.625c-1.987,0.215 -4.096,0.331 -6.283,0.331 -11.823,0 -21.408,-3.383 -21.408,-7.556 0,-2.714 4.054,-5.093 10.14,-6.425 -5.544,1.285 -9.202,3.49 -9.202,5.995 0,3.967 9.165,7.181 20.47,7.181 7.483,0 14.028,-1.408 17.598,-3.511l0 0.001c-3.715,2.793 -11.057,3.945 -11.315,3.984z"/>
   <path class="fil2" d="M20.583 34.981c1.501,0.163 3.095,0.25 4.747,0.25 8.934,0 16.177,-2.556 16.177,-5.709 0,-2.051 -3.064,-3.848 -7.662,-4.855 4.188,0.971 6.953,2.637 6.953,4.53 0,2.997 -6.925,5.426 -15.468,5.426 -5.654,0 -10.599,-1.064 -13.297,-2.653l0 0.001c2.807,2.11 8.355,2.98 8.55,3.01z"/>
   <path class="fil2" d="M31.661 25.307c3.145,0.688 5.239,1.917 5.239,3.32 0,2.156 -4.952,3.903 -11.061,3.903 -6.108,0 -11.06,-1.747 -11.06,-3.903 0,-1.403 2.094,-2.632 5.239,-3.32 -2.865,0.664 -4.755,1.803 -4.755,3.097 0,2.05 4.735,3.711 10.576,3.711 5.841,0 10.576,-1.661 10.576,-3.711 0,-1.294 -1.89,-2.433 -4.754,-3.097z"/>
   <path class="fil2" d="M25.7 15.834c-1.004,2.854 -2.966,4.442 -2.966,6.03 0,1.779 0.82,3.558 3.283,3.558 2.462,0 3.283,-1.779 3.283,-3.558 0,-0.203 -0.033,-0.406 -0.091,-0.612 0.102,0.284 0.161,0.562 0.161,0.84 0,1.871 -0.882,3.743 -3.531,3.743 -2.648,0 -3.53,-1.872 -3.53,-3.743 0,-1.871 2.648,-3.743 3.53,-7.486 -0.006,0.51 0.032,0.743 -0.139,1.228z"/>
  </g>
 </g>
</svg>
