<?xml version="1.0" encoding="UTF-8"?>
<!DOCTYPE svg PUBLIC "-//W3C//DTD SVG 1.1//EN" "http://www.w3.org/Graphics/SVG/1.1/DTD/svg11.dtd">
<!-- Creator: CorelDRAW -->
<svg xmlns="http://www.w3.org/2000/svg" xml:space="preserve" width="120px" height="120px" version="1.1" style="shape-rendering:geometricPrecision; text-rendering:geometricPrecision; image-rendering:optimizeQuality; fill-rule:evenodd; clip-rule:evenodd"
viewBox="0 0 10986.176 10986.151"
 xmlns:xlink="http://www.w3.org/1999/xlink"
 xmlns:xodm="http://www.corel.com/coreldraw/odm/2003">
 <defs>
  <style type="text/css">
   <![CDATA[
    .fil3 {fill:#157A9E}
    .fil2 {fill:black}
    .fil1 {fill:#BBDBEC}
    .fil0 {fill:#EDE3C8}
   ]]>
  </style>
 </defs>
 <g id="Layer_x0020_1">
  <metadata id="CorelCorpID_0Corel-Layer"/>
  <g id="_2766072507136">
   <rect class="fil0" x="0.013" y="-0.013" width="10986.151" height="10986.151"/>
   <path class="fil1" d="M4987.785 7492.007c96.462,218.486 289.334,483.27 344.793,821.678 134.118,818.305 -1095.286,1012.863 -2359.801,-0.259 -506.03,-405.39 -1047.613,-1083.322 -1200.701,-1814.663 -73.754,-352.422 -83.849,-645 -37.137,-968.901 34.282,-237.483 278.461,-715.122 646.739,-735.026 549.81,-79.049 800.061,514.204 1223.902,-65.191l30.259 -68.979c1109.325,-1620.467 2323.469,-528.01 2105.995,363.607 -121.609,498.53 -1352.595,1113.14 -754.049,2467.734z"/>
   <path class="fil1" d="M10023.27 5610.208c-86.886,-945.104 -1161.566,-2304.057 -1935.208,-1486.246 -494.481,522.638 -286.505,982.5 -1241.756,1026.54 -1318.754,60.778 -1617.69,1278.841 -1061.963,2244.161 1121.159,1947.664 4226.574,392.802 4244.195,-1668.452 0.389,-46.22 0.208,-82.5 -5.268,-116.003z"/>
   <path class="fil2" d="M6829.749 7999.905c-422.439,45.701 -870.908,70.355 -1335.752,70.355 -2513.928,0 -4551.93,-719.326 -4551.93,-1606.609 0,-576.955 861.981,-1082.803 2156.03,-1366.142 -1178.694,273.244 -1956.488,742.058 -1956.488,1274.766 0,843.322 1948.599,1526.886 4352.388,1526.886 1591.064,0 2982.508,-299.533 3741.669,-746.6l0.026 0.181c-789.862,593.85 -2351.107,838.729 -2405.943,847.163z"/>
   <path class="fil2" d="M4376.419 7437.716c319.204,34.516 658.053,53.149 1009.308,53.149 1899.55,0 3439.463,-543.529 3439.463,-1213.936 0,-435.986 -651.306,-818.201 -1629.109,-1032.275 890.632,206.445 1478.331,560.709 1478.331,963.218 0,637.215 -1472.388,1153.702 -3288.685,1153.702 -1202.232,0 -2253.608,-226.323 -2827.215,-564.109l-0.026 0.13c596.808,448.703 1776.488,633.737 1817.933,640.121z"/>
   <path class="fil2" d="M6731.86 5380.744c668.564,146.393 1113.919,407.725 1113.919,705.83 0,458.409 -1052.933,830.035 -2351.782,830.035 -1298.824,0 -2351.757,-371.626 -2351.757,-830.035 0,-298.105 445.329,-559.437 1113.919,-705.83 -609.005,141.15 -1010.839,383.382 -1010.839,658.599 0,435.7 1006.765,788.875 2248.677,788.875 1241.911,0 2248.676,-353.175 2248.676,-788.875 0,-275.217 -401.834,-517.449 -1010.813,-658.599z"/>
   <path class="fil2" d="M5464.464 3366.696c-213.634,606.747 -630.831,944.429 -630.831,1282.136 0,378.218 174.55,756.462 698.045,756.462 523.547,0 698.071,-378.244 698.071,-756.462 0,-43.235 -6.903,-86.47 -19.282,-130.303 21.773,60.416 34.282,119.585 34.282,178.703 0,397.889 -187.682,795.83 -750.727,795.83 -563.019,0 -750.674,-397.941 -750.674,-795.83 0,-397.941 563.019,-795.831 750.674,-1591.661 -1.271,108.348 6.748,157.967 -29.558,261.125z"/>
   <path class="fil3" d="M6414.706 3017.517c-160.796,0 -291.151,130.355 -291.151,291.151 0,160.77 130.355,291.124 291.151,291.124 160.77,0 291.124,-130.354 291.124,-291.124 0,-160.796 -130.354,-291.151 -291.124,-291.151zm33.867 65.969c-25.589,0 -49.983,5.19 -72.172,14.507 117.198,34.36 209.559,126.747 243.919,243.945 9.343,-22.189 14.507,-46.583 14.507,-72.172 0,-102.872 -83.382,-186.28 -186.254,-186.28z"/>
   <path class="fil3" d="M5974.619 2750.554c-108.97,0 -197.283,88.313 -197.283,197.283 0,108.945 88.313,197.284 197.283,197.284 108.945,0 197.284,-88.339 197.284,-197.284 0,-108.97 -88.339,-197.283 -197.284,-197.283zm22.942 44.714c-17.336,0 -33.867,3.504 -48.893,9.836 79.412,23.278 142.007,85.874 165.285,165.285 6.332,-15.052 9.836,-31.557 9.836,-48.918 0,-69.706 -56.523,-126.203 -126.228,-126.203z"/>
   <path class="fil3" d="M6391.972 2582.647c-87.768,0 -158.927,71.159 -158.927,158.927 0,87.743 71.159,158.902 158.927,158.902 87.743,0 158.902,-71.159 158.902,-158.902 0,-87.768 -71.159,-158.927 -158.902,-158.927zm18.478 36.021c-13.962,0 -27.275,2.829 -39.395,7.915 63.971,18.763 114.395,69.187 133.132,133.157 5.112,-12.119 7.915,-25.432 7.915,-39.394 0,-56.159 -45.493,-101.678 -101.652,-101.678z"/>
   <path class="fil3" d="M5962.448 3446.081c-83.875,0 -151.868,67.993 -151.868,151.895 0,83.875 67.993,151.868 151.868,151.868 83.876,0 151.895,-67.993 151.895,-151.868 0,-83.902 -68.019,-151.895 -151.895,-151.895zm17.673 34.438c-13.339,0 -26.081,2.673 -37.656,7.552 61.142,17.932 109.334,66.125 127.267,127.266 4.853,-11.574 7.552,-24.316 7.552,-37.655 0,-53.668 -43.495,-97.163 -97.163,-97.163z"/>
   <path class="fil3" d="M5805.389 3815.398c-69.213,0 -125.32,56.107 -125.32,125.294 0,69.213 56.107,125.32 125.32,125.32 69.187,0 125.294,-56.107 125.294,-125.32 0,-69.187 -56.107,-125.294 -125.294,-125.294zm14.585 28.391c-11.029,0 -21.514,2.232 -31.09,6.254 50.45,14.767 90.208,54.55 105,104.974 4.023,-9.55 6.254,-20.034 6.254,-31.064 0,-44.273 -35.891,-80.164 -80.164,-80.164z"/>
   <path class="fil3" d="M6221.99 2272.163c-59.04,0 -106.895,47.854 -106.895,106.894 0,59.04 47.855,106.895 106.895,106.895 59.039,0 106.894,-47.855 106.894,-106.895 0,-59.04 -47.855,-106.894 -106.894,-106.894zm12.456 24.212c-9.42,0 -18.373,1.895 -26.522,5.321 43.028,12.612 76.946,46.557 89.585,89.584 3.425,-8.174 5.32,-17.128 5.32,-26.522 0,-37.76 -30.623,-68.383 -68.383,-68.383z"/>
  </g>
 </g>
</svg>
