<svg xmlns="http://www.w3.org/2000/svg" viewBox="0 0 120 80" role="img" aria-label="United Kingdom flag">
  <rect width="120" height="80" fill="#012169" />
  <polygon points="0,0 13,0 120,64 120,80 107,80 0,16" fill="#FFFFFF" />
  <polygon points="120,0 107,0 0,64 0,80 13,80 120,16" fill="#FFFFFF" />
  <polygon points="0,0 8,0 120,67 120,80 112,80 0,13" fill="#C8102E" />
  <polygon points="120,0 112,0 0,67 0,80 8,80 120,13" fill="#C8102E" />
  <rect x="48" width="24" height="80" fill="#FFFFFF" />
  <rect y="28" width="120" height="24" fill="#FFFFFF" />
  <rect x="53" width="14" height="80" fill="#C8102E" />
  <rect y="33" width="120" height="14" fill="#C8102E" />
</svg>
