<?xml version="1.0" encoding="UTF-8"?>
<!DOCTYPE svg PUBLIC "-//W3C//DTD SVG 1.1//EN" "http://www.w3.org/Graphics/SVG/1.1/DTD/svg11.dtd">
<!-- Creator: CorelDRAW -->
<svg xmlns="http://www.w3.org/2000/svg" xml:space="preserve" width="63mm" height="51.6119mm" version="1.1" style="shape-rendering:geometricPrecision; text-rendering:geometricPrecision; image-rendering:optimizeQuality; fill-rule:evenodd; clip-rule:evenodd"
viewBox="0 0 1874.38 1535.56"
 xmlns:xlink="http://www.w3.org/1999/xlink"
 xmlns:xodm="http://www.corel.com/coreldraw/odm/2003">
 <defs>
  <style type="text/css">
   <![CDATA[
    .fil0 {fill:#3B492B;fill-rule:nonzero}
   ]]>
  </style>
 </defs>
 <g id="Layer_x0020_1">
  <metadata id="CorelCorpID_0Corel-Layer"/>
  <path class="fil0" d="M66.32 961.2c-6.18,0 -13.06,-0.62 -20.63,-1.85 -7.58,-1.24 -14.69,-2.78 -21.34,-4.64 -6.64,-1.86 -11.82,-3.87 -15.54,-6.03 -2.16,-1.23 -3.78,-2.55 -4.87,-3.94 -1.08,-1.39 -1.63,-3.79 -1.63,-7.19l-2.31 -72.82c0,-6.19 2.02,-9.28 6.03,-9.28 3.41,0 5.72,2.78 6.96,8.35l4.19 17.63c10.51,44.22 30.14,66.34 58.9,66.34 15.46,0 27.76,-5.18 36.87,-15.54 9.12,-10.37 13.69,-24.97 13.69,-43.84 0,-18.24 -4.72,-35.24 -14.15,-51.02 -9.43,-15.77 -24.51,-31.38 -45.22,-46.84 -22.89,-16.4 -39.59,-32.24 -50.1,-47.54 -10.52,-15.31 -15.78,-31.63 -15.78,-48.94 0,-22.88 7.97,-41.2 23.89,-54.96 15.92,-13.77 36.26,-20.64 60.99,-20.64 9.28,0 18.24,1.08 26.9,3.24 8.67,2.16 15.78,5.25 21.35,9.27 1.85,1.24 3.32,2.63 4.41,4.18 1.08,1.55 1.62,3.56 1.62,6.03l1.4 70.04c0,5.26 -2.01,7.88 -6.03,7.88 -2.78,0 -4.79,-2.15 -6.02,-6.49l-3.25 -11.6c-6.81,-23.81 -13.84,-41.2 -21.11,-52.18 -7.27,-10.98 -17.7,-16.47 -31.31,-16.47 -13.3,0 -23.89,4.33 -31.78,12.99 -7.88,8.66 -11.82,20.88 -11.82,36.65 0,13.29 4.33,25.98 12.99,38.03 8.65,12.06 23.81,26.74 45.45,44.07 23.19,18.87 40.12,37.03 50.79,54.49 10.68,17.48 16.01,36.11 16.01,55.9 0,17.31 -3.86,32.47 -11.6,45.45 -7.74,13 -18.33,23.12 -31.77,30.39 -13.45,7.26 -28.83,10.9 -46.16,10.9zm154.46 -4.18c-4.64,0 -6.95,-1.7 -6.95,-5.1 0,-3.4 2.01,-5.26 6.03,-5.57l20.87 -3.25c6.19,-0.92 10.36,-2.55 12.53,-4.86 2.16,-2.32 3.25,-6.73 3.25,-13.22l0 -278.3c0,-4.33 -0.93,-7.42 -2.78,-9.27 -1.85,-1.87 -5.72,-2.79 -11.6,-2.79 -11.44,0 -22.73,4.95 -33.86,14.85 -11.13,9.89 -18.4,25.82 -21.8,47.77l-2.32 15.31c-0.62,4.02 -2.78,6.02 -6.49,6.02 -4.64,0 -6.65,-2.62 -6.03,-7.88l4.18 -83.96c0.62,-7.11 3.39,-10.68 8.35,-10.68 2.17,0 4.17,0.54 6.03,1.63 1.85,1.08 5.02,2.24 9.51,3.48 4.48,1.24 11.67,1.86 21.57,1.86l103.44 0c9.89,0 17.08,-0.62 21.57,-1.86 4.48,-1.24 7.73,-2.4 9.74,-3.48 2.01,-1.09 3.95,-1.63 5.8,-1.63 4.95,0 7.73,3.56 8.34,10.68l4.18 83.96c0.62,5.25 -1.39,7.88 -6.03,7.88 -3.7,0 -5.86,-2.01 -6.49,-6.02l-2.32 -15.31c-3.09,-21.95 -10.2,-37.88 -21.34,-47.77 -11.13,-9.9 -22.57,-14.85 -34.32,-14.85 -5.88,0 -9.74,0.93 -11.6,2.79 -1.85,1.85 -2.78,4.94 -2.78,9.27l0 278.3c0,6.49 1.16,10.9 3.48,13.22 2.32,2.32 6.42,3.94 12.29,4.86l20.88 3.25c4.01,0.31 6.03,2.17 6.03,5.57 0,3.39 -2.32,5.1 -6.97,5.1l-104.36 0zm138.23 0c-4.64,0 -6.96,-1.54 -6.96,-4.64 0,-3.09 2.16,-5.1 6.49,-6.03l6.95 -1.39c6.19,-1.24 10.83,-4.25 13.92,-9.05 3.09,-4.79 5.72,-11.51 7.89,-20.17l71.89 -289.9c0.61,-3.09 1.62,-5.11 3.01,-6.03 1.38,-0.93 2.7,-1.39 3.95,-1.39 1.53,0 3.01,0.46 4.4,1.39 1.4,0.93 2.4,2.94 3.02,6.03l73.29 294.07c2.16,8.67 4.64,14.69 7.42,18.09 2.78,3.41 7.1,5.72 12.99,6.96l6.95 1.39c4.33,0.93 6.49,2.94 6.49,6.03 0,3.09 -2.31,4.64 -6.95,4.64l-79.32 0c-4.33,0 -6.49,-1.7 -6.49,-5.1 0,-3.4 2.63,-5.26 7.88,-5.57l8.81 -0.93c5.27,-0.61 8.58,-2.32 9.98,-5.1 1.39,-2.78 1.31,-7.58 -0.24,-14.38l-17.62 -71.9c-1.85,-8.04 -6.96,-12.06 -15.31,-12.06l-48.71 0c-8.04,0 -13.14,4.01 -15.3,12.06l-15.77 62.16c-4.64,17.63 0,27.36 13.91,29.22l6.96 0.93c5.26,0.93 7.89,2.78 7.89,5.57 0,3.39 -2.16,5.1 -6.49,5.1l-64.93 0zm72.35 -128.95l51.03 0c4.95,0 6.96,-2.62 6.03,-7.88l-29.68 -124.31 -2.32 0 -31.08 124.31c-0.94,5.26 1.09,7.88 6.02,7.88zm152.15 128.95c-4.64,0 -6.95,-1.7 -6.95,-5.1 0,-2.79 2,-4.64 6.03,-5.57l10.67 -1.86c10.51,-1.85 15.77,-7.88 15.77,-18.08l0 -272.73c0,-6.5 -1,-10.83 -3.02,-13 -2.01,-2.16 -6.27,-3.86 -12.75,-5.11l-10.67 -1.85c-4.03,-0.93 -6.03,-2.78 -6.03,-5.56 0,-3.41 2.31,-5.11 6.95,-5.11l93.69 0c24.12,0 44.99,7.04 62.63,21.1 17.62,14.07 31.23,33.78 40.82,59.14 9.58,25.36 14.37,54.73 14.37,88.13 0,33.7 -5.03,62.93 -15.08,87.67 -10.05,24.73 -24.2,43.91 -42.44,57.52 -18.24,13.6 -39.89,20.4 -64.94,20.4l-89.06 0zm90.91 -12.06c27.52,0 48.47,-13.14 62.85,-39.43 14.37,-26.29 21.56,-64.32 21.56,-114.1 0,-49.47 -6.88,-87.9 -20.64,-115.26 -13.76,-27.37 -34.09,-41.05 -61,-41.05 -23.5,0 -35.25,11.29 -35.25,33.86l0 242.12c0,12.37 2.56,21.11 7.66,26.2 5.1,5.11 13.38,7.66 24.81,7.66zm150.28 12.06c-4.64,0 -6.96,-1.7 -6.96,-5.1 0,-2.79 2.01,-4.64 6.03,-5.57l10.67 -1.86c6.49,-1.24 10.74,-2.93 12.75,-5.1 2.01,-2.16 3.01,-6.49 3.01,-12.98l0 -272.73c0,-6.5 -1.01,-10.83 -3.01,-13 -2.01,-2.16 -6.26,-3.86 -12.75,-5.11l-10.67 -1.85c-4.02,-0.93 -6.03,-2.78 -6.03,-5.56 0,-3.41 2.32,-5.11 6.96,-5.11l83.96 0c4.64,0 6.96,1.69 6.96,5.11 0,2.77 -2.02,4.63 -6.03,5.56l-10.68 1.85c-6.49,1.25 -10.74,2.94 -12.75,5.11 -2.01,2.17 -3.01,6.49 -3.01,13l0 272.73c0,6.49 1,10.82 3.01,12.98 2.01,2.17 6.27,3.86 12.75,5.1l10.68 1.86c4.02,0.93 6.03,2.78 6.03,5.57 0,3.39 -2.32,5.1 -6.96,5.1l-83.96 0zm224.97 4.18c-14.84,0 -28.77,-4.41 -41.75,-13.22 -12.98,-8.81 -24.35,-20.95 -34.09,-36.41 -9.73,-15.46 -17.31,-33.63 -22.73,-54.5 -5.4,-20.87 -8.12,-43.37 -8.12,-67.49 0,-24.11 2.71,-46.54 8.12,-67.26 5.42,-20.72 13,-38.87 22.73,-54.5 9.74,-15.62 21.11,-27.75 34.09,-36.41 12.98,-8.66 26.91,-12.98 41.75,-12.98 14.84,0 28.68,4.32 41.52,12.98 12.82,8.66 24.19,20.79 34.09,36.41 9.9,15.62 17.55,33.78 22.96,54.5 5.41,20.72 8.11,43.15 8.11,67.26 0,24.12 -2.71,46.62 -8.11,67.49 -5.41,20.87 -13.06,39.04 -22.96,54.5 -9.89,15.47 -21.27,27.6 -34.09,36.41 -12.84,8.81 -26.68,13.22 -41.52,13.22zm0 -12.53c21.95,0 39.12,-13.14 51.48,-39.42 12.37,-26.29 18.56,-66.18 18.56,-119.67 0,-53.49 -6.19,-93.31 -18.56,-119.44 -12.36,-26.13 -29.53,-39.2 -51.48,-39.2 -21.65,0 -38.73,13.06 -51.26,39.2 -12.52,26.13 -18.79,65.95 -18.79,119.44 0,53.49 6.27,93.39 18.79,119.67 12.53,26.28 29.61,39.42 51.26,39.42zm320.51 12.53c-4.95,0 -9.12,-3.71 -12.52,-11.14l-125.71 -272.73c-0.93,-2.17 -2.09,-3.09 -3.48,-2.78 -1.39,0.31 -2.08,1.7 -2.08,4.18l0 238.4c0,8.67 1.47,15.24 4.4,19.72 2.94,4.49 8.27,7.35 16,8.58l6.03 0.93c4.02,0.31 6.03,2.17 6.03,5.57 0,3.39 -2.32,5.1 -6.96,5.1l-66.33 0c-4.64,0 -6.96,-1.7 -6.96,-5.1 0,-3.4 2.01,-5.26 6.03,-5.57l6.03 -0.93c8.05,-1.23 13.61,-4.09 16.7,-8.58 3.1,-4.48 4.64,-11.05 4.64,-19.72l0 -263.45c0,-6.5 -1.01,-10.83 -3.01,-13 -2.01,-2.16 -6.58,-3.86 -13.68,-5.11l-10.68 -1.85c-4.02,-0.93 -6.03,-2.78 -6.03,-5.56 0,-3.41 2.32,-5.11 6.96,-5.11l49.63 0c7.74,0 13.14,3.4 16.24,10.2l109.46 240.74c0.93,1.86 2.09,2.62 3.48,2.31 1.39,-0.32 2.09,-1.39 2.09,-3.24l0 -210.13c0,-9.89 -1.7,-16.77 -5.1,-20.64 -3.4,-3.87 -7.74,-6.26 -12.99,-7.19l-8.35 -1.39c-4.03,-0.93 -6.03,-2.78 -6.03,-5.56 0,-3.41 2.32,-5.11 6.96,-5.11l66.33 0c4.64,0 6.96,1.69 6.96,5.11 0,3.39 -2.02,5.25 -6.04,5.56l-6.03 0.93c-8.04,1.23 -13.61,3.79 -16.69,7.66 -3.1,3.86 -4.64,10.74 -4.64,20.64l0 283.41c0,5.57 -1,9.43 -3.01,11.6 -2.01,2.16 -4.57,3.25 -7.66,3.25zm67.26 -4.18c-4.64,0 -6.96,-1.7 -6.96,-5.1 0,-2.79 2.01,-4.64 6.02,-5.57l10.67 -1.86c6.49,-1.24 10.75,-2.93 12.76,-5.1 2.01,-2.16 3.01,-6.49 3.01,-12.98l0 -272.73c0,-6.5 -1,-10.83 -3.01,-13 -2.01,-2.16 -6.27,-3.86 -12.76,-5.11l-10.67 -1.85c-4.02,-0.93 -6.02,-2.78 -6.02,-5.56 0,-3.41 2.31,-5.11 6.96,-5.11l155.85 0c7.11,0 10.97,3.55 11.59,10.66l3.72 77c0.62,5.25 -1.39,7.88 -6.03,7.88 -3.7,0 -5.88,-2.01 -6.49,-6.02l-2.78 -17.16c-3.41,-21.03 -10.36,-36.42 -20.87,-46.15 -10.51,-9.73 -25.05,-14.61 -43.6,-14.61 -12.37,0 -20.95,1.78 -25.74,5.33 -4.79,3.56 -7.19,9.82 -7.19,18.79l0 111.78c0,4.33 2.16,6.49 6.49,6.49l23.2 0c13.61,0 21.95,-7.27 25.04,-21.8l4.64 -23.19c1.24,-4.64 3.86,-6.65 7.89,-6.03 3.4,0.62 5.1,3.25 5.1,7.89l0 104.36c0,4.64 -1.7,7.27 -5.1,7.88 -4.03,0.62 -6.65,-1.39 -7.89,-6.03l-4.64 -22.73c-2.16,-10.82 -5.18,-17.93 -9.04,-21.34 -3.87,-3.4 -9.36,-5.1 -16.47,-5.1l-22.73 0c-4.33,0 -6.49,2.16 -6.49,6.49l0 116.42c0,11.13 2.86,19.17 8.58,24.12 5.72,4.95 16.16,7.42 31.31,7.42 15.46,0 28.68,-3.94 39.66,-11.83 10.98,-7.88 18.63,-22.65 22.96,-44.29l5.56 -27.37c0.93,-4.02 3.25,-6.03 6.96,-6.03 4.33,0 6.19,2.63 5.57,7.88l-4.64 82.57c-0.62,7.11 -4.49,10.67 -11.6,10.67l-162.81 0zm403.08 4.18c-26.9,0 -44.07,-17.63 -51.49,-52.88l-10.66 -51.48c-3.41,-16.7 -7.19,-29.38 -11.37,-38.04 -4.18,-8.66 -9.89,-14.53 -17.16,-17.63 -7.27,-3.09 -17.24,-4.64 -29.92,-4.64 -4.32,0 -7.72,1.16 -10.2,3.48 -2.47,2.32 -3.71,5.18 -3.71,8.58l0 115.96c0,6.49 1.24,10.9 3.71,13.22 2.48,2.33 8.04,4.25 16.7,5.8l17.16 2.78c3.4,0.62 5.11,2.32 5.11,5.11 0,3.71 -2.33,5.56 -6.96,5.56l-94.16 0c-4.64,0 -6.96,-1.7 -6.96,-5.1 0,-2.79 2.01,-4.64 6.03,-5.57l10.67 -1.86c6.49,-1.24 10.75,-2.93 12.76,-5.1 2.01,-2.16 3.02,-6.49 3.02,-12.98l0 -272.73c0,-6.5 -1.01,-10.83 -3.02,-13 -2.01,-2.16 -6.27,-3.86 -12.76,-5.11l-10.67 -1.85c-4.02,-0.93 -6.03,-2.78 -6.03,-5.56 0,-3.41 2.32,-5.11 6.96,-5.11l94.16 0c18.24,0 34.48,3.55 48.7,10.66 14.23,7.12 25.36,16.93 33.4,29.46 8.04,12.52 12.06,26.98 12.06,43.37 0,19.48 -5.88,37.03 -17.63,52.64 -11.75,15.62 -26.6,26.67 -44.53,33.17 -2.17,0.62 -3.33,1.62 -3.48,3.01 -0.16,1.39 0.85,2.55 3.01,3.48 9.9,4.64 17.71,11.14 23.43,19.48 5.72,8.35 10.12,19.48 13.22,33.4l10.2 47.31c3.41,16.08 7.42,27.52 12.06,34.32 4.64,6.81 10.51,10.21 17.63,10.21 2.47,0 4.71,-0.39 6.73,-1.16 2.01,-0.78 4.56,-2.24 7.66,-4.41 2.47,-1.54 4.78,-1.93 6.95,-1.16 2.16,0.78 3.25,2.4 3.25,4.87 0,5.25 -3.4,9.82 -10.2,13.68 -6.81,3.87 -14.69,5.8 -23.66,5.8zm-103.44 -176.27c21.03,0 36.95,-7.03 47.78,-21.1 10.82,-14.06 16.23,-32.86 16.23,-56.35 0,-22.88 -6.27,-40.74 -18.79,-53.58 -12.52,-12.83 -29.76,-19.25 -51.71,-19.25 -16.39,0 -24.59,6.19 -24.59,18.56l0 106.22c0,17 10.36,25.5 31.08,25.5zm-256.09 -343.63c6.89,0 13.62,1.76 20.2,5.31 6.56,3.53 11.69,8.6 15.35,15.18 3.66,6.6 5.5,13.47 5.5,20.61 0,7.08 -1.79,13.89 -5.42,20.41 -3.6,6.55 -8.65,11.62 -15.18,15.23 -6.52,3.62 -13.34,5.42 -20.44,5.42 -7.12,0 -13.93,-1.81 -20.46,-5.42 -6.52,-3.61 -11.59,-8.68 -15.22,-15.23 -3.63,-6.52 -5.45,-13.33 -5.45,-20.41 0,-7.14 1.84,-14.01 5.52,-20.61 3.7,-6.58 8.83,-11.64 15.39,-15.18 6.58,-3.55 13.3,-5.31 20.21,-5.31zm0 6.8c-5.78,0 -11.41,1.48 -16.87,4.44 -5.47,2.95 -9.74,7.19 -12.83,12.69 -3.08,5.5 -4.62,11.23 -4.62,17.17 0,5.93 1.52,11.6 4.55,17.02 3.03,5.42 7.27,9.65 12.71,12.68 5.45,3.03 11.13,4.55 17.06,4.55 5.91,0 11.59,-1.52 17.04,-4.55 5.44,-3.03 9.68,-7.26 12.69,-12.68 3.01,-5.43 4.52,-11.1 4.52,-17.02 0,-5.95 -1.55,-11.67 -4.61,-17.17 -3.07,-5.5 -7.34,-9.74 -12.83,-12.69 -5.48,-2.95 -11.09,-4.44 -16.82,-4.44zm-18.04 56.97l0 -44.15 15.19 0c5.2,0 8.96,0.41 11.28,1.22 2.34,0.82 4.18,2.24 5.58,4.28 1.38,2.03 2.06,4.18 2.06,6.47 0,3.21 -1.15,6.04 -3.47,8.41 -2.31,2.41 -5.37,3.74 -9.2,4.03 1.56,0.65 2.83,1.43 3.75,2.34 1.78,1.72 3.96,4.64 6.54,8.75l5.39 8.64 -8.67 0 -3.94 -6.95c-3.09,-5.48 -5.6,-8.92 -7.49,-10.29 -1.3,-1 -3.19,-1.51 -5.71,-1.48l-4.2 0 0 18.73 -7.13 0zm7.13 -24.86l8.66 0c4.14,0 6.97,-0.62 8.47,-1.84 1.5,-1.22 2.27,-2.86 2.27,-4.86 0,-1.3 -0.36,-2.48 -1.1,-3.49 -0.72,-1.05 -1.72,-1.8 -3,-2.31 -1.3,-0.5 -3.68,-0.76 -7.17,-0.76l-8.13 0 0 13.27zm-756.95 -232.07l0 111.33c-22.61,-1.6 -44.5,6.55 -53.46,12.43 -27,17.74 -58.75,-19.27 -122.25,0.51 -24.35,7.59 -52.61,25.53 -72.99,41.11l-0 0c69.81,-5.29 154.47,-9.43 248.69,-11.97l0 74.03 -5.81 3.18 0 29.18c-14.32,4.74 -22.3,10 -22.3,15.53 0,20.68 111.25,37.46 248.47,37.46 137.22,0 248.46,-16.77 248.46,-37.46 0,-6.92 -12.48,-13.41 -34.22,-18.98l-32.01 0 0 -6.48 0 -97.38 0 -48.27 0 -95.3 0 -7.03 32.03 0c18.31,-5.21 28.7,-11.16 28.7,-17.49 0,-20.47 -108.75,-37.07 -242.9,-37.07 -134.15,0 -242.9,16.6 -242.9,37.07 0,5.57 8.06,10.85 22.5,15.6zm8.72 255.7l0 -102.52 0 -40.72 0 -109.87 0 -9.3 36.3 0 0 16.75c32.51,5.17 74.73,8.92 122.21,10.54l0 77.04c-14.41,4.82 -27.23,7.38 -35.25,6.62 -14.4,-1.36 -42.88,-5.28 -54.04,-0.28 -6.11,2.73 -18.64,6.47 -32.92,8.49l0 39.9c39.42,-0.83 80.27,-1.38 122.21,-1.63l0 55.96 -4.6 2.51 0 29.71c-45.26,1.62 -85.72,5.11 -117.61,9.9l0 28.3 -36.3 0 0 -21.39zm386.18 -245.51l0 93.31c-5.58,-0.54 -9.98,-0.96 -12.68,-1.24 -8.26,-0.87 -38.17,-6.14 -66.54,-11.45l0 60.26c26.96,0.3 53.4,0.73 79.22,1.27l0 60.22 -5.13 2.8 0 32.58c-21.49,-3.01 -46.53,-5.47 -74.09,-7.2l0 54.07 -42.39 0 0 -56.08 0 -88.02 0 -68.11 0 -62.01 0 -57.14 42.39 2.37 0 52.68c29.98,-1.96 56.87,-4.8 79.22,-8.32zm-220.78 228.34l0 -87.87 0 -55.48 0 -74.37 0 -4.58 28.72 0 0 5.15c5.8,0.07 11.66,0.1 17.57,0.1 14.57,0 28.84,-0.2 42.71,-0.58l0 59.55 -0.95 -0.21c-19.4,-4.46 -32.5,-11.87 -59.22,2.1l-0.1 0.06 0 68.16c5.74,-0.01 11.49,-0.02 17.27,-0.02 14.45,0 28.79,0.04 43.01,0.11l0 87.78c-13.89,-0.36 -28.18,-0.56 -42.76,-0.56 -5.9,0 -11.73,0.04 -17.52,0.1l0 7.98 -28.72 0 0 -7.42zm49.94 -486.66c53.27,0 106.87,22.23 144.8,61.97 29.14,30.56 49.17,71.41 61.19,117.46l0 0.01c0.4,1.55 0.8,3.09 1.18,4.65 2.37,7.6 9.07,23.52 26.88,40.28 -23.15,-18.9 -120.78,-39.73 -237.69,-39.73 -110.43,0 -203.64,18.57 -233.15,36.57 23.97,-20.52 30.23,-39.36 31.26,-43l0.15 -0.55 0.02 -0.09 0 0c13.17,-48.61 35.56,-91.04 67.64,-121.97 36.84,-35.51 87.68,-55.62 137.73,-55.62zm236.23 226.4l0.18 0.15 -0.02 0c-0.05,-0.05 -0.11,-0.11 -0.16,-0.15zm236.53 187.73c-71.1,-22.21 -155.29,-49.21 -201.48,-53.01 -14.88,-1.52 -38.6,-3.73 -60.72,-5.79l0 46.07c100.07,2.63 189.56,7.02 262.2,12.73zm-472.76 926.32c5.38,0 9.73,4.36 9.73,9.74 0,5.37 -4.35,9.74 -9.73,9.74 -5.38,0 -9.73,-4.36 -9.73,-9.74 0,-5.38 4.35,-9.74 9.73,-9.74zm0 -85.44c-45.99,0.11 -82.57,26.4 -76.82,64.38 0,0 15.66,-30.84 56.78,-11.77 15.88,7.36 12.68,19.16 5.64,31.02 -2.53,3.17 -4.05,7.17 -4.05,11.54 0,10.19 8.26,18.45 18.45,18.45 10.19,0 18.45,-8.26 18.45,-18.45 0,-4.37 -1.52,-8.38 -4.06,-11.54 -7.04,-11.86 -10.23,-23.66 5.65,-31.02 41.11,-19.07 56.78,11.77 56.78,11.77 5.75,-37.98 -30.83,-64.27 -76.82,-64.38zm-211.32 85.44c5.38,0 9.74,4.36 9.74,9.74 0,5.37 -4.36,9.74 -9.74,9.74 -5.38,0 -9.74,-4.36 -9.74,-9.74 0,-5.38 4.36,-9.74 9.74,-9.74zm0 -85.44c-45.99,0.11 -82.57,26.4 -76.81,64.38 0,0 15.66,-30.84 56.77,-11.77 15.87,7.36 12.69,19.16 5.66,31.02 -2.54,3.17 -4.06,7.17 -4.06,11.54 0,10.19 8.25,18.45 18.45,18.45 10.18,0 18.45,-8.26 18.45,-18.45 0,-4.37 -1.51,-8.38 -4.05,-11.54 -7.03,-11.86 -10.22,-23.66 5.64,-31.02 41.11,-19.07 56.77,11.77 56.77,11.77 5.77,-37.98 -30.82,-64.27 -76.81,-64.38zm422.63 85.44c5.38,0 9.74,4.36 9.74,9.74 0,5.37 -4.36,9.74 -9.74,9.74 -5.38,0 -9.74,-4.36 -9.74,-9.74 0,-5.38 4.36,-9.74 9.74,-9.74zm0 -85.44c-45.99,0.11 -82.57,26.4 -76.81,64.38 0,0 15.66,-30.84 56.78,-11.77 15.87,7.36 12.68,19.16 5.64,31.02 -2.54,3.17 -4.05,7.17 -4.05,11.54 0,10.19 8.26,18.45 18.44,18.45 10.19,0 18.45,-8.26 18.45,-18.45 0,-4.37 -1.52,-8.38 -4.06,-11.54 -7.03,-11.86 -10.22,-23.66 5.66,-31.02 41.11,-19.07 56.77,11.77 56.77,11.77 5.76,-37.98 -30.82,-64.27 -76.81,-64.38zm-737.95 -112.95l0 -2.91c3.05,-0.63 5.46,-1.35 7.21,-2.12 1.74,-0.76 2.6,-1.43 2.6,-2.04l0 -71.27c0,-0.54 -0.8,-1.23 -2.48,-2.04 -1.64,-0.8 -4.09,-1.52 -7.33,-2.15l0 -2.92 30.5 0 0 2.92c-3.03,0.63 -5.44,1.32 -7.2,2.09 -1.75,0.79 -2.63,1.48 -2.63,2.11l0 34.47 27.73 -32.64c2.09,-2.43 2.66,-3.99 1.74,-4.62 -0.93,-0.62 -3.17,-1.1 -6.74,-1.4l0 -2.92 28.46 0 0 2.92c-2.89,0.35 -5.18,0.76 -6.87,1.2 -1.71,0.46 -3.26,1.46 -4.65,2.99l-29.71 32.79 32.76 36.93c1.58,1.81 3.46,2.84 5.58,3.15 2.15,0.3 4.4,0.3 6.77,0.05l0.48 2.91c-2.64,0.86 -5.3,1.66 -8.01,2.36 -2.71,0.72 -5.16,1.09 -7.33,1.09 -1.31,0 -2.49,-0.21 -3.48,-0.6 -1.01,-0.42 -1.99,-1.17 -2.88,-2.31l-33.85 -41.39 0 36.3c0,0.56 0.81,1.23 2.45,2.02 1.62,0.79 4.08,1.51 7.38,2.14l0 2.91 -30.5 0zm112.03 2.04c-5.43,0 -10.26,-1.18 -14.52,-3.57 -4.24,-2.36 -7.82,-5.6 -10.76,-9.65 -2.94,-4.07 -5.16,-8.73 -6.69,-13.94 -1.51,-5.24 -2.27,-10.7 -2.27,-16.39 0,-6.16 0.97,-11.99 2.94,-17.53 1.97,-5.55 4.69,-10.44 8.17,-14.72 3.5,-4.29 7.55,-7.64 12.15,-10.07 4.62,-2.45 9.59,-3.66 14.91,-3.66 5.63,0 10.53,1.2 14.8,3.66 4.26,2.43 7.82,5.72 10.72,9.87 2.89,4.14 5.07,8.82 6.55,14 1.45,5.2 2.2,10.56 2.2,16.06 0,6.16 -1.02,12 -3.03,17.5 -2,5.54 -4.79,10.42 -8.33,14.7 -3.55,4.25 -7.63,7.61 -12.21,10.07 -4.58,2.43 -9.46,3.66 -14.62,3.66zm1.96 -8.16c7.52,0 13.67,-3.1 18.49,-9.27 4.82,-6.2 7.22,-15.28 7.22,-27.27 0,-4.7 -0.62,-9.26 -1.83,-13.66 -1.23,-4.42 -2.98,-8.35 -5.25,-11.87 -2.29,-3.49 -5,-6.3 -8.15,-8.38 -3.15,-2.06 -6.65,-3.11 -10.49,-3.11 -8.04,0 -14.33,3.27 -18.89,9.79 -4.54,6.53 -6.81,15.35 -6.81,26.41 0,6.74 1.18,12.94 3.52,18.62 2.37,5.67 5.49,10.23 9.38,13.64 3.88,3.42 8.14,5.11 12.8,5.11zm128.73 -76.41c-3.01,0.63 -5.42,1.32 -7.17,2.09 -1.76,0.79 -2.64,1.48 -2.64,2.11l0 42.8c0,11.86 -2.8,21.06 -8.43,27.66 -5.6,6.6 -13.29,9.91 -23.05,9.91 -6.19,0 -11.7,-1.16 -16.51,-3.47 -4.81,-2.29 -8.59,-5.82 -11.32,-10.58 -2.75,-4.74 -4.12,-10.76 -4.12,-18.1l0 -48.22c0,-0.54 -0.81,-1.23 -2.48,-2.04 -1.64,-0.8 -4.1,-1.52 -7.34,-2.15l0 -2.92 30.51 0 0 2.92c-3.03,0.63 -5.43,1.32 -7.2,2.09 -1.76,0.79 -2.64,1.48 -2.64,2.11l0 44.84c0,8.68 2.02,15.46 6.06,20.37 4.05,4.92 9.93,7.36 17.67,7.36 4.3,0 7.94,-1.32 10.93,-3.93 2.98,-2.61 5.25,-5.99 6.78,-10.13 1.53,-4.15 2.31,-8.46 2.31,-12.92l0 -45.58c0,-0.54 -0.84,-1.23 -2.48,-2.04 -1.66,-0.8 -4.09,-1.52 -7.36,-2.15l0 -2.92 28.47 0 0 2.92zm25.17 82.53l0 -2.91c4.16,-0.86 7.06,-1.74 8.68,-2.62 1.64,-0.88 2.45,-1.64 2.45,-2.27l0 -71.56 -20.28 0c-0.91,0 -1.71,0.25 -2.46,0.74 -0.71,0.51 -1.48,1.59 -2.34,3.31 -0.83,1.69 -1.92,4.3 -3.29,7.82l-2.91 -1.29c0.23,-2.66 0.55,-5.52 0.94,-8.57 0.43,-3.05 0.83,-5.76 1.3,-8.1l19.19 0 15.01 0 8.32 0 7.07 0 18.91 0 2.04 1.69c-0.04,2.29 -0.25,4.82 -0.65,7.55 -0.4,2.75 -0.86,5.53 -1.39,8.38l-3.05 0c-0.86,-4.19 -1.65,-7.17 -2.34,-8.91 -0.7,-1.73 -2.02,-2.62 -3.96,-2.62l-14.72 0 -4.53 0 0 71.56c0,0.58 0.8,1.35 2.43,2.24 1.62,0.91 4.51,1.79 8.69,2.65l0 2.91 -33.11 0zm89.68 0l0 -2.91c3.32,-0.43 5.81,-1.05 7.41,-1.93 1.62,-0.9 2.41,-1.61 2.41,-2.22l0 -70.96c-0.99,-0.93 -2.01,-1.68 -3.06,-2.24 -2.1,-1.15 -4.37,-1.92 -6.75,-2.27l0 -2.92 14.37 0c1.3,0 2.3,0.29 2.97,0.89 0.69,0.57 1.87,2.03 3.54,4.39l44.56 61.49 0 -59.65c0,-0.54 -0.74,-1.25 -2.22,-2.14 -1.47,-0.87 -4.01,-1.57 -7.62,-2.06l0 -2.92 27.79 0 0 2.92c-3.25,0.43 -5.71,1.09 -7.35,1.97 -1.65,0.86 -2.48,1.6 -2.48,2.23l0 70.19 0 5.97 0 4.21c-2.19,-0.28 -3.97,-0.74 -5.27,-1.39 -1.32,-0.65 -2.26,-1.34 -2.79,-2.09l-47.55 -65.93 0 60.3c0,0.56 0.77,1.25 2.28,2.12 1.56,0.86 4.06,1.52 7.56,2.04l0 2.91 -27.8 0zm112.57 -30.19l-7.52 22.67c-0.45,1.39 0.15,2.41 1.83,3.06 1.66,0.62 4.37,1.12 8.08,1.55l0 2.91 -28.22 0 0 -2.91c3.08,-0.54 5.51,-1.12 7.32,-1.7 1.83,-0.61 2.94,-1.57 3.4,-2.92l25.23 -76.37c1.05,-1.14 2.31,-2.15 3.87,-3.08 1.52,-0.92 2.89,-1.72 4.07,-2.34l28.47 81.79c0.46,1.25 1.32,2.24 2.62,2.98 1.27,0.72 3.38,1.26 6.27,1.63l0 2.91 -28.64 0 0 -2.91c3.49,-0.24 5.92,-0.68 7.29,-1.37 1.39,-0.67 1.83,-1.77 1.34,-3.25l-7.74 -22.67 -27.69 0zm25.58 -6.08l-11.95 -34.86 -11.6 34.86 23.55 0zm112.37 -35.96l-2.46 -0.41c-2.47,-2.99 -5.17,-5.05 -8.12,-6.24 -2.95,-1.18 -5.7,-1.75 -8.29,-1.75 -3.34,0 -6.07,0.62 -8.18,1.9 -2.1,1.25 -3.63,2.81 -4.61,4.64 -0.97,1.82 -1.45,3.61 -1.45,5.32 0,2.84 1.01,5.3 3.07,7.34 2.06,2.04 4.7,3.89 7.95,5.56 3.23,1.67 6.66,3.35 10.28,5.1 3.61,1.71 7.04,3.67 10.28,5.9 3.22,2.19 5.88,4.86 7.92,7.96 2.05,3.1 3.09,6.87 3.09,11.36 0,3.01 -0.63,6.13 -1.83,9.35 -1.23,3.2 -3.1,6.18 -5.6,8.93 -2.5,2.79 -5.65,5.01 -9.43,6.74 -3.77,1.71 -8.22,2.57 -13.33,2.57 -2.99,0 -6.41,-0.61 -10.3,-1.81 -3.89,-1.2 -7.44,-2.8 -10.65,-4.83 -0.32,-0.19 -0.55,-0.96 -0.72,-2.27 -0.16,-1.34 -0.23,-2.94 -0.23,-4.81 0,-1.88 0.07,-3.78 0.23,-5.65 0.17,-1.88 0.4,-3.41 0.72,-4.64l2.78 0.32c2.08,5.35 5.12,9.26 9.1,11.79 3.96,2.5 8.27,3.75 12.88,3.75 2.71,0 5.39,-0.71 8.03,-2.15 2.66,-1.45 4.83,-3.38 6.58,-5.81 1.76,-2.4 2.61,-5.04 2.61,-7.89 0,-3.65 -1.01,-6.71 -3.05,-9.12 -2.01,-2.43 -4.65,-4.49 -7.85,-6.2 -3.22,-1.74 -6.62,-3.36 -10.21,-4.93 -3.61,-1.55 -7.01,-3.3 -10.21,-5.26 -3.22,-1.94 -5.83,-4.35 -7.87,-7.22 -2.04,-2.88 -3.06,-6.51 -3.06,-10.89 0,-2.12 0.49,-4.44 1.47,-6.94 0.96,-2.53 2.52,-4.91 4.65,-7.2 2.13,-2.29 4.9,-4.15 8.34,-5.6 3.45,-1.44 7.63,-2.16 12.61,-2.16 4.12,0 8.08,0.58 11.9,1.76 3.82,1.19 6.57,2.67 8.24,4.47 0.47,0.37 0.37,1.15 -0.22,2.34 -0.61,1.2 -1.42,2.45 -2.41,3.73 -1,1.29 -1.87,2.29 -2.64,2.95zm-12.99 -22.08l-7.25 0 -17.92 -20.81c0.65,-0.9 1.14,-1.58 1.46,-1.97 0.35,-0.42 0.88,-0.81 1.59,-1.23l18.66 14.31 18.31 -14.31c0.77,0.42 1.32,0.81 1.63,1.23 0.32,0.39 0.75,1.06 1.29,1.97l-17.78 20.81zm115.03 11.79c-3.01,0.63 -5.42,1.32 -7.18,2.09 -1.76,0.79 -2.64,1.48 -2.64,2.11l0 42.8c0,11.86 -2.81,21.06 -8.43,27.66 -5.6,6.6 -13.29,9.91 -23.06,9.91 -6.18,0 -11.7,-1.16 -16.5,-3.47 -4.83,-2.29 -8.59,-5.82 -11.32,-10.58 -2.76,-4.74 -4.12,-10.76 -4.12,-18.1l0 -48.22c0,-0.54 -0.81,-1.23 -2.48,-2.04 -1.64,-0.8 -4.09,-1.52 -7.33,-2.15l0 -2.92 30.51 0 0 2.92c-3.04,0.63 -5.44,1.32 -7.2,2.09 -1.76,0.79 -2.64,1.48 -2.64,2.11l0 44.84c0,8.68 2.01,15.46 6.06,20.37 4.05,4.92 9.93,7.36 17.66,7.36 4.31,0 7.94,-1.32 10.92,-3.93 2.99,-2.61 5.26,-5.99 6.78,-10.13 1.53,-4.15 2.32,-8.46 2.32,-12.92l0 -45.58c0,-0.54 -0.83,-1.23 -2.48,-2.04 -1.67,-0.8 -4.1,-1.52 -7.36,-2.15l0 -2.92 28.48 0 0 2.92zm8.42 82.53l0 -2.91c3.09,-0.63 5.49,-1.35 7.23,-2.12 1.74,-0.76 2.61,-1.43 2.61,-2.04l0.67 -72.74c-1.34,-0.78 -2.7,-1.37 -4.09,-1.78 -2.15,-0.65 -4.07,-0.95 -5.73,-0.95l0 -2.92 19.4 0c0.9,0 1.57,0.33 2.03,1.02 0.44,0.67 1.23,2.22 2.3,4.67l27.02 61.14 25.91 -61.14c1.15,-2.73 1.96,-4.34 2.4,-4.87 0.43,-0.55 1.07,-0.82 1.92,-0.82l19.4 0 0 2.92c-2.04,0 -4.4,0.51 -7.08,1.55 -0.7,0.27 -1.37,0.56 -2.04,0.86l0.65 73.05c0,0.56 0.81,1.23 2.48,2.02 1.65,0.79 4.1,1.51 7.35,2.14l0 2.91 -30.85 0 0 -2.91c3.06,-0.63 5.58,-1.35 7.55,-2.12 1.97,-0.76 2.97,-1.43 2.97,-2.04l-0.62 -63.46 -29.71 70.52 -0.28 0 -3.03 0 -30.18 -70.03 -0.61 62.97c0,0.56 0.81,1.23 2.45,2.02 1.67,0.79 4.12,1.51 7.36,2.14l0 2.91 -27.47 0zm133.75 -30.19l-7.53 22.67c-0.43,1.39 0.17,2.41 1.83,3.06 1.68,0.62 4.38,1.12 8.08,1.55l0 2.91 -28.22 0 0 -2.91c3.08,-0.54 5.51,-1.12 7.32,-1.7 1.83,-0.61 2.93,-1.57 3.4,-2.92l25.23 -76.37c1.04,-1.14 2.31,-2.15 3.86,-3.08 1.54,-0.92 2.9,-1.72 4.07,-2.34l28.48 81.79c0.46,1.25 1.32,2.24 2.62,2.98 1.27,0.72 3.38,1.26 6.27,1.63l0 2.91 -28.64 0 0 -2.91c3.5,-0.24 5.93,-0.68 7.29,-1.37 1.39,-0.67 1.84,-1.77 1.35,-3.25l-7.74 -22.67 -27.68 0zm25.58 -6.08l-11.95 -34.86 -11.59 34.86 23.54 0zm107.9 -46.26c-3.03,0.58 -5.41,1.16 -7.18,1.72 -1.76,0.57 -2.87,1.48 -3.34,2.75l-25.98 74.06c-0.43,1.32 -1.34,2.39 -2.68,3.22 -1.32,0.84 -2.71,1.48 -4.11,1.91 -1.44,0.43 -2.55,0.74 -3.36,0.92l-29.83 -80.1c-0.86,-2.26 -4.08,-3.75 -9.64,-4.46l0 -2.92 29.5 0 0 2.92c-3.57,0.25 -6.02,0.72 -7.37,1.38 -1.31,0.65 -1.78,1.63 -1.31,2.95l23.92 64.43 22.81 -64.3c0.48,-1.31 -0.08,-2.26 -1.67,-2.89 -1.62,-0.6 -4.25,-1.14 -7.96,-1.57l0 -2.92 28.19 0 0 2.92zm67.48 65.98c-0.32,3.89 -0.76,7.29 -1.37,10.21 -0.58,2.92 -1.07,5.03 -1.41,6.34l-58.52 0 0 -2.91c3.06,-0.63 5.47,-1.35 7.23,-2.12 1.73,-0.76 2.59,-1.43 2.59,-2.04l0 -71.27c0,-0.54 -0.82,-1.23 -2.48,-2.04 -1.64,-0.8 -4.09,-1.52 -7.33,-2.15l0 -2.92 19.12 0 11.39 0 24.14 0 2.23 1.69c-0.12,2.29 -0.49,5 -1.07,8.06 -0.6,3.08 -1.16,5.48 -1.71,7.2l-3.03 0c-0.18,-4.17 -0.74,-7.02 -1.67,-8.54 -0.92,-1.55 -2.23,-2.31 -3.91,-2.31l-24.82 0 0 29.51 27.48 0 1.76 1.9c-0.72,1.26 -1.69,2.65 -2.92,4.18 -1.23,1.5 -2.33,2.63 -3.34,3.35 -1.38,-1.32 -3.03,-2.27 -4.91,-2.85 -1.87,-0.6 -4.72,-0.87 -8.52,-0.87l-9.56 0 0 33.7c0,0.85 0.32,1.61 0.99,2.27 0.65,0.65 1.95,1.16 3.91,1.53 1.98,0.34 4.96,0.52 8.94,0.52l8.75 0c2.8,0 5.08,-0.22 6.8,-0.68 1.74,-0.49 3.24,-1.56 4.52,-3.2 1.27,-1.64 2.53,-4.23 3.8,-7.77l2.91 1.23zm-27.01 -77.77l-7.24 0 -17.92 -20.81c0.65,-0.9 1.13,-1.58 1.45,-1.97 0.35,-0.42 0.88,-0.81 1.59,-1.23l18.66 14.31 18.32 -14.31c0.76,0.42 1.32,0.81 1.62,1.23 0.32,0.39 0.76,1.06 1.29,1.97l-17.78 20.81zm197.76 8.87c-37.86,98.47 -95.97,186.9 -169.24,260.17 -135.15,135.16 -321.89,218.76 -528.14,218.76 -206.25,0 -392.98,-83.6 -528.14,-218.76 -73.27,-73.28 -131.38,-161.71 -169.25,-260.17l29.32 0c36.52,90.95 91.05,172.72 159.21,240.89 130.22,130.22 310.13,210.76 508.85,210.76 198.73,0 378.64,-80.54 508.86,-210.76 68.16,-68.17 122.69,-149.94 159.21,-240.89l29.31 0zm-402.11 -954.23c87.54,37.73 166.44,91.68 232.86,158.12 73.27,73.27 131.38,161.68 169.24,260.16l-29.32 0c-36.51,-90.95 -91.05,-172.72 -159.21,-240.88 -57.76,-57.75 -125.28,-105.73 -199.89,-141.24 -3.85,-12.39 -8.44,-24.46 -13.69,-36.16zm-604.25 36.16c-74.61,35.52 -142.13,83.49 -199.89,141.24 -68.16,68.15 -122.7,149.93 -159.21,240.88l-29.32 0c37.86,-98.48 95.98,-186.89 169.25,-260.16 66.43,-66.44 145.33,-120.39 232.86,-158.12 -5.25,11.7 -9.84,23.77 -13.69,36.16z"/>
 </g>
</svg>
