<?xml version="1.0" encoding="UTF-8"?>
<!-- Generated by Pixelmator Pro 3.7 -->
<svg width="238" height="195" viewBox="0 0 238 195" xmlns="http://www.w3.org/2000/svg">
    <g id="Layerx00201">
        <path id="Path" fill="#ede3c8" stroke="none" d="M 8.424904 122.036644 C 7.639832 122.036644 6.765838 121.957886 5.804189 121.801628 C 4.841271 121.644104 3.938058 121.448479 3.093281 121.212196 C 2.249774 120.975906 1.591738 120.720573 1.119171 120.446175 C 0.844777 120.289925 0.638982 120.122238 0.500515 119.945656 C 0.363318 119.769081 0.293449 119.464203 0.293449 119.032288 L -0 109.781654 C -0 108.995316 0.256609 108.602783 0.766016 108.602783 C 1.199202 108.602783 1.492651 108.955933 1.650173 109.663513 L 2.182446 111.90313 C 3.517575 117.520584 6.011255 120.330574 9.664757 120.330574 C 11.628705 120.330574 13.191224 119.672539 14.348505 118.356461 C 15.507056 117.039116 16.087603 115.184425 16.087603 112.787292 C 16.087603 110.470184 15.488001 108.310608 14.29007 106.306007 C 13.092137 104.302673 11.176463 102.319672 8.545586 100.355728 C 5.637775 98.272369 3.516305 96.260147 2.181176 94.316521 C 0.844777 92.371628 0.176577 90.298431 0.176577 88.099472 C 0.176577 85.192932 1.189039 82.865662 3.211423 81.117683 C 5.233806 79.368416 7.81768 78.495697 10.959234 78.495697 C 12.138112 78.495697 13.276338 78.632896 14.376452 78.907288 C 15.477839 79.181679 16.38105 79.574211 17.088633 80.084892 C 17.323645 80.242416 17.510384 80.418991 17.648851 80.615898 C 17.786049 80.812798 17.854647 81.068138 17.854647 81.381905 L 18.032495 90.279381 C 18.032495 90.947578 17.777157 91.280411 17.266479 91.280411 C 16.913324 91.280411 16.657986 91.007286 16.501734 90.455956 L 16.088873 88.982361 C 15.22377 85.95768 14.33072 83.74855 13.407183 82.353722 C 12.483644 80.958893 11.158678 80.261467 9.429744 80.261467 C 7.74019 80.261467 6.394898 80.811523 5.392599 81.911644 C 4.39157 83.011757 3.891055 84.56411 3.891055 86.567444 C 3.891055 88.25573 4.441113 89.867783 5.541229 91.398552 C 6.640074 92.930588 8.565911 94.795448 11.31493 96.996948 C 14.260852 99.394081 16.411539 101.701019 17.766994 103.919037 C 19.123718 106.139587 19.80081 108.506241 19.80081 111.020241 C 19.80081 113.2192 19.310457 115.145042 18.327215 116.793945 C 17.343969 118.445389 15.998679 119.730972 14.29134 120.65451 C 12.582731 121.576782 10.628945 122.039177 8.427444 122.039177 Z M 28.046595 121.505646 C 27.457157 121.505646 27.163708 121.28968 27.163708 120.857765 C 27.163708 120.42585 27.419046 120.18956 27.929724 120.150185 L 30.580927 119.73732 C 31.367268 119.620453 31.896999 119.413383 32.172665 119.119934 C 32.44706 118.825218 32.585526 118.264999 32.585526 117.440552 L 32.585526 82.086945 C 32.585526 81.536896 32.467384 81.144356 32.232368 80.909348 C 31.997358 80.671791 31.505733 80.554916 30.758776 80.554916 C 29.305504 80.554916 27.871288 81.183731 26.457399 82.441376 C 25.043509 83.697746 24.11997 85.721397 23.688055 88.509796 L 23.393335 90.454689 C 23.314573 90.965363 23.04018 91.219429 22.568884 91.219429 C 21.979446 91.219429 21.724106 90.886604 21.802868 90.218399 L 22.33387 79.55262 C 22.41263 78.649399 22.764517 78.1959 23.394606 78.1959 C 23.670271 78.1959 23.924337 78.264496 24.160622 78.402954 C 24.395634 78.540154 24.798334 78.687515 25.368715 78.845039 C 25.937828 79.002563 26.851204 79.081322 28.108843 79.081322 L 41.249252 79.081322 C 42.505623 79.081322 43.418999 79.002563 43.98938 78.845039 C 44.558495 78.687515 44.971355 78.540154 45.226688 78.402954 C 45.482029 78.264496 45.728477 78.1959 45.96349 78.1959 C 46.592308 78.1959 46.945461 78.64814 47.022953 79.55262 L 47.553955 90.218399 C 47.632717 90.88533 47.37738 91.219429 46.787941 91.219429 C 46.317913 91.219429 46.043522 90.964088 45.96349 90.454689 L 45.66877 88.509796 C 45.276234 85.721397 44.37302 83.697746 42.957863 82.441376 C 41.543972 81.183731 40.090702 80.554916 38.598049 80.554916 C 37.851089 80.554916 37.360741 80.673065 37.124454 80.909348 C 36.889442 81.144356 36.771297 81.536896 36.771297 82.086945 L 36.771297 117.440552 C 36.771297 118.264999 36.918659 118.825218 37.213379 119.119934 C 37.508099 119.414658 38.028934 119.620453 38.774628 119.73732 L 41.427097 120.150185 C 41.936508 120.18956 42.193119 120.42585 42.193119 120.857765 C 42.193119 121.288414 41.898399 121.505646 41.30769 121.505646 L 28.050406 121.505646 Z M 45.606525 121.505646 C 45.017086 121.505646 44.722366 121.310005 44.722366 120.916199 C 44.722366 120.523666 44.996758 120.268333 45.546818 120.150185 L 46.429703 119.97361 C 47.216045 119.816086 47.805485 119.433716 48.198021 118.823944 C 48.590557 118.215454 48.924656 117.361786 49.200317 116.261673 L 58.332802 79.434479 C 58.410294 79.041939 58.538597 78.785332 58.715176 78.668457 C 58.89048 78.550316 59.058167 78.491882 59.216961 78.491882 C 59.411324 78.491882 59.599335 78.550316 59.775909 78.668457 C 59.953758 78.786598 60.080795 79.041939 60.159554 79.434479 L 69.469887 116.791397 C 69.744278 117.892792 70.059326 118.657532 70.412483 119.089447 C 70.765633 119.522636 71.314423 119.816086 72.062653 119.97361 L 72.945534 120.150185 C 73.495598 120.268333 73.769997 120.523666 73.769997 120.916199 C 73.769997 121.308731 73.476547 121.505646 72.887108 121.505646 L 62.810757 121.505646 C 62.260696 121.505646 61.986305 121.28968 61.986305 120.857765 C 61.986305 120.42585 62.320404 120.18956 62.987331 120.150185 L 64.106506 120.032043 C 64.775978 119.954552 65.196457 119.73732 65.374306 119.384171 C 65.55088 119.031013 65.540718 118.421249 65.343819 117.557419 L 63.105476 108.42366 C 62.870464 107.402313 62.221317 106.891632 61.160583 106.891632 L 54.972748 106.891632 C 53.951397 106.891632 53.303524 107.401039 53.029129 108.42366 L 51.025803 116.320107 C 50.436359 118.559723 51.025803 119.795761 52.792843 120.032043 L 53.677002 120.150185 C 54.3452 120.268333 54.679302 120.503342 54.679302 120.857765 C 54.679302 121.288414 54.404907 121.505646 53.854851 121.505646 L 45.606525 121.505646 Z M 54.79744 105.124588 L 61.279995 105.124588 C 61.908813 105.124588 62.164154 104.791763 62.046013 104.123558 L 58.275635 88.331947 L 57.980919 88.331947 L 54.032696 104.123558 C 53.913284 104.791763 54.171165 105.124588 54.79744 105.124588 Z M 74.125687 121.505646 C 73.536247 121.505646 73.242798 121.28968 73.242798 120.857765 C 73.242798 120.503342 73.496864 120.268333 74.00882 120.150185 L 75.364273 119.913902 C 76.699402 119.678894 77.367599 118.912872 77.367599 117.617119 L 77.367599 82.971107 C 77.367599 82.145386 77.24057 81.595322 76.983955 81.319664 C 76.728615 81.045273 76.187447 80.829315 75.364273 80.670517 L 74.00882 80.435501 C 73.496864 80.31736 73.242798 80.082352 73.242798 79.729195 C 73.242798 79.296005 73.536247 79.080048 74.125687 79.080048 L 86.027519 79.080048 C 89.091576 79.080048 91.742783 79.974373 93.983665 81.760475 C 96.222008 83.547836 97.950935 86.051682 99.169197 89.27327 C 100.386177 92.494858 100.994675 96.225853 100.994675 100.468788 C 100.994675 104.74984 100.35569 108.463043 99.079002 111.605873 C 97.802307 114.747421 96.004776 117.183937 93.687675 118.912872 C 91.370567 120.640541 88.620277 121.504372 85.438072 121.504372 L 74.124413 121.504372 Z M 85.674355 119.97361 C 89.170341 119.97361 91.831703 118.304382 93.658455 114.964653 C 95.48394 111.624924 96.397316 106.793823 96.397316 100.470055 C 96.397316 94.185684 95.523315 89.303764 93.77533 85.828102 C 92.027336 82.351181 89.444733 80.61335 86.026245 80.61335 C 83.040939 80.61335 81.548294 82.047562 81.548294 84.914726 L 81.548294 115.672226 C 81.548294 117.243645 81.873497 118.353928 82.52137 119.000526 C 83.16925 119.649666 84.221085 119.97361 85.673088 119.97361 Z M 104.765053 121.505646 C 104.175613 121.505646 103.88089 121.28968 103.88089 120.857765 C 103.88089 120.503342 104.13623 120.268333 104.646912 120.150185 L 106.002365 119.913902 C 106.826813 119.756378 107.366707 119.541695 107.622047 119.266029 C 107.877388 118.991631 108.004417 118.441582 108.004417 117.617119 L 108.004417 82.971107 C 108.004417 82.145386 107.876114 81.595322 107.622047 81.319664 C 107.366707 81.045273 106.826813 80.829315 106.002365 80.670517 L 104.646912 80.435501 C 104.13623 80.31736 103.88089 80.082352 103.88089 79.729195 C 103.88089 79.296005 104.175613 79.080048 104.765053 79.080048 L 115.430832 79.080048 C 116.020271 79.080048 116.314995 79.294739 116.314995 79.729195 C 116.314995 80.081078 116.05838 80.31736 115.548981 80.435501 L 114.192245 80.670517 C 113.367798 80.829315 112.827904 81.043999 112.572563 81.319664 C 112.31723 81.595322 112.190193 82.144112 112.190193 82.971107 L 112.190193 117.617119 C 112.190193 118.441582 112.31723 118.991631 112.572563 119.266029 C 112.827904 119.541695 113.369072 119.756378 114.192245 119.913902 L 115.548981 120.150185 C 116.059654 120.268333 116.314995 120.503342 116.314995 120.857765 C 116.314995 121.288414 116.020271 121.505646 115.430832 121.505646 L 104.765053 121.505646 Z M 133.343918 122.036644 C 131.458725 122.036644 129.689148 121.476418 128.040237 120.357246 C 126.391342 119.238075 124.94696 117.695892 123.709648 115.731941 C 122.473602 113.76799 121.510689 111.459778 120.822159 108.808578 C 120.136177 106.157379 119.790642 103.29911 119.790642 100.235046 C 119.790642 97.172249 120.134911 94.322876 120.822159 91.690727 C 121.510689 89.058578 122.473602 86.752914 123.709648 84.767372 C 124.94696 82.783096 126.391342 81.242172 128.040237 80.142052 C 129.689148 79.041939 131.458725 78.493149 133.343918 78.493149 C 135.229111 78.493149 136.987259 79.041939 138.618362 80.142052 C 140.246948 81.242172 141.69133 82.783096 142.948975 84.767372 C 144.206619 86.75164 145.178406 89.058578 145.865677 91.690727 C 146.552933 94.322876 146.89592 97.172249 146.89592 100.235046 C 146.89592 103.29911 146.551651 106.157379 145.865677 108.808578 C 145.178406 111.459778 144.206619 113.76799 142.948975 115.731941 C 141.692596 117.697151 140.246948 119.238075 138.618362 120.357246 C 136.987259 121.476418 135.229111 122.036644 133.343918 122.036644 Z M 133.343918 120.444901 C 136.132309 120.444901 138.313492 118.775681 139.883636 115.437218 C 141.455048 112.097496 142.241379 107.030098 142.241379 100.235046 C 142.241379 93.439995 141.455048 88.381493 139.883636 85.062088 C 138.313492 81.742691 136.132309 80.082352 133.343918 80.082352 C 130.593628 80.082352 128.423889 81.741417 126.832146 85.062088 C 125.241684 88.381493 124.445175 93.439995 124.445175 100.235046 C 124.445175 107.030098 125.241684 112.098763 126.832146 115.437218 C 128.423889 118.775681 130.593628 120.444901 133.343918 120.444901 Z M 174.059631 122.036644 C 173.430801 122.036644 172.901077 121.565346 172.469162 120.621483 L 156.499695 85.975464 C 156.381561 85.699799 156.234192 85.582924 156.057617 85.622307 C 155.881042 85.66169 155.793396 85.838264 155.793396 86.153305 L 155.793396 116.438248 C 155.793396 117.539635 155.980133 118.374245 156.352341 118.943359 C 156.725815 119.513748 157.402924 119.877068 158.384888 120.03331 L 159.150894 120.151451 C 159.661575 120.190834 159.916916 120.427124 159.916916 120.859032 C 159.916916 121.28968 159.622208 121.506912 159.032761 121.506912 L 150.606598 121.506912 C 150.017151 121.506912 149.722427 121.290955 149.722427 120.859032 C 149.722427 120.427124 149.977768 120.190834 150.488449 120.151451 L 151.254471 120.03331 C 152.277084 119.877068 152.983398 119.513748 153.375931 118.943359 C 153.76973 118.374245 153.965363 117.539635 153.965363 116.438248 L 153.965363 82.971107 C 153.965363 82.145386 153.837067 81.595322 153.582993 81.319664 C 153.327652 81.045273 152.747116 80.829315 151.845169 80.670517 L 150.488449 80.435501 C 149.977768 80.31736 149.722427 80.082352 149.722427 79.729195 C 149.722427 79.296005 150.017151 79.080048 150.606598 79.080048 L 156.911285 79.080048 C 157.894547 79.080048 158.580505 79.511971 158.974335 80.375801 L 172.879486 110.957993 C 172.99762 111.194275 173.144974 111.290825 173.321564 111.251442 C 173.498138 111.210793 173.587051 111.074867 173.587051 110.839851 L 173.587051 84.146172 C 173.587051 82.889801 173.371109 82.015808 172.939178 81.524185 C 172.507263 81.032562 171.955948 80.728958 171.289017 80.610809 L 170.228287 80.434235 C 169.716324 80.316093 169.462265 80.081078 169.462265 79.727928 C 169.462265 79.294739 169.756989 79.078781 170.34642 79.078781 L 178.772598 79.078781 C 179.36203 79.078781 179.656754 79.293465 179.656754 79.727928 C 179.656754 80.158569 179.400131 80.394859 178.889465 80.434235 L 178.123459 80.552376 C 177.102097 80.708626 176.394516 81.033836 176.00325 81.525459 C 175.609451 82.015808 175.413803 82.889801 175.413803 84.147446 L 175.413803 120.150185 C 175.413803 120.857765 175.286774 121.348122 175.031433 121.623787 C 174.776093 121.89817 174.450897 122.036644 174.058365 122.036644 Z M 182.603928 121.505646 C 182.014511 121.505646 181.719788 121.28968 181.719788 120.857765 C 181.719788 120.503342 181.975128 120.268333 182.484528 120.150185 L 183.839996 119.913902 C 184.664444 119.756378 185.205612 119.541695 185.460953 119.266029 C 185.716278 118.991631 185.843307 118.441582 185.843307 117.617119 L 185.843307 82.971107 C 185.843307 82.145386 185.716278 81.595322 185.460953 81.319664 C 185.205612 81.045273 184.664444 80.829315 183.839996 80.670517 L 182.484528 80.435501 C 181.973846 80.31736 181.719788 80.082352 181.719788 79.729195 C 181.719788 79.296005 182.013245 79.080048 182.603928 79.080048 L 202.402222 79.080048 C 203.305435 79.080048 203.795776 79.531021 203.874542 80.434235 L 204.347107 90.215866 C 204.425858 90.882797 204.170517 91.216896 203.581085 91.216896 C 203.111069 91.216896 202.834122 90.961555 202.756638 90.452148 L 202.403488 88.27224 C 201.970291 85.600716 201.087402 83.645653 199.752289 82.409615 C 198.41716 81.173576 196.570068 80.55365 194.213593 80.55365 C 192.642181 80.55365 191.552231 80.77977 190.943726 81.230736 C 190.335251 81.682976 190.030365 82.47821 190.030365 83.617714 L 190.030365 97.817581 C 190.030365 98.367645 190.304764 98.642036 190.854813 98.642036 L 193.802002 98.642036 C 195.53093 98.642036 196.590408 97.718498 196.982941 95.872688 L 197.572372 92.926773 C 197.729904 92.337326 198.062729 92.082001 198.574677 92.160759 C 199.006592 92.239517 199.222549 92.573616 199.222549 93.163048 L 199.222549 106.420341 C 199.222549 107.009773 199.006592 107.343872 198.574677 107.421371 C 198.062729 107.50013 197.729904 107.244789 197.572372 106.65535 L 196.982941 103.767868 C 196.708542 102.393356 196.32489 101.490143 195.834549 101.056953 C 195.342926 100.625046 194.645508 100.409081 193.742294 100.409081 L 190.854813 100.409081 C 190.304764 100.409081 190.030365 100.683472 190.030365 101.233536 L 190.030365 116.022842 C 190.030365 117.436737 190.393677 118.458092 191.120316 119.086906 C 191.846939 119.715729 193.173187 120.029503 195.097748 120.029503 C 197.061691 120.029503 198.741089 119.528992 200.13591 118.526688 C 201.530762 117.525658 202.502563 115.649361 203.052628 112.900352 L 203.758926 109.423424 C 203.877075 108.91275 204.171799 108.65741 204.643097 108.65741 C 205.193146 108.65741 205.429428 108.991508 205.350677 109.65844 L 204.76123 120.147644 C 204.68248 121.050858 204.190857 121.503098 203.287643 121.503098 L 182.605209 121.503098 Z M 233.808868 122.036644 C 230.391647 122.036644 228.210464 119.797035 227.267883 115.319077 L 225.913681 108.779366 C 225.480499 106.65789 225.00032 105.047104 224.469315 103.946983 C 223.938309 102.84687 223.212936 102.101181 222.289398 101.707367 C 221.36586 101.314835 220.099335 101.117935 218.488556 101.117935 C 217.939758 101.117935 217.507828 101.265289 217.192795 101.560013 C 216.879028 101.854729 216.721497 102.218048 216.721497 102.649963 L 216.721497 117.380836 C 216.721497 118.205292 216.879028 118.765518 217.192795 119.060234 C 217.507828 119.356216 218.214157 119.600128 219.31427 119.797035 L 221.494171 120.150185 C 221.926086 120.228943 222.143311 120.444901 222.143311 120.799332 C 222.143311 121.270622 221.847321 121.505646 221.259155 121.505646 L 209.297623 121.505646 C 208.708191 121.505646 208.413467 121.28968 208.413467 120.857765 C 208.413467 120.503342 208.668808 120.268333 209.179489 120.150185 L 210.534943 119.913902 C 211.35939 119.756378 211.900558 119.541695 212.155884 119.266029 C 212.411224 118.991631 212.539536 118.441582 212.539536 117.617119 L 212.539536 82.971107 C 212.539536 82.145386 212.411224 81.595322 212.155884 81.319664 C 211.900558 81.045273 211.35939 80.829315 210.534943 80.670517 L 209.179489 80.435501 C 208.668808 80.31736 208.413467 80.082352 208.413467 79.729195 C 208.413467 79.296005 208.708191 79.080048 209.297623 79.080048 L 221.259155 79.080048 C 223.576263 79.080048 225.639297 79.531021 227.445724 80.434235 C 229.253418 81.338722 230.667313 82.584923 231.68866 84.176659 C 232.710022 85.767128 233.220688 87.604042 233.220688 89.686127 C 233.220688 92.160759 232.47374 94.390205 230.981079 96.373207 C 229.488434 98.357475 227.601974 99.761208 225.324249 100.586929 C 225.048599 100.665688 224.90123 100.792725 224.882172 100.969299 C 224.861847 101.145882 224.990143 101.293236 225.264542 101.411385 C 226.522186 102.000816 227.514313 102.826538 228.240952 103.886009 C 228.96759 104.946739 229.52655 106.360626 229.920349 108.128944 L 231.216095 114.138931 C 231.649277 116.181641 232.158691 117.634911 232.748138 118.498741 C 233.33757 119.363838 234.083267 119.795761 234.987747 119.795761 C 235.301514 119.795761 235.586075 119.746216 235.842682 119.648407 C 236.098022 119.549316 236.421951 119.363838 236.81575 119.088181 C 237.129532 118.892548 237.422974 118.843002 237.698654 118.940826 C 237.973053 119.039909 238.111511 119.245697 238.111511 119.559479 C 238.111511 120.22641 237.679596 120.806953 236.81575 121.297302 C 235.950653 121.788925 234.949631 122.034103 233.810135 122.034103 Z M 220.668442 99.644333 C 223.339981 99.644333 225.362366 98.751289 226.738144 96.963921 C 228.112656 95.177818 228.799896 92.789574 228.799896 89.805542 C 228.799896 86.899002 228.003387 84.630173 226.412933 82.999054 C 224.822464 81.369209 222.632401 80.55365 219.843994 80.55365 C 217.761902 80.55365 216.72023 81.339989 216.72023 82.9114 L 216.72023 96.404968 C 216.72023 98.564545 218.036301 99.644333 220.668442 99.644333 Z M 188.136276 55.991592 C 189.011551 55.991592 189.866486 56.215179 190.702362 56.666153 C 191.535706 57.114578 192.187393 57.758636 192.652344 58.594528 C 193.117279 59.432953 193.351028 60.305679 193.351028 61.212692 C 193.351028 62.112106 193.123642 62.977203 192.662506 63.805466 C 192.205185 64.637543 191.56366 65.281601 190.734116 65.740189 C 189.905869 66.200058 189.03949 66.428726 188.137543 66.428726 C 187.233063 66.428726 186.36795 66.198792 185.538437 65.740189 C 184.710175 65.281601 184.066101 64.637543 183.604965 63.805466 C 183.143829 62.977203 182.912628 62.112106 182.912628 61.212692 C 182.912628 60.305679 183.146378 59.432953 183.613861 58.594528 C 184.083893 57.758636 184.735565 57.115845 185.568924 56.666153 C 186.4048 56.215179 187.258469 55.991592 188.136276 55.991592 Z M 188.136276 56.855423 C 187.402023 56.855423 186.686813 57.043442 185.99321 57.419464 C 185.29834 57.794205 184.755905 58.33284 184.363373 59.031525 C 183.972092 59.730209 183.776474 60.458115 183.776474 61.212692 C 183.776474 61.966003 183.969559 62.686295 184.354462 63.374817 C 184.73938 64.063339 185.278015 64.600708 185.969086 64.985611 C 186.661407 65.370529 187.38298 65.563629 188.136276 65.563629 C 188.887054 65.563629 189.608597 65.370529 190.300949 64.985611 C 190.992004 64.600708 191.530624 64.063339 191.912994 63.374817 C 192.29538 62.685028 192.487198 61.964737 192.487198 61.212692 C 192.487198 60.456848 192.290283 59.730209 191.901566 59.031525 C 191.511581 58.33284 190.969147 57.794205 190.271729 57.419464 C 189.575562 57.044708 188.862915 56.855423 188.13501 56.855423 Z M 185.844574 64.09256 L 185.844574 58.484009 L 187.774231 58.484009 C 188.434799 58.484009 188.91246 58.536087 189.207184 58.638992 C 189.50444 58.743149 189.738174 58.923538 189.916031 59.182693 C 190.091339 59.440582 190.177719 59.713699 190.177719 60.004608 C 190.177719 60.412384 190.031631 60.771896 189.736908 61.072968 C 189.443466 61.37912 189.054733 61.548065 188.568192 61.584915 C 188.766357 61.66748 188.927704 61.766571 189.044571 61.882172 C 189.270706 62.100677 189.547623 62.471603 189.875381 62.993713 L 190.560089 64.091293 L 189.45871 64.091293 L 188.958191 63.208405 C 188.565659 62.512253 188.246796 62.075256 188.006699 61.90123 C 187.841568 61.774185 187.601471 61.709396 187.281342 61.713211 L 186.747803 61.713211 L 186.747803 64.09256 L 185.842056 64.09256 Z M 186.750336 60.934494 L 187.850449 60.934494 C 188.376373 60.934494 188.73587 60.855728 188.926422 60.700745 C 189.116974 60.545776 189.214798 60.337433 189.214798 60.083374 C 189.214798 59.918228 189.169067 59.768326 189.075058 59.640015 C 188.983597 59.506638 188.856567 59.411362 188.693954 59.346573 C 188.528809 59.283051 188.226471 59.250031 187.783127 59.250031 L 186.750336 59.250031 L 186.750336 60.93576 Z M 90.59185 31.45369 L 90.59185 45.59639 C 87.719612 45.393143 84.938835 46.428467 83.800606 47.17543 C 80.370682 49.429016 76.337349 44.727478 68.270683 47.240219 C 65.177406 48.204407 61.587418 50.483398 58.998463 52.462585 L 58.998463 52.462585 C 67.866714 51.790573 78.621429 51.264664 90.590576 50.941986 L 90.590576 60.346329 L 89.852509 60.75029 L 89.852509 64.457153 C 88.033379 65.059296 87.019653 65.727493 87.019653 66.429993 C 87.019653 69.05706 101.152199 71.18869 118.583817 71.18869 C 136.015442 71.18869 150.146713 69.058327 150.146713 66.429993 C 150.146713 65.550919 148.561325 64.726471 145.799606 64.01889 L 141.733246 64.01889 L 141.733246 63.195709 L 141.733246 50.825119 L 141.733246 44.693176 L 141.733246 32.586823 L 141.733246 31.693771 L 145.802155 31.693771 C 148.128159 31.031937 149.448029 30.276077 149.448029 29.471954 C 149.448029 26.871567 135.633072 24.762802 118.591438 24.762802 C 101.54982 24.762802 87.734856 26.871567 87.734856 29.471954 C 87.734856 30.179535 88.758751 30.850266 90.593124 31.45369 Z M 91.699585 63.93631 L 91.699585 50.912781 L 91.699585 45.739944 L 91.699585 31.7827 L 91.699585 30.601288 L 96.310928 30.601288 L 96.310928 32.729111 C 100.440804 33.38588 105.804192 33.862259 111.83577 34.068054 L 111.83577 43.854752 C 110.005211 44.467056 108.376633 44.792267 107.357811 44.695724 C 105.528526 44.522949 101.910591 44.024979 100.492889 44.660156 C 99.716713 45.006958 98.124977 45.482071 96.310928 45.738678 L 96.310928 50.807327 C 101.318611 50.701889 106.507957 50.632019 111.83577 50.600266 L 111.83577 57.709106 L 111.251411 58.027954 L 111.251411 61.802139 C 105.501846 62.007935 100.362045 62.451279 96.310928 63.059784 L 96.310928 66.654846 L 91.699585 66.654846 L 91.699585 63.937576 Z M 140.757629 32.748154 L 140.757629 44.601715 C 140.048767 44.533127 139.489838 44.479767 139.146835 44.444199 C 138.097534 44.333679 134.297943 43.6642 130.694 42.989655 L 130.694 50.64473 C 134.118835 50.682846 137.4776 50.737473 140.757629 50.806061 L 140.757629 58.456055 L 140.105942 58.811752 L 140.105942 62.950531 C 137.375992 62.568161 134.195038 62.255646 130.694 62.035889 L 130.694 68.904617 L 125.309006 68.904617 L 125.309006 61.780548 L 125.309006 50.598999 L 125.309006 41.946701 L 125.309006 34.069321 L 125.309006 26.810593 L 130.694 27.111664 L 130.694 33.803818 C 134.502472 33.554825 137.918427 33.194046 140.757629 32.746887 Z M 112.711037 61.755142 L 112.711037 50.592651 L 112.711037 43.5448 L 112.711037 34.09726 L 112.711037 33.515442 L 116.359451 33.515442 L 116.359451 34.169678 C 117.096252 34.178574 117.840675 34.182373 118.591438 34.182373 C 120.442329 34.182373 122.255112 34.156967 124.017075 34.108704 L 124.017075 41.673584 L 123.896385 41.646896 C 121.431931 41.080338 119.767776 40.139008 116.373428 41.913681 L 116.360725 41.921295 L 116.360725 50.579941 C 117.089897 50.578674 117.820343 50.577408 118.554604 50.577408 C 120.390251 50.577408 122.211914 50.582489 124.018341 50.591385 L 124.018341 61.742432 C 122.253838 61.696701 120.438522 61.671295 118.586365 61.671295 C 117.836861 61.671295 117.096252 61.676376 116.360725 61.68399 L 116.360725 62.697723 L 112.712303 62.697723 L 112.712303 61.755142 Z M 119.055115 -0.067291 C 125.822227 -0.067291 132.631256 2.756668 137.449661 7.805008 C 141.151428 11.68718 143.695938 16.876511 145.222885 22.72644 L 145.222885 22.727707 C 145.273682 22.924606 145.324509 23.120239 145.372772 23.31842 C 145.673843 24.283875 146.524979 26.306259 148.78746 28.435349 C 145.846619 26.034409 133.444275 23.38829 118.592712 23.38829 C 104.564331 23.38829 92.72348 25.747314 88.974709 28.03392 C 92.019714 25.427185 92.814949 23.033859 92.945793 22.571457 L 92.964851 22.501587 L 92.967392 22.490158 L 92.967392 22.490158 C 94.640427 16.315033 97.484726 10.924973 101.559975 6.995804 C 106.239914 2.484818 112.698334 -0.069839 119.056389 -0.069839 Z M 149.064392 28.693237 L 149.08725 28.71228 L 149.084717 28.71228 C 149.078369 28.705933 149.07074 28.698318 149.064392 28.693237 Z M 179.111771 52.541351 C 170.079651 49.719925 159.384644 46.289993 153.516937 45.807266 C 151.626663 45.614182 148.613419 45.333435 145.803421 45.071747 L 145.803421 50.92421 C 158.515717 51.258301 169.884018 51.815979 179.111771 52.541351 Z M 119.055115 170.215607 C 119.738564 170.215607 120.291161 170.76947 120.291161 171.452911 C 120.291161 172.135086 119.738564 172.690231 119.055115 172.690231 C 118.371674 172.690231 117.819077 172.136353 117.819077 171.452911 C 117.819077 170.76947 118.371674 170.215607 119.055115 170.215607 Z M 119.055115 159.361816 C 113.212822 159.375793 108.56591 162.715515 109.296356 167.540268 C 109.296356 167.540268 111.285713 163.622543 116.509354 166.045074 C 118.526657 166.980042 118.120148 168.47905 117.225822 169.985687 C 116.904434 170.388367 116.711334 170.8965 116.711334 171.451645 C 116.711334 172.746124 117.760643 173.795425 119.055115 173.795425 C 120.349594 173.795425 121.398903 172.746124 121.398903 171.451645 C 121.398903 170.8965 121.205803 170.387115 120.883141 169.985687 C 119.988815 168.47905 119.58358 166.980042 121.600876 166.045074 C 126.823257 163.622543 128.813889 167.540268 128.813889 167.540268 C 129.544327 162.715515 124.897415 159.375793 119.055115 159.361816 Z M 92.210266 170.215607 C 92.893707 170.215607 93.447578 170.76947 93.447578 171.452911 C 93.447578 172.135086 92.893707 172.690231 92.210266 172.690231 C 91.526817 172.690231 90.972954 172.136353 90.972954 171.452911 C 90.972954 170.76947 91.526817 170.215607 92.210266 170.215607 Z M 92.210266 159.361816 C 86.367966 159.375793 81.721054 162.715515 82.452774 167.540268 C 82.452774 167.540268 84.442123 163.622543 89.664505 166.045074 C 91.680534 166.980042 91.276566 168.47905 90.383514 169.985687 C 90.060852 170.388367 89.867752 170.8965 89.867752 171.451645 C 89.867752 172.746124 90.915787 173.795425 92.211533 173.795425 C 93.504745 173.795425 94.555321 172.746124 94.555321 171.451645 C 94.555321 170.8965 94.363495 170.387115 94.040833 169.985687 C 93.147774 168.47905 92.742538 166.980042 94.757301 166.045074 C 99.979675 163.622543 101.969025 167.540268 101.969025 167.540268 C 102.702019 162.715515 98.053833 159.375793 92.211533 159.361816 Z M 145.898697 170.215607 C 146.582138 170.215607 147.136017 170.76947 147.136017 171.452911 C 147.136017 172.135086 146.582138 172.690231 145.898697 172.690231 C 145.215256 172.690231 144.661392 172.136353 144.661392 171.452911 C 144.661392 170.76947 145.215256 170.215607 145.898697 170.215607 Z M 145.898697 159.361816 C 140.056396 159.375793 135.4095 162.715515 136.141205 167.540268 C 136.141205 167.540268 138.130554 163.622543 143.354202 166.045074 C 145.370239 166.980042 144.964996 168.47905 144.070679 169.985687 C 143.748001 170.388367 143.556198 170.8965 143.556198 171.451645 C 143.556198 172.746124 144.605484 173.795425 145.898697 173.795425 C 147.193176 173.795425 148.242477 172.746124 148.242477 171.451645 C 148.242477 170.8965 148.049393 170.387115 147.72673 169.985687 C 146.833664 168.47905 146.428436 166.980042 148.44574 166.045074 C 153.668106 163.622543 155.657455 167.540268 155.657455 167.540268 C 156.389175 162.715515 151.742264 159.375793 145.899979 159.361816 Z M 52.153862 145.013306 L 52.153862 144.643646 C 52.541317 144.563614 52.847469 144.472153 53.069778 144.374329 C 53.290817 144.277786 53.400066 144.192657 53.400066 144.115173 L 53.400066 135.061447 C 53.400066 134.992844 53.298439 134.905197 53.085022 134.802292 C 52.876686 134.700684 52.565456 134.609222 52.153862 134.529175 L 52.153862 134.158234 L 56.028404 134.158234 L 56.028404 134.529175 C 55.64349 134.609222 55.337337 134.696869 55.113758 134.794678 C 54.891449 134.89505 54.779659 134.982697 54.779659 135.062714 L 54.779659 139.441589 L 58.302315 135.295197 C 58.567818 134.986511 58.640224 134.78833 58.523354 134.708282 C 58.405212 134.629532 58.120655 134.568558 57.667145 134.530457 L 57.667145 134.159515 L 61.282536 134.159515 L 61.282536 134.530457 C 60.915405 134.574921 60.6245 134.626999 60.409813 134.682892 C 60.192581 134.741318 59.995678 134.868347 59.819103 135.062714 L 56.044918 139.22818 L 60.206558 143.91954 C 60.407269 144.149475 60.646095 144.280334 60.915405 144.319702 C 61.188534 144.357819 61.474358 144.357819 61.775429 144.32605 L 61.836403 144.695709 C 61.501034 144.804977 61.163124 144.906586 60.818863 144.995529 C 60.474598 145.08699 60.163364 145.133987 59.887699 145.133987 C 59.721287 145.133987 59.571384 145.107315 59.445625 145.05777 C 59.317318 145.00441 59.192822 144.909134 59.079765 144.764313 L 54.779659 139.506378 L 54.779659 144.117722 C 54.779659 144.188843 54.882557 144.273972 55.090893 144.374329 C 55.296688 144.47467 55.609192 144.566147 56.028404 144.646179 L 56.028404 145.015839 L 52.153862 145.015839 Z M 66.385498 145.272461 C 65.695702 145.272461 65.08213 145.122559 64.540962 144.818954 C 64.002335 144.51915 63.547554 144.107544 63.174072 143.593063 C 62.800591 143.076019 62.518581 142.48407 62.324215 141.822205 C 62.132393 141.15654 62.035847 140.462952 62.035847 139.740128 C 62.035847 138.957596 62.159069 138.21698 62.409328 137.513214 C 62.659584 136.808167 63.005119 136.186966 63.447197 135.64328 C 63.891819 135.098297 64.406303 134.672729 64.990662 134.364029 C 65.577553 134.052811 66.208923 133.899078 66.884743 133.899078 C 67.599945 133.899078 68.222404 134.051529 68.764847 134.364029 C 69.306015 134.672729 69.758255 135.090668 70.126656 135.617859 C 70.493782 136.143784 70.770714 136.738312 70.958725 137.396332 C 71.142929 138.056915 71.238205 138.737823 71.238205 139.436508 C 71.238205 140.219025 71.108627 140.960922 70.853287 141.659607 C 70.59922 142.363373 70.244797 142.983292 69.79509 143.527008 C 69.344124 144.066895 68.825821 144.493729 68.244011 144.806229 C 67.662193 145.114929 67.042267 145.271179 66.386772 145.271179 Z M 66.634483 144.235855 C 67.589783 144.235855 68.37104 143.842041 68.983345 143.058258 C 69.59565 142.27063 69.900528 141.117172 69.900528 139.59404 C 69.900528 138.996964 69.82177 138.417694 69.668053 137.858749 C 69.51181 137.297241 69.289497 136.798004 69.001129 136.350845 C 68.71022 135.907501 68.365959 135.550537 67.965805 135.286301 C 67.565643 135.024597 67.121025 134.891235 66.633217 134.891235 C 65.611855 134.891235 64.812813 135.306641 64.233543 136.134903 C 63.656803 136.964417 63.368435 138.084869 63.368435 139.489853 C 63.368435 140.346069 63.518337 141.133682 63.815598 141.855225 C 64.116669 142.575531 64.513016 143.154785 65.007179 143.587982 C 65.500069 144.022446 66.041237 144.237122 66.633217 144.237122 Z M 82.987587 134.529175 C 82.605217 134.609222 82.299057 134.696869 82.076752 134.794678 C 81.853172 134.89505 81.741386 134.982697 81.741386 135.062714 L 81.741386 140.499786 C 81.741386 142.006409 81.385681 143.17511 80.670486 144.01355 C 79.959091 144.851974 78.982201 145.272461 77.742348 145.272461 C 76.956001 145.272461 76.25605 145.125092 75.645012 144.83165 C 75.033974 144.540741 74.553795 144.0923 74.206993 143.48764 C 73.857651 142.885483 73.683609 142.120743 73.683609 141.188309 L 73.683609 135.062714 C 73.683609 134.99411 73.580704 134.906464 73.368561 134.803558 C 73.160225 134.70195 72.847725 134.610489 72.436134 134.530457 L 72.436134 134.159515 L 76.311943 134.159515 L 76.311943 134.530457 C 75.927032 134.610489 75.622147 134.698135 75.397301 134.795959 C 75.173721 134.896317 75.061928 134.983963 75.061928 135.063995 L 75.061928 140.760193 C 75.061928 141.862854 75.318542 142.724152 75.831757 143.347885 C 76.346245 143.9729 77.093201 144.282852 78.076447 144.282852 C 78.622688 144.282852 79.085098 144.115173 79.464928 143.783615 C 79.843498 143.452057 80.131859 143.02269 80.326225 142.496765 C 80.520584 141.969574 80.619675 141.422058 80.619675 140.855469 L 80.619675 135.065262 C 80.619675 134.996658 80.512962 134.909012 80.304626 134.806107 C 80.09375 134.704498 79.785057 134.613007 79.369652 134.53299 L 79.369652 134.162048 L 82.98632 134.162048 L 82.98632 134.53299 Z M 86.185036 145.013306 L 86.185036 144.643646 C 86.713493 144.534393 87.081894 144.422607 87.287689 144.310822 C 87.496033 144.19902 87.59893 144.102478 87.59893 144.022446 L 87.59893 134.93187 L 85.022675 134.93187 C 84.907074 134.93187 84.80545 134.963623 84.710175 135.025879 C 84.619972 135.090668 84.522156 135.227875 84.41291 135.446365 C 84.307472 135.661041 84.169006 135.992615 83.994972 136.439758 L 83.625298 136.275909 C 83.654518 135.937988 83.695168 135.574677 83.744705 135.18721 C 83.799332 134.799774 83.850151 134.45549 83.909859 134.158234 L 86.347633 134.158234 L 88.254417 134.158234 L 89.311348 134.158234 L 90.20948 134.158234 L 92.611694 134.158234 L 92.870842 134.37294 C 92.865768 134.663834 92.839088 134.985229 92.788269 135.332031 C 92.737457 135.681381 92.679024 136.034531 92.611694 136.396576 L 92.224236 136.396576 C 92.11499 135.864319 92.014633 135.485748 91.926979 135.264709 C 91.838058 135.044937 91.670372 134.93187 91.42392 134.93187 L 89.553986 134.93187 L 88.978516 134.93187 L 88.978516 144.022446 C 88.978516 144.096115 89.080139 144.193939 89.287209 144.307007 C 89.493004 144.422607 89.86013 144.534393 90.391136 144.643646 L 90.391136 145.013306 L 86.185036 145.013306 Z M 97.577454 145.013306 L 97.577454 144.643646 C 97.999214 144.589005 98.315521 144.510254 98.518784 144.398453 C 98.724579 144.284119 98.824936 144.193939 98.824936 144.116455 L 98.824936 135.102112 C 98.699173 134.983963 98.569595 134.888687 98.436211 134.817551 C 98.169441 134.671463 97.881073 134.573639 97.578728 134.529175 L 97.578728 134.158234 L 99.404205 134.158234 C 99.569351 134.158234 99.696388 134.195084 99.781494 134.271301 C 99.869148 134.343704 100.019058 134.529175 100.231201 134.828979 L 105.891846 142.64032 L 105.891846 135.062714 C 105.891846 134.99411 105.797836 134.903931 105.609825 134.790863 C 105.423088 134.680344 105.100426 134.591431 104.641823 134.529175 L 104.641823 134.158234 L 108.172104 134.158234 L 108.172104 134.529175 C 107.759247 134.583801 107.446739 134.667648 107.238403 134.779434 C 107.028801 134.888687 106.923355 134.982697 106.923355 135.062714 L 106.923355 143.979248 L 106.923355 144.73764 L 106.923355 145.272461 C 106.645157 145.236877 106.419029 145.178452 106.253883 145.095871 C 106.086197 145.013306 105.966789 144.925659 105.899467 144.830383 L 99.858994 136.455017 L 99.858994 144.115173 C 99.858994 144.186325 99.956802 144.273972 100.148628 144.384491 C 100.346802 144.493729 100.664383 144.577576 101.109001 144.643646 L 101.109001 145.013306 L 97.577454 145.013306 Z M 111.877693 141.178146 L 110.922394 144.058014 C 110.865227 144.234589 110.941452 144.364151 111.154869 144.446732 C 111.365738 144.525497 111.710007 144.589005 112.181305 144.643646 L 112.181305 145.013306 L 108.596397 145.013306 L 108.596397 144.643646 C 108.987663 144.575043 109.296356 144.501358 109.526283 144.427673 C 109.758759 144.350189 109.899765 144.228241 109.958206 144.056747 L 113.163277 134.355148 C 113.296661 134.210327 113.456726 134.082016 113.6549 133.963867 C 113.847992 133.847015 114.022026 133.745377 114.171928 133.666626 L 117.788582 144.056747 C 117.847023 144.215546 117.956268 144.341309 118.121422 144.435303 C 118.282745 144.526764 118.550789 144.595367 118.917923 144.642365 L 118.917923 145.012039 L 115.279663 145.012039 L 115.279663 144.642365 C 115.723015 144.611877 116.031708 144.555984 116.205742 144.468338 C 116.382324 144.383209 116.438217 144.243484 116.375969 144.055481 L 115.392723 141.175598 L 111.875145 141.175598 Z M 115.127228 140.405792 L 113.609169 135.977356 L 112.135567 140.405792 L 115.127228 140.405792 Z M 129.402054 135.837631 L 129.089539 135.785553 C 128.775772 135.405701 128.432785 135.144028 128.058029 134.992844 C 127.683273 134.842957 127.333931 134.770538 127.004913 134.770538 C 126.58062 134.770538 126.233818 134.849304 125.965775 135.011902 C 125.699005 135.1707 125.504646 135.368881 125.380142 135.601349 C 125.256927 135.83255 125.195953 136.059937 125.195953 136.277176 C 125.195953 136.637939 125.324249 136.950439 125.585938 137.209595 C 125.847633 137.46875 126.182999 137.703766 126.595863 137.915894 C 127.006187 138.128052 127.441917 138.341476 127.901779 138.563782 C 128.360367 138.781006 128.796097 139.029999 129.207687 139.313278 C 129.616745 139.591492 129.954651 139.930679 130.213806 140.324478 C 130.474213 140.718292 130.606339 141.197205 130.606339 141.767578 C 130.606339 142.149963 130.526306 142.54631 130.373871 142.955353 C 130.217621 143.361847 129.980057 143.740433 129.662476 144.089783 C 129.344879 144.444183 128.944717 144.726212 128.464539 144.945984 C 127.985619 145.163208 127.420311 145.272461 126.771172 145.272461 C 126.391342 145.272461 125.956886 145.194962 125.462723 145.042526 C 124.968559 144.890076 124.517586 144.686829 124.109802 144.42894 C 124.069153 144.404816 124.03994 144.307007 124.018341 144.140579 C 123.998016 143.970352 123.989128 143.767105 123.989128 143.529541 C 123.989128 143.290726 123.998016 143.049362 124.018341 142.811798 C 124.03994 142.572983 124.069153 142.378616 124.109802 142.222366 L 124.462959 142.263031 C 124.727196 142.942657 125.113373 143.439362 125.618973 143.760742 C 126.122025 144.078339 126.669548 144.237122 127.255173 144.237122 C 127.599434 144.237122 127.939888 144.146942 128.275253 143.96402 C 128.613159 143.7798 128.888824 143.534637 129.11113 143.225937 C 129.334717 142.921051 129.442703 142.585678 129.442703 142.223633 C 129.442703 141.759949 129.314392 141.371246 129.055237 141.065079 C 128.799911 140.756409 128.464539 140.494705 128.058029 140.277481 C 127.648979 140.056442 127.217064 139.850647 126.761009 139.651184 C 126.302414 139.4543 125.870506 139.231995 125.463989 138.983002 C 125.054939 138.736557 124.723381 138.430389 124.464233 138.065811 C 124.205078 137.699951 124.075508 137.238815 124.075508 136.682404 C 124.075508 136.413086 124.137756 136.118378 124.262245 135.800797 C 124.384201 135.479401 124.582375 135.177063 124.852959 134.886139 C 125.123543 134.595245 125.475418 134.358948 125.912422 134.174759 C 126.350685 133.991837 126.881691 133.90036 127.514328 133.90036 C 128.037704 133.90036 128.540756 133.974045 129.026031 134.123932 C 129.511292 134.275116 129.860641 134.46312 130.072784 134.691772 C 130.132492 134.73877 130.119797 134.83786 130.044846 134.989044 C 129.967346 135.141479 129.864456 135.300278 129.738693 135.462891 C 129.611649 135.62677 129.501129 135.753799 129.40332 135.837631 Z M 127.751877 133.032715 L 126.830879 133.032715 L 124.55442 130.38913 C 124.637001 130.274811 124.699242 130.188416 124.739899 130.138885 C 124.784355 130.085541 124.851685 130.03598 124.941887 129.982635 L 127.31234 131.800491 L 129.638336 129.982635 C 129.736145 130.03598 129.806015 130.085541 129.845398 130.138885 C 129.886047 130.188416 129.940674 130.273544 130.009262 130.38913 L 127.750603 133.032715 Z M 142.364624 134.530457 C 141.982239 134.610489 141.676086 134.698135 141.452499 134.795959 C 141.228928 134.896317 141.117126 134.983963 141.117126 135.063995 L 141.117126 140.501068 C 141.117126 142.00769 140.760178 143.176392 140.046249 144.014816 C 139.334839 144.853241 138.357956 145.273727 137.116837 145.273727 C 136.331757 145.273727 135.630539 145.126358 135.020767 144.832916 C 134.407196 144.542007 133.92955 144.093567 133.582748 143.488892 C 133.232132 142.886749 133.059372 142.122009 133.059372 141.189575 L 133.059372 135.063995 C 133.059372 134.995392 132.956467 134.907745 132.744308 134.80484 C 132.53598 134.703217 132.224747 134.61174 131.813156 134.531723 L 131.813156 134.160782 L 135.688965 134.160782 L 135.688965 134.531723 C 135.30278 134.61174 134.997894 134.699402 134.774323 134.797226 C 134.550751 134.897568 134.43895 134.985229 134.43895 135.065262 L 134.43895 140.761475 C 134.43895 141.864136 134.69429 142.725433 135.208771 143.349152 C 135.723267 143.974167 136.47023 144.284119 137.452209 144.284119 C 137.99971 144.284119 138.460846 144.116455 138.839417 143.784882 C 139.219254 143.453339 139.507599 143.023956 139.700699 142.498032 C 139.895065 141.97084 139.995422 141.423325 139.995422 140.85675 L 139.995422 135.066528 C 139.995422 134.997925 139.889984 134.910278 139.680389 134.807373 C 139.468231 134.705765 139.159531 134.614288 138.745407 134.534256 L 138.745407 134.16333 L 142.363342 134.16333 L 142.363342 134.534256 Z M 143.434235 145.014572 L 143.434235 144.644913 C 143.826767 144.56488 144.131653 144.473404 144.352692 144.37561 C 144.57373 144.279053 144.68425 144.193939 144.68425 144.116455 L 144.769363 134.875977 C 144.599136 134.776886 144.426376 134.70195 144.249802 134.649857 C 143.976669 134.567291 143.732758 134.529175 143.521896 134.529175 L 143.521896 134.158234 L 145.986343 134.158234 C 146.100677 134.158234 146.185806 134.20015 146.244232 134.287811 C 146.300125 134.37294 146.400482 134.569824 146.536407 134.881073 L 149.968872 142.647919 L 153.260315 134.881073 C 153.406418 134.534256 153.509323 134.329727 153.565201 134.262405 C 153.619843 134.192535 153.701141 134.158234 153.809113 134.158234 L 156.27359 134.158234 L 156.27359 134.529175 C 156.014435 134.529175 155.71463 134.593964 155.374176 134.726074 C 155.285248 134.760376 155.200134 134.797226 155.115036 134.835327 L 155.197586 144.115173 C 155.197586 144.186325 155.300491 144.271423 155.51265 144.371796 C 155.722244 144.472153 156.033493 144.563614 156.44635 144.643646 L 156.44635 145.013306 L 152.527344 145.013306 L 152.527344 144.643646 C 152.916061 144.563614 153.236191 144.472153 153.48645 144.374329 C 153.736694 144.277786 153.863739 144.192657 153.863739 144.115173 L 153.784973 136.053589 L 150.010788 145.012039 L 149.97522 145.012039 L 149.590317 145.012039 L 145.756424 136.115845 L 145.67894 144.115173 C 145.67894 144.186325 145.78183 144.271423 145.990158 144.371796 C 146.202316 144.472153 146.513535 144.563614 146.925125 144.643646 L 146.925125 145.013306 L 143.435501 145.013306 Z M 160.425049 141.179413 L 159.468475 144.059296 C 159.413864 144.235855 159.490082 144.365433 159.700958 144.447998 C 159.914368 144.526764 160.25737 144.590286 160.727386 144.644913 L 160.727386 145.014572 L 157.142487 145.014572 L 157.142487 144.644913 C 157.533752 144.576309 157.842453 144.50264 158.072372 144.42894 C 158.304855 144.351456 158.444595 144.229507 158.504288 144.058014 L 161.709366 134.356415 C 161.841492 134.211594 162.002823 134.083298 162.199707 133.965149 C 162.395355 133.848282 162.568115 133.746643 162.716751 133.667892 L 166.334686 144.058014 C 166.393112 144.216812 166.502365 144.342575 166.667511 144.436569 C 166.828842 144.52803 167.096878 144.596634 167.46402 144.643646 L 167.46402 145.013306 L 163.82576 145.013306 L 163.82576 144.643646 C 164.27037 144.613159 164.579071 144.557251 164.751846 144.469604 C 164.928421 144.384491 164.98558 144.244751 164.92334 144.056747 L 163.940094 141.17688 L 160.423782 141.17688 Z M 163.674591 140.407059 L 162.156525 135.978638 L 160.684204 140.407059 L 163.674591 140.407059 Z M 177.381561 134.530457 C 176.996658 134.604126 176.694321 134.677795 176.469467 134.748947 C 176.24588 134.82135 176.104874 134.936951 176.045181 135.098297 L 172.744812 144.506439 C 172.690201 144.674133 172.5746 144.810043 172.404373 144.915497 C 172.236679 145.022202 172.060104 145.1035 171.882263 145.158112 C 171.699326 145.212753 171.558319 145.252121 171.455429 145.274994 L 167.666 135.099564 C 167.556747 134.812469 167.147705 134.623184 166.441391 134.53299 L 166.441391 134.162048 L 170.188889 134.162048 L 170.188889 134.53299 C 169.735382 134.564743 169.424149 134.624451 169.252655 134.708282 C 169.086243 134.790863 169.026535 134.915359 169.086243 135.083054 L 172.124893 143.267853 L 175.022552 135.099564 C 175.083527 134.933136 175.01239 134.812469 174.810394 134.732437 C 174.604599 134.656219 174.270493 134.587616 173.79921 134.53299 L 173.79921 134.162048 L 177.380295 134.162048 L 177.380295 134.53299 Z M 185.953842 142.91217 C 185.913177 143.406326 185.8573 143.838226 185.779785 144.209183 C 185.706116 144.580124 185.643875 144.84816 185.600677 145.014572 L 178.166641 145.014572 L 178.166641 144.644913 C 178.555359 144.56488 178.861511 144.473404 179.085098 144.37561 C 179.304855 144.279053 179.414108 144.193939 179.414108 144.116455 L 179.414108 135.062714 C 179.414108 134.99411 179.309952 134.906464 179.099075 134.803558 C 178.890732 134.70195 178.579498 134.610489 178.167908 134.530457 L 178.167908 134.159515 L 180.596802 134.159515 L 182.043732 134.159515 L 185.110336 134.159515 L 185.393616 134.374191 C 185.378372 134.6651 185.331375 135.009369 185.257675 135.398102 C 185.181458 135.789352 185.110336 136.094238 185.040451 136.312729 L 184.655533 136.312729 C 184.632675 135.783005 184.561539 135.420959 184.443405 135.227875 C 184.326523 135.03096 184.16011 134.934418 183.946701 134.934418 L 180.793701 134.934418 L 180.793701 138.683197 L 184.284607 138.683197 L 184.508194 138.924561 C 184.416718 139.084625 184.293503 139.2612 184.137253 139.455551 C 183.981003 139.646103 183.841263 139.789658 183.712952 139.881134 C 183.537643 139.71344 183.328033 139.592758 183.089218 139.519073 C 182.851654 139.442856 182.489624 139.408554 182.006882 139.408554 L 180.79245 139.408554 L 180.79245 143.689606 C 180.79245 143.797592 180.833084 143.894135 180.918213 143.977982 C 181.000763 144.060547 181.165909 144.125336 181.414902 144.172333 C 181.666443 144.215546 182.044998 144.238403 182.550598 144.238403 L 183.66214 144.238403 C 184.017822 144.238403 184.307465 144.210449 184.525955 144.152023 C 184.747009 144.089783 184.937561 143.953842 185.100159 143.745499 C 185.26149 143.53717 185.421555 143.208145 185.582901 142.758438 L 185.952576 142.914703 Z M 182.522644 133.032715 L 181.602921 133.032715 L 179.326462 130.38913 C 179.409042 130.274811 179.470016 130.188416 179.510651 130.138885 C 179.555115 130.085541 179.622452 130.03598 179.712646 129.982635 L 182.083099 131.800491 L 184.41037 129.982635 C 184.506912 130.03598 184.578049 130.085541 184.616165 130.138885 C 184.656815 130.188416 184.712708 130.273544 184.780029 130.38913 L 182.521378 133.032715 Z M 207.644913 134.159515 C 202.835388 146.668549 195.453445 157.902191 186.145645 167.209991 C 168.97699 184.379913 145.254639 194.999969 119.053848 194.999969 C 92.853058 194.999969 69.131973 184.379913 51.962044 167.209991 C 42.654247 157.900925 35.272297 146.667282 30.461514 134.159515 L 34.186153 134.159515 C 38.825443 145.713257 45.752613 156.100845 54.411259 164.760773 C 70.953644 181.303146 93.808357 191.534485 119.052574 191.534485 C 144.29808 191.534485 167.152786 181.303146 183.695175 164.760773 C 192.353806 156.100845 199.280975 145.713257 203.920273 134.159515 L 207.643646 134.159515 Z M 156.563217 12.939728 C 167.683777 17.732727 177.706772 24.586212 186.144394 33.026367 C 195.452164 42.334152 202.834122 53.565247 207.643646 66.075562 L 203.918991 66.075562 C 199.280975 54.52182 192.352554 44.134232 183.693893 35.475586 C 176.3564 28.139359 167.779053 22.044266 158.301041 17.533279 C 157.811966 15.959335 157.228867 14.426025 156.561935 12.939728 Z M 79.802841 17.533279 C 70.324829 22.045532 61.747482 28.139359 54.409988 35.475586 C 45.751343 44.132965 38.822899 54.52182 34.184887 66.075562 L 30.460243 66.075562 C 35.26976 53.565247 42.652981 42.334152 51.96077 33.026367 C 60.399647 24.586212 70.422638 17.732727 81.541939 12.939728 C 80.875015 14.426025 80.291924 15.959335 79.802841 17.533279 Z"/>
    </g>
</svg>
