<?xml version="1.0" encoding="UTF-8"?>
<!DOCTYPE svg PUBLIC "-//W3C//DTD SVG 1.1//EN" "http://www.w3.org/Graphics/SVG/1.1/DTD/svg11.dtd">
<!-- Creator: CorelDRAW -->
<svg xmlns="http://www.w3.org/2000/svg" xml:space="preserve" width="120px" height="120px" version="1.1" style="shape-rendering:geometricPrecision; text-rendering:geometricPrecision; image-rendering:optimizeQuality; fill-rule:evenodd; clip-rule:evenodd"
viewBox="0 0 11.719 11.719"
 xmlns:xlink="http://www.w3.org/1999/xlink"
 xmlns:xodm="http://www.corel.com/coreldraw/odm/2003">
 <defs>
  <style type="text/css">
   <![CDATA[
    .fil2 {fill:#C97054}
    .fil1 {fill:#CCBBA1}
    .fil0 {fill:#EDE3C8}
   ]]>
  </style>
 </defs>
 <g id="Layer_x0020_1">
  <metadata id="CorelCorpID_0Corel-Layer"/>
  <g id="_1485816307120">
   <rect class="fil0" width="11.719" height="11.719"/>
   <ellipse class="fil1" transform="matrix(1.0585 -0.391504 0.481452 0.860743 2.32514 10.5459)" rx="0.688" ry="1.13"/>
   <path class="fil1" d="M6.831 5.658l1.02 -0.647c0.433,-0.477 1.428,-1.087 2.09,-1.071 0.487,0.012 0.812,0.162 0.983,0.48 0.247,0.46 0.21,1.035 -0.201,1.514 -0.686,0.799 -0.23,0.251 -0.938,0.901 -0.503,0.462 -0.474,0.937 -0.5,1.483 -0.03,0.65 -0.254,1.111 -0.79,1.288 -0.612,0.203 -0.524,0.143 -1.458,0.178 -0.309,-0.006 -0.543,-0.116 -0.819,-0.208 -2.824,-0.547 -1.517,-2.964 -0.817,-3.401 0.378,-0.236 1.061,-0.497 1.43,-0.517z"/>
   <g>
    <path class="fil2" d="M9.576 9.158c0.091,-0.021 0.198,-0.037 0.292,-0.031 -0.007,0.055 -0.028,0.055 -0.063,0.086 -0.2,0.174 -0.347,0.481 -0.497,0.623 -0.149,0.14 -0.147,0.17 -0.346,0.289 -0.082,0.049 -0.323,0.214 -0.395,0.23 0.029,-0.053 0.314,-0.333 0.437,-0.5 0.168,-0.227 0.245,-0.379 0.382,-0.576 0.061,-0.088 0.063,-0.092 0.19,-0.121zm1.485 0.233c-0.044,-0.323 -0.066,-0.541 -0.299,-0.822 -0.031,-0.038 -0.106,-0.121 -0.117,-0.169 -0.011,-0.051 0.005,-0.112 -0.029,-0.245 -0.017,-0.067 -0.046,-0.15 -0.071,-0.215 -0.093,-0.238 -0.177,-0.269 -0.196,-0.364 -0.037,-0.178 -0.032,-0.343 0.005,-0.504 0.089,0 0.196,0.031 0.274,0.05 0.281,0.066 0.715,0.094 1.091,0.08l0 -0.775c-0.007,0.002 -0.015,0.005 -0.022,0.008 -0.054,0.024 -0.098,0.044 -0.165,0.071 -0.041,0.017 -0.142,0.049 -0.164,0.08 0.134,0.084 0.237,-0.083 0.293,0.037 -0.042,0.042 -0.036,0.026 -0.097,0.029 -0.21,0.012 -0.069,0.024 -0.233,-0.021 -0.04,-0.011 -0.405,0.098 -0.503,-0.095 0.069,-0.165 0.662,-0.191 0.803,-0.301 0.003,-0.048 -0.026,-0.071 -0.069,-0.097 0.012,-0.034 0.008,-0.008 0.039,-0.05l-0.079 -0.003c0.006,-0.019 0.013,-0.038 0.018,-0.06 -0.047,-0.002 -0.102,-0.017 -0.122,-0.058l0.171 -0.002c-0.153,-0.102 -0.707,-0.143 -0.921,-0.111 -0.137,0.02 -0.171,0.051 -0.314,0.026 -0.057,0.043 -0.014,0.039 -0.109,0.061 -0.054,0.013 -0.093,0.026 -0.126,0.047 0.039,0.04 0.134,0.047 0.157,0.053 0.033,0.008 0.008,-0.004 0.027,0.01 -0.036,0.067 -0.135,0.014 -0.177,-0.008 -0.088,-0.046 -0.068,-0.049 -0.175,-0.033 -0.063,0.01 -0.134,0.019 -0.203,0.033 -0.034,0.006 -0.071,0.013 -0.105,0.017 -0.11,0.014 -0.093,0.002 -0.11,-0.012l0.381 -0.074c0.07,-0.026 0.024,0.006 0.049,-0.041 -0.091,-0.002 -0.352,0.054 -0.415,0.089 0.022,-0.113 0.292,-0.095 0.35,-0.158 -0.044,-0.033 -0.13,-0.001 -0.179,0.011 -0.066,0.016 -0.101,0.021 -0.155,0.046 -0.002,-0.153 0.295,-0.063 0.34,-0.161 0.002,0.003 0.004,0.004 0.005,0.01l0.02 0.054c0.026,-0.051 0.006,0.001 0.023,-0.027 0.013,-0.021 0.015,0.006 0.011,-0.029 -0.146,-0.071 -0.712,0.146 -0.866,0.208 -0.275,0.11 -0.325,0.064 -0.457,0.105 -0.04,0.013 -0.423,0.096 -0.45,0.082 0.067,-0.031 0.205,-0.05 0.229,-0.112 -0.056,-0.019 -0.127,0.004 -0.172,0.035 -0.135,0.094 -0.071,0.025 -0.109,-0.033 -0.066,0.007 -0.048,0.023 -0.136,0.018l-0.024 -0.049c-0.105,0.027 -0.048,0.003 -0.092,0.009 -0.003,0 -0.026,0.008 -0.037,0.009l0.014 -0.081c-0.016,0.001 -0.122,0.074 -0.106,-0.098l-0.075 -0.011 0.028 -0.06c-0.004,-0.003 -0.01,-0.007 -0.011,-0.004 -0.01,0.019 -0.07,-0.035 -0.08,-0.051 -0.033,-0.056 -0.026,-0.051 -0.109,-0.064 0.003,-0.159 0.243,-0.631 0.417,-0.667 0.048,-0.011 0.235,0.012 0.287,0.039 0.027,0.014 0.011,0.002 0.026,0.024 -0.132,0.046 -0.244,-0.007 -0.349,0.101 0.078,-0.048 0.217,-0.054 0.321,-0.07l0.013 0.04c0.097,-0.114 0.297,0.054 0.618,-0.115l-0.035 -0.043c0.049,-0.044 0.053,-0.088 0.122,-0.129 0.055,-0.033 0.143,-0.045 0.18,-0.083 -0.249,0.005 -0.473,0.241 -0.681,0.292 -0.021,0.005 -0.104,-0.001 -0.142,-0.006 -0.112,-0.012 -0.078,-0.128 -0.334,-0.164 -0.102,-0.014 -0.209,0.002 -0.297,-0.039 -0.22,-0.101 -0.25,-0.133 -0.527,-0.133l-0.026 0.038c-0.015,0.046 -0.115,0.197 -0.156,0.28l-0.282 0.588c-0.069,0.186 -0.296,0.965 -0.477,1.043 -0.032,0.013 -0.052,0.014 -0.081,0.029l-0.215 0.123c-0.062,0.033 -0.103,0.03 -0.123,0.108 0.084,-0.012 0.128,-0.112 0.248,-0.123 0.081,-0.008 0.051,-0.048 0.138,-0.078 -0.104,0.096 -0.078,0.212 -0.445,0.483 -0.045,0.032 -0.138,0.094 -0.211,0.1 -0.008,-0.226 0.108,-0.241 0.201,-0.484 0.17,-0.437 0.186,-0.224 0.32,-0.376 -0.01,-0.017 0.005,-0.014 -0.038,-0.035 -0.022,-0.01 -0.034,-0.007 -0.056,-0.02 -0.049,-0.027 -0.017,-0.015 -0.031,-0.04l-0.006 -0.01c-0.001,-0.001 -0.003,-0.004 -0.003,-0.005l-0.007 -0.007c0.024,-0.026 0.046,-0.04 0.056,-0.084 -0.094,0.029 -0.079,0.05 -0.21,0.036 0.067,-0.034 0.16,-0.05 0.193,-0.109 -0.015,-0.01 0.022,-0.018 -0.037,-0.003 -0.014,0.004 -0.035,0.016 -0.052,0.023 -0.043,0.016 -0.074,0.014 -0.119,0.031 0.001,-0.073 0.038,-0.063 0.097,-0.102 0.13,-0.085 0.108,-0.022 0.139,-0.073 -0.014,-0.027 0.002,-0.016 -0.031,-0.019 -0.146,-0.015 -0.272,0.136 -0.355,0.151l-0.02 -0.036c-0.008,-0.012 -0.049,0.013 0.009,-0.041 0.041,-0.038 0.082,-0.033 0.082,-0.101 -0.118,0.001 -0.099,0.153 -0.219,0.189 0.007,-0.052 0.023,-0.051 0.044,-0.086 0.019,-0.032 0.031,-0.068 0.044,-0.106 -0.115,0.029 -0.167,0.147 -0.257,0.155 -0.001,-0.063 0.151,-0.15 0.176,-0.303 -0.027,0.028 -0.063,0.058 -0.121,0.059 0.002,-0.017 0.035,-0.101 0.043,-0.117 0.029,-0.056 0.047,-0.025 0.071,-0.099 -0.114,0.036 -0.198,0.124 -0.264,0.133 0.015,-0.089 0.104,-0.069 0.149,-0.214 -0.122,-0.015 -0.155,0.08 -0.247,0.049 0.008,-0.065 0.134,-0.15 0.186,-0.187 0.168,-0.121 0.322,-0.045 0.544,-0.229 0.042,-0.035 0.165,-0.152 0.181,-0.209 -0.07,0.014 -0.075,0.056 -0.147,0.06 0.026,-0.115 0.162,-0.197 0.173,-0.395 -0.061,0.028 -0.237,0.151 -0.296,0.125 0.047,-0.095 0.075,-0.031 0.086,-0.175 0.004,-0.056 -0.004,0.013 0.012,-0.043 0.011,-0.037 0.009,-0.074 0.008,-0.117 0.206,-0.003 0.24,-0.127 0.256,-0.33 0.055,0.032 0.137,0.126 0.23,0.082 0.072,-0.034 0.125,-0.124 0.211,-0.127 0.02,0.052 -0.006,0.034 0.031,0.069 0.03,0.028 0.028,0.009 0.054,0.044 -0.043,0.049 -0.053,0.006 -0.072,0.099l0.063 0.013c-0.01,0.042 -0.019,0.046 -0.056,0.059l0.037 0.009c0,0 0.028,-0.003 0.037,-0.004 -0.008,0.037 -0.004,0.02 -0.026,0.047 0.047,-0.003 0.034,-0.01 0.068,0.013 -0.02,0.046 -0.04,0.039 -0.065,0.08l0.099 -0.017c-0.025,0.045 -0.014,0.012 -0.036,0.035 -0.035,0.037 -0.016,0.025 -0.005,0.035 0.013,0.012 0.001,-0.001 0.031,-0.009 0.077,-0.021 0.032,-0.01 0.051,0.005 -0.049,0.04 -0.049,0.004 -0.065,0.077 0.062,-0.007 0.038,-0.015 0.091,-0.041 0.028,0.027 0.023,0.024 0.058,0.04 -0.059,0.034 -0.021,0.052 -0.021,0.053l0.05 -0.047c0.048,0.021 0.14,0.072 0.195,0.082 0.059,0.011 0.046,0.013 0.071,-0.019 -0.068,-0.037 -0.189,-0.16 -0.192,-0.261 0.195,-0.103 0.212,-0.167 0.212,-0.436 0.113,-0.06 0.087,-0.031 0.155,-0.144 0.136,-0.225 0.072,-0.576 0.096,-0.801 0.009,-0.089 0.036,-0.15 0.036,-0.263 -0.001,-0.138 -0.012,-0.165 0.037,-0.262 0.06,-0.119 0.1,-0.353 0.048,-0.509 -0.055,-0.168 0.024,-0.076 0.027,-0.225 0.003,-0.138 0.003,-0.158 -0.055,-0.245 -0.062,-0.092 -0.173,-0.143 -0.246,-0.202 -0.034,-0.026 -0.04,-0.042 -0.08,-0.069 -0.243,-0.167 -0.571,-0.109 -0.585,-0.137 -0.019,-0.04 0.068,-0.061 -0.023,-0.227 -0.025,-0.046 -0.042,-0.061 -0.092,-0.079 -0.003,-0.003 -0.008,-0.007 -0.009,-0.009 -0.025,-0.022 -0.009,-0.016 -0.075,-0.016 -0.086,-0.027 -0.291,-0.212 -0.746,-0.212l-0.017 -0.002c-0.002,0 -0.014,0 -0.018,0 -0.029,0.004 -0.031,0.007 -0.053,0.015l-0.372 -0.057c-0.305,-0.072 -0.401,-0.121 -0.723,0.014 -0.251,0.105 -0.093,0.005 -0.335,0.088 -0.311,0.106 -0.298,0.074 -0.553,0.319l-0.113 0.099c-0.085,0.079 -0.02,0.072 -0.096,0.127 -0.068,0.049 -0.066,0.042 -0.115,0.11 -0.031,0.044 -0.06,0.095 -0.065,0.159 0.041,0.008 0.04,-0.004 0.036,0.046 -0.003,0.039 -0.061,0.114 -0.008,0.224 0.031,0.064 0.097,0.19 0.171,0.201 0.111,-0.034 0.114,-0.11 0.12,-0.166 -0.226,0.006 -0.112,0.028 -0.196,0.03 0.014,-0.056 0.117,-0.062 0.163,-0.066l0.079 0.079c0.002,0.002 0.005,0.005 0.008,0.006 0.089,-0.052 0.176,-0.187 0.211,-0.268 0.103,0.004 0.084,0.01 0.183,-0.028 0.268,-0.102 0.194,-0.082 0.501,-0.172 0.108,-0.031 0.233,-0.064 0.344,-0.092 0.122,-0.03 0.213,-0.079 0.332,-0.116 -0.081,0.065 -0.191,0.062 -0.265,0.16l0.18 0.082c0.032,0.012 0.009,0.009 0.047,-0.004 0.06,-0.021 0.227,-0.037 0.306,-0.05l0.146 -0.024c0.076,-0.007 0.233,-0.025 0.301,-0.046 0.087,-0.027 0.19,-0.087 0.236,-0.008 -0.053,0.072 -0.269,0.056 -0.384,0.108 -0.143,0.066 -0.015,0.015 -0.245,0.029 -0.014,0.021 -0.002,-0.001 -0.008,0.024l-0.004 0.027c-0.052,-0.062 -0.113,-0.014 -0.179,-0.018l0.036 0.048c0.041,0.054 0.185,0.144 0.251,0.159 0.059,0.014 0.087,0.011 0.117,0.047 -0.16,0.016 -0.339,-0.092 -0.462,-0.109 0.049,0.036 0.052,0.012 0.104,0.068 0.036,0.039 0.064,0.04 0.124,0.05 0.092,0.015 0.063,0.014 0.133,0.041 0.069,0.027 0.17,0.005 0.229,0.045 0.014,0.009 0.018,0.016 0.02,0.017 0.052,0.034 0.377,0.076 0.469,0.112 -0.05,0.018 -0.219,-0.032 -0.29,-0.042 -0.131,-0.019 -0.272,0.018 -0.469,-0.042 -0.065,-0.02 -0.079,-0.03 -0.125,-0.061 -0.045,-0.031 -0.185,-0.136 -0.252,-0.092 0.037,0.025 0.104,0.042 0.144,0.063 0.065,0.033 0.092,0.044 0.121,0.082 -0.053,0.028 -0.129,-0.047 -0.212,-0.063 0.111,0.198 0.338,0.056 0.51,0.176 -0.149,0.005 -0.155,-0.032 -0.206,-0.022 -0.034,0.007 -0.01,-0.003 -0.032,0.013l0.037 0.021c0.169,0.084 0.476,0.037 0.672,0.066 -0.029,0.036 -0.247,0.044 -0.317,0.046 -0.195,0.007 -0.409,-0.093 -0.576,-0.18 -0.192,-0.098 -0.082,-0.002 -0.178,-0.081 -0.022,-0.018 -0.035,-0.027 -0.066,-0.031 0.009,0.066 0.037,0.047 0.11,0.11 0.065,0.056 0.087,0.036 0.162,0.075 0.063,0.034 0.087,0.045 0.168,0.07l0.179 0.055c-0.059,0.03 -0.24,-0.035 -0.289,-0.059l-0.222 -0.103c-0.037,-0.001 -0.021,-0.002 -0.04,0.011 0.046,0.058 0.098,0.058 0.168,0.086 0.12,0.049 0.073,0.041 0.115,0.072 0.035,0.026 0.216,0.066 0.245,0.068 0.065,0.003 0.143,-0.033 0.167,0.048 -0.08,0.046 -0.083,0.019 -0.17,-0.01l-0.28 -0.107c-0.035,-0.017 -0.064,-0.018 -0.104,-0.031 -0.048,-0.017 -0.137,-0.067 -0.186,-0.074 -0.011,0.012 -0.013,-0.004 -0.007,0.018 0.179,0.097 0.041,0.043 0.288,0.121 0.09,0.028 0.07,0.042 0.073,0.07 -0.069,-0.011 -0.403,-0.126 -0.411,-0.124 0.007,0.034 -0.007,0.018 0.101,0.065 0.159,0.07 0.277,0.083 0.442,0.071 0.004,0.011 0.006,0.018 0.007,0.023 0.098,0.007 0.223,0.032 0.27,0.101 0.043,0.063 0.116,0.213 0.02,0.25 -0.015,-0.226 -0.041,-0.26 -0.223,-0.268 -0.103,-0.004 -0.101,-0.011 -0.1,0.082 0.001,0.094 -0.038,0.07 0.028,0.134 0.045,0.044 0.059,0.066 0.063,0.14 -0.01,0.006 -0.007,0.004 -0.022,0.009 -0.007,0.002 -0.012,0.003 -0.016,0.004 0.055,0.222 0.25,0.204 0.421,0.363l0.017 -0.01c0.143,-0.086 0.11,-0.095 0.227,-0.247 0.087,-0.112 0.286,-0.463 0.484,-0.262 0.064,0.064 0.132,0.18 0.16,0.302 0.061,0.275 -0.133,0.503 -0.278,0.612 -0.083,0.062 -0.17,0.12 -0.294,0.154 -0.222,0.063 -0.177,-0.057 -0.254,-0.16 -0.029,0.047 -0.002,0.202 0.008,0.262 0.039,0.237 -0.008,0.105 -0.073,0.189l0.032 0.013c-0.067,0.007 0.025,0.068 -0.041,0.153l-0.008 -0.03c0,-0.007 0.001,-0.024 0,-0.036 -0.029,0.032 -0.018,-0.012 -0.017,0.052 0.001,0.019 0.009,0.022 0.008,0.051 -0.002,0.039 -0.011,0.052 -0.051,0.063 0.011,0.009 -0.013,0.008 0.02,0.008 0.011,0 0.032,-0.003 0.043,-0.005 -0.009,0.083 -0.14,0.138 -0.127,0.146 -0.026,0.076 -0.011,-0.003 -0.089,0.067 -0.034,0.03 -0.057,0.069 -0.103,0.01l-0.011 0.024c-0.037,0.065 -0.13,0.072 -0.23,0.093 -0.01,0.007 -0.154,0.053 -0.2,0.075 -0.143,0.071 -0.173,0.155 -0.312,0.262 -0.05,0.038 -0.122,0.081 -0.172,0.114l-0.087 0.05c-0.038,0.022 -0.059,0.04 -0.096,0.053 -0.1,0.034 -0.116,0.024 -0.211,0.075 -0.132,0.071 -0.13,-0.017 -0.203,-0.037 -0.098,-0.025 -0.099,0.055 -0.22,-0.012 -0.011,-0.181 0.337,-0.236 0.363,-0.389 -0.156,0.002 -0.077,0.003 -0.151,-0.024 -0.049,-0.018 -0.115,-0.011 -0.149,-0.037 0.012,-0.059 0.163,-0.116 0.218,-0.141 0.046,-0.02 0.111,-0.022 0.16,-0.003 0.054,0.021 0.063,0.052 0.093,0.094 0.067,-0.002 0.118,0.021 0.149,0.002 0.117,-0.083 -0.234,-0.393 -0.361,-0.4l-0.02 0.087c-0.125,0.003 -0.308,-0.09 -0.402,-0.011 0,0 -0.152,0.148 -0.128,0.014 0.01,-0.06 0.084,-0.016 0.139,-0.103 0.012,-0.04 -0.02,-0.049 -0.024,-0.089l0 -0.021c0.006,-0.068 0.094,0.002 0.202,-0.074 0.073,-0.051 0.071,-0.083 0.121,-0.128 0.084,-0.075 0.212,0.124 0.335,0.126 0.002,-0.107 -0.094,-0.137 -0.159,-0.201 -0.043,-0.041 -0.105,-0.155 -0.148,-0.212l-0.099 0.003c0.019,0.034 0.049,0.018 0.07,0.076 0.015,0.041 0.03,0.13 -0.016,0.145 -0.003,0.001 -0.007,0.003 -0.01,0.004l-0.069 -0.003c-0.078,-0.018 -0.191,-0.094 -0.256,-0.093 -0.117,-0.102 -0.172,0.009 -0.223,0.019 -0.136,0.025 -0.099,-0.102 -0.172,-0.142 -0.03,0.077 -0.065,0.166 -0.042,0.233 0.019,0.055 0.087,0.128 0.142,0.139 0.05,0.102 0.054,-0.012 0.093,0.225 0.024,0.15 0,0.179 0.069,0.404l0.08 0.243c0.007,0.024 0.009,0.037 0.016,0.059 0.008,0.024 0.014,0.035 0.023,0.064 0.036,0.123 0.104,0.358 0.204,0.432 0.208,0.153 0.414,0.053 0.536,0.111 0.032,0.024 0.033,0.058 0.049,0.1 0.033,0.083 0.125,0.259 0.125,0.336 -0.052,0.027 -0.097,0.059 -0.149,0.087 -0.215,0.117 -0.244,0.129 -0.486,0.224 -0.106,0.043 -0.221,0.1 -0.308,0.166 -0.048,0.036 -0.089,0.063 -0.131,0.105 -0.132,0.133 -0.223,0.21 -0.338,0.384 -0.209,0.316 -0.365,0.586 -0.461,0.972 -0.058,0.233 -0.086,0.361 -0.106,0.603l-0.008 0.448c0.001,0.522 -0.133,0.401 -0.315,0.848 -0.044,0.109 -0.053,0.114 -0.09,0.236 -0.061,0.206 -0.12,0.501 -0.072,0.733 0.011,0.056 0.031,0.155 0.036,0.212 -0.194,0 -0.632,-0.149 -0.809,-0.237l-0.366 -0.169c-0.029,-0.016 -0.247,-0.209 -0.228,-0.285 0.021,-0.081 0.17,-0.153 0.17,-0.548 -0.071,0.001 -0.092,0.036 -0.124,0.069 -0.076,0.079 -0.152,0.099 -0.094,0.19 0.001,0.001 0.005,0.004 0.006,0.006l-0.037 0.024 -0.012 -0.046 -0.25 0.05c-0.06,0.016 -0.057,0.031 -0.062,0.037 0.039,0.036 0.114,0.042 0.175,0.039l0.021 0.089c0.012,0.04 0.02,0.08 0.02,0.122 0.001,0.086 -0.047,0.143 -0.089,0.188 -0.144,0.152 -0.203,0.1 -0.378,0.015 0.01,-0.097 0.088,-0.164 0.052,-0.275 -0.036,-0.111 -0.134,-0.107 -0.122,-0.203 0.03,-0.029 0.084,-0.051 0.131,-0.036 0.057,0.017 0.025,0.055 0.141,0.051 0.019,-0.094 0.02,-0.127 0.068,-0.179 -0.012,-0.056 -0.02,0.008 -0.021,-0.078 0.054,-0.042 0.05,-0.057 0.092,-0.117 0.043,-0.062 0.039,-0.086 -0.003,-0.13 -0.052,0.05 -0.032,0.099 -0.119,0.124 0,-0.211 0.069,-0.336 0.181,-0.445 0.111,-0.109 0.067,-0.114 0.218,-0.242 0.067,-0.057 0.032,-0.054 0.069,-0.087 0,-0.087 -0.012,-0.188 -0.025,-0.264 -0.052,0.022 -0.1,0.077 -0.153,0.034 0.024,-0.032 0.077,-0.073 0.128,-0.091 0.005,-0.048 0.019,-0.052 0.011,-0.118 -0.001,-0.001 -0.009,-0.044 -0.012,-0.051 -0.019,-0.048 -0.001,-0.024 -0.036,-0.043 -0.039,0.051 -0.02,0.093 -0.1,0.092 -0.015,-0.037 -0.017,-0.046 -0.011,-0.087 0.011,-0.068 0.042,-0.066 0.049,-0.07 -0.005,-0.019 -0.004,-0.015 -0.013,-0.026l-0.074 0.005 -0.006 -0.029c-0.002,-0.019 0.003,-0.019 -0.005,-0.033 -0.005,-0.01 -0.033,-0.034 -0.05,-0.05 -0.02,-0.018 -0.038,-0.031 -0.058,-0.041l-0.067 -0.031c0.095,-0.063 0.195,0.022 0.235,0.065 -0.007,-0.063 -0.069,-0.116 -0.127,-0.126 -0.071,-0.011 -0.155,0.034 -0.191,0.066 -0.099,0.088 -0.093,0.264 -0.093,0.445 0.011,0.014 0.119,0.259 -0.024,0.271 0.006,-0.094 0.042,-0.164 -0.038,-0.223 -0.016,0.037 -0.062,0.178 -0.168,0.158l0 0.15c0.137,0.011 0.192,0.11 0.144,0.277 -0.071,-0.006 -0.038,-0.046 -0.101,-0.024 -0.02,0.007 -0.033,0.017 -0.043,0.026l0 0.136c0.04,0.036 -0.005,0.048 0.078,0.061l-0.006 0.067c0.031,-0.021 0.019,-0.027 0.067,-0.026 0.006,0.076 0.005,0.104 -0.017,0.16 -0.095,-0.006 -0.057,-0.022 -0.091,-0.093 -0.011,0.001 -0.022,0.004 -0.031,0.008l0 1.605c0.16,0.197 0.336,0.433 0.402,0.499l0.095 0.124 0.838 0c-0.06,-0.064 -0.122,-0.149 -0.124,-0.219 0.136,0.008 0.199,0.133 0.296,0.219l0.24 0c-0.194,-0.2 -0.402,-0.363 -0.606,-0.602 -0.04,-0.047 -0.056,-0.047 -0.133,-0.141 -0.039,-0.047 -0.1,-0.105 -0.123,-0.168 0.108,0.026 0.274,0.227 0.456,0.261 -0.01,-0.077 -0.137,-0.137 -0.193,-0.183 -0.049,-0.041 -0.185,-0.136 -0.162,-0.207 0.017,-0.005 0.004,-0.005 0.021,0.002 0.029,0.013 0.03,0.033 0.08,0.053 -0.02,-0.074 -0.084,-0.052 -0.084,-0.146 0.075,0.01 0.213,0.098 0.287,0.132l0.584 0.275c0.049,0.023 0.09,0.045 0.143,0.069 0.091,0.042 0.086,0.021 0.181,0.026 0.038,0.036 0.017,0.039 0.069,0.072 0.035,0.023 0.058,0.029 0.095,0.054 0.138,0.094 0.07,0.057 0.104,0.214 0.031,0.023 0.099,0.032 0.143,0.049 0.141,0.056 0.301,0.218 0.385,0.188 -0.006,-0.086 -0.236,-0.14 -0.265,-0.228 0.064,0.01 0.092,0.039 0.141,0.062 0.018,-0.032 -0.024,-0.011 0,-0.047 0.019,0.005 0.176,0.081 0.2,0.1 0.037,0.03 0.073,0.09 0.103,0.165l0.942 0 0.035 -0.13 0.289 -0.831c0.078,0.041 0.195,0.266 0.253,0.345 0.101,0.136 0.272,0.432 0.359,0.616l0.132 0c0.013,-0.058 0.021,-0.036 0.016,-0.104 -0.023,0.013 -0.034,0.023 -0.064,0.031l0.012 -0.079c-0.016,-0.01 0.014,-0.006 -0.059,0.006l0.022 -0.127c-0.039,0.008 -0.055,0.027 -0.075,0.045l0.007 -0.133c-0.038,0.027 0.01,0.011 -0.042,0.037 -0.016,-0.032 -0.019,-0.054 -0.025,-0.091 -0.011,-0.072 -0.01,-0.067 -0.05,-0.078 0,0 -0.04,0.014 0.005,0.085 0.02,0.032 0.029,0.031 0.039,0.067l-0.085 -0.117c-0.036,-0.054 -0.06,-0.068 -0.107,-0.118 -0.114,-0.123 -0.421,-0.641 -0.512,-0.809 -0.096,-0.179 -0.424,-0.893 -0.42,-1.12 0.002,-0.08 0.037,-0.109 0.036,-0.188 -0.051,0.023 -0.051,0.09 -0.095,0.181 -0.013,0.027 -0.031,0.064 -0.042,0.096 -0.006,0.017 -0.013,0.047 -0.017,0.057 -0.02,0.049 0.001,0.022 -0.035,0.044 -0.031,-0.051 0.032,-0.107 0.062,-0.229 0.013,-0.048 0.019,-0.065 0.039,-0.113 0.051,-0.122 -0.01,-0.064 0.029,-0.105 0.07,-0.065 0.12,-0.01 0.137,-0.179l-0.053 -0.011c0.018,0.13 -0.02,0.139 -0.139,0.14l-0.037 0.095c-0.055,-0.015 -0.045,-0.054 -0.054,-0.121 -0.023,-0.171 -0.046,-0.287 -0.046,-0.477 0.085,0.045 0.049,0.062 0.187,0.062 0.041,-0.077 0.048,-0.124 0.061,-0.15 0.025,-0.049 -0.008,-0.022 0.089,-0.048 0.033,-0.01 0.028,-0.006 0.049,-0.026l0.056 -0.087c0.016,-0.047 0.051,-0.094 0.076,-0.129 0.036,-0.049 0.035,-0.079 0.102,-0.094 0.026,0.285 0.064,0.332 0.109,0.555 -0.055,0.013 -0.084,0.031 -0.144,0.049 -0.047,-0.002 -0.083,0.027 -0.131,0.048 -0.05,0.021 -0.092,0.037 -0.139,0.061 -0.093,0.046 -0.175,0.072 -0.178,0.204 0.001,0.001 0.019,0.014 0.022,0.019 0.011,-0.06 0.047,-0.096 0.085,-0.132 0.372,-0.211 1.776,-0.666 2.276,-0.849 0.098,-0.036 0.77,-0.242 0.786,-0.255 -0.096,-0.039 -1.574,0.477 -1.864,0.595 -0.055,0.022 -0.214,0.078 -0.272,0.087 -0.076,-0.272 -0.144,-0.336 -0.124,-0.661 0.223,-0.003 0.253,0.254 0.336,0.318 0.014,-0.016 0.008,0.001 0.016,-0.029 0.025,-0.095 -0.051,-0.188 -0.069,-0.26 0.127,-0.059 0.441,-0.063 0.785,-0.302 0.058,-0.04 0.165,-0.114 0.204,-0.156 0.065,-0.069 0.117,-0.129 0.179,-0.184 0.056,-0.05 0.04,-0.036 0.082,-0.092 0.177,-0.233 0.202,-0.25 0.359,-0.563 0.157,-0.314 0.236,-0.761 0.532,-1.273l0.139 -0.222c0.109,-0.17 0.167,-0.072 0.429,0.013l0.071 0.027c-0.196,0.107 -0.38,0.604 -0.427,0.867 -0.106,0.586 0.089,1.815 0.459,2.276 0.032,0.041 0.038,0.06 0.072,0.09 0.117,0.104 0.237,0.196 0.376,0.273 0.056,0.031 0.185,0.076 0.204,0.132 -0.2,-0.003 -0.645,-0.184 -0.789,-0.283 -0.041,-0.029 -0.041,-0.032 -0.048,-0.079 -0.012,-0.087 -0.118,-0.232 -0.169,-0.301 -0.076,-0.104 -0.063,-0.111 -0.123,-0.119 0,0.044 0.062,0.228 0.082,0.271 0.03,0.069 0.171,0.146 0.182,0.164l-0.192 -0.03c-0.003,0.026 0.028,0.184 0.037,0.215 0.018,0.064 0.085,0.122 0.012,0.181 -0.041,-0.009 -0.038,-0.024 -0.055,-0.077 -0.057,-0.173 -0.197,-0.756 -0.231,-0.787 -0.018,0.035 -0.003,0.071 0.007,0.112 0.011,0.042 0.018,0.07 0.03,0.108 0.06,0.184 0.11,0.447 0.176,0.658 0.136,0.436 0.267,0.805 0.445,1.212 0.115,0.259 0.536,0.946 0.543,1.126 0.066,0.056 -0.005,0.07 0.164,0.087 0.016,-0.082 0.097,-0.129 0.202,-0.12 -0.014,0.101 -0.078,0.092 -0.1,0.151 0.073,0.071 0.244,0.061 0.328,0.126 -0.199,-0.016 -0.401,-0.097 -0.592,-0.106 0.001,0.112 0.031,0.073 0.06,0.132 0.048,-0.01 0.027,-0.01 0.033,-0.013 0.062,-0.024 0.054,-0.011 0.132,-0.009 0.002,0.057 -0.031,0.081 -0.067,0.106 -0.024,0.085 -0.007,0.125 -0.064,0.214 -0.038,0.06 -0.101,0.14 -0.177,0.212l0.442 0c0.055,-0.081 0.106,-0.164 0.15,-0.246 0.056,-0.102 0.095,-0.195 0.151,-0.286 0.071,-0.114 0.464,-0.735 0.524,-0.797 -0.001,0.065 -0.34,0.993 -0.391,1.132 -0.024,0.067 -0.048,0.132 -0.071,0.197l0.435 0c0.043,-0.089 0.084,-0.168 0.121,-0.237 0.106,-0.196 0.212,-0.401 0.29,-0.63 0.081,-0.236 0.143,-0.47 0.208,-0.713l0.172 -0.515c0.046,-0.12 0.032,-0.134 0.093,-0.157 -0.007,0.276 -0.179,0.414 -0.208,0.684l0.161 -0.369c0.019,-0.043 0.012,-0.03 0.042,-0.049 0.023,0.194 0.021,0.262 0.058,0.493 0.025,0.151 0.062,0.333 0.074,0.483 0.006,0.059 0.007,0.137 0.028,0.18l0.024 0.237c0.012,0.084 0.019,0.295 0.056,0.351 -0.008,0.046 0,0.146 0.012,0.242l0.506 0c0.001,-0.074 0.002,-0.149 0.001,-0.227 -0.001,-0.071 -0.013,-0.087 -0.013,-0.163 0.02,-0.041 0,-0.48 0,-0.591 0,-0.188 -0.001,-0.377 0,-0.566 0.001,-0.09 -0.019,-0.432 -0.039,-0.521 -0.018,-0.085 -0.002,-0.167 -0.014,-0.26zm-2.775 0.057l-0.336 0.315c0.028,-0.121 0.135,-0.28 0.219,-0.356 0.119,-0.107 0.084,-0.148 0.302,-0.163 -0.028,0.074 -0.076,0.1 -0.123,0.143 -0.023,0.022 -0.035,0.04 -0.062,0.061zm-5.455 1.462c-0.006,0.035 0.001,0.024 -0.016,0.042l-0.039 0.012c0.018,0.075 0.009,0.048 0.05,0.076 -0.055,0.04 -0.018,-0.011 -0.046,0.047l0.06 0.107c-0.029,0.015 -0.015,-0.001 -0.063,0.017 -0.002,0.001 -0.007,0.003 -0.009,0.004 -0.002,0.001 -0.006,0.003 -0.009,0.005 0.038,0.026 0.025,0.017 0.079,0.018 -0.015,0.004 -0.045,0.021 -0.06,0.028l0.014 0.016c0.009,0.009 0.014,0.013 0.019,0.02 0.023,0.029 0.011,0.001 0.023,0.041 -0.058,0.02 -0.065,-0.006 -0.143,-0.008 0.06,0.001 0.029,-0.011 0.04,-0.029 -0.033,-0.055 -0.028,-0.01 -0.061,-0.075 -0.07,-0.14 -0.187,-0.099 -0.026,-0.212 -0.027,-0.046 -0.037,-0.037 -0.08,-0.068 0.001,-0.051 0.027,-0.019 0.009,-0.06 -0.001,-0.003 -0.016,-0.022 -0.018,-0.025 0.037,-0.013 0.038,-0.007 0.054,-0.049 -0.1,-0.006 -0.08,0.018 -0.113,-0.07 -0.016,-0.043 -0.038,-0.092 -0.062,-0.138 -0.135,-0.258 -0.384,-0.125 -0.05,-0.821 0.139,0.023 0.47,0.44 0.56,0.56 0.049,0.066 0.111,0.174 0.099,0.283 -0.042,0.008 -0.291,0.1 -0.321,0.127 0.015,0.008 -0.02,0.009 0.031,0.005l0.131 -0.029c-0.01,0.109 -0.034,0.092 -0.129,0.123 0.02,0.021 0.041,0.021 0.076,0.053zm-2.448 -1.644c-0.043,0.053 -0.048,0.123 -0.107,0.175 0.007,-0.098 -0.001,-0.204 0.021,-0.299 0.062,-0.04 0.131,-0.043 0.2,-0.01 0.026,0.115 -0.054,0.06 -0.114,0.134zm8.603 -0.401c-0.05,0.031 -0.334,0.042 -0.415,0.048 -0.028,0.076 -0.092,0.168 -0.215,0.12 0.008,-0.057 0.04,-0.044 0.086,-0.073 -0.025,-0.024 -0.004,-0.011 -0.043,-0.023 -0.036,-0.011 -0.249,-0.001 -0.323,-0.069 0.02,-0.032 0.001,-0.024 0.104,-0.048 0.167,-0.039 0.464,-0.143 0.617,-0.079 0.057,0.023 0.164,0.074 0.189,0.124zm0.11 -0.31c-0.058,-0.005 -0.296,-0.086 -0.357,-0.113 0.013,-0.078 0.048,-0.1 0.123,-0.135 0.263,-0.122 0.195,-0.024 0.367,0.04 0.064,0.023 0.14,0.029 0.186,0.061 -0.001,0.127 -0.186,0.159 -0.319,0.147zm-1.626 0.29c0.069,0.015 0.101,0.138 0.091,0.229 -0.041,-0.015 -0.043,-0.049 -0.057,-0.098 -0.012,-0.043 -0.032,-0.085 -0.034,-0.131zm-3.894 -0.782c-0.028,0.134 -0.092,0.395 -0.103,0.52 -0.004,0.051 0.006,0.076 -0.03,0.095 -0.053,-0.107 0.087,-0.76 0.15,-0.822 0.001,0.002 0.002,0.004 0.003,0.009 0.005,0.084 0.001,0.098 -0.02,0.198zm0.913 -0.513c0.049,0.027 0.132,0.286 0.144,0.36 0.048,0.283 0.012,0.144 0.09,0.431 -0.048,0.028 -0.195,0.083 -0.262,0.099 -0.048,-0.106 -0.104,-0.348 -0.128,-0.478 -0.018,-0.099 -0.02,-0.151 0.017,-0.246 0.022,-0.057 0.081,-0.149 0.139,-0.166zm0.994 -0.422c0.002,0.048 -0.014,0.089 -0.024,0.129 -0.017,0.073 0.004,0.079 -0.058,0.115 -0.17,0.099 -0.654,0.211 -0.76,-0.026 0.248,-0.137 0.304,-0.271 0.387,-0.153 0.045,0.064 0.065,0.05 0.108,0.103 -0.038,0.027 -0.086,0.01 -0.123,0.037 0.044,0.042 0.17,0.018 0.183,-0.039 0.016,-0.069 -0.028,-0.192 -0.023,-0.258 0.092,0.009 0.118,0.068 0.175,0.12 0.052,-0.009 0.066,-0.021 0.135,-0.028zm3.373 0.678c-0.059,0.045 -0.276,0.068 -0.341,0.1l0.07 0.017c0.096,0.003 0.1,-0.019 0.17,-0.034 0.033,-0.008 0.055,-0.012 0.075,0.005 -0.038,0.042 -0.576,0.192 -0.617,0.249 0.021,0.02 0,0.009 0.039,0.024 0.042,0.016 0.114,0.031 0.145,0.014 0.109,-0.06 -0.118,-0.003 0.188,-0.088 0.067,-0.019 0.156,-0.05 0.231,-0.055 -0.012,0.012 -0.006,0.008 -0.026,0.02 -0.092,0.053 -0.24,0.043 -0.362,0.176 -0.161,0.176 -0.488,-0.231 -0.559,-0.333 -0.179,-0.263 -0.335,-0.79 -0.389,-1.165 0.108,0.004 0.225,0.217 0.277,0.305 0.071,0.12 0.138,0.273 0.205,0.378 0.27,0.042 0.915,-0.346 1.094,-0.26 -0.038,0.022 -0.187,0.068 -0.242,0.09 -0.147,0.06 -0.543,0.22 -0.67,0.289 -0.05,0.028 -0.026,0.005 -0.052,0.044 0.048,0.096 0.177,0.027 0.258,-0.011 0.096,-0.046 0.158,-0.076 0.282,-0.07 -0.035,0.031 -0.057,0.062 -0.08,0.116 0.082,-0.021 0.181,-0.157 0.342,-0.068 0.05,0.028 0.072,0.031 0.08,0.086 -0.086,0.025 -0.169,0.025 -0.229,0.081 -0.091,0.084 -0.167,0.038 -0.198,0.127 0.072,-0.019 0.244,-0.096 0.309,-0.037zm-3.158 -1.535c-0.024,0.064 -0.045,0.119 -0.113,0.15 -0.031,-0.022 -0.011,-0.01 -0.036,-0.046 0.024,-0.021 0.111,-0.09 0.149,-0.104zm0.504 -4.474c-0.226,-0.075 -0.647,-0.104 -0.747,-0.173 -0.048,-0.033 -0.025,-0.003 -0.045,-0.052 0.087,0.018 0.174,0.054 0.265,0.065 0.103,0.011 0.198,0.02 0.3,0.038 0.095,0.018 0.415,0.131 0.464,0.197 -0.055,0.002 -0.177,-0.055 -0.237,-0.075zm-0.344 -0.2l-0.085 -0.006c-0.027,-0.005 -0.02,-0.003 -0.032,-0.011 0.052,-0.04 0.151,-0.042 0.218,-0.041 0.129,0.001 0.367,0.087 0.479,0.146 0.01,0.005 0.034,0.018 0.04,0.022l0.047 0.039c-0.108,-0.006 -0.27,-0.057 -0.383,-0.088 -0.056,-0.015 -0.132,-0.037 -0.188,-0.048 -0.029,-0.006 -0.067,-0.011 -0.096,-0.013zm1.583 0.186l-0.028 -0.051c-0.079,-0.177 -0.144,-0.2 -0.283,-0.278 -0.024,-0.014 -0.033,-0.024 -0.052,-0.035 -0.047,-0.026 -0.225,-0.074 -0.287,-0.084 -0.08,-0.012 -0.073,-0.023 -0.15,-0.022 -0.05,0.001 -0.079,-0.03 -0.136,-0.047 0.055,-0.01 0.1,0.009 0.169,-0.004 0.203,-0.041 0.327,0.072 0.417,0.132 0.143,0.095 0.361,0.17 0.364,0.406 -0.002,-0.002 -0.005,-0.006 -0.007,-0.008 -0.001,-0.002 -0.005,-0.006 -0.007,-0.009zm-2.062 -0.739c-0.179,0.092 -0.557,0.045 -0.727,-0.099 -0.03,-0.025 -0.051,-0.044 -0.08,-0.071l-0.078 -0.086c0.075,0.021 0.149,0.107 0.279,0.17 0.07,0.034 0.253,0.1 0.33,0.106l-0.061 -0.048c-0.028,-0.019 -0.03,-0.019 -0.067,-0.032 -0.067,-0.025 -0.089,-0.043 -0.144,-0.069 -0.056,-0.026 -0.108,-0.036 -0.152,-0.061 -0.077,-0.043 0.006,0.002 -0.077,-0.073l-0.031 -0.029c0.052,0.014 0.149,0.07 0.19,0.095 0.102,0.064 0.316,0.115 0.395,0.153 0.112,0.053 0.087,0.037 0.223,0.044zm-1.03 -0.142c-0.001,0.046 0.053,0.09 0.053,0.143l-0.008 0.03c0,-0.002 -0.002,0.007 -0.004,0.01 -0.051,-0.02 -0.032,-0.054 -0.092,-0.098 -0.189,-0.138 -0.28,-0.105 -0.451,-0.095 0.019,-0.02 -0.018,-0.007 0.054,-0.037 0.012,-0.005 0.043,-0.013 0.058,-0.016 0.175,-0.031 0.258,0.058 0.344,0.085 -0.014,-0.063 0.007,-0.038 -0.044,-0.074 -0.064,-0.044 -0.147,-0.078 -0.226,-0.082 0.096,-0.032 0.194,0.03 0.275,0.073 0.06,0.032 0.041,0.04 0.041,0.061zm1.053 0.028c0.001,0.001 0.001,0 0,0zm0.068 0.065l-0.361 -0.093c-0.142,-0.053 -0.244,-0.058 -0.358,-0.094 0.041,-0.04 -0.004,-0.02 0.055,-0.025l0.193 0.047c0.083,0.02 0.07,0.006 0.087,-0.007 -0.146,-0.03 -0.089,-0.031 -0.193,-0.067 -0.082,-0.027 -0.074,-0.008 -0.117,-0.06 0.311,0 0.46,0.095 0.721,0.143 0.043,0.007 0.067,0.02 0.111,0.028 0.095,0.017 0.077,0.003 0.114,0.053 -0.102,0 -0.215,-0.022 -0.311,-0.047l-0.036 0.02c-0.001,-0.003 -0.005,0.001 -0.008,0.002l0.014 0.016c0.013,0.014 0.019,0.018 0.021,0.019 -0.001,0 -0.002,0.001 -0.004,0.003 -0.017,-0.02 -0.003,-0.012 -0.037,-0.019 -0.026,-0.006 -0.036,-0.004 -0.062,-0.006l0.09 0.043c0.064,0.02 0.043,0.001 0.081,0.044zm2.188 5.425c0.024,0.084 -0.051,0.071 -0.152,0.06 -0.048,-0.07 -0.05,-0.198 -0.057,-0.297 0.003,0.002 0.007,0.002 0.008,0.007 0.002,0.004 0.007,0.005 0.008,0.007 0.037,0.037 0.183,0.19 0.193,0.223z"/>
    <path class="fil2" d="M6.821 9.772c-0.047,-0.129 -0.247,-0.655 -0.253,-0.758 0.039,-0.021 0.093,-0.044 0.127,-0.06l-0.115 -0.414c-0.082,0.004 -0.704,0.21 -0.736,0.251 -0.017,0.043 -0.043,0.222 -0.058,0.288l-0.19 0.843c-0.069,0.329 -0.106,0.235 0.056,0.52l0.233 0.45c0.074,-0.015 0.192,-0.079 0.257,-0.08 0.074,0.125 0.109,0.243 0.162,0.383 0.131,-0.024 0.189,-0.073 0.339,-0.089 0.119,-0.012 0.238,-0.039 0.35,-0.073 0.107,-0.032 0.495,-0.193 0.583,-0.25l-0.1 -0.259c-0.044,-0.071 -0.068,-0.008 -0.162,-0.064 -0.099,-0.059 -0.052,-0.014 -0.148,-0.012 -0.06,-0.052 -0.154,-0.214 -0.199,-0.312 -0.054,-0.117 -0.102,-0.243 -0.146,-0.364zm-0.526 0.897c-0.076,-0.071 -0.27,-0.529 -0.112,-0.672 0.032,0.029 0.049,0.101 0.071,0.153 0.058,0.135 0.193,0.328 0.21,0.432 -0.019,0.013 -0.146,0.077 -0.169,0.087z"/>
    <path class="fil2" d="M5.26 9.811c0.006,-0.056 -0.158,-0.659 -0.183,-0.775 -0.128,0.015 -0.786,0.211 -0.837,0.366 -0.028,0.086 0.026,0.264 0.057,0.336l0.088 0.221c0.08,0.198 0.121,0.318 0.225,0.491 0.046,0.078 0.091,0.14 0.133,0.227 0.123,0.255 0.254,0.354 0.404,0.655 0.047,0.095 0.059,0.161 0.169,0.18 0.103,0.018 0.204,-0.012 0.289,-0.049 0.144,-0.064 0.177,-0.086 0.17,-0.195 -0.015,-0.207 -0.181,-0.586 -0.255,-0.794 -0.12,-0.336 -0.164,-0.646 -0.502,-0.471 -0.148,0.076 -0.103,0.153 -0.143,0.206 -0.039,-0.069 -0.107,-0.312 -0.121,-0.403l0.002 -0.058c0.064,-0.024 0.138,-0.073 0.236,-0.063l0.08 0.19c0.079,0 0.13,-0.022 0.188,-0.064zm-0.145 0.654c0.022,-0.034 0.039,-0.088 0.059,-0.129 0.09,0.028 0.253,0.458 0.24,0.509 -0.035,0.058 -0.104,0.1 -0.188,0.108 -0.052,-0.093 -0.233,-0.365 -0.234,-0.489l0.123 0.001z"/>
    <path class="fil2" d="M4.277 3.228c0.141,0.005 0.116,-0.032 0.222,-0.068 0.05,-0.016 0.155,-0.069 0.109,-0.117 -0.049,-0.046 -0.117,0.006 -0.158,0.021 0.018,-0.04 0.014,-0.022 0.065,-0.063 0.103,-0.084 0.169,-0.12 0.285,-0.096 0.044,-0.033 0.005,-0.018 0.062,-0.056l-0.041 -0.083c-0.083,-0.054 -0.199,-0.055 -0.24,-0.09 0.051,-0.045 0.122,0.018 0.208,-0.024 -0.014,-0.064 -0.046,-0.046 -0.112,-0.063l0.038 -0.052c-0.087,-0.03 -0.109,-0.072 -0.238,-0.073 -0.098,-0.001 -0.192,-0.004 -0.28,0.018 -0.208,0.052 -0.318,0.189 -0.399,0.101l-0.019 -0.023 -0.096 0.043c-0.012,0.003 0.006,0.006 -0.028,0.005 -0.026,-0.056 -0.033,-0.143 -0.112,-0.127 -0.053,0.035 -0.009,0.218 -0.016,0.268 -0.003,0.025 -0.001,0.015 -0.009,0.027 -0.103,-0.029 -0.052,-0.205 -0.162,-0.223 -0.02,0.053 -0.008,0.126 -0.037,0.169 -0.044,-0.044 -0.006,-0.197 -0.05,-0.227 -0.09,0.094 -0.104,0.202 -0.113,0.33 -0.004,0.058 -0.04,0.142 -0.032,0.182 0.005,0.033 0.059,0.12 0.083,0.133 0.01,0.063 0.034,0.077 0.045,0.138 0.022,0.12 0.006,0.042 0.092,0.083 0,0.058 -0.006,0.073 0.012,0.115 0.076,-0.007 0.09,-0.071 0.118,-0.135 0.027,-0.059 0.053,-0.098 0.077,-0.179 0.032,-0.062 0.041,-0.18 0.091,-0.239 0.125,0.014 0.156,0.13 0.225,0.201 0.071,0.072 0.131,0.085 0.205,0.118 0.046,0.021 0.031,0.022 0.068,0.035 0.054,-0.038 0.041,-0.052 0.137,-0.049z"/>
    <path class="fil2" d="M5.937 3.095c-0.18,-0.011 -0.399,0.077 -0.48,0.181l0.028 0.035c0.006,0.116 0.028,0.001 0.01,0.154 0.096,0.009 0.086,-0.017 0.165,-0.028 0,0.002 -0.004,0.042 0.012,0.062 0.055,-0.028 0.039,-0.058 0.112,-0.074 -0.049,0.059 -0.047,0.036 -0.071,0.108 0.104,-0.013 0.077,-0.058 0.169,-0.048 0,0.052 -0.034,0.065 -0.073,0.088 -0.031,0.019 -0.127,0.034 -0.127,0.034 -0.002,-0.003 -0.006,0.001 -0.009,0.003 0.062,0.034 0.199,0.01 0.235,-0.138 0.016,-0.061 0.029,-0.305 0.029,-0.377z"/>
    <path class="fil2" d="M6.209 3.036c0.019,0.031 0.044,0.189 0.051,0.24 0.065,-0.034 0.141,-0.02 0.191,-0.043 0.029,-0.013 0.092,-0.091 0.104,-0.126 0.044,-0.137 -0.126,-0.192 -0.21,-0.232 0.075,-0.22 0.328,-0.263 0.37,0.039 0.037,0.257 -0.13,0.386 -0.28,0.497 0.014,0.009 -0.009,0.005 0.022,0.006 0.083,0.002 0.236,-0.16 0.281,-0.261 0.151,-0.336 -0.116,-0.968 -0.47,-0.282 -0.069,0.135 -0.067,0.012 -0.15,0.088 0.034,0.095 0.059,0.039 0.091,0.074z"/>
    <path class="fil2" d="M5.101 4.137c-0.009,0.005 0.004,0.01 0,0zm0.108 0.262c-0.014,-0.068 0.039,-0.011 0.049,-0.146 -0.075,0.001 -0.155,-0.005 -0.212,-0.03 0.01,-0.031 0.033,-0.041 0.071,-0.09 -0.008,0.001 -0.013,0.002 -0.016,0.004 -0.001,-0.003 -0.004,-0.009 -0.011,-0.016 0.064,-0.023 0.032,0.005 0.047,-0.05 -0.01,-0.007 -0.017,-0.023 -0.061,-0.018 -0.014,0.001 -0.028,0.011 -0.037,0.017 -0.032,0.024 -0.024,0.029 -0.054,0.061 -0.06,0.062 -0.1,0.005 -0.122,0.028 -0.05,0.052 0.038,0.079 0.07,0.104 0.007,0.005 0.013,0.011 0.015,0.013 0,0 0.003,0.002 0.004,0.003 0.011,0.01 0.022,0.008 0.017,0.023l-0.14 0.107c-0.036,0.037 -0.021,-0.023 -0.028,0.073 0.08,-0.012 0.021,-0.006 0.096,-0.033 0.005,0.065 0.012,0.024 0.024,0.046 0.019,0.035 0.011,0.034 0.016,0.061 -0.011,0.005 -0.026,0.017 -0.033,0.027 -0.03,0.043 -0.028,-0.018 -0.013,0.053 0.02,0.011 0.028,0.014 0.061,0l0.12 -0.08c0.02,-0.009 0.031,-0.01 0.053,-0.019 0.162,-0.067 0.09,-0.107 0.084,-0.138z"/>
    <path class="fil2" d="M6.718 4.76c-0.104,0.037 -0.182,0.165 -0.164,0.251 0.01,0.052 0.012,0.003 0.005,0.072 -0.008,0.085 0.002,0.025 0.015,0.089 0.012,0.059 -0.016,0.119 -0.005,0.191 0.047,-0.011 0.201,-0.173 0.23,-0.215 0.018,-0.026 0.015,-0.019 0.033,-0.043 0.03,-0.042 0.021,-0.014 0.029,-0.066 -0.066,0.014 -0.029,0.005 -0.07,0.052 -0.028,0.03 -0.029,0.031 -0.071,0.039 0.008,-0.035 0.009,-0.041 0.028,-0.071l0.045 -0.059c0.001,-0.001 0.004,-0.005 0.006,-0.008 -0.02,-0.013 -0.001,-0.003 -0.032,-0.014 -0.018,-0.006 -0.022,-0.005 -0.039,-0.011 0.008,-0.027 0.03,-0.085 0.035,-0.107 0.012,-0.058 0.005,-0.022 -0.045,-0.1z"/>
    <path class="fil2" d="M9.805 4.925c0.135,0.004 0.169,0.028 0.276,0.067 -0.049,0.039 -0.032,0.009 -0.046,0.038 0.067,0.045 0.298,0.076 0.404,0.098 0.22,0.046 0.118,0.026 0.152,-0.011 -0.093,-0.011 -0.177,-0.038 -0.267,-0.049l-0.192 -0.026c-0.056,-0.005 -0.052,-0.013 -0.067,-0.029 0.127,-0.006 0.134,0.006 0.211,0.026 0.067,0.019 0.149,0.027 0.228,0.039 -0.003,-0.005 -0.006,-0.015 -0.008,-0.013 -0.002,0.002 -0.005,-0.009 -0.008,-0.012 -0.083,-0.122 -0.134,-0.115 -0.328,-0.159 -0.141,-0.032 -0.261,-0.051 -0.403,-0.016 -0.017,0.004 -0.015,0.002 -0.031,0.009 -0.018,0.008 -0.016,0.008 -0.029,0.018l0.023 0.01c0.009,0.003 0.016,0.005 0.021,0.006 0.001,0 0.002,0 0.003,0.001 0.01,0.002 0.048,0.003 0.061,0.003z"/>
    <path class="fil2" d="M10.709 5c0.23,0.08 0.483,0.256 0.88,0.403 0.059,0.022 0.099,0.036 0.13,0.045l0 -0.061c-0.226,-0.046 -0.376,-0.112 -0.634,-0.241l-0.394 -0.179c-0.326,-0.129 -0.857,-0.206 -1.221,-0.211 -0.066,-0.001 -0.071,-0.012 -0.125,-0.013 -0.059,-0.002 -0.071,0.013 -0.142,0.013 -0.011,0.025 -0.013,0.001 0.006,0.023 0.43,-0.033 1.078,0.074 1.5,0.221z"/>
    <path class="fil2" d="M4.511 3.44c-0.059,-0.032 -0.018,-0.016 -0.042,-0.047 -0.017,-0.023 -0.072,-0.055 -0.093,-0.07l-0.149 0.062c0.023,0.046 0.002,0.034 0.051,0.064 0.046,0.028 0.241,0.07 0.259,0.071 0.017,-0.028 0.014,-0.033 0.037,-0.059 -0.036,-0.02 -0.028,-0.001 -0.063,-0.021z"/>
    <path class="fil2" d="M6.136 3.377c-0.046,0.019 -0.048,0.014 -0.067,0.058 0.053,0.019 0.077,0.039 0.12,-0.006 0.026,-0.029 0.038,-0.054 0.044,-0.096 -0.077,0.001 -0.024,0.015 -0.097,0.044z"/>
    <path class="fil2" d="M3.879 2.555c0.052,-0.045 0.051,-0.077 0.023,-0.14 -0.085,-0.01 -0.101,0.046 -0.119,0.121 0.059,0.007 0.037,0.021 0.096,0.019z"/>
    <path class="fil2" d="M4.048 2.01c0.085,0.023 0.041,-0.04 0.203,-0.106 0.049,-0.02 0.05,-0.009 0.036,-0.072 -0.037,-0.006 -0.055,0.001 -0.08,0.014 -0.033,0.016 -0.047,0.035 -0.07,0.045 -0.059,0.025 -0.12,0.01 -0.089,0.119z"/>
    <path class="fil2" d="M7.973 11.353c-0.348,0.145 -0.651,0.25 -1.018,0.366l1.065 0c0.056,-0.104 0.132,-0.216 0.178,-0.278 0.123,-0.169 0.033,-0.033 0.107,-0.115 0.007,0.049 0.001,0.019 0.016,0.042l0.091 -0.006c0.016,-0.049 0.015,-0.013 0.03,-0.075l-0.047 0.031c-0.014,0.006 -0.032,0.008 -0.051,0.009 -0.016,-0.04 -0.023,-0.076 0.028,-0.089 -0.011,0.022 -0.022,0.017 -0.033,0.066 0.041,-0.018 0.047,-0.024 0.091,-0.029 -0.019,-0.012 0.03,-0.012 -0.037,-0.013 0,-0.044 0.021,-0.037 -0.015,-0.06 -0.046,-0.029 -0.008,-0.004 -0.079,0.008 -0.093,0.018 -0.228,0.102 -0.326,0.143z"/>
   </g>
  </g>
 </g>
</svg>
