<?xml version="1.0" encoding="UTF-8"?>
<!DOCTYPE svg PUBLIC "-//W3C//DTD SVG 1.1//EN" "http://www.w3.org/Graphics/SVG/1.1/DTD/svg11.dtd">
<!-- Creator: CorelDRAW -->
<svg xmlns="http://www.w3.org/2000/svg" xml:space="preserve" width="120px" height="120px" version="1.1" style="shape-rendering:geometricPrecision; text-rendering:geometricPrecision; image-rendering:optimizeQuality; fill-rule:evenodd; clip-rule:evenodd"
viewBox="0 0 25.775 25.775"
 xmlns:xlink="http://www.w3.org/1999/xlink"
 xmlns:xodm="http://www.corel.com/coreldraw/odm/2003">
 <defs>
  <style type="text/css">
   <![CDATA[
    .fil4 {fill:black}
    .fil3 {fill:#ABC284}
    .fil0 {fill:#EDE3C8}
    .fil1 {fill:#FFF799}
    .fil2 {fill:black;fill-rule:nonzero}
   ]]>
  </style>
 </defs>
 <g id="Layer_x0020_1">
  <metadata id="CorelCorpID_0Corel-Layer"/>
  <g id="_2441024904448">
   <rect class="fil0" width="25.775" height="25.775"/>
   <path class="fil1" d="M2.667 7.785c-0.222,-2.734 0.563,-3.026 0.563,-3.026 0.394,0.105 0.477,-0.07 0.825,0.71 0.582,1.304 0.508,2.184 1.389,2.675 0.794,0.442 0.719,0.496 1.186,1.878 0.237,0.7 0.396,1.587 0.416,2.274l0 0.001c0.011,0.39 -0.037,0.766 -0.072,1.004 -0.248,1.691 -1.385,1.58 -2.314,0.145 -0.086,-0.133 -0.085,-0.16 -0.165,-0.299 -0.073,-0.127 -0.118,-0.178 -0.191,-0.303 -0.487,-0.839 -1.027,-1.948 -1.311,-3.193 -0.087,-0.384 -0.197,-0.88 -0.237,-1.156 -0.032,-0.214 -0.04,-0.27 -0.065,-0.468 -0.012,-0.097 -0.021,-0.174 -0.024,-0.242z"/>
   <path class="fil2" d="M7.395 13.764c-0.109,-0.145 -0.467,-0.315 -0.771,-0.569 -0.265,-0.223 -0.367,-0.5 -0.754,-0.615 0.208,0.362 0.584,0.536 0.77,0.893 -0.585,-0.077 -1.084,-0.351 -1.344,-0.674 -0.417,-0.516 -0.115,0.247 -0.318,-0.389 -0.11,-0.347 -0.112,-0.521 -0.358,-0.701l0.327 1.178c-0.249,-0.122 -0.444,-0.339 -0.625,-0.573 -0.169,-0.217 -0.234,-0.359 -0.287,-0.613l-0.083 -0.302c-0.13,0.526 0.008,0.908 0.407,1.299 0.298,0.293 0.611,0.639 1.128,0.767 -0.088,-0.286 -0.166,-0.243 -0.253,-0.506 0.428,0.631 1.755,0.98 2.161,0.805zm-1.318 -2.233l0.248 -0.031c-0.097,-0.199 -0.298,-0.218 -0.499,-0.299 -0.186,-0.075 -0.354,-0.188 -0.58,-0.21l-0.198 -0.109 0.153 0.007 0.247 -0.003c-0.06,-0.204 0.003,-0.087 -0.146,-0.256 -0.341,-0.388 -0.717,-0.851 -1.278,-0.931l0.854 0.793c-0.021,0.207 0.074,0.046 -0.064,0.161 -0.258,-0.063 -0.54,-0.116 -0.751,-0.257 -0.109,-0.074 -0.046,-0.052 -0.189,-0.134 0.247,0.536 0.415,0.467 1.015,0.588l-0.261 0.079 0.266 0.111c0.11,0.033 0.145,0.048 0.248,0.079l0.688 0.359c-0.713,0.256 -0.985,0.047 -1.169,0.033 0.468,0.203 -0.051,0.317 1.055,0.182l-0.001 0.106c0.291,-0.022 1.026,0.039 1.235,0.262 -0.213,0.062 -0.746,0.22 -0.909,0.351 0.365,0.016 1.053,-0.202 1.38,-0.415 0.121,-0.079 0.043,0.003 0.105,-0.121 -0.233,-0.115 -0.813,-0.19 -1.106,-0.225 -0.354,-0.042 -0.261,-0.04 -0.343,-0.12zm0.554 -9.439c-0.292,-0.002 -0.285,0.077 -0.491,0.209 -0.655,0.42 -1.794,1.784 -1.912,2.394 0.128,-0.094 0.385,-0.552 0.515,-0.738 0.508,-0.723 0.622,-0.77 1.206,-1.289 0.442,-0.392 0.574,-0.26 0.682,-0.576zm-3.055 6.711c-0.015,0.577 0.902,1.039 1.378,1.16 -0.028,-0.267 -0.475,-1.54 -1.146,-1.713 0.277,0.267 0.595,0.783 0.717,1.334 -0.454,-0.192 -0.758,-0.392 -0.949,-0.781zm0.753 -0.583c-0.401,-0.248 -0.6,-0.684 -0.745,-0.964 -0.034,0.648 0.889,1.417 1.067,1.486 0.019,-0.739 -0.166,-1.751 -0.699,-2.02 0.218,0.38 0.409,0.924 0.377,1.498zm0.114 -2.912c0.071,0.351 0.239,1.176 -0.037,1.499 -0.084,-0.163 -0.183,-0.337 -0.277,-0.512 -0.124,-0.229 -0.132,-0.333 -0.213,-0.549 -0.063,0.522 0.042,0.587 0.242,0.939 0.118,0.207 0.266,0.593 0.508,0.713 0.097,-0.458 0.283,-1.749 -0.223,-2.09zm-1.271 6.016c0.146,0.378 0.39,0.849 0.732,1.028 -0.035,-0.349 -0.114,-0.555 -0.098,-0.944 0.015,-0.376 0.066,-0.515 0.02,-0.915 -0.086,0.147 -0.04,0.096 -0.086,0.291 -0.012,0.052 -0.031,0.116 -0.036,0.135l-0.021 0.084c-0.037,0.197 -0.047,0.429 -0.069,0.631 -0.344,-0.46 -0.499,-1.013 -0.319,-1.709 -0.43,0.284 -0.289,0.97 -0.123,1.399zm0.177 -2.523c-0.093,0.39 -0.071,0.344 -0.253,0.682 -0.073,0.135 -0.207,0.481 -0.287,0.603 -0.206,-0.298 -0.231,-1.295 0.251,-1.838 -0.957,0.328 -0.6,2.261 -0.26,2.652 0.124,-0.168 0.094,-0.571 0.304,-1.037 0.181,-0.404 0.313,-0.506 0.245,-1.062zm0.325 -3.861c-0.805,0.062 -1.385,1.252 -1.38,2.186 0.187,-0.087 0.518,-0.509 0.756,-0.706 0.314,-0.26 0.55,-0.278 0.66,-0.742l-1.033 0.774c0.158,-0.709 0.419,-1.072 0.923,-1.454l0.074 -0.058zm-0.301 2.217c-0.164,0.419 -0.594,0.776 -0.848,1.097 -0.093,-0.22 0.071,-0.78 0.178,-1.025 0.129,-0.294 0.28,-0.563 0.541,-0.675 -0.867,-0.006 -1.173,1.585 -0.973,2.448 0.195,-0.138 0.419,-0.657 0.62,-0.897 0.204,-0.244 0.469,-0.481 0.482,-0.948z"/>
   <path class="fil3" d="M16.837 18.28c0.578,0.128 1.717,-0.447 1.717,-0.447 0.093,-0.265 0.152,-0.283 0.251,-0.521 0.184,-0.445 0.302,-1.094 0.718,-1.646 1.428,-1.495 8.025,3.417 1.91,7.771 -0.394,0.28 -1.431,0.589 -1.972,0.08l-0.235 -0.185 -0.16 -0.207 -0.056 -0.167 -0.031 0.011c-0.023,-0.792 -1.011,-2.143 -1.459,-1.094 -1.71,3.839 -2.951,-3.384 -1.348,-4.307 0.403,-0.233 0.072,0.519 0.665,0.712z"/>
   <path class="fil4" d="M11.112 9.944c-0.605,0 -1.1,-0.452 -1.141,-1.025l0.193 0.124c0.165,-0.071 0.296,-0.181 0.533,-0.27 0.313,-0.118 0.365,-0.039 0.43,-0.377l-0.463 0.051c0.136,-0.105 0.161,-0.097 0.354,-0.119 0.204,-0.023 0.201,0.014 0.295,-0.129 -0.22,-0.243 -0.478,-0.075 -0.709,-0.189 0.12,-0.086 0.111,-0.054 0.415,-0.049 -0.08,-0.134 -0.056,-0.042 -0.143,-0.189 0.199,0.085 0.28,0.169 0.492,0.263 0.657,0.291 0.446,0.571 0.702,0.421 0.051,-0.029 0.061,-0.086 0.038,-0.155 0.094,0.16 0.147,0.344 0.147,0.541 0,0.608 -0.512,1.102 -1.143,1.102zm1.047 10.687c0.051,-0.14 0.533,-0.652 0.701,-0.7 0.057,0.25 0.028,0.61 0.175,1.243 0.054,0.236 0.007,0.147 -0.036,0.341 -0.133,-0.086 -0.02,-0.022 -0.088,-0.083 -0.268,-0.237 -0.527,-0.384 -0.752,-0.801zm2.034 -0.817l0.252 -0.024 -0.196 0.147c-0.011,0.006 -0.026,0.013 -0.034,0.018 -0.009,0.005 -0.025,0.011 -0.036,0.018 0.418,-0.104 0.313,-0.036 0.394,-0.231 0.005,-0.012 0.012,-0.029 0.017,-0.039 0.004,-0.01 0.01,-0.027 0.017,-0.039 0.009,0.456 0.142,0.873 0.2,1.271l-0.215 -1.564c0.309,0.142 0.958,0.646 0.938,0.888 -0.008,0.097 -0.492,1.186 -0.568,1.313 -0.008,-0.007 -0.017,-0.031 -0.019,-0.025 -0.003,0.007 -0.016,-0.02 -0.018,-0.025 -0.135,-0.247 0.012,-0.104 -0.139,-0.26 -0.02,0.499 0.009,0.602 -0.247,1.004 -0.298,0.469 -0.255,0.339 -0.455,0.303 -0.313,-0.056 -0.067,-0.229 -0.431,-0.453 -0.438,-0.27 -0.712,-1.254 -0.649,-1.743l-0.062 -0.321c-0.026,-0.372 -0.097,-0.426 0.688,-0.621 0.535,-0.134 0.37,-0.131 0.84,-0.096 -0.011,0.014 -0.024,0.029 -0.035,0.041l-0.068 0.07c-0.241,0.202 -0.528,0.131 -0.702,0.102 -0.002,0.008 0,0.021 0,0.024l-0.065 0.139c0.442,0.066 0.3,-0.067 0.529,-0.143l0.162 -0.01c0,0.013 -0.005,0.031 -0.008,0.039 -0.11,0.296 -0.13,0.102 -0.136,0.099 0.001,0 0.183,-0.16 0.368,0.04 -0.082,0.031 -0.238,0.083 -0.322,0.078zm-10.011 -0.656c0.01,-0.007 0.016,-0.024 0.021,-0.03l0.098 -0.088c0,0 0.09,-0.018 0.095,-0.02 0.01,-0.003 0.079,-0.033 0.093,-0.039 -0.076,0.138 -0.028,0.055 -0.084,0.124l-0.065 0.051c0.164,0.025 0.105,-0.077 0.214,0.257l0.023 0.16c0.018,0.075 0.025,0.033 0.056,0.156 -0.233,0.01 -0.117,0.004 -0.169,-0.046 -0.028,-0.027 -0.077,-0.165 -0.223,-0.204l-0.037 0.012c0.017,-0.228 0.061,-0.156 -0.149,-0.297 -0.008,-0.005 -0.021,-0.01 -0.029,-0.016 -0.064,-0.048 -0.042,-0.025 -0.072,-0.117l0.228 0.097zm10.265 -0.54c0.154,-0.088 0.23,-0.027 0.334,0.09l0.404 0.363 -0.089 0.152 -0.346 -0.351c-0.03,-0.046 -0.043,-0.096 -0.066,-0.161 -0.175,-0.007 -0.145,0.007 -0.237,-0.093zm-0.813 -0.133c-0.016,-0.081 -0.031,-0.093 -0.033,-0.099 -0.034,-0.068 -0.018,-0.014 -0.025,-0.007l0.255 -0.062c0.188,0.252 -0.023,0.253 0.189,0.464 -0.114,0.11 -0.024,-0.011 -0.251,0.116 0.107,0.1 0.055,0.122 0.194,0.252 -0.295,-0.01 -0.198,-0.113 -0.339,-0.352 -0.077,-0.065 0.053,-0.139 -0.087,0.107 -0.161,-0.567 -0.043,-0.235 -0.074,-0.486 0.113,0.073 0.028,0.035 0.171,0.067zm0.573 -0.008c-0.146,-0.015 -0.242,-0.08 -0.256,-0.234 0.033,-0.013 0.033,-0.026 0.101,-0.016 0.104,0.017 -0.029,-0.012 0.097,0.042 0.135,0.058 0.252,0.109 0.227,0.485 -0.015,0.227 -0.005,0.074 -0.093,0.248l-0.037 0.058c-0.105,-0.135 -0.02,-0.043 -0.119,-0.113l0.053 -0.171c0.02,-0.056 0.029,-0.079 0.043,-0.124l-0.109 -0.034c0.006,-0.009 0.014,-0.021 0.017,-0.026l0.056 -0.085c0.003,-0.016 0.013,-0.02 0.02,-0.03zm0.696 -0.422c0.08,-0.031 0.73,-0.539 1.58,-0.702 0.257,0.465 0.217,1.652 -0.043,2.07 -0.02,0.007 -0.082,0.001 -0.089,0.002 -0.115,0.026 0.108,-0.086 -0.046,0.023 -0.227,0.161 -0.333,-0.077 -0.504,0.188 -0.007,-0.007 -0.015,-0.018 -0.018,-0.022 -0.004,-0.004 -0.014,-0.017 -0.019,-0.021 -0.005,-0.004 -0.015,-0.015 -0.021,-0.019 -0.158,-0.121 -0.513,-0.112 -0.507,-0.41 0.265,0.115 0.619,0.152 0.723,-0.143 0.008,-0.356 -0.979,-0.375 -1.097,-0.582 0.086,-0.127 0.247,-0.125 0.458,-0.179 0.221,-0.057 0.316,-0.072 0.55,-0.069 0,0 -0.245,-0.158 -0.262,-0.241 -0.003,-0.014 -0.01,-0.019 -0.02,-0.025 -0.404,0.141 -0.124,0.024 -0.35,0.033 -0.106,0.003 -0.191,0.087 -0.335,0.097zm-3.975 -0.173c0.377,-0.117 1.108,-0.118 1.417,0.11 -0.176,0.102 -0.421,-0.226 -0.648,0.002 -0.005,-0.009 -0.01,-0.022 -0.012,-0.027l-0.033 -0.105c-0.214,0.203 -0.001,0.085 -0.101,0.207 -0.09,0.109 -0.095,-0.15 -0.128,0.2 0.376,0.108 -0.048,-0.092 0.395,-0.039 -0.151,0.331 -0.283,0.448 -0.295,0.663 0.109,-0.126 0.135,-0.201 0.304,-0.282 0.252,-0.121 1.049,-0.207 1.35,0.007 -0.153,0.131 -0.218,0.079 -0.399,0.135l-0.24 0.062c-0.277,0.021 -0.284,0.141 -0.484,0.348l-0.082 0.101c-0.057,0.134 0.116,0.024 -0.212,0.272 -0.013,0.01 -0.021,0.11 -0.059,0.044 -0.005,-0.009 -0.021,0.014 -0.03,0.022 0.095,0.128 -0.032,0 0.07,0.041 0.127,0.051 0.032,-0.045 0.071,0.035l0.019 0.07c0.069,-0.039 0.062,-0.045 0.161,-0.072l0.252 -0.056c0.11,-0.053 0.037,-0.02 0.112,-0.065 0.226,-0.136 0.259,-0.231 0.401,-0.338 -0.072,0.256 -0.011,0.388 -0.27,0.508 -0.156,0.071 -0.543,0.133 -0.746,0.131 -0.042,-0.057 -0.067,-0.116 -0.099,-0.171 -0.051,0.126 -0.112,0.14 -0.112,0.14 -0.174,0.146 0.048,0.059 -0.125,0.114 -0.129,-0.184 -0.173,-0.328 -0.198,-0.566 -0.008,0.01 -0.011,0.026 -0.014,0.034l-0.035 0.106c-0.005,0.014 -0.018,0.062 -0.021,0.072 -0.002,0.008 -0.01,0.041 -0.011,0.035 -0.002,-0.006 -0.005,0.025 -0.012,0.035 -0.103,-0.328 0.008,-0.517 -0.108,-0.875 -0.082,-0.251 -0.098,-0.597 -0.078,-0.898zm0.584 -1.624l1.048 0.781c0.01,0.009 0.036,0.035 0.045,0.045 0.255,0.247 0.682,0.568 0.958,0.908 -0.327,0.22 -0.633,0.053 -1.002,-0.062l-1.014 -0.273 -0.035 -1.399zm3.057 0.282c0.108,-0.267 0.093,-0.606 0.324,-0.809 0.339,-0.299 0.439,-0.2 0.507,-0.189 0.007,0.001 0.021,0.006 0.028,0.007 0.115,0.007 -0.017,0.027 0.08,-0.015 0.004,-0.002 0.068,-0.059 0.075,-0.065 -0.017,0.226 -0.026,0.373 -0.131,0.509l-0.281 0.345c-0.089,-0.066 -0.038,-0.057 -0.185,-0.05 0.158,-0.328 0.051,0.027 0.049,-0.364 -0.033,0.365 -0.176,0.664 -0.324,0.935l-0.244 -0.062c-0.159,0.342 0.086,-0.02 -0.012,0.27 -0.057,-0.012 0.082,0.117 -0.018,-0.025 -0.004,-0.006 -0.035,-0.035 -0.039,-0.055 -0.003,-0.019 -0.016,-0.024 -0.025,-0.035 -0.026,0.267 -0.034,0.064 -0.14,0.326l-0.18 -0.146c0.009,0.15 0.019,0.485 -0.165,0.5 -0.004,-0.012 0.031,-0.052 -0.076,-0.141 -0.106,-0.087 -0.027,0.041 -0.03,-0.061 -0.004,-0.152 0.082,-0.025 -0.292,-0.228l0.026 -0.102c0.016,-0.046 0.009,-0.025 0.029,-0.07 0.004,-0.007 0.01,-0.019 0.013,-0.026l0.03 -0.059c0.153,-0.308 0.194,-0.136 0.39,-0.344 0.102,0.135 0.011,0.07 0.201,0.125 0.047,-0.293 0.116,-0.453 0.325,-0.549 -0.006,0.072 -0.018,0.147 -0.004,0.22 0.025,0.135 0.005,0.079 0.069,0.158zm-3.223 0.617l-0.031 0.046c-0.068,0.127 0.04,0.075 -0.066,0.229 -0.701,-0.185 -1.073,-0.299 -1.11,-0.825 -0.021,-0.308 -0.054,-0.634 -0.041,-0.943 0.011,-0.277 0.03,-0.156 0.112,-0.365 0.053,-0.135 -0.032,-0.054 0,-0.316l0.318 0.507c0.037,0.038 0.098,0.086 0.14,0.123 0.008,-0.015 0.011,0 0.01,-0.078 0,-0.006 -0.001,-0.02 -0.002,-0.027l-0.008 -0.133c0.162,0.105 0.034,0 0.139,0.152 0.048,0.069 0.046,0.072 0.091,0.133 0.389,0.517 0.409,0.372 0.478,0.907 0.004,0.028 0.161,0.227 -0.03,0.59zm0.62 -2.246c-0.145,0.041 -0.054,-0.021 -0.139,0.155 -0.15,0.309 -0.085,0.367 -0.033,0.699l-0.234 -0.151c-0.659,-0.287 -0.287,-0.594 -0.457,-0.898 -0.005,-0.009 -0.035,-0.061 -0.037,-0.067 -0.066,-0.17 -0.07,-0.382 0.023,-0.528 0.009,0 0.019,0.012 0.023,0.014l0.074 0.049c0.114,0.023 0.013,-0.086 0.302,-0.243 0.002,0.093 -0.023,0.211 0.009,0.276 0.102,0.204 0.044,-0.055 0.211,0.012 0.08,0.033 0.047,0.129 0.011,0.229 0.017,0.004 -0.033,0.021 0.109,-0.034 0.013,0.145 -0.003,0.156 0.058,0.257 0.112,-0.076 0.119,-0.079 0.188,-0.3 0.032,0.039 0.078,0.07 0.103,0.187 0.044,0.203 -0.08,0.024 -0.211,0.343zm-1.433 -0.789c0.049,-0.209 0.041,-0.104 0.122,-0.297l0.14 -0.353c0.112,0.175 -0.167,0.192 0.045,0.494 -0.023,0.001 -0.096,-0.023 -0.158,-0.048 0,0.177 0.01,0.119 0.057,0.145 0.004,0.002 0.111,0.044 0.134,0.056 0.047,0.207 0.114,0.516 0.082,0.718l-0.074 -0.056c-0.114,-0.08 -0.185,-0.137 -0.195,-0.35 0.019,0.252 -0.011,0.216 -0.08,0.283l0.074 -0.596c-0.007,0.012 -0.015,0.028 -0.019,0.037 -0.005,0.01 -0.014,0.025 -0.019,0.037 -0.005,0.013 -0.022,0.058 -0.028,0.071 -0.015,0.041 -0.029,0.095 -0.05,0.146 -0.091,-0.082 -0.017,-0.025 -0.146,-0.085 -0.012,-0.104 -0.02,-0.187 0.019,-0.291 0.047,-0.122 0.043,0.148 0.075,0.051 0.004,-0.01 0.013,0.026 0.021,0.038zm-0.923 -2.811c0.004,0.009 0.009,0.022 0.013,0.031 0.005,0.009 0.011,0.02 0.016,0.028 0.083,0.143 0.112,0.103 0.129,0.328 -0.317,-0.022 -0.327,-0.383 -0.287,-0.618l0.129 0.231zm2.235 -0.521c0.045,-0.085 0.101,-0.324 0.379,-0.427l0.024 0.382c-0.01,0.008 -0.024,0.017 -0.031,0.022l-0.252 0.137 -0.12 -0.114zm-2.627 -0.358c0.063,-0.346 0.063,-0.212 0.197,-0.373 0.064,0.295 0.052,0.257 0.055,0.539 -0.152,-0.079 -0.111,-0.097 -0.129,-0.11l-0.123 -0.056zm1.097 0.045c0.182,-0.236 0.172,-0.348 0.212,-0.397 0.06,0.043 -0.031,-0.006 0.089,0.054 0.247,0.124 0.091,-0.041 0.46,0l0.164 0.022c0.249,0.032 -0.239,-0.027 0.084,0.023 0.103,0.016 0.356,-0.114 0.567,0.054 0.017,0.147 -0.082,0.107 -0.172,0.271 -0.065,0.117 -0.064,0.236 -0.331,0.651 -0.083,0.129 -0.073,0.168 -0.152,0.293 -0.089,-0.111 -0.016,-0.167 -0.094,-0.279 -0.039,0.159 -0.281,0.323 -0.44,0.379l0.107 -0.616c0.034,-0.095 0.052,0.04 0.053,-0.152 -0.014,0.077 -0.118,0.066 -0.184,0.168 -0.043,-0.142 -0.044,-0.112 -0.165,-0.21 -0.221,-0.179 0.016,0.02 -0.078,-0.15l-0.025 -0.036c-0.076,-0.095 -0.038,-0.063 -0.095,-0.075zm7.821 -0.299c-0.027,0.118 -0.078,0.141 -0.163,0.186 0.005,-0.006 0.007,-0.018 0.008,-0.022 0.157,-0.558 -0.104,-0.205 0.251,-0.47l-0.215 -0.375c0.109,-0.14 0.109,-0.119 0.255,-0.211 0.231,0.253 0.262,0.549 0.21,0.87 -0.056,0.348 0.066,0.589 -0.296,1.037l-0.193 0.19c0.107,-0.524 0.271,-0.477 0.388,-0.84l-0.187 0.173c-0.492,0.501 -0.082,1.262 -0.861,1.218 -0.031,-0.036 -0.041,-0.057 -0.068,-0.094 -0.111,-0.154 0.113,0.156 -0.037,-0.051 -0.135,-0.187 -0.124,-0.046 -0.004,-0.623l0.172 -0.059c0.002,-0.008 0.014,-0.004 0.021,-0.008 -0.137,-0.243 -0.114,-0.236 -0.03,-0.529 0.044,-0.157 0.015,-0.29 0.091,-0.499l0.069 0.234 0.144 -0.338c0.423,0.377 -0.055,0.547 -0.232,0.674 -0.059,0.619 0.401,0.199 0.575,0.038 0.113,-0.104 0.027,-0.011 0.127,-0.261l0.062 -0.337c-0.017,-0.111 -0.015,-0.069 -0.04,-0.104 -0.197,0.083 0.003,-0.018 -0.047,0.201zm-3.698 -1.129c0.169,0.002 0.229,0.066 0.273,0.221 -0.214,-0.014 -0.255,-0.015 -0.273,-0.221zm-0.191 1.201c-0.138,0.059 -0.053,0.126 -0.011,0.274l-0.27 -0.151c0.097,0.323 0.499,0.328 0.101,0.77l-0.026 -0.062c-0.068,-0.129 -0.153,-0.196 -0.375,-0.189 -0.212,0.006 -0.224,0.109 -0.375,0.133 -0.374,0.059 -0.751,0.027 -0.825,-0.372 -0.031,-0.164 0.004,-0.044 -0.132,-0.087l0.016 -0.135c0.023,-0.509 0.025,0.007 0.161,-0.396 0.119,-0.354 -0.035,-1.647 0.716,-1.227 0.159,0.088 0.218,0.387 0.325,0.697 0.23,0.068 0.033,0.061 0.192,-0.058 0.005,0.153 0.037,0.308 0.194,0.353 0.112,0.032 0.026,0.016 0.111,-0.02 0,0.034 -0.013,0.171 -0.012,0.174l0.033 0.11c0.077,0.163 0.063,0.038 0.177,0.186zm0.745 -0.989c0.061,-0.321 0.11,-0.246 0.407,-0.358 0.225,-0.084 0.349,-0.188 0.506,-0.256l0.204 0.131c0.024,0.464 -0.175,0.817 -0.469,0.988 -0.902,0.523 -1.81,-0.406 -1.544,-0.562 0.243,-0.142 0.043,0.123 0.667,0.4 0.201,0.088 0.278,0.168 0.466,0.25 -0.082,-0.14 -0.06,-0.053 -0.135,-0.18 0.288,0.005 0.28,0.035 0.394,-0.047 -0.22,-0.108 -0.464,0.051 -0.674,-0.179 0.09,-0.135 0.088,-0.1 0.28,-0.122 0.184,-0.021 0.207,-0.014 0.337,-0.114l-0.439 0.049zm-5.676 0.148c-0.037,0.127 -0.065,0.011 -0.011,0.152 -0.161,0.021 -0.208,-0.055 -0.315,-0.133 -0.089,-0.065 -0.193,-0.135 -0.288,-0.206 -0.223,-0.168 -0.308,-0.303 -0.618,-0.214 0.042,-0.143 0.007,-0.024 0.058,-0.127l0.03 -0.06c0.184,-0.349 0.659,-0.022 0.7,0.135l-0.344 0.005c0.162,0.108 0.275,0.241 0.44,0.353l0.151 -0.063c0.062,0.108 0.127,0.119 0.197,0.158zm8.425 -0.259c0.006,-0.01 0.012,-0.024 0.016,-0.031 0.092,-0.176 0.054,-0.142 0.171,-0.237 0.19,-0.155 0.523,-0.5 0.86,-0.173 0.373,0.363 -0.053,0.965 -0.142,1.357 -0.056,-0.088 -0.046,-0.005 -0.04,-0.15 0,0 0.266,-0.607 0.127,-1.018 -0.369,-0.041 -0.484,0.393 -0.908,0.475l-0.029 -0.148c-0.068,-0.155 0.014,0.13 -0.055,-0.075zm-7.111 -1.551c1.845,-0.397 2.319,1.992 0.816,2.356 -1.635,0.396 -2.478,-1.999 -0.816,-2.356zm-1.39 0.91c0.119,-0.061 0.292,-0.09 0.389,-0.045 -0.077,0.131 -0.107,0.119 -0.186,0.173l0.073 0.083c0.041,0.042 0.022,0.02 0.06,0.056 -0.217,-0.045 -0.319,-0.052 -0.336,-0.267zm6.885 4.5c-0.22,0.156 -0.012,0.026 0.056,0.18l-0.24 -0.095c0.118,0.148 0.165,0.16 0.305,0.255 -0.077,0.059 -0.083,0.041 -0.059,0.099 -0.127,0 -0.055,0.033 -0.132,-0.069 -0.099,0.107 -0.006,-0.02 -0.053,0.083 -0.002,0.005 -0.006,0.02 -0.007,0.024l-0.004 0.043c-0.259,-0.136 0.198,0.135 -0.102,-0.084 -0.067,-0.049 -0.01,-0.012 -0.085,-0.055 -0.113,-0.065 -0.41,-0.261 -0.433,-0.348 -0.005,-0.017 -0.019,-0.018 -0.033,-0.026l0.156 0.396c-0.387,-0.311 -0.237,-0.559 -0.479,-0.733l0.149 0.505c-0.015,-0.019 -0.113,-0.141 -0.144,-0.172l-0.461 -0.559c-0.043,0.085 0.013,0.086 -0.051,0.174l-0.169 -0.224c0.33,0.837 0.247,0.439 0.48,0.905 -0.195,-0.147 -0.217,-0.28 -0.335,-0.431l-0.415 -0.29 0.083 0.241c-0.022,-0.007 -0.128,-0.043 -0.132,-0.045 -0.214,-0.062 -0.271,-0.012 -0.37,-0.234l-0.275 -0.537c0.004,0.248 0.172,0.461 0.245,0.668 -0.301,-0.169 -0.005,-0.042 -0.246,-0.215 -0.072,-0.052 -0.037,-0.016 -0.082,-0.049l-0.186 -0.176 0.02 0.272c-0.112,-0.295 -0.224,-0.333 -0.207,-0.786 0.124,0.081 0.015,0.023 0.077,0.076 0.123,0.106 -0.069,0.037 0.048,0.03 0.014,-0.135 0.021,-0.323 0.082,-0.417 0.013,-0.019 0.205,-0.173 0.225,-0.177l0.257 0.059c0.011,0.004 0.022,0.009 0.034,0.013 0.303,0.115 0.098,0.026 0.318,0.179l-0.008 -0.143 0.135 -0.028c0.005,-0.007 0.015,-0.015 0.018,-0.018l0.036 -0.038c0.005,-0.006 0.015,-0.015 0.02,-0.021 0.149,-0.167 0.168,-0.28 0.191,-0.524 0.151,0.077 0.264,0.275 0.448,0.237 0.064,-0.282 -0.378,-0.356 -0.553,-0.704l0.256 0.027 -0.258 -0.16c-0.06,-0.052 -0.1,-0.089 -0.121,-0.217 0.227,0.08 0.268,0.199 0.614,0.231 0.095,0.01 0.261,0.018 0.355,0.015l0.335 0.024c-0.395,0.19 -0.354,0.097 -0.554,0.128l-0.126 0.04c-0.009,-0.012 -0.028,0.011 -0.04,0.02 0.89,-0.018 0.861,-0.112 1.088,-0.39 0.133,-0.165 0.25,-0.218 0.356,-0.404 0.088,-0.154 0.171,-0.367 0.209,-0.568 0.336,0.065 0.215,0 0.263,-0.112 0.065,-0.15 0.779,-0.498 0.953,-0.483 -0.002,0.002 -0.045,-0.085 -0.022,0.108 0.014,0.125 0.089,0.154 0.114,0.168 0.003,0.002 0.017,0.005 0.02,0.006l0.03 0.273c-0.193,0.106 -0.187,0.158 -0.208,0.446 -0.032,0.459 -0.237,1.14 -0.359,1.657 -0.129,0.545 -0.364,1.742 -0.586,2.087 -0.177,-0.006 -0.328,-0.063 -0.441,-0.137zm-3.422 -4.746c0.266,-0.077 -0.024,-0.215 0.559,-0.201l0.031 0.116c0.002,0.005 0.058,0.069 0.076,0.092 0.089,0.111 0.084,0.114 0.096,0.27l-0.216 0.071c0.019,0.009 0.087,0.036 0.097,0.042 0.08,0.046 0.087,0.074 0.123,0.126 -0.456,-0.113 -0.368,-0.165 -0.856,-0.031 0.158,-0.286 0.26,-0.096 0.503,-0.237l-0.444 -0.014c0.122,-0.179 0.058,0.031 0.078,-0.126 0.012,-0.103 -0.006,-0.026 -0.047,-0.108zm-2.122 -3.823c-0.12,0.068 -0.092,0.128 -0.205,0.33 -0.148,-0.122 -0.087,-0.07 -0.155,-0.198 0.126,-0.217 0.157,-0.114 0.141,-0.28 0.145,0.085 0.051,0.086 0.203,0.033l0.016 0.115zm-1.832 -0.49c0.169,-0.136 0.668,-0.6 1.029,-0.56 -0.009,0.01 -0.02,0.023 -0.027,0.03l-0.049 0.057c-0.27,0.287 -0.484,0.236 -0.817,0.61 -0.039,0.043 -0.085,0.087 -0.11,0.113 -0.177,0.186 -0.331,0.7 -0.395,0.945 -0.179,-0.397 0.246,-0.897 0.369,-1.195zm0 0c-0.3,0.248 -0.46,0.297 -0.578,0.827 -0.053,-0.084 -0.037,0.065 -0.046,-0.157 -0.007,-0.159 0.142,-0.325 0.236,-0.428l0.136 -0.179c-0.427,0.158 -0.621,0.709 -0.302,1.243 0.004,0.008 0.011,0.02 0.016,0.028 0.114,0.19 0.052,0.12 0.109,0.094 0.142,0.457 0.152,0.32 -0.019,0.77 -0.004,-0.009 -0.004,-0.024 -0.005,-0.03l-0.048 -0.221c-0.062,0.216 -0.272,0.499 -0.474,0.581 0.212,-0.006 0.243,-0.066 0.37,-0.142 -0.072,0.126 -0.12,0.157 -0.265,0.18 0.039,0.172 -0.069,0.041 0.071,0.134 0.177,-0.286 0.467,-0.01 0.665,-0.643 0.152,-0.484 -0.084,-1.138 0.28,-1.694 0.098,-0.15 0.228,-0.121 0.364,-0.295 0.154,-0.197 -0.284,0.084 0.106,-0.204 0.114,-0.085 0.301,-0.202 0.441,-0.228l-0.09 0.132c-0.232,0.378 -0.635,0.298 -0.699,1.084 0.292,-0.624 0.218,-0.704 0.846,-0.97 0.119,0.203 -0.065,0.22 -0.202,0.481 0.01,-0.009 0.022,-0.02 0.029,-0.026l0.342 -0.214c-0.059,0.21 -0.433,0.58 -0.465,0.917 -0.045,0.471 0.093,-0.007 -0.085,0.412 -0.072,0.169 -0.006,0.409 -0.255,0.817 -0.043,0.071 0.002,-0.021 0.031,0.04 0.06,0.125 0.032,0.143 -0.01,0.22l0.335 -0.332c-0.037,0.199 -0.117,0.273 -0.232,0.373 0.111,-0.034 0.096,0.008 0.235,-0.051 -0.01,0.088 -0.015,0.194 -0.019,0.212 -0.076,0.357 -0.053,-0.037 -0.04,0.307 0.004,0.079 -0.011,0.125 -0.043,0.199 -0.113,0.263 -0.172,0.246 -0.333,0.756l-0.107 -0.105c-0.001,-0.001 -0.097,-0.112 -0.19,-0.017 -0.085,0.087 -0.135,0.4 -0.182,0.529 -0.05,-0.28 0.081,-0.518 0.126,-0.776 0.044,-0.25 -0.05,-0.129 0.032,-0.368 0.019,-0.058 0.058,-0.119 0.065,-0.162 0.041,-0.223 0.032,-0.07 -0.028,-0.157 -0.058,0.104 -0.141,0.248 -0.186,0.364 -0.079,-0.046 -0.034,-0.008 -0.126,-0.027 -0.026,0.081 -0.023,0.046 -0.047,0.108 -0.003,0.009 -0.008,0.022 -0.011,0.032 -0.129,0.365 -0.34,0.629 -0.272,0.826 0.057,-0.077 0.131,-0.246 0.188,-0.325l0.003 0.159c0.015,0.04 0.076,0.027 0.028,0.081l-0.076 0.037c-0.002,-0.008 -0.017,0.004 -0.025,0.009 0.013,0.051 0.034,0.081 0.038,0.092l0.019 0.057c0.029,0.082 0.008,0.047 0.038,0.095 0.053,0.083 0.083,-0.003 0.109,0.178l-0.485 0.063c-0.244,0.472 0.294,1.325 0.312,1.291 0.004,-0.008 0.018,0.018 0.027,0.027 -0.05,-0.23 -0.068,-0.164 -0.07,-0.381 -0.001,-0.158 -0.063,-0.247 0.056,-0.291 0.084,0.11 0.128,0.615 0.169,0.792 -0.121,0.095 0.055,0.005 -0.068,0.002 -0.116,-0.002 0.071,-0.082 -0.049,-0.002l0.272 0.384c0.194,0.186 -0.056,-0.115 0.058,0.042 0.095,-0.11 0.108,0.162 0.054,-0.224 -0.012,-0.084 -0.044,-0.132 -0.071,-0.205 -0.049,-0.137 -0.081,-0.238 -0.083,-0.39 0.072,-0.017 0.154,-0.04 0.235,-0.073 0.078,-0.031 0.013,-0.048 0.107,-0.05l0.07 0.069c-0.008,0.267 -0.07,0.174 -0.143,0.338 -0.143,0.317 0.115,0.782 0.411,0.886 -0.189,0.079 -0.224,0.038 -0.354,-0.028 0.078,0.182 0.215,0.39 0.31,0.549 -0.058,0.054 -0.015,-0.057 -0.11,0 0.191,0.247 0.24,0.517 0.656,0.493l0.131 0.825c0.002,-0.007 0.009,0.023 0.015,0.034 0.421,-0.167 0.423,-0.338 0.745,-0.562 0.142,-0.098 0.267,-0.306 0.428,-0.421 0.307,-0.22 0.239,-0.12 0.34,-0.132 0.109,-0.014 0.07,-0.022 0.136,-0.058 0.146,-0.078 0.118,-0.078 0.303,-0.096 -0.04,0.045 -0.062,0.061 -0.104,0.108l-0.108 0.14 0.599 -0.239 0.025 0.221c0.129,-0.081 0.321,-0.135 0.498,-0.167 -0.043,0.251 -0.036,0.363 -0.149,0.596 -0.064,0.132 -0.102,0.252 -0.208,0.295 -0.045,-0.137 0.078,-0.117 0.104,-0.371 -0.176,0.111 -0.272,0.233 -0.399,0.385 -0.065,0.078 -0.04,0.029 -0.085,0.088 0.01,-0.098 0.114,-0.247 0.166,-0.388 -0.322,0.078 -0.367,0.51 -0.653,0.426l0.062 -0.14c-0.183,0.048 -0.367,0.209 -0.487,0.351 -0.012,-0.002 -0.026,-0.012 -0.033,-0.014 -0.006,-0.003 -0.023,-0.011 -0.03,-0.014 -0.191,-0.067 -0.277,0.192 -0.452,0.242 0.082,-0.127 0.135,-0.302 0.065,-0.392l-0.284 0.267c0.064,-0.139 0.092,-0.108 0.059,-0.26l-0.121 0.135c-0.001,0.003 -0.001,0.014 -0.002,0.016 -0.094,0.399 -0.71,0.617 -1.019,0.309 0.264,0.087 0.459,0.103 0.712,-0.013 -0.064,-0.033 -0.196,-0.035 -0.215,-0.081 -0.006,-0.014 -0.023,-0.008 -0.033,-0.015 0.162,-0.093 0.372,-0.118 0.466,-0.288 -0.323,0.12 -0.823,0.415 -1.035,0.002 -0.105,0.138 -0.05,0.159 -0.109,0.328l0.069 0.08c0.052,0.072 0.015,-0.007 0.041,0.068 0.055,0.159 -0.056,0.053 0.119,0.215 0.134,0.122 0.003,-0.004 0.059,0.074 0.003,0.004 0.008,0.016 0.011,0.02 0.067,0.086 0.217,0.11 0.399,0.12l0.081 0.011c0.291,0.037 0.035,-0.053 0.148,-0.006 -0.06,0.042 -0.113,0.074 -0.166,0.112 -0.296,0.212 -0.237,0.62 -0.76,1.218 -0.402,0.459 -1.504,1.149 -2.102,1.341 -0.166,0.054 -0.097,0.011 -0.228,0.087 -0.037,0.022 -0.114,0.075 -0.162,0.105 -0.366,0.227 -0.752,0.376 -1.159,0.539 -0.259,0.103 -0.624,0.206 -0.835,0.298 0.01,0.009 0.022,0.021 0.029,0.028 0.007,0.006 0.02,0.019 0.028,0.027l0.099 0.1c0.138,0.125 0.247,0.162 0.36,0.006 0.004,0.006 0.002,0.017 0.002,0.02l0.01 0.039c0.002,0.004 0.008,0.016 0.01,0.019 0.003,0.004 0.012,0.014 0.016,0.018 0.036,0.031 0.115,0.035 0.127,0.034 0.008,0 0.021,-0.003 0.029,-0.004l0.25 -0.082c-0.045,0.101 -0.032,0.08 -0.169,0.116 -0.061,0.016 -0.159,0.03 -0.254,0.034l0.107 0.164c0.001,0.002 0.055,0.056 0.07,0.075 -0.081,0.082 -0.36,0.27 -0.493,0.134 0.086,-0.049 0.071,-0.011 0.15,-0.052 0.08,-0.043 0.043,0.004 0.102,-0.082l-0.239 -0.128c-0.134,-0.087 -0.005,-0.156 -0.265,-0.06l0.039 -0.049c0.039,-0.067 -0.003,0.031 0.023,-0.045 0.044,-0.124 0.052,0.016 -0.006,-0.061 -0.528,-0.075 0.268,0.073 -0.227,0.097 -0.18,0.008 -0.202,-0.077 -0.252,-0.092l-0.25 0.171c0.477,-0.181 0.464,-0.008 0.883,0.101 -0.141,0.122 0.01,0.079 -0.442,0.008 0.081,0.094 0.135,0.081 0.203,0.181 -0.138,0.035 -0.143,0.044 -0.239,0.092 -0.321,0.159 -0.427,-0.067 -0.631,0.098 0.07,0.17 -0.053,-0.018 0.031,0.032 0.003,0.001 0.014,0.009 0.017,0.01 0.003,0.001 0.016,0.005 0.019,0.006 0.002,0 -0.025,-0.041 0.09,-0.003 -0.107,0.234 -0.082,0.085 -0.166,0.158 -0.19,0.164 -0.05,0.08 -0.178,0.205 -0.004,0.004 -0.013,0.012 -0.017,0.016l-0.158 0.132c-0.142,0.072 0.023,-0.042 -0.071,0.025 -0.064,0.129 -0.014,0.046 -0.062,0.158 0.11,-0.058 0.097,-0.223 0.377,-0.049 -0.111,0.239 -0.041,-0.014 -0.19,0.204l0.3 0.192c0,0.002 0.002,0.014 0.002,0.016l-0.024 0.061c0.22,-0.004 -0.075,-0.131 0.183,0 -0.04,0.106 -0.026,0.012 -0.026,0.183l0.229 0.274c0.04,0.051 0.094,0.165 0.132,0.231 0.047,0.081 0.067,0.109 0.098,0.213 0.095,0.311 0.06,0.903 0.301,1.131 -0.071,-0.611 -0.088,-0.045 -0.06,-0.797 0.004,-0.095 -0.047,-0.112 -0.08,-0.325 -0.022,-0.14 0.034,-0.002 0.068,-0.14 0.003,-0.016 0.022,-0.012 0.032,-0.02 -0.135,-0.055 -0.179,-0.138 -0.208,-0.292 0.126,-0.002 0.198,0.002 0.255,0.104 0.038,0.068 0.033,0.054 0.023,0.142l0.135 0.351c-0.053,-0.397 -0.25,-1.059 -0.077,-1.285 0.087,0.099 0.077,0.083 0.236,0.123l-0.245 -0.152c0.067,-0.067 -0.107,-0.062 0.148,-0.053 0.046,0.002 0.096,0.022 0.139,0.042 0.068,0.03 0.143,0.088 0.232,0.129 -0.061,-0.163 -0.158,-0.211 -0.275,-0.295 -0.153,-0.111 -0.226,-0.106 -0.244,-0.259 0.12,-0.091 -0.005,-0.019 0.133,-0.058 0.164,0.132 -0.07,0.189 0.213,0.281l-0.011 -0.076c0,-0.004 0.005,-0.015 0.005,-0.028 0,-0.015 0.002,-0.022 0.006,-0.032 0.054,0.038 0.041,-0.001 0.12,0.091 -0.03,-0.12 0.097,-0.046 -0.041,-0.11 -0.043,-0.116 0.038,0 -0.125,-0.09 -0.167,-0.094 -0.072,0.008 -0.163,-0.133 0.096,-0.103 0.045,-0.073 0.158,-0.034 0.067,0.023 0.024,0.019 0.075,0.033 0.094,0.025 -0.036,0.06 0.071,-0.002 0.004,-0.11 -0.009,-0.033 -0.197,-0.112 0.114,-0.18 -0.001,0.015 0.128,-0.122 0.003,-0.003 0.011,-0.013 0.013,-0.016 0.101,-0.114 -0.026,-0.02 0.059,-0.05 0.003,-0.001 0.015,-0.003 0.018,-0.004 0.004,-0.002 0.018,-0.005 0.022,-0.007l0.114 -0.055c0.094,-0.045 0.046,-0.063 0.145,-0.045 0.038,0.075 0.074,-0.093 0.013,0.11 -0.045,0.147 -0.19,0.148 -0.344,0.118 0.266,0.147 0.331,-0.072 0.471,0.285l0.116 -0.031c0.171,-0.032 0.12,-0.017 0.172,0.01 -0.103,-0.252 -0.152,-0.057 -0.252,-0.302 0.097,-0.138 0.037,0.024 0.212,-0.155l0.443 0.087 -0.426 -0.365 -0.309 0.099 -0.085 -0.158 0.227 0.014c0.114,-0.13 0.034,-0.049 0.081,-0.178 0.112,0.152 0.01,0.172 0.224,0.103l0.006 -0.066c-0.008,-0.095 -0.02,-0.044 -0.064,-0.105 0.003,0.005 -0.101,0 0.101,0.067 0.089,0.029 0.111,0.022 0.169,0.013 0.144,-0.02 0.069,-0.061 0.253,-0.048 -0.175,0.1 -0.214,0.035 -0.213,0.296 0.17,-0.007 0.115,-0.004 0.285,-0.081 0,0 0.206,0.401 0.447,0.052l0.07 0.246c-0.124,0.059 0.02,-0.001 -0.066,-0.002 -0.024,0 -0.01,-0.019 -0.064,0.002 -0.067,0.168 0.077,0.158 -0.171,0.086 0.051,0.172 0.082,0.099 0.069,0.222 -0.013,0.124 -0.086,0.035 -0.061,0.3 0.019,0.206 -0.07,0.076 -0.033,0.37l-0.008 0.119c-0.001,0.004 -0.008,0.016 -0.009,0.019 -0.044,0.107 -0.147,0.238 -0.283,0.307 -0.037,0.149 0.118,0.239 0.179,0.367 -0.06,0.022 -0.085,-0.077 -0.14,0.248 0.014,0.005 0.057,0.011 0.067,0.011 0.006,0.001 0.023,0.002 0.029,0.003l0.035 0.073c-0.119,0.224 -0.199,0.239 -0.277,0.38 0.054,0.026 -0.091,0.033 0.085,0.023 0.093,-0.005 0.039,0.026 0.068,-0.068 0.001,-0.005 0.002,-0.021 0.003,-0.025 0.001,-0.007 -0.003,-0.039 0.004,-0.052 0.108,0.113 0.113,0.172 0.095,0.228 -0.002,0.006 -0.013,0.021 -0.015,0.026l-0.042 0.054c0.266,-0.106 0.112,-0.076 0.192,0.006l-0.141 0.04c0.103,0.056 0.075,0.015 0.114,0.118 0.118,-0.066 0.098,-0.039 0.201,0.048 0.05,-0.169 0.12,-0.165 0.277,-0.084 -0.072,0.155 0.013,0.107 -0.173,0.106l0.149 0.072 -0.154 0.17c-0.186,-0.052 0.032,-0.034 -0.107,0.001 0.089,0.055 0.022,0.025 0.139,0.067l-0.133 0.179c0.35,-0.037 0.179,0.211 -0.182,0.418 0.109,0.081 -0.036,0.04 0.118,0.029 0.01,-0.001 0.112,-0.044 0.124,-0.048 -0.025,0.183 -0.069,0.16 -0.009,0.278 0.07,0.135 0.033,0.09 0.228,0.07 -0.111,0.141 -0.105,0.033 -0.128,0.167l0.234 -0.049c0.011,0.054 0.015,0.1 0.024,0.149 0.003,0.013 0,0.15 0.016,0.076 0.001,-0.006 0.005,0.026 0.008,0.039 -0.234,0 -0.104,0.016 -0.171,0.078 0.215,0.076 0.083,-0.055 0.245,0.082l-0.028 -0.388 0.147 0.099c0.033,0.032 0.007,-0.007 0.056,0.092l0.148 0.266c0.003,0.004 0.008,0.015 0.011,0.019l0.041 0.066c0.053,0.079 0,-0.016 0.059,0.079 0.005,-0.008 0.008,-0.022 0.01,-0.027l0.024 -0.087c0.009,-0.039 -0.002,-0.054 0.024,-0.134 0.179,0.098 0.554,0.736 0.635,0.898 0.074,-0.206 0.04,-0.067 -0.049,-0.27 -0.059,-0.137 -0.024,-0.213 -0.019,-0.227 0.04,-0.117 -0.302,-0.446 -0.404,-0.602 -0.071,-0.108 -0.126,-0.202 -0.208,-0.286 -0.137,-0.142 -0.149,-0.087 -0.196,-0.309 0.022,-0.126 0.964,-0.862 1.175,-1.031 0.096,-0.077 0.317,-0.264 0.38,-0.344 -0.401,0.047 0.122,0.178 -1.04,-0.016 -0.199,-0.034 -0.368,-0.066 -0.564,-0.115 -0.069,-0.017 -0.169,-0.034 -0.248,-0.062 -0.218,-0.079 -0.114,-0.017 -0.186,-0.145 -0.119,-0.24 0.156,-1.184 0.242,-1.543 0.018,-0.079 0.047,-0.176 0.06,-0.256 0.01,-0.06 0.011,-0.057 0.012,-0.115 0.008,-0.363 -0.09,0.036 0.027,-0.161 0.082,-0.138 0.11,-0.466 0.199,-0.737l0.044 -0.135c0.004,-0.009 0.009,-0.021 0.013,-0.03l0.124 -0.192 -0.003 0.767 0.256 0.047c0.091,-0.008 0.227,-0.045 0.335,-0.003 0.006,0.302 0.031,0.041 -0.08,0.158l-0.093 0.088c0.042,-0.012 0.093,-0.019 0.161,-0.031 0.06,-0.01 0.073,-0.013 0.104,-0.014 0.008,0 0.022,0.001 0.029,0.002l0.113 0.02c0.369,0.007 0.374,0.081 0.44,0.08 0.074,-0.001 0.045,-0.09 0.271,-0.053l-0.017 -0.205c0.053,-0.055 0.003,-0.11 0.233,-0.12l-0.068 -0.197c0.011,0.007 0.025,0.019 0.033,0.023 0.006,0.004 0.023,0.016 0.03,0.019 0.01,0.005 0.041,0.019 0.05,0.02 0.005,0.001 0.018,-0.002 0.022,-0.002 0.005,0 0.019,-0.008 0.022,-0.008 0.006,-0.002 0.031,-0.023 0.044,-0.03 0.037,0.064 0.016,0.005 0.112,0.048 -0.016,-0.195 0.003,-0.077 0.019,-0.214 0.021,-0.185 0,-0.118 0.062,-0.178l0.071 0.339c0.005,-0.01 0.007,-0.026 0.008,-0.033l0.037 -0.256 0.715 2.23c-0.301,-0.179 -0.209,-0.014 -0.418,-0.084 -0.1,0.099 -0.03,0.002 -0.019,0.123 0.282,-0.065 0.197,0.001 0.244,0.006 0.111,0.012 0.022,-0.027 0.201,-0.051 0.068,0.457 0.464,1.625 0.632,2.196 0.054,0.181 0.105,0.454 0.216,0.606l-0.21 -0.948c0.192,-0.167 0.103,-0.098 0.25,-0.29 0.057,0.115 0.123,0.165 0.066,0.317 0.163,-0.043 0.006,0.02 0.104,-0.091 0.152,-0.171 0.085,-0.141 0.087,-0.259l0.109 0.077c0.065,0.19 -0.01,0.159 0.145,0.219 -0.031,-0.185 -0.11,-0.352 -0.188,-0.476 -0.083,-0.132 0.004,-0.17 0.041,-0.202 0.044,0.082 0.094,0.187 0.129,0.251 0.095,0.174 -0.026,-0.015 0.149,0.126 0.509,0.41 1.038,0.939 1.451,1.453 0.082,0.102 0.277,0.262 0.238,0.404 -0.045,0.165 -0.44,0.579 -0.517,0.952l0.254 -0.323c0.373,-0.526 0.759,-1.008 1.085,-1.556l0.296 -0.513c0.085,-0.084 -0.054,-0.046 0.165,-0.058 -0.106,-0.092 -0.042,-0.171 -0.023,-0.225l0.245 -0.527c-0.018,0.067 -0.05,0.172 -0.06,0.264 -0.001,0.008 -0.003,0.087 -0.002,0.103 0.001,0.008 0.005,0.021 0.006,0.029l-0.013 0.279c-0.002,0.211 -0.091,0.217 -0.124,0.419l-0.021 0.613c-0.067,0.322 -0.373,0.505 -0.514,0.824l0.546 -0.525c0.133,-0.159 0.16,-0.302 0.358,-0.405l-0.244 0.462c0.005,0.001 0.013,0 0.015,0l0.121 0.013c-0.122,0.566 -0.436,1.039 -0.565,1.575 0.139,-0.161 0.193,-0.373 0.275,-0.57 0.08,-0.191 0.143,-0.353 0.223,-0.537 0.483,-1.119 0.71,-2.363 1.095,-3.514 0.16,-0.476 0.328,-2.109 0.378,-2.713 0.041,-0.484 0.049,-1.048 0.002,-1.527 -0.023,-0.239 -0.036,-0.449 -0.079,-0.682l-0.113 -0.473c-0.08,-0.195 -0.015,-0.059 -0.088,-0.145 -0.037,0.5 -0.069,1.058 -0.077,1.595 -0.008,0.604 0.134,1.16 -0.302,1.341 -0.542,0.225 -1.212,0.467 -1.691,0.816 -0.279,0.204 -0.309,0.037 -0.511,-0.061 0.067,-0.096 0.107,-0.172 0.166,-0.24l1.112 -1.437c0.444,-0.616 0.817,-0.913 1.124,-1.835 -0.111,0.041 -0.197,0.155 -0.256,0.242l-0.074 -0.045c-0.103,-0.058 0.025,-0.099 -0.145,0.089 -0.156,0.173 -0.019,0.023 -0.107,0.045 -0.144,0.035 -0.026,0.094 -0.249,0.197 -0.411,0.191 -0.129,0.11 -0.399,0.34 -0.045,-0.031 -0.043,-0.027 -0.094,-0.078l-0.086 -0.098c-0.039,0.111 -0.093,0.174 -0.16,0.256l-0.549 0.575c0.062,-0.16 0.088,-0.101 0.148,-0.298 -0.236,0.108 -0.027,-0.005 -0.175,0.135 -0.11,0.103 0.009,0.032 -0.093,0.081 0,0 0.113,-0.114 0.025,-0.266 -0.166,0.103 -0.265,0.396 -0.476,0.513 -0.506,0.281 -0.047,-0.034 -0.537,0.331l0.112 -0.469 -0.098 -0.124 -0.132 0.434c-0.069,-0.164 -0.103,-0.315 -0.227,-0.463l0.016 0.301c-0.242,-0.41 -0.053,-0.732 -0.167,-1.106 -0.015,0.196 -0.117,0.328 -0.156,0.457 -0.066,0.212 0.075,0.281 0.088,0.501l-0.108 -0.001c-0.002,-0.007 -0.015,-0.001 -0.022,0.001 0.061,0.166 0.041,0.136 0.135,0.271l-0.244 -0.251c-0.031,-0.037 -0.011,0.106 -0.049,-0.053 -0.004,-0.017 -0.017,-0.018 -0.026,-0.026 0.016,0.156 0.016,0.196 0.046,0.312 -0.662,-0.164 -0.688,-0.692 -0.525,-1.276 0.237,-0.156 -0.06,-0.146 0.079,-0.007l-0.052 0.329c0.065,-0.066 0.033,-0.023 0.086,-0.125 0.017,-0.033 0.035,-0.093 0.049,-0.131l0.346 -0.592c0.029,-0.043 0.034,-0.059 0.074,-0.106 0.045,-0.053 0.019,-0.019 0.057,-0.053 0.223,-0.203 -0.009,-0.103 0.136,-0.585 -0.01,0.01 -0.021,0.024 -0.028,0.03l-0.147 0.067c-0.414,-0.509 0.481,-0.68 0.758,-0.455 0.348,0.282 -0.109,0 0.117,0.115l0.026 -0.264c-0.041,-0.062 -0.086,-0.064 -0.198,-0.076 -0.335,-0.037 -0.726,-0.03 -0.991,0.096 -0.001,-0.005 0.003,-0.012 0.003,-0.014 0.001,-0.001 0.003,-0.012 0.003,-0.014l-0.08 -0.216 0.721 -0.002c-0.025,0.003 -0.018,0.035 -0.095,-0.019 -0.135,-0.093 -0.047,0.04 -0.026,-0.061 0.456,-0.084 0.336,0.044 0.64,0.115 0.137,0.032 0.185,-0.002 0.331,0.071 -0.102,0.074 -0.127,0.002 -0.249,0.133 0.03,0.068 0.005,0.044 0.01,0.074 0.002,0.006 0.005,0.02 0.007,0.027 0.049,0.225 0.062,0.106 0.028,0.314 0.187,-0.155 0.13,-0.055 0.183,-0.263 0.122,-0.003 0.076,-0.011 0.157,0.002l0.131 0.039c-0.004,0.012 -0.014,0.026 -0.018,0.034l-0.077 0.19 0.172 0.134c0.085,0.109 0.026,0.187 0.103,0.268 -0.109,0.039 -0.02,-0.078 -0.222,0.155 -0.023,-0.139 0.029,-0.058 -0.03,-0.148 -0.095,0.076 -0.201,0.153 -0.213,0.306 0.202,0.156 0.449,0.028 0.586,-0.038l0.147 0.367c-0.006,-0.256 -0.101,-0.811 0.33,-0.546l0.126 -0.348c0.081,0.196 -0.01,-0.016 -0.012,0.212 -0.001,0.17 0.214,0.542 0.297,0.706l-0.168 -0.738c0.107,0.14 0.104,0.233 0.174,0.337 0.086,0.127 0.024,0.045 0.103,0.108 -0.065,-0.237 -0.179,-0.423 -0.227,-0.578 0.306,0.137 0.014,0.136 0.284,0.386 0.154,0.144 0.042,-0.151 0.222,0.372l0.104 -0.227 0.196 0.136c-0.043,-0.283 -0.261,-0.493 -0.259,-0.704 0.133,0.037 0.093,0.096 0.219,0.115 0.018,0.002 0.165,0.001 0.243,0.016l-0.033 0.422c0.006,0.095 -0.002,0.047 0.026,0.1 0.106,-0.38 0.799,-0.805 0.844,-0.83 0.13,-0.102 0.098,-0.039 0.099,-0.232l-0.442 0.082c0.108,-0.105 0.262,-0.11 0.415,-0.177 0.245,-0.107 0.15,-0.111 0.219,-0.396 -0.162,0.081 -0.067,0.031 -0.193,0.155 -0.075,0.074 -0.04,0.07 -0.148,0.113 0.065,-0.073 0.133,-0.169 0.172,-0.296 -0.056,0.045 -0.028,0.022 -0.079,0.073 -0.121,0.12 -0.075,0.124 -0.276,0.181l0.304 -1.042c0.737,0.033 0.655,0.001 1.038,-0.483 0.294,-0.371 0.38,-0.529 0.513,-1.101 0.115,-0.493 0.616,-0.976 0.433,-1.535 -0.047,-0.142 -0.121,-0.192 -0.151,-0.252 -0.056,-0.109 0.021,-0.457 0.036,-0.665 -0.108,-0.043 -0.115,-0.028 -0.242,-0.1l0.117 0.144c0.065,0.113 0.059,0.018 0.041,0.173 -0.01,0.081 -0.091,0.211 -0.142,0.274 0.027,-0.498 0.015,-0.178 -0.071,-0.459 -0.038,-0.122 -0.006,-0.266 -0.051,-0.396 -0.029,-0.083 -0.023,-0.058 -0.055,-0.099 -0.082,0.167 0.072,0.199 -0.011,0.578 -0.029,0.133 0.046,0.035 0.032,0.264 -0.02,-0.045 -0.189,-0.223 -0.267,-0.356l-0.258 -0.418c-0.248,-0.246 -0.411,-0.597 -0.333,-0.992 -0.008,0.009 -0.016,0.023 -0.02,0.03l-0.072 0.121c-0.005,0.009 -0.011,0.021 -0.016,0.03 -0.035,0.067 -0.051,0.115 -0.075,0.169 -0.071,-0.525 -0.122,-0.079 -0.123,-0.993 -0.12,0.107 -0.106,0.192 -0.096,0.376 0.004,0.07 -0.057,0.103 -0.101,0.088 -0.071,-0.18 0.015,-0.336 -0.141,-0.471 -0.001,0.335 -0.079,0.884 0.158,1.173 -0.027,-0.254 -0.122,-0.399 -0.079,-0.633l0.348 0.899c0.122,0.202 0.174,0.003 0.278,0.301l-0.13 0.161c-0.039,-0.12 -0.081,-0.196 -0.161,-0.276 0.281,0.596 0.092,0.599 -0.756,0.881 -0.038,-0.067 -0.065,-0.056 -0.03,-0.152 0.049,-0.137 -0.022,0.124 0.086,-0.093 0.015,-0.185 -0.257,-0.466 -0.38,-0.556l-0.09 0.309c-0.14,-0.085 -0.225,-0.097 -0.392,-0.171 -0.105,-0.047 -0.245,-0.113 -0.357,-0.178 -0.261,-0.153 -0.119,-0.134 -0.396,-0.073 -0.218,0.047 -0.252,0.004 -0.464,-0.023 -0.106,-0.185 0.051,0.056 -0.001,-0.099 -0.219,0.024 -0.538,0.021 -0.618,0.135l-0.053 -0.13c-0.063,0.044 -0.11,0.097 -0.144,0.15l-0.108 0.188c0.002,0.001 0.082,-0.046 0.145,0.101 -0.164,0.047 -0.168,-0.023 -0.257,0.044 0.061,0.032 0.089,0.041 0.133,0.089 0.051,0.057 0.039,0.011 0.056,0.112 0.101,-0.156 0.074,-0.074 0.244,-0.139 0.444,-0.171 0.715,-0.577 1.53,-0.194 0.654,0.307 0.895,1.144 0.555,1.576 0.075,-0.329 0.178,-0.553 0.021,-0.9 -0.351,-0.778 -1.557,-0.963 -2.086,-0.375 -0.378,0.421 -0.329,1.121 0.044,1.522 0.505,0.544 0.941,0.451 1.555,0.278 -0.592,0.475 -1.593,0.182 -1.896,-0.83 -0.103,-0.343 -0.04,-0.054 -0.176,-0.255 0.07,-0.109 0.109,-0.108 0.156,-0.228 0.06,-0.149 0.019,-0.185 0.134,-0.306l-0.111 -0.069c-0.036,-0.025 -0.057,-0.037 -0.098,-0.08l-0.147 -0.171c-0.15,-0.062 -0.491,0.112 -0.502,-0.241 -0.009,-0.277 0.19,-0.088 0.009,-0.386 -0.095,0.138 -0.068,0.236 -0.13,0.368 -0.135,0.286 -0.324,0.134 -0.506,0.109 -0.135,-0.018 -0.139,-0.008 -0.245,-0.09 -0.155,-0.121 -0.48,0.037 -0.746,-0.196 -0.003,-0.003 -0.012,-0.013 -0.016,-0.016 -0.163,-0.122 -0.356,-0.05 -0.515,-0.066l0.168 -0.161c-0.169,0.028 -0.13,0.023 -0.272,0.117 -0.067,0.045 -0.103,0.076 -0.193,0.125 -0.145,0.077 -0.235,0.039 -0.339,-0.006l0.364 -0.418c0.097,-0.136 0.195,-0.023 0.214,-0.404 -0.112,-0.022 -0.141,0.091 -0.216,0.044 0.045,0.084 0.056,-0.025 0.041,0.099 -0.011,0.091 -0.002,0.016 -0.076,0.147 -0.212,-0.122 -0.079,-0.095 -0.355,-0.08 0.014,-0.124 0.026,-0.23 0.063,-0.326 0.059,-0.156 0.024,-0.085 0.17,-0.176 -0.028,-0.2 -0.045,-0.11 -0.104,-0.222 0.249,-0.101 0.212,-0.164 0.488,-0.254 -0.01,-0.007 -0.025,-0.013 -0.032,-0.016 -0.007,-0.003 -0.023,-0.011 -0.031,-0.015 -0.007,-0.004 -0.021,-0.01 -0.029,-0.014l-0.111 -0.054c-0.124,0.141 -0.01,0.094 -0.183,0.193 -0.086,-0.198 -0.024,-0.445 -0.067,-0.667 -0.001,-0.006 -0.006,-0.019 -0.008,-0.026 -0.001,-0.007 -0.006,-0.019 -0.007,-0.026 -0.058,-0.304 0.208,-0.446 0.219,-0.825 0.247,-0.107 0.078,-0.012 0.134,-0.152 0.034,-0.087 0.058,-0.134 0.142,-0.168 0.282,-0.113 0.379,0.136 0.437,0.192l0.015 -0.149c-0.035,-0.174 -0.187,-0.192 -0.091,-0.375l0.149 0.084c0.119,0.09 0.051,0.055 -0.02,0.181 0.168,-0.005 0.197,-0.013 0.328,-0.035 -0.038,0.109 0.02,0.002 -0.072,0.059 -0.005,0.004 -0.022,0.012 -0.027,0.015 -0.006,0.003 -0.027,0.025 -0.031,0.016 -0.005,-0.01 -0.023,0.008 -0.032,0.015 0.286,0.005 0.381,0.055 0.547,0.064 0.005,0 0.018,-0.002 0.023,-0.002 0.004,0 0.017,-0.003 0.021,-0.003 0.003,0 0.015,-0.003 0.018,-0.002 0.071,0.005 0.082,0.044 0.176,0.148 0.007,-0.001 0.017,-0.006 0.019,-0.007 0.002,-0.001 0.015,-0.007 0.017,-0.008l0.061 -0.037c0.099,0.094 0.184,0.136 0.361,0.187 -0.081,-0.413 -0.248,-0.358 -0.126,-0.964 -0.112,-0.064 0.051,-0.005 -0.041,-0.004 -0.201,0.001 0.116,0.05 -0.041,0.004 0.044,-0.181 0.086,-0.13 0.03,-0.261 -0.185,0.164 -0.157,0.32 -0.263,0.499 0.01,-0.287 0.09,-0.344 0.162,-0.562l-0.317 0.571c-0.175,-0.312 0.244,-0.743 0.371,-0.867 -0.159,0.024 -0.157,0.075 -0.312,0.129 0.078,-0.295 0.306,-0.202 0.423,-0.442 -0.293,0.084 -0.554,0.254 -0.661,0.547l-0.131 -0.017c0.07,-0.257 0.245,-0.394 0.407,-0.518 0.057,-0.043 0.048,-0.035 0.086,-0.073 -0.401,0.024 -0.44,0.125 -0.689,0.281 0.138,-0.309 0.257,-0.289 0.378,-0.513 -0.708,0.211 -0.419,0.341 -0.671,0.494 0.065,-0.283 0.206,-0.376 0.291,-0.58 0.433,0.214 0.264,-0.17 0.264,-0.17 -0.002,-0.094 0.003,-0.088 0.096,-0.16 0.162,-0.125 0.112,-0.043 0.197,-0.199 -0.149,-0.003 -0.398,0.203 -0.532,0.3 -0.214,0.156 -0.216,0.285 -0.399,0.444 -0.101,0.13 0.058,0.012 -0.05,0.004l-0.059 -0.008c-0.135,-0.026 -0.094,0.036 -0.11,-0.058 -0.01,-0.063 0.074,-0.076 0.195,-0.176 0.118,-0.1 0.158,-0.128 0.185,-0.283 -0.146,0.08 -0.261,0.152 -0.37,0.276l-0.244 0.335c-0.04,-0.058 -0.02,-0.016 -0.038,-0.09 -0.076,-0.312 0.508,-0.704 0.731,-0.838l-0.043 -0.155 -0.678 0.299c0.132,-0.184 0.141,-0.062 0.052,-0.228 -0.206,0.11 -0.111,0.134 -0.262,0.274 0.2,0.106 -0.074,-0.097 0.18,-0.01 -0.149,0.256 -0.172,0.072 -0.305,0.208 -0.232,0.237 -0.514,0.778 -0.577,1.122 -0.375,0.074 -0.961,0.356 -1.106,0.623l0.297 -0.132c-0.144,0.086 -0.245,0.211 -0.435,0.285l0.082 0.076c0.004,-0.008 0.015,0.018 0.026,0.024z"/>
   <path class="fil2" d="M23.1 21.896c-0.017,0.01 -0.025,0.014 -0.032,0.019 -0.005,-0.011 -0.013,-0.023 -0.014,-0.035 -0.006,-0.086 -0.011,-0.173 -0.013,-0.259 0,-0.016 0.014,-0.042 0.027,-0.046 0.036,-0.011 0.075,-0.015 0.113,-0.018l0.025 0.023c-0.035,0.109 -0.072,0.216 -0.106,0.316zm-1.124 1.642c-0.001,-0.013 -0.002,-0.029 -0.003,-0.045 -0.01,0.004 -0.028,0.006 -0.029,0.011 -0.002,0.015 0.003,0.032 0.005,0.048 0.007,-0.004 0.014,-0.007 0.027,-0.014zm0.13 -3.953c0.001,-0.009 0.002,-0.018 0.003,-0.027 0.003,-0.062 0.008,-0.124 0.008,-0.186 0,-0.012 -0.019,-0.023 -0.03,-0.035 -0.015,0.027 -0.044,0.055 -0.041,0.078 0.007,0.058 0.03,0.113 0.047,0.168l0.013 0.002zm-0.235 -0.389c-0.009,-0.004 -0.021,-0.011 -0.025,-0.008 -0.009,0.007 -0.02,0.018 -0.021,0.029 -0.009,0.072 -0.027,0.146 -0.019,0.216 0.028,0.281 0.061,0.562 0.023,0.845 -0.003,0.015 0.013,0.035 0.02,0.052 0.008,-0.015 0.022,-0.029 0.024,-0.045 0.021,-0.139 0.056,-0.278 0.054,-0.417 -0.002,-0.211 -0.03,-0.422 -0.048,-0.634 -0.001,-0.013 -0.005,-0.026 -0.008,-0.038zm1.956 0.505l-0.009 0.009c-0.007,0.047 -0.014,0.095 -0.02,0.143l0.023 0c0,-0.051 0.002,-0.101 0.003,-0.152 0.012,-0.018 0.034,-0.036 0.035,-0.055 0.01,-0.149 0.037,-0.302 0.018,-0.448 -0.043,-0.327 -0.107,-0.651 -0.169,-0.974 -0.016,-0.084 -0.055,-0.164 -0.09,-0.242 -0.075,-0.17 -0.189,-0.309 -0.337,-0.423 -0.024,-0.02 -0.028,-0.067 -0.041,-0.102 0.037,-0.008 0.085,-0.036 0.11,-0.022 0.098,0.054 0.217,0.102 0.277,0.188 0.123,0.179 0.216,0.379 0.316,0.573 0.05,0.097 0.101,0.196 0.129,0.3 0.073,0.275 0.091,0.554 0.041,0.836 -0.009,0.049 -0.02,0.098 -0.03,0.147 -0.076,0.408 -0.209,0.795 -0.44,1.141 -0.138,0.209 -0.301,0.401 -0.45,0.602 -0.094,0.127 -0.103,0.129 -0.194,0.006 -0.024,-0.033 -0.057,-0.067 -0.064,-0.104 -0.032,-0.174 -0.158,-0.292 -0.243,-0.434 -0.024,-0.039 -0.056,-0.077 -0.065,-0.119 -0.029,-0.132 -0.035,-0.27 -0.073,-0.398 -0.069,-0.233 -0.002,-0.452 0.044,-0.674 0.006,-0.036 0.023,-0.069 0.076,-0.049 0.127,0.049 0.256,0.093 0.384,0.139 0.051,0.018 0.066,0.05 0.064,0.104 -0.011,0.305 -0.018,0.61 -0.026,0.914 0,0.016 0.004,0.032 0.006,0.047 0.011,-0.011 0.029,-0.021 0.034,-0.035 0.056,-0.158 0.08,-0.323 0.078,-0.49 -0.001,-0.136 -0.006,-0.271 -0.011,-0.406 -0.003,-0.065 0.027,-0.068 0.075,-0.045 0.057,0.027 0.111,0.063 0.171,0.078 0.069,0.017 0.084,0.048 0.077,0.115 -0.017,0.183 -0.058,0.359 -0.122,0.53 -0.007,0.02 -0.007,0.043 -0.01,0.065 0.016,-0.015 0.04,-0.027 0.045,-0.045 0.052,-0.164 0.102,-0.328 0.15,-0.494 0.022,-0.077 -0.015,-0.177 0.095,-0.221 0.014,-0.006 0.014,-0.077 0.002,-0.112 -0.09,-0.258 -0.122,-0.523 -0.105,-0.794 0.025,-0.389 -0.106,-0.724 -0.333,-1.03 -0.03,-0.04 -0.06,-0.08 -0.087,-0.123 -0.009,-0.015 -0.01,-0.037 -0.015,-0.056 0.02,0.008 0.043,0.012 0.057,0.026 0.06,0.057 0.12,0.113 0.173,0.175 0.165,0.193 0.253,0.422 0.297,0.668 0.055,0.309 0.105,0.62 0.15,0.931 0.014,0.101 0.004,0.207 0.004,0.31zm-1.865 2.63c-0.002,0.025 -0.002,0.038 -0.005,0.051 -0.045,0.236 -0.091,0.472 -0.138,0.707 -0.004,0.019 -0.016,0.036 -0.025,0.053 -0.002,-0.017 -0.006,-0.034 -0.006,-0.051 0.007,-0.153 0.025,-0.307 0.02,-0.46 -0.004,-0.119 0.074,-0.189 0.122,-0.279 0.004,-0.007 0.016,-0.01 0.032,-0.021zm0.425 0.004c0.006,0.011 0.013,0.022 0.018,0.035 0.1,0.259 0.109,0.518 0.002,0.779 -0.006,0.015 -0.021,0.026 -0.032,0.039 -0.006,-0.019 -0.018,-0.037 -0.018,-0.056 0,-0.226 0.002,-0.453 0.002,-0.679 0,-0.036 -0.004,-0.072 -0.005,-0.109 -0.001,-0.007 0.005,-0.015 0.008,-0.022 0.008,0.004 0.016,0.008 0.025,0.013zm-1.187 -5.744c-0.016,-0.016 -0.037,-0.027 -0.04,-0.042 -0.027,-0.119 -0.051,-0.24 -0.076,-0.36 -0.014,-0.063 0.014,-0.102 0.077,-0.094 0.106,0.014 0.214,0.031 0.316,0.062 0.079,0.025 0.071,0.039 0.013,0.095 -0.086,0.084 -0.165,0.176 -0.246,0.266 -0.015,0.016 -0.023,0.039 -0.044,0.073zm-1.206 -0.317l-0.007 -0.023c0.083,-0.027 0.165,-0.064 0.251,-0.081 0.088,-0.017 0.183,-0.005 0.27,-0.027 0.062,-0.015 0.073,0.012 0.082,0.053 0.04,0.19 0.078,0.381 0.115,0.572 0.017,0.089 -0.036,0.075 -0.088,0.054 -0.206,-0.083 -0.413,-0.166 -0.618,-0.25 -0.14,-0.057 -0.151,-0.097 -0.065,-0.224 0.017,-0.026 0.04,-0.05 0.06,-0.074zm0.237 -1.077c0.053,-0.026 0.104,-0.055 0.159,-0.075 0.016,-0.006 0.053,0.009 0.06,0.024 0.13,0.26 0.259,0.52 0.337,0.803 0.102,0.371 0.175,0.746 0.165,1.131 -0.007,0.253 0.067,0.471 0.213,0.669 0.047,0.063 0.022,0.089 -0.037,0.107 -0.052,0.016 -0.107,0.025 -0.158,0.043 -0.027,0.01 -0.068,0.028 -0.072,0.049 -0.016,0.078 -0.065,0.056 -0.101,0.034 -0.065,-0.041 -0.12,-0.077 -0.037,-0.176 0.121,-0.144 0.115,-0.309 0.099,-0.477 -0.018,-0.204 -0.045,-0.407 -0.059,-0.611 -0.026,-0.369 -0.104,-0.722 -0.312,-1.034 -0.08,-0.121 -0.165,-0.239 -0.254,-0.354 -0.035,-0.047 -0.058,-0.083 -0.003,-0.133zm1.709 8.677c-0.059,0.06 -0.096,0.101 -0.137,0.137 -0.022,0.02 -0.051,0.032 -0.077,0.048 -0.008,-0.028 -0.02,-0.055 -0.025,-0.084 -0.045,-0.241 0.048,-0.468 0.073,-0.702 0.002,-0.012 0.004,-0.033 0.012,-0.037 0.103,-0.044 0.091,-0.149 0.115,-0.229 0.058,-0.191 0.103,-0.385 0.154,-0.578 0.004,-0.015 0.019,-0.027 0.028,-0.041 0.006,0.016 0.018,0.032 0.017,0.047 -0.015,0.171 -0.027,0.344 -0.05,0.515 -0.02,0.139 -0.056,0.276 -0.083,0.415 -0.003,0.02 0.007,0.043 0.01,0.065 0.016,-0.019 0.038,-0.036 0.045,-0.058 0.017,-0.046 0.028,-0.095 0.039,-0.143 0.067,-0.273 0.146,-0.543 0.129,-0.83 -0.006,-0.117 0.007,-0.236 0.013,-0.354 0.001,-0.015 0.016,-0.03 0.024,-0.045 0.015,0.01 0.031,0.016 0.043,0.029 0.067,0.07 0.075,0.171 0.03,0.278 -0.016,0.039 -0.027,0.083 -0.027,0.125 -0.001,0.2 0.011,0.401 0.004,0.6 -0.012,0.331 -0.072,0.645 -0.337,0.842zm-1.005 0.04l-0.012 0.008c-0.096,-0.133 -0.196,-0.262 -0.287,-0.398 -0.146,-0.219 -0.325,-0.415 -0.436,-0.66 -0.112,-0.25 -0.189,-0.493 -0.037,-0.752 0.015,-0.026 0.033,-0.049 0.049,-0.074 0.011,0.023 0.027,0.045 0.032,0.069 0.083,0.352 0.305,0.627 0.499,0.918 0.142,0.213 0.36,0.344 0.54,0.518 0.076,0.075 0.098,0.057 0.131,-0.047 0.066,-0.203 0.14,-0.404 0.214,-0.604 0.007,-0.021 0.031,-0.036 0.048,-0.054 0.003,0.027 0.012,0.054 0.007,0.079 -0.009,0.039 -0.046,0.078 -0.041,0.112 0.025,0.153 -0.042,0.288 -0.077,0.427 -0.057,0.226 -0.137,0.443 -0.31,0.616 -0.043,0.042 -0.07,0.05 -0.111,0.017 -0.072,-0.057 -0.14,-0.116 -0.209,-0.175zm0.421 -7.278c0.184,-0.181 0.392,-0.313 0.663,-0.299 0.095,0.005 0.189,0.018 0.282,0.033 0.414,0.066 0.803,0.199 1.143,0.452 0.071,0.053 0.078,0.083 0.005,0.129 -0.138,0.088 -0.276,0.181 -0.426,0.241 -0.18,0.071 -0.369,0.111 -0.567,0.025 -0.092,-0.04 -0.204,-0.038 -0.308,-0.049 -0.304,-0.032 -0.575,0.047 -0.81,0.245 -0.014,0.012 -0.035,0.016 -0.054,0.024 -0.005,-0.022 -0.017,-0.044 -0.015,-0.065 0.002,-0.016 0.021,-0.043 0.033,-0.044 0.111,-0.003 0.174,-0.093 0.262,-0.138 0.057,-0.028 0.113,-0.061 0.173,-0.078 0.154,-0.042 0.31,-0.075 0.465,-0.112 0.23,-0.055 0.459,-0.071 0.685,0.017 0.014,0.005 0.033,-0.002 0.05,-0.003 -0.014,-0.015 -0.024,-0.037 -0.04,-0.045 -0.225,-0.115 -0.46,-0.133 -0.703,-0.068 -0.193,0.051 -0.387,0.098 -0.581,0.146 -0.012,0.003 -0.026,-0.001 -0.04,-0.001 0.008,-0.011 0.014,-0.024 0.025,-0.031 0.097,-0.067 0.196,-0.133 0.294,-0.199 0.135,-0.092 0.279,-0.154 0.448,-0.133 0.014,0.002 0.029,-0.01 0.044,-0.016 -0.012,-0.013 -0.021,-0.031 -0.035,-0.038 -0.02,-0.009 -0.043,-0.01 -0.065,-0.014 -0.159,-0.029 -0.298,0.027 -0.428,0.108 -0.154,0.097 -0.306,0.198 -0.453,0.306 -0.045,0.034 -0.068,0.098 -0.101,0.148 -0.008,0.012 -0.017,0.024 -0.027,0.033l-0.022 -0.007c-0.005,-0.066 -0.038,-0.159 -0.006,-0.195 0.139,-0.157 0.261,-0.344 0.488,-0.397 0.014,-0.003 0.024,-0.028 0.036,-0.043 -0.017,-0.005 -0.037,-0.018 -0.049,-0.013 -0.116,0.05 -0.231,0.101 -0.344,0.155 -0.039,0.019 -0.073,0.047 -0.109,0.071 0.023,-0.042 0.045,-0.084 0.068,-0.125 0.004,-0.008 0.012,-0.013 0.019,-0.02zm1.495 6.177c-0.007,-0.005 -0.014,-0.011 -0.022,-0.017 -0.025,0.033 -0.049,0.066 -0.076,0.097 -0.01,0.013 -0.027,0.02 -0.041,0.029 -0.006,-0.015 -0.017,-0.03 -0.019,-0.046 -0.029,-0.198 -0.052,-0.397 -0.085,-0.594 -0.034,-0.208 -0.123,-0.398 -0.223,-0.582 -0.062,-0.113 -0.128,-0.223 -0.177,-0.34 -0.07,-0.167 -0.127,-0.34 -0.188,-0.511 -0.009,-0.025 -0.015,-0.062 -0.003,-0.08 0.062,-0.095 0.129,-0.186 0.197,-0.276 0.014,-0.019 0.043,-0.025 0.064,-0.038 0.006,0.026 0.017,0.051 0.016,0.076 -0.002,0.091 -0.007,0.182 -0.01,0.274 -0.008,0.252 0.016,0.501 0.115,0.737 0.008,0.021 0.03,0.038 0.045,0.056 0.001,-0.021 0.005,-0.044 0.002,-0.065 -0.045,-0.278 -0.062,-0.558 -0.052,-0.84 0.002,-0.055 0.018,-0.111 0.028,-0.166 0.034,0.052 0.082,0.101 0.098,0.159 0.028,0.105 0.037,0.215 0.052,0.324 0.033,0.234 0.074,0.468 0.094,0.703 0.015,0.163 0.001,0.328 0,0.492 -0.001,0.032 0.001,0.064 0.003,0.096 0.001,0.007 0.01,0.014 0.014,0.02 0.006,-0.005 0.017,-0.009 0.018,-0.015 0.006,-0.027 0.013,-0.054 0.014,-0.08 0.008,-0.142 0.021,-0.282 0.019,-0.423 -0.002,-0.167 -0.012,-0.333 -0.027,-0.498 -0.008,-0.095 -0.032,-0.189 -0.047,-0.283 -0.002,-0.012 0.006,-0.025 0.009,-0.038 0.011,0.003 0.029,0.003 0.032,0.01 0.075,0.14 0.172,0.273 0.214,0.422 0.055,0.196 0.066,0.404 0.096,0.607 0.002,0.013 0.007,0.025 0.011,0.038 0.01,-0.007 0.023,-0.011 0.03,-0.02 0.126,-0.177 0.233,-0.365 0.291,-0.576 0.06,-0.217 0.207,-0.383 0.317,-0.571 0.007,-0.011 0.02,-0.018 0.03,-0.027 0.001,0.015 0.007,0.032 0.003,0.045 -0.077,0.205 -0.15,0.41 -0.234,0.612 -0.08,0.188 -0.172,0.372 -0.257,0.559 -0.007,0.014 -0.004,0.033 -0.005,0.051 0.014,-0.009 0.031,-0.015 0.04,-0.028 0.017,-0.021 0.03,-0.045 0.043,-0.069 0.073,-0.137 0.14,-0.276 0.22,-0.408 0.166,-0.27 0.27,-0.562 0.342,-0.868 0.024,-0.102 0.052,-0.202 0.082,-0.301 0.007,-0.023 0.029,-0.042 0.044,-0.062 0.002,0.022 0.003,0.044 0.005,0.066 0.022,0.229 -0.058,0.438 -0.119,0.652 -0.024,0.083 -0.032,0.172 -0.066,0.25 -0.11,0.25 -0.215,0.502 -0.388,0.72 -0.189,0.237 -0.366,0.484 -0.549,0.727zm-1.327 -1.478c0.037,-0.027 0.055,-0.041 0.074,-0.054 0.003,0.025 0.01,0.049 0.011,0.075 0.001,0.026 -0.002,0.054 -0.007,0.081 -0.073,0.338 -0.147,0.675 -0.22,1.013 -0.008,0.043 -0.017,0.085 -0.025,0.128 0.022,-0.038 0.049,-0.074 0.064,-0.115 0.151,-0.412 0.258,-0.834 0.284,-1.274 0.004,-0.058 0.018,-0.116 0.083,-0.121 0.015,-0.002 0.046,0.07 0.053,0.111 0.029,0.178 0.005,0.356 -0.04,0.528 -0.049,0.179 -0.119,0.353 -0.179,0.529 -0.007,0.019 -0.009,0.04 -0.013,0.061 0.017,-0.015 0.035,-0.028 0.051,-0.043 0.009,-0.01 0.014,-0.024 0.021,-0.035 0.124,-0.171 0.164,-0.373 0.209,-0.573 0.013,-0.059 0.039,-0.115 0.058,-0.173 0.036,0.062 0.084,0.121 0.103,0.189 0.011,0.038 -0.021,0.094 -0.047,0.133 -0.19,0.291 -0.349,0.596 -0.458,0.926 -0.061,0.181 -0.127,0.359 -0.194,0.538 -0.036,0.095 -0.057,0.105 -0.135,0.039 -0.082,-0.069 -0.153,-0.153 -0.22,-0.238 -0.115,-0.145 -0.227,-0.291 -0.331,-0.444 -0.063,-0.093 -0.123,-0.193 -0.158,-0.298 -0.06,-0.181 -0.098,-0.37 -0.151,-0.552 -0.021,-0.071 -0.01,-0.132 0.014,-0.197 0.046,-0.124 0.087,-0.25 0.129,-0.375 0.006,-0.019 0.01,-0.038 0.015,-0.058 0.012,0.018 0.028,0.035 0.037,0.054 0.095,0.211 0.164,0.434 0.322,0.614 0.042,0.049 0.066,0.063 0.119,0.03 0.038,-0.023 0.082,-0.037 0.123,-0.055 0.012,0.039 0.024,0.079 0.035,0.119l0.004 0.012c0.012,0.014 0.024,0.026 0.037,0.038 0.013,-0.015 0.035,-0.028 0.037,-0.045 0.01,-0.072 0.007,-0.146 0.022,-0.217 0.011,-0.055 0.04,-0.108 0.065,-0.16 0.006,-0.014 0.028,-0.021 0.042,-0.031 0.008,0.019 0.023,0.039 0.022,0.058 -0.014,0.158 -0.03,0.317 -0.045,0.475 -0.003,0.03 -0.009,0.06 -0.013,0.089 0.016,-0.025 0.036,-0.049 0.05,-0.076 0.012,-0.025 0.022,-0.051 0.027,-0.077 0.032,-0.174 0.061,-0.349 0.094,-0.522 0.007,-0.043 0.023,-0.083 0.031,-0.107zm-2.795 -4.013c0.23,-0.193 0.51,-0.366 0.834,-0.465 0.367,-0.111 0.714,-0.048 1.058,0.098 0.095,0.04 0.127,0.109 0.131,0.2 0.004,0.096 0.017,0.193 0.003,0.286 -0.013,0.088 -0.045,0.178 -0.09,0.254 -0.019,0.031 -0.096,0.027 -0.146,0.041 -0.035,0.01 -0.069,0.022 -0.103,0.036 -0.183,0.071 -0.374,0.09 -0.569,0.087 -0.112,-0.001 -0.225,-0.001 -0.337,-0.011 -0.243,-0.023 -0.488,-0.045 -0.73,-0.08 -0.13,-0.02 -0.256,-0.075 -0.379,0.019 -0.009,0.006 -0.031,-0.005 -0.047,-0.009 0.005,-0.011 0.007,-0.025 0.015,-0.034 0.111,-0.132 0.224,-0.264 0.36,-0.422zm0.564 0.858c0.045,-0.016 0.105,-0.044 0.168,-0.057 0.055,-0.012 0.096,0 0.049,0.07 -0.051,0.076 -0.099,0.153 -0.146,0.23 -0.048,0.078 -0.095,0.156 -0.139,0.235 -0.006,0.011 0.005,0.031 0.007,0.046 0.011,-0.006 0.026,-0.01 0.033,-0.019 0.036,-0.046 0.07,-0.095 0.106,-0.141 0.013,-0.016 0.032,-0.027 0.048,-0.04 0,0.021 0.005,0.044 -0.001,0.063 -0.078,0.236 -0.114,0.478 -0.089,0.727 0.002,0.022 0.001,0.047 -0.009,0.066 -0.094,0.185 -0.181,0.372 -0.296,0.547 -0.144,0.22 -0.255,0.461 -0.372,0.697 -0.052,0.105 -0.083,0.221 -0.127,0.33 -0.002,0.006 -0.044,0.008 -0.051,-0.001 -0.016,-0.02 -0.021,-0.049 -0.032,-0.074 -0.123,-0.269 -0.174,-0.557 -0.186,-0.848 -0.024,-0.598 0.072,-1.18 0.29,-1.739 0.032,-0.083 0.091,-0.157 0.143,-0.232 0.038,-0.054 0.237,-0.071 0.257,-0.018 0.011,0.029 -0.043,0.084 -0.071,0.126 -0.022,0.035 -0.055,0.063 -0.071,0.1 -0.021,0.049 -0.032,0.102 -0.042,0.155 -0.003,0.013 0.014,0.03 0.022,0.046 0.013,-0.009 0.031,-0.016 0.039,-0.028 0.044,-0.069 0.078,-0.147 0.132,-0.207 0.052,-0.057 0.123,-0.1 0.19,-0.141 0.016,-0.011 0.05,0.006 0.076,0.01 -0.008,0.022 -0.013,0.046 -0.024,0.066 -0.103,0.171 -0.208,0.342 -0.309,0.514 -0.008,0.014 0.001,0.039 0.003,0.059 0.013,-0.011 0.028,-0.02 0.037,-0.033 0.117,-0.162 0.233,-0.325 0.365,-0.509zm0.349 4.273c-0.008,0.004 -0.015,0.008 -0.022,0.013 -0.161,-0.269 -0.322,-0.538 -0.482,-0.807 -0.009,-0.015 -0.015,-0.034 -0.018,-0.051 -0.045,-0.233 -0.097,-0.464 -0.129,-0.699 -0.027,-0.201 -0.006,-0.4 0.096,-0.584 0.089,-0.163 0.171,-0.33 0.257,-0.494 0.02,-0.037 0.045,-0.07 0.067,-0.104 -0.007,0.043 -0.007,0.088 -0.022,0.128 -0.077,0.202 -0.122,0.409 -0.117,0.626 0.001,0.043 0.018,0.086 0.028,0.128 0.011,-0.039 0.027,-0.078 0.033,-0.119 0.009,-0.058 0.005,-0.119 0.017,-0.177 0.023,-0.11 0.053,-0.219 0.082,-0.328 0.005,-0.017 0.025,-0.031 0.038,-0.046 0.011,0.013 0.026,0.025 0.032,0.04 0.033,0.091 0.057,0.18 0.029,0.28 -0.028,0.101 -0.045,0.205 -0.056,0.309 -0.005,0.048 0.017,0.099 0.026,0.149 0.014,-0.045 0.026,-0.091 0.042,-0.135 0.016,-0.045 0.036,-0.088 0.054,-0.132 0.005,0.044 0.008,0.089 0.016,0.132 0.005,0.029 0.017,0.057 0.025,0.085 0.024,-0.008 0.05,-0.012 0.071,-0.025 0.115,-0.072 0.229,-0.147 0.345,-0.219 0.017,-0.011 0.042,-0.009 0.064,-0.013 0.002,0.021 0.008,0.042 0.006,0.063 -0.004,0.068 -0.012,0.136 -0.014,0.204 -0.001,0.012 0.015,0.025 0.024,0.038 0.008,-0.01 0.019,-0.02 0.022,-0.032 0.013,-0.048 0.022,-0.098 0.035,-0.146 0.003,-0.012 0.014,-0.021 0.022,-0.032 0.012,0.01 0.03,0.018 0.036,0.031 0.049,0.103 0.1,0.205 0.142,0.311 0.015,0.039 0.021,0.09 0.01,0.13 -0.086,0.292 -0.172,0.585 -0.268,0.874 -0.06,0.182 -0.136,0.358 -0.203,0.537 -0.027,0.075 -0.049,0.151 -0.073,0.226 -0.068,-0.05 -0.137,-0.101 -0.206,-0.152l-0.009 -0.009zm2.058 -1.475c-0.268,0.209 -0.512,0.4 -0.755,0.592 -0.034,0.028 -0.059,0.023 -0.073,-0.015 -0.035,-0.094 -0.068,-0.188 -0.101,-0.282 -0.101,-0.292 -0.202,-0.584 -0.302,-0.876 -0.04,-0.118 -0.036,-0.114 0.071,-0.168 0.197,-0.099 0.376,-0.218 0.508,-0.404 0.236,-0.332 0.343,-0.701 0.343,-1.104 0,-0.023 0.001,-0.046 0.004,-0.068l0.016 -0.018 0.017 0.014c0.008,0.026 0.017,0.053 0.018,0.08 0.004,0.351 0.001,0.703 -0.097,1.044 -0.049,0.171 -0.113,0.338 -0.169,0.507 -0.004,0.014 0.002,0.031 0.004,0.047 0.013,-0.008 0.032,-0.013 0.04,-0.025 0.026,-0.038 0.052,-0.076 0.07,-0.118 0.132,-0.305 0.215,-0.623 0.249,-0.955 0.002,-0.018 0.017,-0.036 0.026,-0.054 0.005,0.018 0.013,0.034 0.016,0.052 0.053,0.295 0.057,0.591 -0.029,0.88 -0.062,0.209 -0.15,0.41 -0.224,0.615 -0.006,0.015 -0.001,0.034 -0.001,0.051 0.012,-0.011 0.03,-0.02 0.037,-0.035 0.069,-0.148 0.136,-0.298 0.203,-0.447 0.104,-0.23 0.133,-0.472 0.122,-0.72 -0.007,-0.163 -0.024,-0.326 -0.036,-0.489 -0.003,-0.048 0,-0.097 0.001,-0.146 0.037,0.031 0.073,0.061 0.11,0.092 0.138,0.114 0.297,0.19 0.464,0.254 0.036,0.013 0.086,0.054 0.087,0.083 0.007,0.2 0.004,0.399 -0.086,0.586 -0.107,0.225 -0.205,0.456 -0.317,0.679 -0.066,0.129 -0.152,0.247 -0.216,0.348zm-1.109 -0.96c-0.053,0.034 -0.121,0.085 -0.196,0.123 -0.174,0.087 -0.352,0.167 -0.529,0.251 -0.046,0.022 -0.081,0.036 -0.094,-0.039 -0.026,-0.147 -0.066,-0.292 -0.092,-0.439 -0.019,-0.103 -0.002,-0.216 -0.04,-0.31 -0.139,-0.35 -0.078,-0.708 -0.051,-1.062 0.016,-0.211 0.173,-0.34 0.349,-0.425 0.15,-0.074 0.314,-0.12 0.474,-0.174 0.103,-0.034 0.268,0.092 0.252,0.198 -0.016,0.102 -0.056,0.2 -0.084,0.3 -0.008,0.027 -0.015,0.055 -0.023,0.083 0.038,-0.003 0.09,0.008 0.11,-0.013 0.032,-0.033 0.049,-0.085 0.061,-0.132 0.015,-0.057 0.018,-0.117 0.027,-0.176 0.006,-0.035 0.007,-0.072 0.065,-0.06 0.052,0.011 0.083,0.024 0.073,0.088 -0.022,0.13 -0.038,0.261 -0.055,0.392 -0.018,0.14 -0.035,0.281 -0.051,0.421 -0.002,0.017 0.006,0.034 0.01,0.052 0.013,-0.015 0.033,-0.028 0.037,-0.044 0.042,-0.191 0.084,-0.382 0.122,-0.573 0.018,-0.089 0.022,-0.181 0.042,-0.27 0.006,-0.026 0.046,-0.045 0.07,-0.068 0.013,0.015 0.036,0.028 0.037,0.044 0.015,0.175 0.039,0.351 0.035,0.526 -0.003,0.134 -0.032,0.27 -0.069,0.401 -0.044,0.156 -0.093,0.315 -0.169,0.458 -0.08,0.151 -0.194,0.284 -0.311,0.448zm0.986 -2.295c-0.038,-0.002 -0.077,-0.005 -0.115,-0.007l0.005 -0.022c0.037,0.011 0.073,0.022 0.109,0.033 0.097,0.018 0.199,0.023 0.29,0.056 0.144,0.053 0.296,0.106 0.419,0.194 0.194,0.141 0.367,0.312 0.549,0.469 0.029,0.025 0.061,0.048 0.092,0.071 -0.019,-0.04 -0.027,-0.091 -0.058,-0.118 -0.214,-0.197 -0.421,-0.403 -0.653,-0.576 -0.123,-0.091 -0.291,-0.119 -0.438,-0.177 -0.015,-0.006 -0.027,-0.02 -0.041,-0.03 0.016,-0.005 0.031,-0.014 0.046,-0.013 0.231,0.007 0.467,-0.022 0.685,0.089 0.011,0.005 0.026,0.003 0.039,0.004 -0.003,-0.017 0,-0.042 -0.009,-0.048 -0.06,-0.039 -0.12,-0.098 -0.185,-0.106 -0.198,-0.026 -0.399,-0.035 -0.598,-0.044 -0.043,-0.002 -0.087,0.024 -0.129,0.039 -0.021,0.008 -0.038,0.029 -0.059,0.033 -0.019,0.004 -0.041,-0.006 -0.061,-0.01 0.004,-0.016 0.005,-0.034 0.014,-0.047 0.057,-0.079 0.135,-0.115 0.232,-0.122 0.337,-0.023 0.653,0.035 0.939,0.225 0.136,0.089 0.271,0.168 0.357,0.322 0.074,0.135 0.156,0.264 0.206,0.411 0.048,0.14 0.119,0.273 0.157,0.416 0.053,0.196 0.039,0.407 0.116,0.6 0.017,0.042 0.027,0.088 0.03,0.133 0.002,0.015 -0.027,0.046 -0.039,0.045 -0.149,-0.019 -0.298,-0.022 -0.437,-0.097 -0.243,-0.132 -0.481,-0.274 -0.748,-0.357 -0.06,-0.018 -0.121,-0.049 -0.166,-0.091 -0.148,-0.136 -0.295,-0.273 -0.429,-0.422 -0.084,-0.093 -0.151,-0.205 -0.214,-0.315 -0.036,-0.06 -0.048,-0.134 -0.071,-0.201 0.055,0.049 0.113,0.094 0.164,0.147 0.101,0.104 0.198,0.213 0.299,0.319 0.013,0.014 0.036,0.019 0.055,0.028 -0.003,-0.023 0.002,-0.051 -0.009,-0.069 -0.046,-0.071 -0.092,-0.142 -0.146,-0.207 -0.096,-0.115 -0.198,-0.225 -0.295,-0.34 -0.02,-0.023 -0.026,-0.059 -0.039,-0.088 0.036,0.001 0.078,-0.01 0.105,0.006 0.11,0.063 0.223,0.126 0.322,0.205 0.322,0.257 0.606,0.553 0.855,0.882 0.036,0.047 0.077,0.09 0.117,0.134 0.007,0.008 0.021,0.009 0.032,0.014 0.002,-0.012 0.009,-0.026 0.005,-0.036 -0.007,-0.021 -0.017,-0.042 -0.029,-0.061 -0.201,-0.322 -0.448,-0.606 -0.729,-0.857 -0.169,-0.151 -0.361,-0.277 -0.542,-0.414zm1.383 5.155c0.132,-0.15 0.271,-0.295 0.394,-0.452 0.215,-0.274 0.369,-0.586 0.51,-0.903 0.091,-0.208 0.181,-0.419 0.244,-0.638 0.094,-0.321 0.183,-0.647 0.166,-0.989 -0.004,-0.081 -0.014,-0.162 -0.015,-0.244 -0.002,-0.217 0.007,-0.435 -0.003,-0.652 -0.007,-0.164 -0.023,-0.329 -0.06,-0.488 -0.025,-0.102 -0.099,-0.192 -0.146,-0.291 -0.095,-0.2 -0.176,-0.409 -0.286,-0.6 -0.052,-0.092 -0.15,-0.165 -0.242,-0.223 -0.106,-0.067 -0.113,-0.059 -0.042,-0.163 0.059,-0.087 0.118,-0.174 0.173,-0.263 0.069,-0.111 0.054,-0.15 -0.054,-0.212 -0.127,-0.072 -0.261,-0.138 -0.371,-0.231 -0.137,-0.116 -0.297,-0.172 -0.457,-0.237 -0.126,-0.052 -0.247,-0.117 -0.376,-0.158 -0.199,-0.062 -0.405,-0.106 -0.614,-0.049 -0.071,0.019 -0.131,0.017 -0.197,-0.016 -0.145,-0.072 -0.297,-0.116 -0.462,-0.088 -0.018,0.003 -0.051,-0.017 -0.059,-0.034 -0.027,-0.062 -0.055,-0.126 -0.068,-0.192 -0.047,-0.237 -0.166,-0.442 -0.284,-0.647 -0.044,-0.075 -0.096,-0.145 -0.139,-0.22 -0.026,-0.045 -0.057,-0.061 -0.099,-0.032 -0.127,0.088 -0.252,0.179 -0.377,0.27 -0.046,0.033 -0.04,0.065 -0.01,0.114 0.149,0.249 0.292,0.502 0.436,0.754 0.009,0.016 0.014,0.033 0.021,0.05 -0.017,0.001 -0.035,0.004 -0.052,0.001 -0.373,-0.057 -0.604,0.079 -0.739,0.371 -0.041,0.089 -0.095,0.118 -0.183,0.124 -0.223,0.015 -0.427,0.092 -0.613,0.215 -0.068,0.044 -0.123,0.107 -0.187,0.157 -0.24,0.19 -0.403,0.445 -0.584,0.683 -0.075,0.098 -0.143,0.2 -0.21,0.302 -0.015,0.024 -0.026,0.073 -0.013,0.086 0.02,0.022 0.062,0.034 0.094,0.032 0.267,-0.019 0.285,-0.003 0.216,0.252 -0.049,0.18 -0.112,0.356 -0.163,0.536 -0.128,0.453 -0.136,0.912 -0.015,1.364 0.092,0.342 0.218,0.676 0.33,1.013 0.012,0.034 0.024,0.076 0.05,0.095 0.041,0.03 0.093,0.051 0.142,0.06 0.014,0.002 0.049,-0.051 0.056,-0.083 0.02,-0.093 0.032,-0.188 0.048,-0.283 0.002,-0.011 0.011,-0.022 0.016,-0.033 0.007,0.01 0.017,0.019 0.02,0.03 0.115,0.481 0.321,0.922 0.605,1.323 0.155,0.218 0.35,0.407 0.53,0.607 0.018,0.02 0.062,0.037 0.082,0.028 0.02,-0.009 0.031,-0.051 0.035,-0.08 0.004,-0.03 -0.006,-0.063 -0.006,-0.094 -0.001,-0.009 0.013,-0.018 0.02,-0.027 0.006,0.006 0.015,0.011 0.018,0.018 0.109,0.333 0.339,0.59 0.532,0.871 0.173,0.253 0.37,0.473 0.626,0.641 0.095,0.063 0.098,0.06 0.151,-0.044 0.038,-0.077 0.089,-0.147 0.137,-0.219 0.023,-0.035 0.05,-0.068 0.076,-0.101 0.01,0.044 0.028,0.087 0.03,0.131 0.003,0.068 -0.006,0.137 -0.006,0.204 0,0.02 0.012,0.048 0.026,0.056 0.011,0.007 0.042,-0.007 0.054,-0.021 0.101,-0.114 0.213,-0.209 0.355,-0.271 0.13,-0.059 0.172,-0.198 0.238,-0.309 0.092,-0.156 0.166,-0.324 0.246,-0.487 0.02,-0.043 0.035,-0.076 0.059,-0.005 0.021,0.059 0.047,0.023 0.068,0.003 0.107,-0.106 0.212,-0.213 0.319,-0.319l0.009 0.007z"/>
  </g>
 </g>
</svg>
