<?xml version="1.0" encoding="UTF-8"?>
<!DOCTYPE svg PUBLIC "-//W3C//DTD SVG 1.1//EN" "http://www.w3.org/Graphics/SVG/1.1/DTD/svg11.dtd">
<!-- Creator: CorelDRAW -->
<svg xmlns="http://www.w3.org/2000/svg" xml:space="preserve" width="120px" height="120px" version="1.1" style="shape-rendering:geometricPrecision; text-rendering:geometricPrecision; image-rendering:optimizeQuality; fill-rule:evenodd; clip-rule:evenodd"
viewBox="0 0 25.775 25.775"
 xmlns:xlink="http://www.w3.org/1999/xlink"
 xmlns:xodm="http://www.corel.com/coreldraw/odm/2003">
 <defs>
  <style type="text/css">
   <![CDATA[
    .fil2 {fill:black}
    .fil0 {fill:#EDE3C8}
    .fil1 {fill:url(#id0)}
   ]]>
  </style>
  <linearGradient id="id0" gradientUnits="userSpaceOnUse" x1="3.812" y1="14.081" x2="20.277" y2="14.081">
   <stop offset="0" style="stop-opacity:1; stop-color:#D29D88"/>
   <stop offset="0.6" style="stop-opacity:1; stop-color:#E4AC7A"/>
   <stop offset="1" style="stop-opacity:1; stop-color:#F7BC6B"/>
  </linearGradient>
 </defs>
 <g id="Layer_x0020_1">
  <metadata id="CorelCorpID_0Corel-Layer"/>
  <g id="_2765484731440">
   <rect class="fil0" width="25.775" height="25.775"/>
   <path class="fil1" d="M12.664 18.926c1.043,1.517 -1.978,5.671 -3.129,3.998 -0.864,-1.256 1.716,-6.053 3.129,-3.998zm7.369 2.427c-0.899,1.339 -4.019,0.998 -2.812,-0.802 0.893,-1.33 3.929,-0.862 2.812,0.802zm-8.89 -8.398c0.705,1.085 2.503,4.157 4.359,4.375 1.366,0.16 2.426,-0.009 3.235,-0.561 2.661,-1.819 0.752,-3.459 -0.636,-5.105 -0.915,-1.084 -0.336,-1.993 0.164,-3.06 0.596,-1.27 0.459,-2.249 -0.845,-2.793 -7.182,-2.997 -17.383,1.61 -12.189,5.486 1.605,1.198 3.748,0.013 5.912,1.658z"/>
   <path class="fil2" d="M8.328 11.608c0.105,-0.305 -0.126,-0.159 0.276,-0.205l-0.276 0.205zm8.942 4.082c-0.108,-0.283 -0.104,-0.128 0.096,-0.271 0.129,0.222 0.178,0.156 -0.096,0.271zm-6.479 -1.958c-0.082,-0.145 -0.318,0.27 0,-0.251 0.059,0.068 0.378,0.04 0,0.251zm-2.779 -3.75c-0.298,-0.019 -0.239,0.077 -0.206,-0.204 0.172,0.016 0.246,-0.062 0.206,0.204zm0.206 0.506c-0.01,0.177 -0.256,0.147 -0.193,-0.011 0.034,-0.086 0.216,-0.42 0.193,0.011zm-0.355 2.492c0.124,-0.353 -0.058,-0.172 0.326,-0.244 -0.115,0.343 0.135,0.299 -0.326,0.244zm2.658 -6.585l1.969 1.62c-0.735,-0.251 -1.24,-0.835 -1.902,-1.295 -0.288,-0.2 -0.121,-0.102 -0.38,-0.232 -0.238,-0.261 -0.238,-0.152 -0.432,-0.415l0.745 0.322zm2.393 2.047c-0.16,0.153 -0.094,0.17 -0.756,0.195 -0.307,0.011 -0.606,0.001 -0.912,-0.017 -0.481,-0.028 -1.169,-0.021 -1.555,-0.223l3.223 0.045zm4.126 3.27c-0.654,0.002 -0.339,-0.107 -0.73,-0.264 -0.347,-0.139 -0.811,0.043 -0.835,-0.845 -0.539,-0.1 -0.071,-0.159 -0.705,-0.14 -0.59,0.71 -0.318,1.344 -0.555,2.091 -0.002,-0.706 0.061,-1.384 -0.234,-1.93 -0.863,0.089 -1.236,1.314 -1.701,2.013 0.2,-0.635 0.711,-1.316 0.809,-1.667 0.201,-0.725 -0.064,0.16 -0.059,-0.293 0.378,-0.345 0.17,0.029 0.366,-0.416l-0.576 -0.214c-0.016,-0.004 -0.055,-0.002 -0.079,-0.013 0.337,-0.593 0.766,-0.347 0.801,-1.145 -1.499,-0.035 -3.039,0.216 -4.656,0.044l0 0.039c0.871,-0.133 3.915,-0.143 4.374,-0.416 -0.147,-0.437 -0.746,-0.809 -1.156,-1.198 -0.274,-0.261 -1.027,-0.906 -1.376,-1.06 -0.114,-0.254 -0.731,-0.784 -1.081,-0.8 -0.768,-0.033 -1.982,2.18 -1.844,2.938 0.093,0.517 -0.027,0.078 0.15,0.334l0.238 0.249c-0.5,0.133 -0.578,0.148 -0.887,0.455 -0.082,0.707 0.018,1.371 0.253,1.976 0.35,0.904 0.65,0.829 1.147,0.93l0.183 0.041c-0.529,0.769 -0.493,0.734 0.034,1.509 0.293,0.398 0.591,0.745 1.028,1.04 0.607,0.41 1.026,0.06 1.375,-0.245 -0.064,0.66 -0.09,1.019 0.477,1.236 0.44,0.167 1.123,0.277 1.64,0.211 0.099,-0.148 0.191,-0.299 0.277,-0.485l0.293 -0.595c-0.056,0.579 -0.023,0.685 0.153,1.111 0.857,0.221 2.329,0.063 2.609,-0.765 0.221,-0.652 -0.631,-1.946 -0.756,-2.67 0.309,0.451 0.381,0.984 0.793,1.411l-0.22 -0.71c0.709,0.758 -0.013,1.241 0.857,1.627 1.002,0.445 1.894,-1.083 1.894,-1.084 -0.037,-0.391 -0.17,-0.563 -0.398,-0.764 -0.392,-0.346 -0.47,-0.177 -0.65,-0.649 0.448,0.161 1.523,1.078 1.811,1.413 -0.295,0.671 -1.484,1.505 -2.229,1.969 -2.496,1.553 -5.9,1.494 -8.259,-0.225 -0.416,-0.304 -0.872,-0.813 -1.211,-0.952 -0.222,-0.325 -0.553,-0.674 -0.797,-1.018 -0.259,-0.365 -0.437,-0.703 -0.612,-1.207 -0.683,-1.964 -0.508,-4.169 0.421,-6.033 0.362,-0.726 1.051,-1.554 1.67,-1.968 0.244,0.163 1.237,1.121 2.081,1.591 0.137,0.244 0.524,0.575 0.779,0.776 0.618,0.488 1.943,2.008 2.254,2.135 0.361,0.532 0.319,0.39 0.762,0.76 0.527,0.441 0.132,0.302 0.884,0.707 0.391,0.21 0.594,0.399 0.936,0.655 0.518,0.388 0.556,0.548 0.946,0.65 0.098,0.282 0.071,0.21 0.277,0.454 -0.444,-0.179 -0.588,-0.385 -0.966,-0.594zm-7.169 -0.015l-0.662 0.374c0.213,-0.235 0.336,-0.244 0.532,-0.54 0.938,-0.349 1.665,-1.195 2.809,-1.427 -0.388,0.573 -1.383,0.835 -2.007,1.161 -0.115,0.061 -0.24,0.128 -0.364,0.204l-0.198 0.132c-0.014,0.01 -0.045,0.039 -0.056,0.047 -0.011,0.009 -0.036,0.033 -0.054,0.049zm4.994 -1.731c-0.78,-0.099 -0.289,-0.099 -0.777,-0.597 -0.405,0.109 -0.222,0.028 -0.442,0.324 -0.035,0.136 0.264,1.288 1.219,0.273zm-6.317 4.447c0.778,1.351 3.451,2.6 5.885,2.474 2.229,-0.116 3.541,-1.149 4.933,-2.257 0.343,-0.272 0.349,-0.196 0.42,-0.627 -0.742,0.375 -1.238,1.789 -2.629,1.133 -0.21,0.273 -0.232,0.935 -1.304,1.203 -0.978,0.244 -1.43,0.149 -1.993,-0.286 -0.645,0.267 -0.61,0.58 -1.686,0.209 -0.825,-0.285 -0.732,-0.302 -1.155,-0.982 -0.681,-0.057 -0.76,0.158 -1.341,-0.266 -0.309,-0.225 -0.657,-0.64 -0.926,-0.9 -0.328,-0.622 -0.516,-0.62 -0.364,-1.466 -0.493,-0.341 -0.953,-0.396 -1.205,-1.741 -0.36,-1.92 0.211,-1.887 0.339,-2.197 0.266,-0.641 -0.143,-0.731 0.728,-2.122 0.627,-1.002 1.292,-1.357 0.932,-1.654 -0.169,-0.084 -0.407,0.096 -0.59,0.293 -0.316,0.343 -0.241,0.268 -0.138,0.654 -0.04,0.004 -0.284,0.001 -0.29,0.003 -0.708,0.201 -1.377,2.972 -1.352,4.265 0.027,1.373 0.732,3.752 1.736,4.264zm8.569 4.972l0.766 -0.211c0.59,-0.116 0.616,-0.351 1.251,-0.331 -0.093,0.05 -0.071,0.037 -0.181,0.064l-0.23 0.097c0.328,-0.019 0.985,-0.24 1.249,-0.065 0.165,0.11 0.177,0.281 0.185,0.536 0.012,0.333 -0.053,0.349 -0.084,0.607 -0.018,0.148 0.016,0.234 -0.001,0.373 -0.014,0.119 -0.062,0.157 -0.087,0.255 -0.08,0.304 0.101,0.059 0.1,0.547 -0.001,0.368 0.334,0.725 0.119,1.058 -0.286,-0.003 -0.565,-0.245 -0.794,-0.291 0.112,0.156 0.563,0.364 0.629,0.522 -0.147,0.107 -1.893,0.362 -2.322,0.438 -0.255,0.045 -0.57,0.168 -0.711,-0.017 -0.241,-0.315 -0.191,-2.025 -0.147,-2.547 0.011,-0.138 0.021,-0.277 0.036,-0.414 0.007,-0.061 0.027,-0.16 0.031,-0.211l-0.03 -0.188c-0.097,0.081 -0.064,0.002 -0.073,0.172 -0.055,-0.101 -0.028,-0.153 -0.07,-0.278 -0.036,-0.106 -0.063,-0.1 -0.106,-0.197l0.47 0.081zm-1.753 2.245c-0.928,0.01 -0.884,-0.003 -0.817,-1.398 0.018,-0.362 0.025,-0.73 0.045,-1.095 0.016,-0.296 -0.027,-0.778 0.249,-0.753 0.111,0.01 0.019,-0.014 0.084,0.035 -0.283,0.077 -0.23,0.087 -0.25,0.436 0.172,-0.073 0.029,0.035 0.149,-0.129 0.381,-0.521 0.731,0.066 0.952,0.164 0.299,0.132 0.778,0.142 0.911,0.832 0.095,0.491 0.103,2.946 -0.051,3.314 -0.173,-0.066 -1.937,-1.051 -2.003,-1.202 0.289,-0.197 0.526,-0.087 0.731,-0.204zm1.687 -4.314c1.361,-0.27 1.032,0.367 1.16,0.952l0.046 -0.122c0.005,-0.026 0.009,-0.08 0.012,-0.109 0.016,-0.206 0.007,-0.454 0.143,-0.609 0.299,0.066 0.594,0.438 1.185,0.635 0,0.267 -0.058,0.271 -0.278,0.347 -0.205,0.07 -0.211,0.114 -0.366,0.203l-1.769 0.581c-0.285,0.05 -0.536,-0.175 -0.638,-0.191 -0.164,-0.026 -0.054,0.016 -0.056,0.016 -0.213,0.112 0.238,-0.005 -0.044,0.029 -0.108,-0.101 -0.34,-0.211 -0.466,-0.288 -0.669,-0.409 -1.154,-0.6 -0.923,-1.123l1.994 -0.321zm-2.696 4.472c0.035,0.159 1.687,1.077 1.931,1.218 0.557,0.323 0.476,0.278 1.195,0.157 0.679,-0.114 2.052,-0.32 2.65,-0.453 0.27,-0.06 0.297,-0.207 0.299,-0.504l0 -2.314c0,-0.364 0.077,-1.217 -0.101,-1.46 -0.092,-0.125 -0.751,-0.511 -0.952,-0.641 -1.999,-1.296 -0.761,-0.995 -3.259,-0.461 -1.885,0.403 -1.628,0.182 -1.673,1.424 -0.017,0.478 -0.155,2.745 -0.09,3.034zm-3.522 -2.997c0.316,-0.055 0.353,-0.006 0.713,-0.117 0.226,-0.07 0.214,0.005 0.34,-0.015 0.076,-0.011 0.145,-0.093 0.249,-0.113 -0.095,0.066 -0.122,0.149 -0.248,0.24 -0.138,0.099 -0.192,0.087 -0.231,0.302 -0.036,0.207 -0.01,0.723 -0.06,0.892 -0.016,0.053 -0.019,0.048 -0.037,0.073 -0.043,-1.555 -0.505,-0.919 -0.726,-1.262zm2.026 -0.547c-0.058,0.076 -0.025,0.018 -0.06,0.108 0.119,-0.045 0.171,-0.101 0.292,-0.143 0.212,-0.072 0.197,-0.002 0.384,-0.023 -0.027,-0.257 -0.153,-0.156 -0.367,-0.117 0.153,-0.084 0.249,-0.119 0.444,-0.065 -0.008,0.486 0.005,2.887 -0.132,3.129l-0.049 -0.586c-0.057,0.087 -0.039,0.507 -0.236,0.804 -0.309,0.064 -0.431,0.003 -0.714,0.011 0.052,0.069 -0.003,0.018 0.065,0.06 0.127,0.079 0.392,0.044 0.533,0.14l-0.165 0.179c-0.004,-0.007 -0.014,0.017 -0.011,0.042l0.391 -0.193c-0.074,0.13 -0.762,0.767 -0.886,0.811 -0.175,-0.046 -0.365,-0.217 -0.452,-0.35 -0.089,-0.136 -0.111,-0.428 -0.132,-0.622 -0.077,-0.72 -0.205,-2.127 0.291,-2.663 0.154,-0.167 0.621,-0.528 0.907,-0.627l-0.103 0.105zm-1.028 -0.057c0.247,0.201 0.487,-0.094 0.766,-0.061 -0.115,0.338 -1.009,0.427 -1.13,0.467 -0.914,0.295 -1.71,-0.271 -2.401,-0.221 0.087,0.06 0.189,0.074 0.27,0.149 -0.036,0 -0.534,-0.054 -0.588,-0.069 0.093,0.158 0.245,0.138 0.541,0.184 0.214,0.034 0.413,0.061 0.627,0.092 0.321,0.048 0.199,0.14 0.537,0.175 0.185,0.019 0.496,0.033 0.647,0.113 0.504,0.265 0.433,1.745 0.491,2.469 0.019,0.245 0.11,1.135 0.017,1.309 -0.181,0.336 -0.777,0.154 -1.15,0.087 -0.512,-0.092 -2.159,-0.269 -2.419,-0.525 0.033,-0.337 0.558,-0.466 0.755,-0.72 -0.166,-0.102 -0.139,0.09 -0.494,0.029 -0.08,-0.152 -0.064,-0.335 -0.116,-0.525 -0.077,-0.279 -0.148,0.008 -0.203,-0.434 -0.049,-0.395 -0.064,-0.818 -0.121,-1.173 -0.035,0.32 0.007,1.356 0.081,1.7 0.04,0.187 -0.03,0.289 -0.104,0.436 -0.074,-0.118 -0.122,-2.652 -0.074,-2.92 0.201,-0.133 0.259,-0.168 0.579,-0.224l-0.095 -0.102c-0.211,-0.194 -0.166,-0.041 -0.365,0.125 -0.058,-0.42 0.522,-0.718 0.817,-0.839 -0.124,0.205 -0.411,0.163 -0.35,0.535 0.246,0.03 0.17,-0.123 0.39,-0.027 -0.027,-0.19 -0.08,-0.095 -0.156,-0.258 0.148,-0.172 0.171,-0.017 0.253,-0.263 0.114,-0.346 0.896,-0.549 1.019,-0.425 0.113,0.225 -0.033,0.599 0.105,0.825 0.248,-0.329 -0.426,-1.292 1.121,-0.912 0.612,0.15 1.314,0.166 1.945,0.281 0.047,0.536 -0.397,0.435 -0.489,0.443 -0.097,0.009 -0.682,0.257 -0.706,0.279zm-1.745 -1.219c-0.691,0.198 -1.524,0.642 -2.127,0.962 -0.431,0.229 -0.328,0.554 -0.322,1.204l0.027 3.069c0.015,0.427 0.362,0.397 1.025,0.513 0.827,0.143 1.801,0.37 2.608,0.455 0.534,0.056 0.751,-0.261 1.207,-0.658l0.603 -0.571c0.35,-0.391 0.502,-0.207 0.513,-0.988l0.05 -3.035c-0.004,-0.596 -0.408,-0.536 -0.947,-0.601 -0.446,-0.053 -0.932,-0.074 -1.369,-0.152 -0.331,-0.059 -0.983,-0.28 -1.268,-0.198zm-0.77 4.5c0.73,-0.178 0.169,-0.372 1.394,-0.233l0.173 -0.008c0.005,-0.001 0.017,-0.004 0.024,-0.008 -0.255,-0.164 -0.738,-0.079 -0.841,-0.521 -0.098,-0.422 0.052,-0.965 -0.068,-1.298 -0.248,0.101 0.04,0.591 -0.055,1.243 -0.08,0.544 -0.497,0.588 -0.627,0.825zm0.817 1.286c0.153,0.104 1.152,0.086 1.176,0.081 0.352,-0.071 0.313,-0.859 0.248,-1.161 -0.066,-0.022 0.009,-0.002 -0.042,-0.001 -0.156,0.001 0.112,0.061 -0.03,0.001 -0.028,-0.206 0,-0.438 -0.08,-0.578 -0.033,0.372 0.165,1.246 -0.005,1.449 -0.188,0.225 -1.072,0.148 -1.371,0.091 0.048,0.074 -0.03,0.027 0.104,0.118zm6.963 -1.334c0.291,0.09 0.651,-0.18 1.539,0.129 -0.678,-0.526 -0.252,-0.675 -0.392,-1.606 -0.071,0.304 -0.065,0.879 -0.18,1.117 -0.14,0.29 -0.684,0.24 -0.967,0.36zm-1.026 -1.813c-0.154,-0.106 -0.05,-0.175 -0.294,-0.152l-0.023 0.286 -0.189 0.064c0.075,0.048 0.215,0.108 0.291,0.108l0.003 -0.272c0.242,0.077 0.066,0.107 0.288,0.136 0.088,-0.14 0.029,-0.172 0.106,-0.314 0.338,0.165 0.227,0.715 0.345,0.895 0.012,-0.311 -0.008,-0.72 -0.146,-0.968 -0.048,-0.087 -0.163,-0.224 -0.294,-0.235 -0.181,-0.015 -0.09,0.285 -0.087,0.452zm0.852 -15.136c-0.541,0 -0.98,0.439 -0.98,0.98 0,0.541 0.439,0.98 0.98,0.98 0.541,0 0.98,-0.439 0.98,-0.98 0,-0.541 -0.439,-0.98 -0.98,-0.98zm0.114 0.222c-0.086,0 -0.168,0.018 -0.243,0.049 0.394,0.116 0.705,0.427 0.821,0.821 0.031,-0.075 0.049,-0.157 0.049,-0.243 0,-0.346 -0.281,-0.627 -0.627,-0.627zm-1.595 -1.12c-0.367,0 -0.664,0.297 -0.664,0.664 0,0.366 0.297,0.664 0.664,0.664 0.366,0 0.664,-0.298 0.664,-0.664 0,-0.367 -0.298,-0.664 -0.664,-0.664zm0.077 0.15c-0.058,0 -0.114,0.012 -0.165,0.033 0.268,0.079 0.478,0.289 0.557,0.557 0.021,-0.051 0.033,-0.107 0.033,-0.165 0,-0.235 -0.19,-0.425 -0.425,-0.425zm1.327 -0.715c-0.295,0 -0.535,0.239 -0.535,0.534 0,0.296 0.24,0.535 0.535,0.535 0.296,0 0.535,-0.239 0.535,-0.535 0,-0.295 -0.239,-0.534 -0.535,-0.534zm0.062 0.121c-0.047,0 -0.091,0.009 -0.132,0.027 0.215,0.063 0.385,0.232 0.448,0.448 0.017,-0.041 0.027,-0.086 0.027,-0.133 0,-0.189 -0.154,-0.342 -0.343,-0.342zm-1.507 2.785c-0.283,0 -0.511,0.228 -0.511,0.511 0,0.282 0.228,0.511 0.511,0.511 0.282,0 0.511,-0.229 0.511,-0.511 0,-0.283 -0.229,-0.511 -0.511,-0.511zm0.059 0.115c-0.045,0 -0.088,0.009 -0.126,0.026 0.205,0.06 0.367,0.222 0.428,0.428 0.016,-0.039 0.025,-0.082 0.025,-0.127 0,-0.18 -0.146,-0.327 -0.327,-0.327zm-0.588 1.127c-0.233,0 -0.422,0.189 -0.422,0.422 0,0.233 0.189,0.422 0.422,0.422 0.233,0 0.422,-0.189 0.422,-0.422 0,-0.233 -0.189,-0.422 -0.422,-0.422zm0.049 0.096c-0.037,0 -0.072,0.008 -0.104,0.021 0.169,0.05 0.303,0.184 0.353,0.353 0.013,-0.032 0.021,-0.067 0.021,-0.104 0,-0.149 -0.121,-0.27 -0.27,-0.27zm1.353 -5.289c-0.198,0 -0.36,0.161 -0.36,0.359 0,0.199 0.162,0.36 0.36,0.36 0.199,0 0.36,-0.161 0.36,-0.36 0,-0.198 -0.161,-0.359 -0.36,-0.359zm0.042 0.081c-0.032,0 -0.062,0.007 -0.089,0.018 0.145,0.043 0.259,0.157 0.301,0.302 0.012,-0.028 0.018,-0.058 0.018,-0.09 0,-0.127 -0.103,-0.23 -0.23,-0.23z"/>
  </g>
 </g>
</svg>
