<?xml version="1.0" encoding="UTF-8"?>
<!DOCTYPE svg PUBLIC "-//W3C//DTD SVG 1.1//EN" "http://www.w3.org/Graphics/SVG/1.1/DTD/svg11.dtd">
<!-- Creator: CorelDRAW -->
<svg xmlns="http://www.w3.org/2000/svg" xml:space="preserve" width="120px" height="120px" version="1.1" style="shape-rendering:geometricPrecision; text-rendering:geometricPrecision; image-rendering:optimizeQuality; fill-rule:evenodd; clip-rule:evenodd"
viewBox="0 0 51.67 51.67"
 xmlns:xlink="http://www.w3.org/1999/xlink"
 xmlns:xodm="http://www.corel.com/coreldraw/odm/2003">
 <defs>
  <style type="text/css">
   <![CDATA[
    .fil1 {fill:#CCBBA1}
    .fil2 {fill:#EC725E}
    .fil0 {fill:#EDE3C8}
   ]]>
  </style>
 </defs>
 <g id="Layer_x0020_1">
  <metadata id="CorelCorpID_0Corel-Layer"/>
  <g id="_1792503218128">
   <rect class="fil0" width="51.67" height="51.67"/>
   <path class="fil1" d="M41.074 21.335l0.693 6.649c1.259,3.092 1.829,9.549 0.184,13.291 -1.211,2.754 -2.701,4.404 -4.632,4.957 -2.787,0.798 -5.459,-0.171 -6.783,-3.136 -2.21,-4.952 -0.66,-1.639 -2.099,-6.519 -1.024,-3.47 -3.371,-3.929 -5.929,-4.794 -3.044,-1.03 -4.73,-2.909 -4.309,-6.19 0.48,-3.747 0.555,-3.165 2.603,-8.525 0.76,-1.748 1.841,-2.935 2.937,-4.379 9.312,-15.332 17.806,-4.722 18.245,-0.165 0.237,2.461 -0.131,6.688 -0.91,8.811z"/>
   <path id="path2228" class="fil2" d="M16.985 35.205c0,-0.124 0.183,-0.371 0.407,-0.55 0.223,-0.178 0.481,-0.253 0.571,-0.165 0.091,0.087 0.013,0.334 -0.172,0.549 -0.186,0.215 -0.443,0.391 -0.572,0.391 -0.128,0 -0.234,-0.102 -0.234,-0.225zm-8.022 -19.215c-0.262,0.609 -0.243,0.811 0.109,1.186 0.27,0.287 0.367,0.682 0.265,1.083 -0.088,0.347 -0.365,0.862 -0.617,1.144 -0.251,0.282 -0.532,0.717 -0.623,0.967 -0.091,0.249 0.033,0.855 0.277,1.346l0.443 0.894 -0.563 0.731c-0.309,0.403 -0.683,1.354 -0.83,2.115 -0.147,0.761 -0.348,1.581 -0.445,1.823 -0.12,0.296 0.067,0.657 0.577,1.111 0.491,0.437 0.769,0.956 0.795,1.484 0.022,0.447 0.097,1.127 0.166,1.512 0.069,0.384 0.271,0.868 0.449,1.073 0.213,0.248 0.261,0.767 0.142,1.536 -0.212,1.354 0.069,1.779 0.558,2.187 0.752,0.735 1.715,0.553 3.507,0.491 1.594,-0.055 2.44,-0.603 2.813,0.784 0.13,0.48 0.18,1.807 0.111,2.949 -0.069,1.141 -0.167,2.364 -0.219,2.716 -0.08,0.553 0.021,0.652 0.732,0.719 0.609,0.057 1.115,-0.145 1.932,-0.77 0.608,-0.465 1.49,-1.135 1.958,-1.487 0.469,-0.353 1.16,-0.769 1.536,-0.926 0.41,-0.171 0.864,-0.196 1.134,-0.063 0.316,0.155 0.556,0.087 0.801,-0.228 0.231,-0.299 0.797,-0.478 1.682,-0.532 0.734,-0.046 1.649,0.032 2.033,0.173 0.493,0.18 0.79,0.169 1.005,-0.037 0.229,-0.22 1.027,0.399 3.196,2.477 1.631,1.564 3.575,3.151 4.463,3.643 0.864,0.48 1.799,0.845 2.077,0.811 0.361,-0.044 0.597,-0.409 0.825,-1.277 0.382,-1.455 0.238,-1.153 0.043,-2.59l-0.169 -1.242 1.664 0.088c1.61,0.084 1.673,0.485 1.646,-0.956 -0.01,-0.574 -0.28,-1.562 -0.6,-2.196 -0.319,-0.634 -0.581,-1.239 -0.581,-1.344 0,-0.105 0.108,-0.127 0.24,-0.048 0.132,0.078 0.621,0.068 1.087,-0.021 0.55,-0.106 0.932,-0.373 1.084,-0.759 0.168,-0.424 0.09,-0.911 -0.27,-1.695 -0.279,-0.604 -0.484,-1.214 -0.457,-1.356 0.028,-0.141 0.35,-0.256 0.717,-0.256 0.563,0 0.68,-0.135 0.753,-0.869 0.048,-0.478 0.016,-1.139 -0.07,-1.469 -0.087,-0.331 -0.534,-1.014 -0.994,-1.517l-0.836 -0.916 0.564 -0.142c0.311,-0.079 0.635,-0.354 0.721,-0.613 0.085,-0.259 -0.091,-0.934 -0.392,-1.501 -0.3,-0.566 -0.545,-1.179 -0.543,-1.361 0.002,-0.181 0.423,-0.591 0.936,-0.911l0.932 -0.58 -0.416 -0.958c-0.229,-0.527 -0.729,-1.272 -1.11,-1.655l-0.694 -0.696 0.774 -0.273c0.426,-0.15 0.916,-0.32 1.088,-0.377 0.177,-0.06 0.251,-0.362 0.171,-0.698 -0.078,-0.326 -0.633,-1.011 -1.232,-1.522l-1.09 -0.929 0.844 -0.419c0.465,-0.231 0.965,-0.636 1.111,-0.899 0.213,-0.382 0.072,-0.718 -0.698,-1.668 -0.531,-0.655 -1.247,-1.259 -1.592,-1.342 -0.345,-0.083 -0.627,-0.242 -0.627,-0.352 0,-0.111 0.303,-0.274 0.673,-0.364 0.371,-0.089 0.911,-0.39 1.2,-0.669 0.29,-0.278 0.527,-0.659 0.527,-0.845 0,-0.199 -0.802,-0.573 -1.934,-0.902 -1.063,-0.309 -3.314,-0.921 -5.001,-1.36 -2.16,-0.562 -3.894,-0.834 -5.867,-0.921 -1.852,-0.081 -3.587,0.008 -5.122,0.265 -1.277,0.213 -2.994,0.684 -3.817,1.046 -1.203,0.53 -1.739,0.628 -2.746,0.502 -0.687,-0.086 -1.392,-0.264 -1.566,-0.395 -0.204,-0.154 -0.557,-0.086 -1,0.193 -0.376,0.237 -0.699,0.563 -0.716,0.722 -0.017,0.161 -0.017,0.378 0,0.484 0.017,0.106 -0.134,0.192 -0.336,0.192 -0.202,0 -0.517,0.173 -0.699,0.385 -0.183,0.211 -0.58,0.384 -0.883,0.384 -0.302,0 -0.827,0.251 -1.167,0.558 -0.339,0.307 -0.617,0.801 -0.617,1.099 0,0.315 -0.606,1.116 -1.453,1.92 -0.799,0.758 -1.595,1.709 -1.769,2.113zm1.347 2.26c0.288,0 0.979,0.241 1.533,0.536 0.555,0.296 1.122,0.642 1.262,0.77 0.139,0.127 0.364,0.232 0.499,0.232 0.135,0 0.081,-0.192 -0.12,-0.427 -0.328,-0.382 -0.31,-0.397 0.167,-0.149 0.294,0.153 1.423,1.156 2.51,2.23 1.087,1.073 2.377,2.55 2.867,3.281 0.49,0.732 0.89,1.391 0.889,1.467 -0.001,0.075 -0.564,0.162 -1.251,0.192 -0.687,0.031 -1.406,0.114 -1.598,0.184 -0.192,0.071 -0.35,0.383 -0.35,0.694 0,0.311 0.205,0.782 0.456,1.048 0.25,0.266 0.466,0.924 0.48,1.462 0.015,0.582 0.225,1.17 0.517,1.451 0.354,0.341 0.887,0.472 1.915,0.472l1.425 0 -0.062 4.28c-0.035,2.354 -0.123,4.187 -0.196,4.074 -0.074,-0.112 -0.554,0.008 -1.067,0.267 -0.514,0.26 -1.234,0.602 -1.601,0.76 -0.366,0.158 -0.936,0.531 -1.266,0.828l-0.6 0.541 -0.002 -2.674c0,-1.541 -0.002,-2.93 -0.397,-3.557 -0.263,-0.304 -0.666,-0.666 -1.73,-0.31 -0.486,0.163 -1.443,0.297 -2.125,0.297 -0.683,0 -1.564,-0.144 -1.959,-0.321 -0.468,-0.209 -0.735,-0.543 -0.768,-0.961 -0.01,-0.138 -0.016,-0.321 -0.018,-0.52 0.011,0.005 0.023,0.007 0.036,0.007 0.145,0 0.346,-0.128 0.446,-0.284 0.128,-0.198 0.248,-0.181 0.401,0.057 0.121,0.187 0.294,0.268 0.386,0.18 0.091,-0.088 0.02,-0.384 -0.158,-0.659 -0.186,-0.286 -0.249,-0.788 -0.147,-1.179 0.097,-0.373 0.355,-0.679 0.572,-0.679 0.263,0 0.395,-0.263 0.395,-0.787 0,-0.626 -0.095,-0.761 -0.467,-0.661 -0.256,0.069 -0.736,0.2 -1.066,0.291 -0.33,0.091 -0.6,0.273 -0.6,0.405 0,0.131 0.172,0.239 0.384,0.239 0.211,0 0.469,0.132 0.573,0.294 0.13,0.202 -0.03,0.253 -0.518,0.163 -0.372,-0.068 -0.596,-0.04 -0.675,0.084 -0.02,-0.135 -0.031,-0.281 -0.031,-0.428 0,-0.485 -0.12,-0.882 -0.267,-0.882 -0.147,0 -0.267,-0.231 -0.267,-0.513 0,-0.282 0.12,-0.513 0.267,-0.513 0.147,0 0.267,-0.208 0.267,-0.461 0,-0.254 -0.144,-0.601 -0.32,-0.77 -0.176,-0.169 -0.536,-0.307 -0.8,-0.307 -0.331,0 -0.48,-0.195 -0.48,-0.627 0,-0.344 0.12,-0.697 0.266,-0.784 0.147,-0.087 0.267,-0.649 0.267,-1.249 0,-0.736 0.173,-1.269 0.533,-1.641 0.294,-0.302 0.534,-0.901 0.534,-1.33 0,-0.429 -0.12,-0.78 -0.267,-0.78 -0.147,0 -0.267,-0.325 -0.267,-0.721 0,-0.396 0.241,-0.968 0.534,-1.271 0.293,-0.303 0.533,-0.729 0.533,-0.946 0,-0.222 0.23,-0.395 0.526,-0.395zm-0.607 14.585c-0.04,-0.174 -0.102,-0.304 -0.177,-0.349l0.015 0.009c0.084,0.05 0.139,0.171 0.162,0.34zm-0.177 -0.349c-0.006,-0.004 -0.012,-0.009 -0.019,-0.014l0.019 0.014zm11.826 -2.713c0.532,-0.301 0.968,-0.644 0.968,-0.761 0,-0.118 -0.27,-0.264 -0.601,-0.325 -0.517,-0.096 -0.526,-0.115 -0.066,-0.142 0.293,-0.017 0.713,0.085 0.933,0.227 0.342,0.22 0.31,0.331 -0.22,0.758 -0.341,0.275 -0.555,0.602 -0.476,0.726 0.08,0.124 -0.315,0.358 -0.877,0.52 -0.562,0.162 -1.069,0.287 -1.125,0.278 -0.056,-0.009 -0.38,-0.123 -0.719,-0.254 -0.498,-0.192 -0.601,-0.4 -0.534,-1.074l0.084 -0.835 1 -0.08c0.706,-0.056 1,0.023 1,0.269 0,0.192 -0.142,0.486 -0.315,0.653 -0.174,0.167 -0.249,0.368 -0.167,0.446 0.081,0.079 0.584,-0.104 1.115,-0.406zm3.901 4.644c0,-0.434 0.145,-1.012 0.322,-1.284 0.262,-0.404 0.238,-0.584 -0.134,-0.979 -0.25,-0.265 -0.454,-0.711 -0.454,-0.991 0,-0.279 0.17,-0.731 0.378,-1.005 0.208,-0.273 0.473,-0.406 0.589,-0.294 0.116,0.111 0.176,0.669 0.133,1.238 -0.053,0.706 0.07,1.192 0.386,1.528l0.463 0.492 -0.441 0.469c-0.307,0.326 -0.442,0.935 -0.442,2 0,0.866 -0.142,1.667 -0.326,1.845 -0.258,0.248 -0.258,0.421 0.002,0.821 0.181,0.278 0.232,0.506 0.113,0.506 -0.118,0 -0.359,-0.138 -0.535,-0.308 -0.177,-0.169 -0.32,-0.461 -0.32,-0.65 0,-0.188 0.188,-0.619 0.418,-0.957 0.32,-0.468 0.351,-0.737 0.134,-1.128 -0.157,-0.282 -0.286,-0.868 -0.286,-1.303zm1.334 0.529c0,-0.35 0.262,-0.905 0.582,-1.233l0.582 -0.595 -0.582 -0.757c-0.32,-0.416 -0.582,-0.985 -0.582,-1.265 0,-0.279 0.12,-0.579 0.266,-0.667 0.147,-0.087 0.267,-0.368 0.267,-0.625 0,-0.256 -0.48,-0.942 -1.066,-1.523 -0.679,-0.673 -0.919,-1.057 -0.659,-1.057 0.225,0 0.477,0.173 0.561,0.383 0.084,0.211 0.261,0.32 0.392,0.242 0.131,-0.078 0.239,-0.458 0.239,-0.845 0,-0.387 -0.131,-0.829 -0.292,-0.983 -0.211,-0.203 -0.166,-0.464 0.161,-0.944l0.453 -0.664 -0.695 -0.794c-0.394,-0.451 -0.694,-1.111 -0.694,-1.528 0,-0.404 0.13,-0.811 0.288,-0.906 0.159,-0.094 0.639,0.152 1.067,0.546 0.478,0.44 0.779,0.98 0.779,1.399 0,0.375 0.206,1.075 0.458,1.555 0.251,0.48 0.422,1.086 0.378,1.347 -0.043,0.261 0.062,0.802 0.235,1.203 0.236,0.549 0.239,0.946 0.011,1.61 -0.237,0.692 -0.221,1.107 0.077,1.938 0.208,0.581 0.302,1.057 0.208,1.057 -0.094,0 -0.338,0.363 -0.542,0.807 -0.286,0.62 -0.301,0.916 -0.065,1.278 0.168,0.26 0.306,0.739 0.306,1.065 0,0.327 -0.15,0.738 -0.333,0.914 -0.184,0.176 -0.453,0.912 -0.6,1.635 -0.147,0.723 -0.396,1.354 -0.553,1.404 -0.157,0.049 -0.493,-0.131 -0.746,-0.4l-0.461 -0.489 0.563 -0.963c0.397,-0.679 0.479,-1.044 0.28,-1.235 -0.156,-0.15 -0.283,-0.559 -0.283,-0.91zm2.013 2.791c0.124,0 0.712,0.313 1.306,0.694 0.595,0.382 1.895,1.313 2.89,2.069 0.994,0.756 2.104,1.826 2.467,2.378 0.362,0.552 0.658,1.063 0.658,1.137 0,0.073 -0.09,0.124 -0.2,0.113 -0.11,-0.011 -0.36,-0.082 -0.557,-0.158 -0.197,-0.075 -1.805,-1.508 -3.573,-3.185 -1.769,-1.676 -3.115,-3.048 -2.991,-3.048zm-7.481 -11.115c0.294,-0.224 0.72,-0.411 0.947,-0.415 0.228,-0.005 0.542,-0.132 0.699,-0.283 0.203,-0.196 0.45,-0.074 0.854,0.419 0.312,0.382 0.567,0.842 0.567,1.023 0,0.181 -0.073,0.512 -0.161,0.735 -0.089,0.223 -0.3,0.396 -0.467,0.385 -0.168,-0.011 -0.455,-0.078 -0.638,-0.149 -0.257,-0.1 -0.241,-0.256 0.067,-0.678 0.219,-0.302 0.399,-0.633 0.399,-0.736 0,-0.103 -0.63,-0.121 -1.4,-0.041l-1.4 0.147 0.533 -0.407zm11.869 11.512c0.806,0.602 1.96,1.595 2.562,2.208 0.603,0.612 1.168,1.312 1.255,1.554 0.088,0.242 0.073,0.492 -0.034,0.556 -0.107,0.063 -1.092,-0.753 -2.189,-1.815 -1.097,-1.061 -2.708,-2.379 -3.581,-2.927 -0.873,-0.549 -1.683,-0.998 -1.8,-0.998 -0.118,0 -0.214,-0.173 -0.214,-0.385 0,-0.212 0.065,-0.384 0.144,-0.384 0.079,0 0.649,0.247 1.267,0.549 0.618,0.302 1.783,1.041 2.59,1.642zm-8.395 -9.633c0.224,-0.178 0.481,-0.253 0.571,-0.166 0.091,0.088 0.013,0.335 -0.172,0.55 -0.186,0.215 -0.443,0.391 -0.572,0.391 -0.128,0 -0.234,-0.102 -0.234,-0.225 0,-0.124 0.183,-0.371 0.407,-0.55zm6.17 5.585c0.857,0.409 2.426,1.323 3.486,2.029 1.061,0.705 2.428,1.828 3.038,2.494 0.62,0.677 1.004,1.303 0.872,1.42 -0.131,0.115 -0.417,0.148 -0.637,0.074 -0.22,-0.074 -1.072,-0.729 -1.892,-1.456 -0.821,-0.727 -2.429,-1.921 -3.573,-2.654 -1.145,-0.733 -2.155,-1.333 -2.245,-1.333 -0.09,0 -0.32,-0.242 -0.512,-0.537 -0.193,-0.296 -0.293,-0.593 -0.223,-0.661 0.07,-0.067 0.829,0.214 1.686,0.624zm-8.846 -8.66c-0.101,-0.157 0.027,-0.509 0.284,-0.782 0.258,-0.273 0.719,-0.499 1.027,-0.501 0.307,-0.002 0.736,-0.111 0.952,-0.243 0.27,-0.164 0.544,-0.11 0.867,0.172 0.26,0.226 0.473,0.739 0.473,1.141 0,0.401 -0.09,0.722 -0.2,0.713 -0.11,-0.009 -0.45,-0.316 -0.755,-0.683 -0.354,-0.426 -0.677,-0.594 -0.895,-0.465 -0.273,0.163 -0.269,0.25 0.021,0.444 0.251,0.166 0.173,0.19 -0.251,0.075 -0.337,-0.092 -0.776,-0.036 -0.976,0.124 -0.266,0.212 -0.413,0.213 -0.547,0.005zm9.327 6.552c0.7,0.229 2.07,0.943 3.042,1.587 0.973,0.645 2.322,1.704 2.998,2.355 0.675,0.651 1.31,1.432 1.411,1.735 0.1,0.304 0.087,0.605 -0.029,0.669 -0.116,0.064 -0.487,-0.212 -0.825,-0.613 -0.338,-0.4 -1.598,-1.491 -2.8,-2.423 -1.203,-0.932 -2.947,-2.045 -3.877,-2.472 -1.04,-0.479 -1.594,-0.869 -1.442,-1.016 0.152,-0.147 0.738,-0.078 1.522,0.178zm-11.858 -9.692c0,-0.121 0.116,-0.151 0.259,-0.066 0.142,0.084 0.566,-0.04 0.942,-0.276 0.375,-0.237 0.759,-0.357 0.853,-0.267 0.093,0.091 -0.111,0.452 -0.455,0.804 -0.344,0.352 -0.701,0.64 -0.792,0.64 -0.092,0 -0.311,-0.138 -0.487,-0.307 -0.176,-0.17 -0.32,-0.407 -0.32,-0.528zm11.34 7.515c0.584,0.266 1.206,0.487 1.383,0.491 0.177,0.005 0.739,0.269 1.25,0.586 0.511,0.317 1.408,0.855 1.994,1.195 0.587,0.339 1.614,1.122 2.284,1.74 0.67,0.617 1.218,1.233 1.218,1.369 0,0.136 -0.165,0.248 -0.367,0.248 -0.202,0 -0.528,-0.186 -0.724,-0.414 -0.197,-0.227 -1.381,-1.071 -2.633,-1.874 -1.252,-0.804 -3.087,-1.829 -4.077,-2.279 -0.99,-0.45 -1.8,-0.926 -1.8,-1.059 0,-0.133 0.092,-0.297 0.205,-0.364 0.113,-0.067 0.683,0.096 1.267,0.361zm-12.504 -8.95c-0.545,-0.548 -0.631,-0.774 -0.383,-1.012 0.176,-0.169 0.716,-0.307 1.2,-0.307 0.484,0 0.88,0.033 0.88,0.074 0,0.04 -0.224,0.496 -0.497,1.012l-0.498 0.937 -0.702 -0.704zm3.275 2.513c-0.285,-0.169 -0.255,-0.319 0.154,-0.754l0.511 -0.542 0.473 0.591c0.26,0.325 0.475,0.648 0.478,0.719 0.004,0.07 -0.279,0.144 -0.627,0.163 -0.348,0.019 -0.793,-0.06 -0.989,-0.177zm11.491 6.168c0,-0.141 0.113,-0.256 0.251,-0.256 0.138,0 0.325,0.115 0.415,0.256 0.091,0.141 0.334,0.256 0.54,0.256 0.206,0 0.889,0.351 1.518,0.78 0.629,0.429 1.52,1.03 1.982,1.337 0.461,0.307 0.979,0.775 1.151,1.041 0.173,0.265 0.276,0.514 0.229,0.553 -0.047,0.039 -0.766,-0.463 -1.598,-1.115 -0.832,-0.652 -2.048,-1.503 -2.702,-1.89 -0.654,-0.388 -1.323,-0.706 -1.488,-0.706 -0.164,0 -0.298,-0.115 -0.298,-0.256zm-13.069 -8.051c0,-0.113 0.194,-0.598 0.431,-1.077 0.236,-0.48 0.532,-0.872 0.657,-0.872 0.125,0 0.351,0.223 0.503,0.496 0.152,0.272 0.276,0.618 0.276,0.769 0,0.15 -0.276,0.273 -0.613,0.273 -0.338,0 -0.758,0.139 -0.934,0.308 -0.176,0.169 -0.32,0.215 -0.32,0.103zm9.458 4.189c-0.073,-0.113 -0.037,-0.262 0.079,-0.331 0.117,-0.069 0.869,0.024 1.672,0.207 0.803,0.183 2.172,0.577 3.042,0.874 0.871,0.299 2.038,0.832 2.595,1.186 0.557,0.354 1.105,0.644 1.218,0.645 0.113,0.001 0.566,0.279 1.005,0.618 0.441,0.339 0.732,0.683 0.649,0.764 -0.083,0.081 -0.263,0.044 -0.4,-0.081 -0.137,-0.126 -0.669,-0.454 -1.182,-0.729 -0.513,-0.276 -1.367,-0.737 -1.897,-1.026 -0.53,-0.289 -1.19,-0.637 -1.467,-0.774 -0.277,-0.137 -0.923,-0.373 -1.437,-0.524 -0.513,-0.152 -1.566,-0.354 -2.339,-0.45 -0.774,-0.096 -1.466,-0.267 -1.538,-0.379zm0.144 1.296c0,-0.094 0.81,0.03 1.8,0.276 0.99,0.246 2.4,0.65 3.134,0.898 0.733,0.247 2.143,0.961 3.132,1.584 0.989,0.624 1.866,1.24 1.949,1.369 0.083,0.129 -0.083,0.234 -0.368,0.234 -0.286,0 -1.144,-0.413 -1.907,-0.918 -0.763,-0.504 -1.446,-0.86 -1.518,-0.791 -0.072,0.07 -0.556,-0.151 -1.075,-0.489 -0.52,-0.339 -1.62,-0.805 -2.446,-1.036 -0.826,-0.231 -1.771,-0.541 -2.101,-0.688 -0.33,-0.147 -0.6,-0.345 -0.6,-0.439zm-6.252 2.822c0.228,0 0.341,0.116 0.251,0.257 -0.091,0.141 -0.278,0.256 -0.416,0.256 -0.138,0 -0.251,-0.115 -0.251,-0.256 0,-0.141 0.187,-0.257 0.416,-0.257zm-5.329 -2.739c0.265,-0.185 0.638,-0.338 0.83,-0.338 0.192,0 0.349,0.116 0.349,0.257 0,0.141 -0.112,0.256 -0.248,0.256 -0.137,0 -0.287,0.252 -0.333,0.561l-0.086 0.561 -0.496 -0.479 -0.496 -0.48 0.48 -0.338zm-1.659 -8.362l-0.571 -0.58 0.691 -0.313c0.38,-0.173 0.903,-0.314 1.162,-0.314l0.471 0 -0.55 0.898c-0.303,0.493 -0.569,0.895 -0.591,0.893 -0.023,-0.003 -0.298,-0.266 -0.612,-0.584zm7.739 2.96c-0.082,-0.247 -0.28,-0.711 -0.439,-1.031 -0.181,-0.362 -0.196,-0.673 -0.04,-0.822 0.137,-0.133 0.369,-0.159 0.514,-0.059 0.146,0.1 0.407,0.428 0.581,0.729 0.174,0.301 0.25,0.791 0.169,1.089 -0.081,0.299 -0.257,0.543 -0.391,0.543 -0.135,0 -0.312,-0.202 -0.394,-0.449zm4.567 1.641c0.147,0.021 1.145,0.168 2.218,0.326 1.074,0.157 2.934,0.665 4.134,1.127 1.201,0.462 2.697,1.156 3.326,1.543 0.629,0.386 1.072,0.814 0.984,0.949 -0.087,0.136 -0.302,0.244 -0.476,0.239 -0.175,-0.004 -0.618,-0.223 -0.985,-0.486 -0.367,-0.263 -1.567,-0.847 -2.667,-1.298 -1.1,-0.45 -2.185,-0.91 -2.411,-1.02 -0.226,-0.111 -1.186,-0.295 -2.133,-0.41 -0.948,-0.114 -1.843,-0.215 -1.99,-0.223 -0.147,-0.009 -0.267,-0.189 -0.267,-0.401 0,-0.211 0.12,-0.367 0.267,-0.346zm-13.695 -5.898c-0.123,0.21 -0.505,0.144 -1.324,-0.228l-1.151 -0.523 0.751 -0.322c0.413,-0.177 0.93,-0.377 1.15,-0.444 0.22,-0.067 0.517,-0.108 0.66,-0.091 0.143,0.017 0.221,0.32 0.174,0.672 -0.047,0.353 -0.164,0.774 -0.26,0.936zm3.313 1.404c-0.079,-0.124 0.046,-0.592 0.278,-1.039 0.232,-0.448 0.553,-0.772 0.713,-0.72 0.16,0.051 0.522,0.392 0.806,0.756 0.283,0.365 0.433,0.791 0.334,0.946 -0.1,0.155 -0.588,0.282 -1.084,0.282 -0.496,0 -0.967,-0.102 -1.047,-0.225zm11.49 2.913c0.977,0.072 2.447,0.312 3.268,0.534 0.82,0.221 2.603,0.932 3.962,1.58 1.358,0.648 2.603,1.333 2.766,1.521 0.226,0.262 0.197,0.344 -0.121,0.344 -0.229,0 -0.496,-0.123 -0.592,-0.273 -0.096,-0.15 -1.107,-0.71 -2.245,-1.245 -1.139,-0.535 -2.417,-1.066 -2.841,-1.181 -0.424,-0.114 -0.831,-0.228 -0.904,-0.252 -0.074,-0.025 -0.794,-0.144 -1.6,-0.265 -0.807,-0.122 -1.634,-0.189 -1.837,-0.15 -0.203,0.039 -0.653,0.002 -1,-0.082 -0.347,-0.083 -0.631,-0.267 -0.631,-0.407 0,-0.156 0.685,-0.204 1.775,-0.124zm-8.576 2.44c0.22,0 0.4,0.109 0.4,0.241 0,0.133 -0.103,0.303 -0.229,0.378 -0.126,0.075 -0.306,0.063 -0.4,-0.027 -0.094,-0.091 -0.171,-0.261 -0.171,-0.378 0,-0.118 0.18,-0.214 0.4,-0.214zm2.427 -4.893c-0.302,0.241 -0.534,0.071 -1.2,-0.879 -0.455,-0.647 -0.827,-1.229 -0.827,-1.292 0,-0.064 0.204,-0.116 0.453,-0.116 0.248,0 0.788,0.311 1.2,0.689 0.411,0.38 0.748,0.827 0.748,0.995 0,0.168 -0.169,0.439 -0.374,0.603zm2.096 1.047c-0.206,0 -0.561,-0.346 -0.789,-0.769 -0.235,-0.439 -0.296,-0.77 -0.14,-0.77 0.151,0 0.274,-0.173 0.274,-0.384 0,-0.212 -0.162,-0.385 -0.359,-0.385 -0.198,0 -0.556,-0.21 -0.798,-0.466 -0.37,-0.394 -0.387,-0.574 -0.108,-1.152 0.182,-0.377 0.541,-0.687 0.798,-0.688 0.354,-0.001 0.467,0.21 0.467,0.877 0,0.624 0.186,1.02 0.644,1.366 0.354,0.269 0.678,0.652 0.719,0.852 0.041,0.201 -0.017,0.625 -0.129,0.942 -0.112,0.317 -0.372,0.577 -0.579,0.577zm1.835 0.385c0.051,-0.146 0.999,-0.243 2.2,-0.224 1.161,0.018 2.351,0.083 2.644,0.144 0.293,0.061 1.013,0.203 1.6,0.315 0.587,0.111 1.487,0.346 2,0.521 0.514,0.175 1.443,0.538 2.064,0.807 0.622,0.268 1.095,0.596 1.051,0.728 -0.045,0.133 -0.193,0.271 -0.331,0.308 -0.138,0.036 -0.97,-0.198 -1.85,-0.521 -0.88,-0.324 -2.02,-0.734 -2.534,-0.911 -0.513,-0.177 -1.533,-0.466 -2.267,-0.642 -0.733,-0.175 -2.083,-0.308 -3,-0.294 -1.004,0.015 -1.631,-0.077 -1.577,-0.231zm-11.247 -3.206c-0.123,0 -0.223,-0.519 -0.223,-1.154 0,-0.634 0.061,-1.153 0.135,-1.153 0.074,0 0.591,0.202 1.149,0.448 0.558,0.247 1.017,0.528 1.021,0.625 0.004,0.096 -0.413,0.322 -0.927,0.5 -0.513,0.178 -0.933,0.417 -0.933,0.529 0,0.113 -0.1,0.205 -0.222,0.205zm22.358 3.85c-0.22,-0.122 -1.202,-0.516 -2.183,-0.875 -0.981,-0.358 -2.601,-0.799 -3.601,-0.979 -0.999,-0.179 -2.687,-0.325 -3.75,-0.323 -1.064,0.002 -1.934,-0.078 -1.934,-0.178 0,-0.101 0.132,-0.26 0.292,-0.356 0.16,-0.095 1.318,-0.156 2.574,-0.135 1.255,0.02 2.894,0.215 3.642,0.432 0.748,0.218 1.568,0.503 1.823,0.634 0.255,0.131 0.634,0.238 0.842,0.238 0.209,0 0.99,0.305 1.738,0.677 0.747,0.373 1.358,0.777 1.358,0.898 0,0.121 -0.09,0.213 -0.2,0.205 -0.11,-0.008 -0.38,-0.115 -0.601,-0.238zm-0.066 -1.816c-0.33,-0.01 -1.26,-0.246 -2.067,-0.524 -0.807,-0.278 -1.826,-0.616 -2.265,-0.751 -0.439,-0.135 -1.31,-0.246 -1.934,-0.246 -0.624,0 -1.135,-0.115 -1.135,-0.256 0,-0.141 0.538,-0.257 1.197,-0.257 0.658,0 2.128,0.245 3.267,0.543 1.139,0.299 2.4,0.706 2.803,0.904 0.404,0.199 0.734,0.416 0.734,0.483 0,0.067 -0.27,0.113 -0.6,0.104zm-0.542 -1.678c-0.09,-0.087 -0.967,-0.365 -1.95,-0.619 -0.983,-0.253 -1.951,-0.401 -2.152,-0.327 -0.2,0.074 -0.512,0.018 -0.694,-0.124 -0.181,-0.143 -1.475,-0.341 -2.875,-0.44 -1.595,-0.113 -2.935,-0.078 -3.586,0.095 -0.572,0.152 -1.098,0.22 -1.17,0.151 -0.072,-0.07 -0.019,-0.232 0.118,-0.361 0.137,-0.129 1.03,-0.335 1.985,-0.456 0.954,-0.122 2.634,-0.136 3.733,-0.031 1.099,0.105 2.599,0.313 3.332,0.461 0.734,0.149 1.962,0.53 2.73,0.847 0.767,0.317 1.397,0.663 1.399,0.769 0.003,0.105 -0.155,0.192 -0.351,0.192 -0.195,0 -0.429,-0.071 -0.519,-0.157zm-16.78 -1.358c-0.078,0.225 -0.512,-0.015 -1.298,-0.72 -0.649,-0.582 -1.096,-1.139 -0.994,-1.238 0.103,-0.098 0.484,-0.107 0.847,-0.019 0.364,0.088 0.746,0.419 0.849,0.736 0.103,0.317 0.306,0.65 0.45,0.739 0.145,0.09 0.211,0.315 0.146,0.502zm-9.349 -0.295c-0.183,-0.009 -0.557,-0.232 -0.829,-0.497l-0.497 -0.482 0.581 -0.785c0.32,-0.432 0.694,-0.785 0.83,-0.785 0.137,0 0.249,0.577 0.249,1.282 0,0.863 -0.109,1.277 -0.334,1.267zm1.528 -0.493c-0.171,0.136 -0.389,0.171 -0.486,0.079 -0.096,-0.093 -0.175,-0.592 -0.175,-1.109 0,-0.517 0.067,-1.005 0.15,-1.085 0.082,-0.079 0.695,0.149 1.362,0.508l1.212 0.651 -0.877 0.355c-0.482,0.195 -1.016,0.465 -1.186,0.601zm8.104 -0.453c-0.16,-0.388 -0.397,-0.97 -0.526,-1.292 -0.184,-0.458 -0.338,-0.535 -0.703,-0.351 -0.258,0.13 -0.722,0.144 -1.031,0.031 -0.31,-0.112 -0.655,-0.416 -0.769,-0.675 -0.113,-0.258 -0.251,-0.808 -0.306,-1.221 -0.056,-0.413 -0.141,-0.788 -0.189,-0.835 -0.048,-0.046 -0.565,0.168 -1.149,0.476 -0.598,0.315 -1.258,0.487 -1.51,0.394 -0.247,-0.091 -0.448,-0.385 -0.448,-0.654 0,-0.336 0.245,-0.536 0.781,-0.639 0.61,-0.117 0.8,-0.308 0.867,-0.866l0.085 -0.715 2.934 0 0.084 0.981c0.05,0.582 -0.085,1.229 -0.33,1.59 -0.279,0.409 -0.322,0.663 -0.13,0.777 0.156,0.092 0.526,-0.081 0.822,-0.387 0.483,-0.499 0.596,-0.518 1.113,-0.19 0.331,0.211 0.631,0.733 0.708,1.231 0.093,0.605 0.294,0.893 0.667,0.958 0.293,0.051 0.735,0.265 0.982,0.476 0.257,0.218 0.379,0.564 0.286,0.806 -0.089,0.234 -0.291,0.51 -0.448,0.613 -0.158,0.104 -0.559,0.19 -0.893,0.193 -0.414,0.003 -0.697,-0.219 -0.897,-0.701zm14.838 0.448c-0.09,-0.141 -0.673,-0.256 -1.295,-0.256 -0.623,0 -1.282,-0.144 -1.465,-0.321 -0.239,-0.229 -1.557,-0.322 -4.634,-0.326 -3.011,-0.005 -4.331,-0.095 -4.403,-0.303 -0.063,-0.18 0.368,-0.364 1.097,-0.469 0.66,-0.095 2.798,-0.11 4.75,-0.033 1.953,0.076 4.09,0.246 4.75,0.376 0.66,0.13 1.561,0.376 2.001,0.547l0.8 0.311 -0.518 0.365c-0.285,0.201 -0.608,0.366 -0.718,0.366 -0.11,0 -0.274,-0.116 -0.365,-0.257zm-19.002 -1.676c-0.477,-0.193 -0.863,-0.5 -0.858,-0.683 0.004,-0.183 0.167,-0.535 0.362,-0.782 0.195,-0.247 0.431,-0.449 0.525,-0.449 0.094,0 0.171,0.178 0.171,0.394 0,0.217 0.196,0.682 0.436,1.034 0.24,0.352 0.39,0.684 0.333,0.738 -0.056,0.055 -0.492,-0.059 -0.969,-0.252zm18.736 -0.422c-0.587,-0.131 -1.658,-0.363 -2.379,-0.515 -0.722,-0.153 -2.522,-0.281 -4.001,-0.286 -1.478,-0.006 -3.504,0.139 -4.5,0.322 -0.997,0.182 -1.887,0.26 -1.979,0.172 -0.091,-0.087 -0.098,-0.224 -0.015,-0.303 0.082,-0.08 1.153,-0.32 2.378,-0.534 1.55,-0.271 3.161,-0.349 5.296,-0.256 1.688,0.073 3.668,0.269 4.401,0.436 0.733,0.166 1.505,0.383 1.716,0.482 0.212,0.1 0.432,0.317 0.489,0.483 0.058,0.166 0.005,0.288 -0.117,0.27 -0.123,-0.018 -0.703,-0.14 -1.289,-0.271zm-20.136 -0.979c0,0.141 -0.15,0.258 -0.334,0.26 -0.183,0.002 -0.603,0.073 -0.933,0.158 -0.441,0.114 -0.6,0.045 -0.6,-0.26 0,-0.302 0.251,-0.414 0.933,-0.414 0.514,0 0.934,0.115 0.934,0.256zm-1.823 -1.598c0.244,0.235 0.205,0.422 -0.172,0.823 -0.269,0.285 -0.583,0.519 -0.698,0.519 -0.115,0 -0.291,-0.127 -0.391,-0.282 -0.1,-0.156 0.072,-0.526 0.381,-0.824 0.434,-0.418 0.635,-0.471 0.88,-0.236zm16.336 0.09c-2.42,-0.167 -3.649,-0.137 -4.934,0.12 -0.941,0.188 -2.042,0.418 -2.445,0.511 -0.474,0.108 -0.733,0.064 -0.733,-0.125 0,-0.161 0.33,-0.413 0.733,-0.561 0.403,-0.148 1.828,-0.486 3.166,-0.75 1.689,-0.335 3.243,-0.458 5.083,-0.402 1.457,0.044 2.897,0.207 3.199,0.363 0.303,0.156 0.603,0.232 0.667,0.171 0.064,-0.062 0.56,0.005 1.102,0.149 0.542,0.144 0.985,0.367 0.985,0.497 0,0.129 -0.25,0.364 -0.556,0.521 -0.404,0.208 -0.894,0.21 -1.8,0.007 -0.685,-0.153 -2.695,-0.378 -4.467,-0.501zm2.643 -2.126c-2,-0.237 -3.16,-0.231 -5.385,0.025 -1.616,0.186 -3.534,0.591 -4.458,0.942 -0.892,0.339 -1.738,0.616 -1.88,0.616 -0.143,0 -0.403,-0.139 -0.579,-0.308 -0.176,-0.169 -0.321,-0.39 -0.321,-0.49 0,-0.101 1.356,-0.597 3.012,-1.103 2.411,-0.736 3.463,-0.925 5.269,-0.943 1.241,-0.013 2.736,0.051 3.322,0.143 0.586,0.091 1.876,0.345 2.866,0.564 0.99,0.218 1.8,0.5 1.8,0.626 0,0.126 -0.247,0.229 -0.549,0.229 -0.301,0 -1.695,-0.136 -3.097,-0.301zm-14.49 23.763c0,-0.211 0.121,-0.384 0.267,-0.384 0.147,0 0.267,0.173 0.267,0.384 0,0.212 -0.12,0.385 -0.267,0.385 -0.146,0 -0.267,-0.173 -0.267,-0.385zm-9.016 -4.122c-0.322,-0.217 -0.585,-0.503 -0.585,-0.636 0,-0.133 0.188,-0.242 0.418,-0.242 0.297,0 0.369,-0.149 0.249,-0.513 -0.118,-0.357 -0.048,-0.513 0.23,-0.513 0.219,0 0.587,0.182 0.818,0.403 0.23,0.222 0.419,0.55 0.419,0.73 0,0.179 -0.217,0.515 -0.482,0.746l-0.482 0.419 -0.585 -0.394zm0.123 -5.193c-0.242,-0.258 -0.441,-0.649 -0.441,-0.868 0,-0.22 0.305,-0.592 0.679,-0.827 0.453,-0.285 1.097,-0.402 1.933,-0.35 0.898,0.056 1.255,0.186 1.255,0.46 0,0.217 -0.346,0.453 -0.8,0.546 -0.44,0.091 -0.65,0.179 -0.467,0.195 0.184,0.017 0.334,0.146 0.334,0.287 0,0.141 -0.166,0.256 -0.368,0.256 -0.202,0 -0.517,0.173 -0.699,0.385 -0.183,0.212 -0.479,0.385 -0.658,0.385 -0.18,0 -0.525,-0.211 -0.768,-0.469l0 0z"/>
  </g>
 </g>
</svg>
