<?xml version="1.0" encoding="UTF-8"?>
<!DOCTYPE svg PUBLIC "-//W3C//DTD SVG 1.1//EN" "http://www.w3.org/Graphics/SVG/1.1/DTD/svg11.dtd">
<!-- Creator: CorelDRAW -->
<svg xmlns="http://www.w3.org/2000/svg" xml:space="preserve" width="120px" height="120px" version="1.1" style="shape-rendering:geometricPrecision; text-rendering:geometricPrecision; image-rendering:optimizeQuality; fill-rule:evenodd; clip-rule:evenodd"
viewBox="0 0 10986.176 10986.151"
 xmlns:xlink="http://www.w3.org/1999/xlink"
 xmlns:xodm="http://www.corel.com/coreldraw/odm/2003">
 <defs>
  <style type="text/css">
   <![CDATA[
    .fil3 {fill:black}
    .fil2 {fill:#ABC284}
    .fil0 {fill:#EDE3C8}
    .fil1 {fill:#F7BC6B}
   ]]>
  </style>
 </defs>
 <g id="Layer_x0020_1">
  <metadata id="CorelCorpID_0Corel-Layer"/>
  <g id="_2729637945712">
   <rect class="fil0" x="0.013" y="-0.013" width="10986.151" height="10986.151"/>
   <g>
    <path class="fil1" d="M7362.405 6913.884c-26.445,272.284 -1170.727,920.035 -1170.727,920.035 -129.368,2.958 -146.081,26.496 -264.472,35.761 -221.497,17.439 -523.443,-23.616 -825.052,80.294 -729.291,251.341 -346.012,1343.953 1041.695,1932.327 555.338,235.459 1349.481,379.775 2015.969,182.362 321.151,-95.139 565.199,-215.995 809.819,-397.189 179.325,-132.898 462.742,-543.659 316.479,-854.04l-47.569 -129.732 -67.786 -99.342 -65.268 -48.504 9.135 -12.353c-354.524,-126.643 -463.002,-431.288 -315.285,-741.098l43.131 -55.225c259.723,-503.59 576.099,-301.791 283.754,-862.163 -109.853,-754.593 -876.799,-1273.572 -1511.003,-701.937 -159.602,143.875 -252.82,463.287 -252.82,750.804z"/>
    <path class="fil1" d="M4880.138 7564.983c1427.102,-526.557 1507.319,-1675.926 1507.319,-1675.926 -89.326,-500.424 -6.281,-665.502 -439.153,-899.688 -723.14,-391.194 -1169.195,-25.641 -1500.337,-1066.973 -298.624,-939.161 -319.593,-821.393 -1072.526,-1034.922 -381.332,-108.114 -852.405,-54.913 -1207.941,126.436l-0.078 0.078c-201.903,103.002 -391.168,280.848 -510.597,399.939 -848.097,845.969 -689.844,2348.694 131.678,3169.983 76.272,76.246 90.208,66.825 168.945,132.846 71.652,60.052 101.756,105.779 173.045,166.427 474.914,404.092 1094.118,797.829 1760.268,804.654 205.563,2.076 470.398,0.416 616.09,-28.287 112.915,-22.24 142.448,-27.431 246.825,-54.472 51.125,-13.209 91.142,-24.161 126.462,-40.095z"/>
    <path class="fil2" d="M5071.427 2661.799l-2.231 -1.168 1.66 2.44c-34.359,76.92 -66.721,128.642 -66.721,128.642 -93.945,137.024 -318.4,246.799 -289.931,516.202 22.37,211.609 248.979,391.012 366.644,474.213 292.837,207.093 833.719,316.505 1220.917,416.964 522.379,164.584 674.247,230.346 1114.386,491.444 1389.446,824.3 2226.929,-499.827 1832.335,-1268.538 -55.822,-189.368 -104.325,-289.074 -312.768,-472.162 -90.649,-124.153 -299.948,-195.623 -446.548,-246.566 -1727.154,-645.415 -1843.34,-1044.888 -1843.34,-1044.888 -302.906,-637.915 -1440.545,-1248.036 -1812.197,-461.496 -167.102,353.642 -46.687,490.251 152.543,701.393l-22.577 151.79c277.941,118.158 187.759,432.483 107.828,611.73zm-3291.41 158.668c303.659,0 785.087,-565.822 377.18,-565.822 -301.557,0 -754.308,565.822 -377.18,565.822zm339.447 -943.028c0,348.089 980.735,308.59 980.735,-75.415 0,-288.14 -980.735,-396.124 -980.735,75.415z"/>
    <path class="fil3" d="M5312.855 2438.772l1710.181 2041.349 -1710.181 -2041.349zm-609.654 230.813c-8.876,91.583 99.913,-4.204 47.309,-15.415l-47.309 15.415zm-1430.969 -37.734c43.287,22.241 -60.623,87.509 90.337,0 -7.266,-6.124 -17.232,-29.844 -20.45,-19.853l-69.887 19.853zm168.685 61.921c129.576,1.583 63.088,36.695 117.82,-60.623l-117.82 60.623zm1075.458 4238.122l85.044 18.141c-19.36,-35.606 20.735,-122.725 -85.044,-18.141zm2242.63 -1810.406c-122.803,140.19 -10.51,81.073 0,100.744l0 -100.744zm-4699.957 37.578c3.763,50.761 81.722,158.252 46.324,17.309 -20.865,-83.071 -46.661,-21.877 -46.324,-17.309zm4406.419 -678.945c41.912,14.818 -64.282,101.756 95.761,0 -7.188,-5.761 -16.323,-17.803 -20.086,-19.022 -52.63,-16.921 -72.898,17.413 -75.675,19.022zm-1906.635 -1848.27c34.827,22.786 -59.04,106.791 84.161,0 -46.479,-38.745 103.884,-69.861 -61.739,-17.854 -3.711,1.167 -14.091,13.131 -22.422,17.854zm-2274.057 1923.711c1.635,31.661 94.178,148.21 53.382,3.296 -7.37,-26.237 -56.133,-57.067 -53.382,-3.296zm1691.497 2527.215c2.75,41.808 98.382,141.202 58.131,9.161 -24.239,-79.438 -60.104,-38.772 -58.131,-9.161zm2188.962 -2564.948c173.979,113.304 35.917,31.375 88.546,0 -34.956,-20.217 55.355,-127.422 -88.546,0zm-4021.272 301.764c2.543,60 75.311,33.037 58.754,-8.304 -12.015,-30 -65.294,-146.159 -58.754,8.304zm2559.265 -1999.152c129.394,97.941 78.295,8.434 91.816,0 -63.763,-51.825 8.902,-100.77 -91.816,0zm-105.623 188.616c1.531,17.543 44.143,76.635 59.117,-7.214 6.514,-36.618 -71.574,-135.104 -59.117,7.214zm-1113.374 -462.638c120.026,-47.388 48.244,22.5 76.194,-96.41 -98.434,29.507 -102.742,-52.526 -76.194,96.41zm372.898 4684.956c-950.606,-243.685 -1189.645,-727.006 -1466.055,-903.477 71.289,154.515 417.924,481.479 601.271,599.844 112.578,72.665 256.22,160.251 389.3,214.256l344.558 111.125c168.244,25.77 99.602,-5.035 130.926,-21.748zm2530.355 -1342.318c-39.654,91.998 -55.77,101.626 -122.31,172.318 -244.853,260.087 -85.718,184.153 -507.716,510.364 -250.095,193.339 -507.768,349.074 -884.092,433.91 21.903,15.649 20.735,69.991 200.632,21.306 620.449,-167.933 861.955,-570.908 1156.738,-769.593 18.296,-110.554 202.085,-299.066 269.689,-464.923 -7.941,6.41 -19.204,14.611 -24.187,18.712 -4.957,4.074 -18.244,14.48 -23.668,18.996 -5.294,4.438 -17.803,15.337 -22.578,19.386 -6.02,5.086 -33.555,30.727 -42.508,39.524zm-218.019 560.787c-82.397,170.45 -531.255,437.933 -702.198,508.703 -214.697,88.858 -452.387,172.059 -690.778,207.119 -26.523,3.893 -114.109,11.938 -131.03,16.557 -207.145,56.445 -44.117,0.727 -124.567,62.336 303.4,18.996 489.706,-34.801 759.031,-128.824 254.066,-88.702 409.879,-215.813 604.386,-290.138l366.488 -363.607c42.664,-48.686 53.226,-78.997 94.853,-133.028 130.77,-169.749 316.038,-378.607 323.668,-620.398 -111.125,231.851 -360.571,616.635 -499.853,741.28zm-856.609 -4011.072c450.026,-71.419 1632.56,-339.032 2018.408,-144.317 426.228,-8.175 859.1,249.057 1157.881,408.815 146.652,50.943 355.925,122.439 446.574,246.566l533.227 45.83c-49.023,119.533 -151.48,216.903 -257.102,301.946 -115.589,230.58 -606.203,653.694 -902.258,809.481 -398.331,209.663 -928.755,298.365 -1406.678,157.526 -1023.867,-301.712 -1326.359,-869.481 -1833.711,-1603.962l543.555 287.751c405.285,195.571 177.457,136.038 346.375,462.431l-39.264 -306.099c83.953,23.746 493.832,137.077 541.635,165.52 108.036,64.282 480.57,973.858 1071.254,965.865 -395.554,-228.115 -739.412,-461.212 -935.294,-938.694l1035.155 102.612c118.08,272.699 375.571,469.153 787.89,434.922 -40.666,-34.385 -8.435,-17.18 -72.353,-42.093 -47.076,-18.348 -61.791,-17.984 -115.666,-31.012 -249.992,-60.493 -371.211,-155.398 -512.725,-361.038 343.053,-56.886 1098.581,-57.171 1298.46,-265.874 -667.993,142.189 -1252.215,236.99 -1999.178,136.168 -35.191,-4.749 -95.035,-12.042 -127.786,-19.801 -12.586,-2.959 -48.581,-12.794 -59.922,-16.609 -73.183,-24.55 -55.562,-20.917 -82.24,-37.059 185.579,-181.687 907.552,-357.638 973.91,-468.114 -256.142,122.673 -599.3,165.052 -880.329,325.9 -241.505,138.243 -327.249,184.152 -863.408,-92.622 318.062,-227.776 759.187,-180.467 965.372,-281.366 -947.076,-52.63 -788.461,398.849 -1362.846,109.334 -121.064,-60.987 -273.089,-112.397 -359.715,-211.687l-154.178 -46.22 244.957 -94.1zm-308.72 352.941c144.42,91.479 414.939,613.572 550.277,780.986 314.636,389.195 635.787,477.535 747.379,626.367l593.953 216.591c128.253,614.871 63.114,1193.201 -205.692,1693.054 -186.696,347.18 -645.182,817.811 -1014.602,985.043 -24.447,17.777 -45,32.18 -92.725,57.794 -946.22,508.158 -2624.87,349.308 -3342.768,-830.501 -316.687,-520.381 -519.784,-1254.888 -372.457,-1980.935 130.017,-640.692 540.156,-1276.349 917.076,-1526.418 152.362,-183.815 722.855,-585.467 1107.742,-562.708 339.966,434.559 155.58,391.298 189.291,676.22 566.938,62.751 303.867,-266.912 245.035,-541.194 311.678,15.831 624.238,182.024 677.491,405.701zm-446.938 -519.213l124.36 -91.324 463.677 213.063c-326.289,77.854 -328.962,-24.966 -588.037,-121.739zm-477.976 -58.365c101.237,80.787 110.165,122.673 172.163,248.512 64.412,130.744 137.05,214.671 55.848,308.616l-228.011 -557.128zm1229.144 -71.523l827.621 52.916 -780.493 140.605c-211.09,-42.197 -287.102,-72.612 -411.358,-189.498l364.23 -4.023zm-344.792 -92.569c147.924,-203.252 769.1,-411.799 1116.903,-404.533 337.085,7.059 708.27,191.186 935.242,387.275l107.05 117.276 -999.55 -11.393c103.573,-131.237 180.753,-149.299 353.901,-211.713 -522.82,8.382 -41.315,271.894 -953.408,168.192 87.95,-98.875 244.36,-199.386 389.922,-237.872 -404.325,42.664 -331.142,315.934 -950.06,192.768zm-884.352 164.092c-239.532,-267.119 -547.993,-514.074 -577.474,-802.786l577.474 802.786zm-1654.022 719.481c-38.901,87.794 -160.9,214.515 -226.298,305.787 -1078.027,1504.334 -576.721,4639.36 2787.275,4247.206 579.265,-53.512 1195.718,-549.239 1558.495,-995.398 410.191,-504.498 551.108,-1048.702 516.281,-1709.533 -8.85,-168.296 -34.256,-137.673 -37.916,-301.557l75.442 -30c884.662,64.619 1391.833,-246.695 1944.498,-816.254 98.564,-101.575 80.969,-144.213 205.51,-211.869 156.955,-226.479 296.886,-306.436 301.765,-526.116 -841.194,0 -935.554,-441.384 -1884.732,-680.19 -440.476,-110.813 -285.415,35.087 -708.763,-347.388 -96.799,-87.43 -209.273,-154.515 -310.9,-209.896 -380.268,-65.45 -468.996,-173.512 -931.141,-72.898 -326.601,71.082 -489.395,223.288 -728.539,312.769 -299.792,287.828 -333.892,139.593 -697.422,154.437 -219.083,8.954 -266.834,-131.678 -511.167,-437.725 -216.981,-271.764 -24.654,-185.034 -187.033,-491.911 -165.753,3.685 -117.483,25.51 -264.032,37.707 0,671.471 236.497,572.206 452.622,980.71 -181.687,87.171 -319.516,33.062 -747.457,308.693 -291.462,187.708 -304.645,212.595 -528.218,414.55l-78.27 68.876z"/>
    <path class="fil3" d="M9311.367 7753.054c-34.646,-101.263 42.067,-53.045 -91.583,-68.305l91.583 68.305zm-2967.379 1354.593c35.917,-94.126 34.515,-42.483 -31.921,-90.182 -42.508,73.833 -58.936,51.774 31.921,90.182zm2150.009 -649.853c27.352,-48.296 105.83,89.429 0,-83.201 -19.282,22.293 -125.269,13.158 0,83.201zm922.318 -1244.611c98.953,-6.28 79.464,25.692 68.278,-67.655 -56.885,5.346 -81.384,-20.606 -68.278,67.655zm-68.227 168.115c3.166,58.728 84.758,48.737 64.075,-3.66 -11.289,-28.65 -71.756,-139.334 -64.075,3.66zm117.742 826.79c-41.003,-117.067 19.308,-57.041 -108.036,-80.839 37.889,113.953 -44.818,99.083 108.036,80.839zm-881.963 -2185.069l-653.486 537.457c243.815,-83.253 411.591,-277.137 631.116,-429.758 95.501,-66.384 40.328,-33.633 126.28,-76.791 78.763,-86.86 78.893,-50.501 143.175,-138.01l-247.085 107.102zm-794.222 679.334c52.993,50.787 31.22,56.367 250.926,64.541 101.678,3.763 201.047,0.234 302.569,-5.605 159.732,-9.239 387.794,-6.799 516.177,-73.962l-1069.672 15.026zm-1369.1 1085.009c216.799,0.648 112.422,-35.346 242.18,-87.483 115.147,-46.272 269.169,14.325 277.085,-280.355 178.65,-33.425 23.486,-53.097 234.005,-46.479 195.623,235.64 105.545,445.744 184.074,693.633 0.701,-234.161 -20.164,-459.161 77.751,-640.303 286.168,29.585 410.19,435.857 564.291,667.994 -66.099,-210.857 -236.004,-436.609 -268.365,-553.288 -66.696,-240.441 21.072,53.175 19.671,-97.266 -125.528,-114.498 -56.419,9.732 -121.453,-137.959l191.133 -71.055c5.372,-1.142 18.14,-0.597 26.107,-4.386 -111.903,-196.531 -254.221,-114.913 -265.925,-379.931 497.491,-11.626 1008.685,71.627 1545.155,14.533l0.104 13.21c-289.1,-44.326 -1299.109,-47.414 -1451.652,-138.166 49.022,-145.044 247.837,-268.443 383.746,-397.682 91.064,-86.575 340.821,-300.545 456.487,-351.799 37.942,-84.187 242.725,-260.087 358.962,-265.199 254.871,-11.16 657.535,723.166 611.99,974.74 -31.09,171.773 8.875,26.055 -49.983,111.099l-78.918 82.629c165.934,44.04 191.937,49.049 294.524,150.935 27.067,234.394 -6.099,455.034 -83.979,655.847 -116.341,299.871 -215.684,275.035 -380.684,308.383l-60.83 13.521c175.458,255.207 163.495,243.892 -11.419,500.968 -97.059,131.912 -195.986,247.163 -341.081,345.208 -201.306,136.064 -340.407,19.619 -456.125,-81.514 21.151,219.005 29.637,338.383 -158.512,410.113 -146.003,55.692 -372.586,91.972 -544.178,70.147 -32.829,-49.153 -63.4,-99.239 -91.869,-160.9l-97.188 -197.517c18.451,192.171 7.448,227.206 -50.943,368.823 -284.17,73.339 -772.786,20.839 -865.822,-253.988 -73.235,-216.306 209.455,-645.752 250.978,-885.986 -102.405,149.767 -126.566,326.627 -263.279,468.348l73.261 -235.796c-235.458,251.549 4.075,411.748 -284.481,539.896 -332.543,147.665 -628.469,-359.325 -628.572,-359.74 12.249,-129.68 56.496,-186.67 132.223,-253.495 129.965,-114.68 155.813,-58.78 215.579,-215.268 -148.754,53.356 -505.276,357.638 -601.038,468.763 97.76,222.768 492.587,499.645 739.775,653.512 828.192,515.502 1957.916,495.882 2740.615,-74.792 138.347,-100.874 289.489,-269.585 402.171,-315.883 73.624,-107.673 183.348,-223.572 264.394,-337.889 85.744,-120.934 144.992,-233.071 203.175,-400.381 226.609,-651.851 168.581,-1383.529 -139.983,-2002.136 -120.155,-240.909 -348.789,-515.813 -553.91,-653.149 -81.072,54.291 -410.579,371.938 -690.648,528.062 -45.571,81.021 -173.85,190.77 -258.504,257.595 -205.225,162.016 -644.74,666.384 -748.235,708.322 -119.507,176.678 -105.571,129.369 -252.794,252.379 -174.94,146.185 -43.599,100.043 -293.46,234.576 -129.473,69.732 -197.077,132.483 -310.589,217.5 -171.773,128.616 -184.437,181.687 -313.858,215.606 -32.387,93.659 -23.486,69.498 -91.791,150.648 147.353,-59.506 195.026,-127.941 320.632,-197.205zm2378.798 -4.957l219.731 124.204c-70.64,-78.192 -111.306,-81.202 -176.6,-179.429 -311.029,-115.744 -552.561,-396.358 -932.076,-473.538 128.798,190.303 458.953,277.344 665.943,385.562 38.408,20.061 79.931,42.405 120.83,67.474l65.865 43.78c4.646,3.452 14.897,13.002 18.504,15.857 3.555,2.803 11.808,10.796 17.803,16.09zm-1657.319 -574.438c258.893,-32.984 96.099,-32.932 258.114,-198.036 134.378,36.021 73.573,9.109 146.601,107.335 11.756,45.208 -87.691,427.474 -404.715,90.701zm2096.523 1475.735c-258.244,448.417 -1145.294,862.942 -1952.985,820.926 -739.749,-38.46 -1175.268,-381.15 -1637.18,-748.728 -113.693,-90.493 -115.847,-65.294 -139.334,-208.288 246.151,124.542 410.995,593.642 872.648,375.909 69.498,90.623 76.686,310.484 432.638,399.316 324.42,80.917 474.55,49.49 661.246,-94.827 214.1,88.703 202.681,192.613 559.463,69.369 274.075,-94.697 243.063,-100.173 383.512,-325.848 225.909,-19.1 252.275,52.344 445.07,-88.391 102.456,-74.792 217.967,-212.206 307.11,-298.78 109.075,-206.393 171.177,-205.692 120.961,-486.384 163.65,-113.227 316.167,-131.523 399.783,-577.682 119.377,-637.137 -69.887,-626.289 -112.474,-729.031 -88.261,-212.881 47.543,-242.829 -241.609,-704.351 -208.183,-332.31 -428.823,-450.104 -309.213,-548.85 55.9,-27.82 135.13,31.843 195.649,97.371 105.078,113.693 80.035,88.858 45.831,216.903 13.443,1.505 94.385,0.285 96.436,0.882 234.965,66.877 456.773,986.237 448.468,1415.372 -8.823,455.839 -242.75,1245.363 -576.02,1415.112z"/>
   </g>
  </g>
 </g>
</svg>
