<?xml version="1.0" encoding="UTF-8"?>
<!DOCTYPE svg PUBLIC "-//W3C//DTD SVG 1.1//EN" "http://www.w3.org/Graphics/SVG/1.1/DTD/svg11.dtd">
<!-- Creator: CorelDRAW -->
<svg xmlns="http://www.w3.org/2000/svg" xml:space="preserve" width="120px" height="120px" version="1.1" style="shape-rendering:geometricPrecision; text-rendering:geometricPrecision; image-rendering:optimizeQuality; fill-rule:evenodd; clip-rule:evenodd"
viewBox="0 0 11.719 11.719"
 xmlns:xlink="http://www.w3.org/1999/xlink"
 xmlns:xodm="http://www.corel.com/coreldraw/odm/2003">
 <defs>
  <style type="text/css">
   <![CDATA[
    .fil3 {fill:black}
    .fil1 {fill:#978973}
    .fil2 {fill:#C7B393}
    .fil0 {fill:#EDE3C8}
   ]]>
  </style>
 </defs>
 <g id="Layer_x0020_1">
  <metadata id="CorelCorpID_0Corel-Layer"/>
  <g id="_2128498416448">
   <rect class="fil0" width="11.719" height="11.719"/>
   <path class="fil1" d="M2.138 10.141l0.008 0.026c0.239,0.119 0.183,-0.034 0.768,-0.212 0.306,-0.093 0.177,-0.05 0.409,-0.058 0.128,-0.005 0.268,-0.022 0.397,-0.034 0.552,-0.052 1.001,-0.066 1.501,0.006 0.736,0.105 1.655,0.283 2.251,0.726 0.068,0.05 0.135,0.107 0.188,0.174l0.055 0.06c-0.173,-0.44 -0.773,-0.696 -1.082,-0.808 -0.216,-0.077 -0.413,-0.136 -0.652,-0.198 -0.462,-0.12 -0.928,-0.179 -1.411,-0.196 -0.245,-0.009 -0.523,0.01 -0.772,0.027 -0.536,0.036 -0.956,0.219 -1.443,0.42 -0.077,0.032 -0.144,0.039 -0.217,0.067zm2.518 -1.864c-0.129,0.089 -0.17,0.101 -0.235,0.222 -0.055,0.101 -0.055,0.175 -0.149,0.266 -0.136,0.131 -0.411,0.276 -0.594,0.386 -0.211,0.126 -0.402,0.25 -0.607,0.378 -0.197,0.124 -0.389,0.266 -0.582,0.387 0.076,-0.002 0.258,-0.082 0.35,-0.115 0.133,-0.049 0.188,-0.1 0.296,-0.171 0.253,-0.166 0.884,-0.608 1.133,-0.694 0.293,-0.101 0.337,0.082 0.66,-0.036 -0.088,-0.006 -0.188,-0.051 -0.243,-0.093 -0.097,-0.073 -0.109,-0.068 -0.253,-0.072l0.132 -0.04c0.039,-0.159 0.022,-0.054 0.029,-0.224 0.004,-0.102 0.049,-0.133 0.063,-0.194zm-0.592 1.3c0.08,0.018 0.21,-0.004 0.298,-0.004 0.081,0.001 0.776,-0.125 0.923,-0.145 0.589,-0.083 0.493,-0.03 0.784,0.129 0.052,0.029 0.173,0.071 0.247,0.054 -0.191,-0.067 -0.164,-0.258 -0.408,-0.336 0.186,-0.029 0.103,0.105 0.237,-0.189 0.032,-0.072 0.062,-0.098 0.133,-0.159 -0.248,-0.018 -0.364,0.194 -0.452,0.258 -0.223,0.165 -1.21,0.164 -1.762,0.392zm-0.552 0.049c0.067,-0.029 0.261,-0.043 0.34,-0.049 0.434,-0.033 1.551,-0.615 2.142,-0.76 0.088,-0.021 0.305,-0.045 0.352,-0.099 -0.141,-0.005 -0.553,0.086 -0.709,0.127 -0.565,0.151 -0.897,0.29 -1.428,0.514 -0.232,0.099 -0.47,0.169 -0.697,0.267zm-1.039 0.263c0.211,-0.065 0.664,-0.491 0.831,-0.656 0.112,-0.111 0.247,-0.281 0.297,-0.393 0.046,-0.104 0.109,-0.316 0.102,-0.435 -0.003,-0.056 -0.019,-0.052 -0.028,-0.059 -0.027,0.279 -0.323,0.618 -0.521,0.817 -0.134,0.134 -0.633,0.611 -0.681,0.726zm5.265 -0.659c0.099,0.007 0.196,0.056 0.301,0.046 0.202,-0.02 0.257,-0.112 0.324,-0.138 0.102,-0.04 0.52,0.032 0.634,0.047 0.438,0.057 0.785,0.142 1.279,0.089 -0.024,-0.036 0.016,-0.018 -0.06,-0.025l-1.865 -0.195c-0.185,-0.022 -0.323,-0.096 -0.486,0.065l-0.127 0.111zm-1.628 -1.267c0.239,-0.06 0.379,-0.071 0.49,-0.267 0.062,-0.11 0.103,-0.109 0.235,-0.155 0.409,-0.146 1.335,-0.365 1.558,-0.571 -0.037,-0.016 -0.252,0.079 -0.294,0.095 -0.284,0.106 -1.383,0.472 -1.624,0.532 -0.304,0.076 -0.256,0.181 -0.342,0.325l-0.023 0.041zm1.197 1.248c0.057,-0.009 0.199,0.021 0.302,-0.002 0.153,-0.034 0.172,-0.097 0.266,-0.17 0.139,-0.107 0.454,-0.04 0.609,-0.029 0.442,0.032 0.749,0.088 1.245,0.004 -0.02,-0.036 -0.007,-0.022 -0.135,-0.019 -0.331,0.01 -1.069,-0.037 -1.417,-0.06 -0.178,-0.012 -0.528,-0.042 -0.649,0.069 -0.037,0.034 -0.055,0.071 -0.092,0.112 -0.039,0.043 -0.071,0.062 -0.129,0.095zm-0.371 0.007c0.051,0.012 0.215,0.007 0.277,-0.01 0.114,-0.032 0.173,-0.108 0.209,-0.174 0.095,-0.173 0.315,-0.136 0.505,-0.136 0.33,0 0.834,-0.006 1.176,-0.112 -0.018,-0.009 -0.004,-0.007 -0.029,-0.009l-0.57 0.051c-0.339,0.019 -0.893,0.001 -1.165,0.036 -0.111,0.014 -0.199,0.074 -0.247,0.144 -0.068,0.101 -0.028,0.099 -0.156,0.21zm-1.218 -1.098c0.564,-0.186 0.285,-0.385 0.621,-0.522 0.379,-0.155 1.075,-0.329 1.422,-0.591 0.031,-0.024 0.035,-0.015 0.033,-0.044l-0.568 0.243c-0.206,0.082 -0.411,0.162 -0.618,0.242 -0.259,0.1 -0.708,0.215 -0.787,0.426 -0.049,0.132 -0.001,0.083 -0.091,0.226 -0.002,0.003 -0.004,0.007 -0.006,0.01 -0.001,0.002 -0.004,0.007 -0.006,0.01zm-0.351 0.161c0.239,-0.079 0.346,-0.159 0.375,-0.352 0.03,-0.205 0.19,-0.236 0.408,-0.333 0.235,-0.104 0.886,-0.414 0.992,-0.567 -0.045,0.01 -0.405,0.227 -0.502,0.276 -0.18,0.09 -0.362,0.174 -0.546,0.259 -0.275,0.126 -0.626,0.225 -0.663,0.47 -0.022,0.147 -0.004,0.124 -0.064,0.247zm5.3 1.532l-0.007 -0.024c-0.239,-0.093 -0.255,-0.118 -0.545,-0.209 -0.514,-0.161 -0.748,-0.165 -1.21,-0.249 -0.152,-0.027 -0.135,-0.056 -0.268,-0.123 -0.126,-0.063 -0.197,-0.039 -0.347,0.024 0.026,0.036 0.067,0.056 0.104,0.106 0.047,0.062 0.045,0.081 0.127,0.087 0.146,0.013 0.209,-0.064 0.359,-0.043 0.588,0.085 1.08,0.197 1.633,0.386 0.05,0.017 0.096,0.043 0.154,0.045zm-4.753 -1.717l0.022 0.008c0.168,0.056 0.103,0.042 0.252,0.119 0.14,0.071 0.447,-0.077 0.656,-0.14 0.299,-0.09 0.654,-0.168 0.965,-0.178 0.107,-0.003 0.198,0.007 0.297,0.004 -0.08,-0.078 -0.417,-0.059 -0.512,-0.05 -0.303,0.027 -0.613,0.131 -0.906,0.222 -0.129,0.04 -0.176,0.018 -0.256,-0.029 -0.154,-0.092 -0.311,-0.048 -0.518,0.044zm1.581 1.174c0.171,0.139 0.066,0.036 0.197,0.207 0.064,0.085 0.15,0.105 0.244,0.113 0.501,0.04 1.103,0.142 1.546,0.386 0.038,0.021 0.029,0.027 0.066,0.023 -0.213,-0.262 -0.95,-0.392 -1.293,-0.422 -0.109,-0.01 -0.179,-0.028 -0.243,-0.111 -0.163,-0.214 -0.237,-0.185 -0.517,-0.196zm-0.965 -0.032c0.152,-0.014 0.344,0.018 0.447,-0.128 0.106,-0.151 0.049,-0.235 0.322,-0.272 0.134,-0.018 0.917,-0.073 0.969,-0.124 -0.023,-0.012 -1.206,0.038 -1.476,0.199 -0.12,0.071 -0.118,0.167 -0.182,0.249 -0.03,0.039 -0.053,0.043 -0.08,0.076zm0.093 -1.493c0.307,0.114 0.233,0.131 0.479,-0.061 0.133,-0.104 1.074,-0.303 1.291,-0.343 0.082,-0.015 0.57,-0.075 0.596,-0.101 -0.039,-0.013 -0.087,-0.008 -0.13,-0.006l-0.447 0.049c-0.215,0.032 -0.421,0.079 -0.632,0.131 -0.183,0.045 -0.495,0.162 -0.659,0.178 -0.117,0.012 -0.242,-0.067 -0.41,0.054l-0.088 0.099zm-0.282 0.215c0.175,0.092 0.245,0.131 0.504,0.03 0.429,-0.166 1.042,-0.295 1.502,-0.282 0.074,0.002 0.216,0.018 0.275,0.009 -0.092,-0.067 -0.375,-0.073 -0.527,-0.065 -0.205,0.01 -0.421,0.05 -0.631,0.104 -0.11,0.028 -0.217,0.053 -0.326,0.086 -0.118,0.035 -0.228,0.086 -0.316,0.046 -0.059,-0.026 -0.166,-0.102 -0.235,-0.085 -0.068,0.017 -0.031,0.073 -0.246,0.157zm-0.787 0.282c0.288,0.101 0.164,0.148 0.366,0.181 0.197,0.032 0.972,-0.352 1.534,-0.326 -0.026,-0.039 0.021,-0.011 -0.047,-0.03 -0.184,-0.053 -0.794,0.116 -0.955,0.165 -0.41,0.126 -0.249,0.06 -0.437,-0.051 -0.154,-0.091 -0.292,-0.01 -0.461,0.061zm-0.195 -0.064c0.028,-0.072 0.011,-0.148 0.033,-0.219 0.066,-0.208 0.899,-0.495 0.985,-0.657 -0.057,0.003 -0.788,0.413 -0.883,0.472 -0.21,0.132 -0.426,0.248 -0.434,0.483 -0.005,0.13 -0.035,0.121 -0.061,0.202 0.193,-0.107 0.291,-0.104 0.36,-0.281zm1.771 1.086c0.162,0.171 0.025,0.001 0.156,0.202 0.124,0.19 0.394,0.168 0.674,0.199 0.274,0.03 0.607,0.098 0.866,0.201 0,0 0.029,0.011 0.03,0.011 0.033,0.01 -0.024,0 0.036,0.009 -0.112,-0.15 -0.736,-0.259 -0.906,-0.272 -0.065,-0.005 -0.187,-0.013 -0.245,-0.026 -0.211,-0.045 -0.072,-0.392 -0.611,-0.324zm1.104 0.008c-0.118,0.032 -0.163,0.064 -0.279,0.049 0.128,0.231 0.307,0.227 0.495,0.237 0.185,0.01 0.414,0.056 0.587,0.096 0.44,0.101 0.619,0.178 0.974,0.381l0.079 0.034c-0.144,-0.217 -0.683,-0.377 -0.913,-0.436 -0.173,-0.045 -0.331,-0.065 -0.508,-0.101 -0.043,-0.009 -0.085,-0.013 -0.13,-0.02 -0.227,-0.034 -0.078,-0.102 -0.305,-0.24zm-3.046 -0.859c0.3,0.055 0.181,0.249 0.698,0.138 0.308,-0.066 0.581,-0.168 0.893,-0.209 -0.017,-0.031 0.012,-0.009 -0.027,-0.022 -0.06,-0.02 -0.338,0.051 -0.395,0.065 -0.102,0.027 -0.355,0.096 -0.448,0.098 -0.254,0.004 -0.16,-0.37 -0.721,-0.07zm1.542 0.861c0.062,0.058 0.073,0.029 0.146,0.15 0.041,0.068 0.087,0.116 0.137,0.15 0.063,0.045 0.274,0.095 0.383,0.113 0.183,0.031 0.441,0.052 0.609,0.095 0.055,0.014 0.151,0.045 0.201,0.05 -0.039,-0.072 -0.294,-0.11 -0.368,-0.122 -0.827,-0.126 -0.458,-0.17 -0.692,-0.365 -0.107,-0.089 -0.235,-0.097 -0.416,-0.071zm-0.59 -0.017l0.102 -0.001c0.44,-0.041 0.269,-0.204 0.474,-0.372l0.036 -0.038c-0.238,0.049 -0.418,0.016 -0.511,0.26 -0.022,0.059 -0.056,0.107 -0.101,0.151zm-1.309 -0.659c0.076,0.021 0.098,0.005 0.166,0.051 0.24,0.162 0.242,0.095 0.573,0.009 -0.038,-0.039 -0.029,-0.017 -0.092,-0.04 -0.098,-0.035 -0.12,-0.105 -0.238,-0.141 -0.108,-0.032 -0.336,0.042 -0.409,0.121zm1.48 0.696c0.316,0.176 0.117,0.344 0.683,0.344 -0.055,-0.06 -0.089,-0.06 -0.139,-0.151 -0.041,-0.073 -0.081,-0.121 -0.134,-0.156 -0.104,-0.069 -0.251,-0.05 -0.41,-0.037zm-1.249 -1.27c-0.127,0.085 -0.248,0.131 -0.329,0.242 -0.082,0.113 -0.002,0.186 -0.088,0.372 0.321,-0.117 0.346,-0.245 0.357,-0.445 0.007,-0.124 0.05,-0.102 0.06,-0.169zm1.013 1.286c0.118,0.114 0.121,0.175 0.186,0.232 0.063,0.055 0.179,0.091 0.277,0.058 -0.189,-0.229 -0.14,-0.297 -0.463,-0.29zm-1.473 -0.605c0.003,0.002 0.008,0.005 0.01,0.006 0.123,0.062 0.19,0.118 0.226,0.135 0.101,0.048 0.181,0.004 0.292,-0.044 -0.261,-0.151 -0.213,-0.226 -0.528,-0.097z"/>
   <path class="fil2" d="M8.184 4.746c1.196,-1.195 0.944,-1.646 0.944,-1.646 -0.227,-0.108 -0.196,-0.223 -0.671,0.004 -0.794,0.38 -1.11,0.823 -1.72,0.701 -0.549,-0.109 -0.535,-0.054 -1.307,0.408 -0.39,0.234 -0.819,0.587 -1.103,0.902l0 0c-0.161,0.179 -0.289,0.374 -0.368,0.5 -0.559,0.893 0.019,1.295 1.029,0.993 0.093,-0.029 0.104,-0.042 0.197,-0.075 0.085,-0.03 0.126,-0.036 0.211,-0.066 0.563,-0.199 1.259,-0.504 1.89,-0.976 0.194,-0.145 0.444,-0.334 0.573,-0.447 0.1,-0.088 0.126,-0.111 0.217,-0.194 0.045,-0.041 0.079,-0.073 0.108,-0.104z"/>
   <path class="fil2" d="M2.849 7.535c-0.231,-0.882 -0.659,-0.912 -0.659,-0.912 -0.183,0.064 -0.246,0.015 -0.322,0.29 -0.126,0.458 0.02,0.731 -0.357,0.956 -0.34,0.203 -0.296,0.214 -0.356,0.688 -0.03,0.24 0.002,0.533 0.078,0.752l0 0c0.043,0.125 0.114,0.24 0.161,0.312 0.335,0.515 0.887,0.39 1.171,-0.138 0.026,-0.049 0.022,-0.057 0.045,-0.108 0.02,-0.045 0.036,-0.065 0.057,-0.111 0.137,-0.303 0.267,-0.697 0.253,-1.113 -0.005,-0.129 -0.012,-0.294 -0.026,-0.385 -0.011,-0.07 -0.014,-0.088 -0.027,-0.153 -0.006,-0.032 -0.011,-0.056 -0.018,-0.078z"/>
   <path class="fil3" d="M1.357 10.631l0.033 0.021c0.371,-0.094 0.168,-0.208 0.64,-0.948 0.248,-0.388 0.146,-0.221 0.392,-0.447 0.136,-0.124 0.273,-0.273 0.402,-0.407 0.554,-0.573 1.031,-1.006 1.644,-1.396 0.901,-0.572 2.072,-1.236 3.135,-1.31 0.122,-0.008 0.248,-0.008 0.369,0.015l0.115 0.015c-0.599,-0.319 -1.494,-0.039 -1.936,0.129 -0.307,0.116 -0.577,0.236 -0.897,0.392 -0.616,0.3 -1.179,0.671 -1.723,1.103 -0.275,0.22 -0.561,0.5 -0.817,0.751 -0.551,0.54 -0.839,1.132 -1.183,1.806 -0.054,0.107 -0.121,0.178 -0.174,0.276zm1.006 -4.387c-0.056,0.218 -0.089,0.269 -0.048,0.463 0.034,0.161 0.104,0.241 0.086,0.43 -0.026,0.269 -0.191,0.684 -0.289,0.975 -0.112,0.334 -0.205,0.649 -0.308,0.98 -0.1,0.319 -0.176,0.653 -0.275,0.965 0.081,-0.072 0.206,-0.33 0.274,-0.452 0.1,-0.178 0.113,-0.284 0.165,-0.464 0.12,-0.417 0.397,-1.488 0.589,-1.815 0.224,-0.383 0.444,-0.224 0.686,-0.656 -0.101,0.075 -0.253,0.12 -0.352,0.126 -0.174,0.011 -0.182,0.028 -0.343,0.158l0.106 -0.167c-0.105,-0.21 -0.025,-0.08 -0.177,-0.272 -0.091,-0.115 -0.071,-0.191 -0.114,-0.271zm0.57 1.972c0.104,-0.055 0.225,-0.2 0.322,-0.282 0.088,-0.075 0.729,-0.861 0.87,-1.021 0.566,-0.64 0.511,-0.492 0.978,-0.591 0.082,-0.017 0.255,-0.084 0.319,-0.171 -0.271,0.105 -0.419,-0.129 -0.759,0.013 0.176,-0.206 0.211,0.019 0.082,-0.427 -0.032,-0.108 -0.024,-0.164 -0.003,-0.298 -0.288,0.212 -0.216,0.551 -0.252,0.704 -0.091,0.388 -1.168,1.31 -1.557,2.073zm-0.558 0.569c0.046,-0.093 0.246,-0.29 0.326,-0.37 0.443,-0.442 1.119,-2.121 1.628,-2.83 0.076,-0.106 0.29,-0.334 0.292,-0.438 -0.159,0.127 -0.523,0.61 -0.655,0.801 -0.476,0.693 -0.709,1.154 -1.078,1.895 -0.162,0.325 -0.356,0.623 -0.513,0.942zm-0.888 1.258c0.17,-0.267 0.266,-1.156 0.294,-1.492 0.019,-0.227 0.008,-0.537 -0.043,-0.707 -0.046,-0.156 -0.175,-0.447 -0.295,-0.57 -0.056,-0.058 -0.07,-0.039 -0.085,-0.038 0.231,0.33 0.225,0.977 0.194,1.378 -0.02,0.272 -0.121,1.258 -0.065,1.429zm5.131 -5.637c0.115,-0.084 0.267,-0.122 0.372,-0.231 0.202,-0.21 0.177,-0.362 0.225,-0.453 0.074,-0.139 0.598,-0.45 0.736,-0.54 0.531,-0.347 0.99,-0.578 1.479,-1.098 -0.059,-0.017 0.001,-0.035 -0.088,0.028l-2.218 1.53c-0.223,0.149 -0.443,0.196 -0.47,0.524l-0.036 0.24zm-2.959 0.137c0.205,-0.288 0.347,-0.431 0.284,-0.749 -0.035,-0.178 0.012,-0.214 0.112,-0.389 0.311,-0.54 1.117,-1.644 1.168,-2.078 -0.056,0.017 -0.201,0.322 -0.232,0.378 -0.211,0.382 -1.069,1.808 -1.276,2.098 -0.261,0.367 -0.111,0.437 -0.07,0.675l0.014 0.065zm2.472 0.245c0.053,-0.063 0.237,-0.163 0.328,-0.284 0.134,-0.18 0.096,-0.267 0.132,-0.434 0.051,-0.247 0.457,-0.467 0.637,-0.6 0.511,-0.378 0.9,-0.604 1.363,-1.159 -0.056,-0.02 -0.028,-0.018 -0.165,0.106 -0.353,0.32 -1.202,0.958 -1.604,1.258 -0.205,0.152 -0.615,0.447 -0.644,0.68 -0.009,0.072 0.007,0.13 0.005,0.21 -0.002,0.082 -0.02,0.132 -0.052,0.223zm-0.398 0.354c0.066,-0.034 0.24,-0.192 0.292,-0.27 0.094,-0.141 0.088,-0.279 0.066,-0.385 -0.058,-0.277 0.216,-0.442 0.424,-0.62 0.361,-0.308 0.905,-0.784 1.179,-1.22 -0.028,0.007 -0.011,-0.003 -0.04,0.017l-0.574 0.588c-0.353,0.338 -0.974,0.836 -1.239,1.127 -0.108,0.119 -0.148,0.267 -0.134,0.389 0.019,0.172 0.061,0.134 0.026,0.374zm-2.356 -0.06c0.442,-0.731 -0.048,-0.688 0.19,-1.151 0.27,-0.523 0.867,-1.362 1,-1.973 0.012,-0.055 0.025,-0.049 -0.004,-0.078l-0.394 0.796c-0.148,0.281 -0.297,0.56 -0.448,0.841 -0.19,0.351 -0.572,0.895 -0.461,1.2 0.069,0.19 0.077,0.09 0.111,0.331 0.001,0.005 0.003,0.012 0.003,0.016 0.001,0.005 0.002,0.012 0.003,0.018zm-0.233 0.504c0.187,-0.311 0.229,-0.498 0.08,-0.736 -0.158,-0.252 -0.012,-0.435 0.136,-0.744 0.159,-0.333 0.579,-1.28 0.552,-1.546 -0.04,0.054 -0.23,0.627 -0.29,0.771 -0.112,0.266 -0.232,0.527 -0.354,0.792 -0.182,0.395 -0.473,0.83 -0.284,1.132 0.113,0.181 0.11,0.14 0.16,0.331zm7.218 -3.279l-0.031 -0.019c-0.348,0.121 -0.389,0.11 -0.79,0.281 -0.712,0.303 -0.971,0.518 -1.553,0.858 -0.192,0.112 -0.2,0.064 -0.408,0.116 -0.196,0.048 -0.252,0.141 -0.357,0.35 0.062,0.014 0.126,-0.001 0.212,0.018 0.109,0.025 0.125,0.047 0.221,-0.022 0.171,-0.123 0.168,-0.266 0.351,-0.382 0.721,-0.458 1.362,-0.795 2.143,-1.106 0.07,-0.028 0.145,-0.042 0.212,-0.094zm-6.794 2.565l0.032 -0.012c0.236,-0.095 0.153,-0.05 0.386,-0.106 0.219,-0.052 0.417,-0.5 0.586,-0.765 0.242,-0.377 0.556,-0.794 0.887,-1.095 0.114,-0.103 0.222,-0.177 0.328,-0.273 -0.161,-0.011 -0.511,0.325 -0.606,0.422 -0.305,0.314 -0.547,0.717 -0.781,1.09 -0.104,0.164 -0.176,0.184 -0.308,0.207 -0.252,0.044 -0.384,0.238 -0.524,0.532zm2.823 -0.195c0.317,-0.007 0.107,-0.022 0.408,0.042 0.15,0.032 0.262,-0.025 0.372,-0.105 0.585,-0.424 1.337,-0.874 2.048,-1.022 0.061,-0.012 0.057,0.003 0.094,-0.036 -0.478,-0.087 -1.404,0.458 -1.806,0.746 -0.128,0.092 -0.222,0.138 -0.368,0.106 -0.379,-0.081 -0.432,0.019 -0.748,0.269zm-1.083 0.867c0.153,-0.158 0.392,-0.302 0.368,-0.559 -0.025,-0.262 -0.166,-0.301 0.097,-0.596 0.13,-0.145 0.933,-0.937 0.942,-1.041 -0.036,0.008 -1.281,1.168 -1.426,1.596 -0.064,0.19 0.028,0.292 0.035,0.441 0.004,0.072 -0.018,0.096 -0.016,0.159zm-1.293 -1.717c0.442,-0.162 0.377,-0.075 0.465,-0.514 0.048,-0.238 0.89,-1.334 1.09,-1.581 0.075,-0.092 0.552,-0.613 0.556,-0.666 -0.055,0.022 -0.103,0.072 -0.147,0.115l-0.443 0.47c-0.205,0.237 -0.385,0.48 -0.567,0.734 -0.158,0.219 -0.389,0.639 -0.553,0.81 -0.117,0.122 -0.328,0.153 -0.397,0.442l-0.004 0.19zm-0.107 0.498c0.277,-0.064 0.389,-0.086 0.578,-0.437 0.313,-0.584 0.862,-1.296 1.376,-1.712 0.083,-0.067 0.253,-0.181 0.308,-0.246 -0.162,0.012 -0.477,0.27 -0.636,0.42 -0.214,0.202 -0.411,0.448 -0.591,0.703 -0.094,0.133 -0.188,0.26 -0.276,0.398 -0.095,0.149 -0.168,0.308 -0.301,0.347 -0.09,0.025 -0.277,0.044 -0.336,0.126 -0.059,0.082 0.034,0.109 -0.122,0.401zm-0.595 1.043c0.407,-0.159 0.317,0.008 0.567,-0.145 0.245,-0.149 0.734,-1.292 1.371,-1.788 -0.065,-0.018 0.012,-0.031 -0.079,0.011 -0.251,0.114 -0.759,0.868 -0.888,1.072 -0.331,0.52 -0.217,0.298 -0.525,0.352 -0.255,0.045 -0.329,0.263 -0.446,0.498zm-0.273 0.112c-0.037,-0.106 -0.127,-0.171 -0.169,-0.271 -0.123,-0.288 0.519,-1.378 0.462,-1.636 -0.06,0.056 -0.476,1.186 -0.524,1.34 -0.106,0.34 -0.232,0.668 -0.022,0.933 0.116,0.146 0.074,0.164 0.122,0.277 0.111,-0.298 0.22,-0.385 0.131,-0.643zm2.947 -0.468c0.336,0.035 0.028,-0.023 0.359,0.074 0.312,0.091 0.586,-0.184 0.921,-0.413 0.328,-0.223 0.754,-0.459 1.133,-0.588 0.001,0 0.042,-0.016 0.043,-0.016 0.046,-0.02 -0.026,0.023 0.048,-0.025 -0.263,-0.058 -1.045,0.405 -1.242,0.55 -0.077,0.056 -0.217,0.16 -0.292,0.201 -0.274,0.147 -0.445,-0.361 -0.97,0.217zm1.212 -1.022c-0.098,0.144 -0.118,0.221 -0.259,0.313 0.356,0.132 0.548,-0.039 0.763,-0.203 0.211,-0.162 0.504,-0.326 0.73,-0.444 0.574,-0.3 0.842,-0.383 1.419,-0.494l0.119 -0.037c-0.361,-0.102 -1.099,0.226 -1.405,0.377 -0.23,0.113 -0.423,0.238 -0.648,0.364 -0.056,0.031 -0.106,0.066 -0.161,0.101 -0.279,0.174 -0.181,-0.039 -0.558,0.023zm-4.127 1.906c0.379,-0.221 0.43,0.102 0.891,-0.5 0.275,-0.36 0.477,-0.727 0.78,-1.064 -0.048,-0.018 0.004,-0.02 -0.05,0.002 -0.085,0.034 -0.322,0.371 -0.37,0.44 -0.087,0.125 -0.299,0.436 -0.399,0.524 -0.272,0.242 -0.52,-0.254 -0.852,0.598zm2.488 -0.5c0.121,0.005 0.106,-0.036 0.299,0.028 0.108,0.036 0.204,0.044 0.29,0.036 0.111,-0.011 0.388,-0.154 0.523,-0.235 0.229,-0.137 0.53,-0.355 0.754,-0.466 0.073,-0.036 0.207,-0.092 0.266,-0.132 -0.11,-0.043 -0.424,0.154 -0.516,0.211 -1.02,0.634 -0.659,0.241 -1.095,0.247 -0.2,0.002 -0.348,0.114 -0.521,0.311zm-0.659 0.532l0.11 -0.096c0.441,-0.456 0.103,-0.474 0.169,-0.849l0.003 -0.075c-0.213,0.277 -0.441,0.408 -0.314,0.761 0.031,0.085 0.039,0.169 0.032,0.259zm-2.046 0.504c0.102,-0.048 0.112,-0.087 0.229,-0.1 0.413,-0.048 0.354,-0.122 0.633,-0.525 -0.077,-0.007 -0.048,0.008 -0.137,0.042 -0.139,0.053 -0.228,-0.002 -0.391,0.069 -0.148,0.065 -0.328,0.359 -0.334,0.514zm2.266 -0.622c0.509,-0.104 0.449,0.265 1.067,-0.263 -0.116,-0.015 -0.153,0.017 -0.294,-0.035 -0.112,-0.042 -0.201,-0.057 -0.291,-0.045 -0.179,0.021 -0.32,0.179 -0.482,0.343zm-2.549 -0.221c-0.059,0.212 -0.149,0.374 -0.134,0.572 0.015,0.199 0.171,0.205 0.251,0.487 0.242,-0.427 0.149,-0.59 -0.026,-0.819 -0.108,-0.141 -0.04,-0.157 -0.091,-0.24zm2.306 0.458c0.236,0.014 0.296,0.078 0.42,0.08 0.12,0.002 0.28,-0.068 0.356,-0.195 -0.419,-0.075 -0.43,-0.195 -0.776,0.115zm-2.173 0.715c0.006,0 0.013,-0.002 0.017,-0.003 0.192,-0.046 0.318,-0.048 0.372,-0.063 0.155,-0.042 0.201,-0.165 0.279,-0.322 -0.427,0.08 -0.444,-0.047 -0.668,0.388z"/>
  </g>
 </g>
</svg>
